<svg width="20" height="20" viewBox="0 0 20 20" fill="none" xmlns="http://www.w3.org/2000/svg">
<path fill-rule="evenodd" clip-rule="evenodd" d="M4.55778 10.3304H13.9509L11.0748 13.7821C10.7945 14.1177 10.8404 14.6173 11.1761 14.8967C11.5126 15.177 12.0113 15.1311 12.2916 14.7954L16.2499 10.0454C16.2808 10.0082 16.2958 9.96465 16.3188 9.92349C16.3378 9.89024 16.3607 9.86174 16.375 9.82532C16.4106 9.73428 16.432 9.63849 16.432 9.5419C16.432 9.54111 16.4328 9.53953 16.4328 9.53874C16.4328 9.53795 16.432 9.53636 16.432 9.53557C16.432 9.43899 16.4106 9.3432 16.375 9.25215C16.3607 9.21574 16.3378 9.18724 16.3188 9.15399C16.2958 9.11282 16.2808 9.06928 16.2499 9.03207L12.2916 4.28207C12.134 4.09445 11.9092 3.99707 11.6828 3.99707C11.5039 3.99707 11.3242 4.05724 11.1761 4.18074C10.8404 4.4602 10.7945 4.95974 11.0748 5.2954L13.9509 8.74707H4.55778C4.12078 8.74707 3.76611 9.10174 3.76611 9.53874C3.76611 9.97574 4.12078 10.3304 4.55778 10.3304Z" fill="white"/>
<mask id="mask0" mask-type="alpha" maskUnits="userSpaceOnUse" x="3" y="3" width="14" height="13">
<path fill-rule="evenodd" clip-rule="evenodd" d="M4.55778 10.3304H13.9509L11.0748 13.7821C10.7945 14.1177 10.8404 14.6173 11.1761 14.8967C11.5126 15.177 12.0113 15.1311 12.2916 14.7954L16.2499 10.0454C16.2808 10.0082 16.2958 9.96465 16.3188 9.92349C16.3378 9.89024 16.3607 9.86174 16.375 9.82532C16.4106 9.73428 16.432 9.63849 16.432 9.5419C16.432 9.54111 16.4328 9.53953 16.4328 9.53874C16.4328 9.53795 16.432 9.53636 16.432 9.53557C16.432 9.43899 16.4106 9.3432 16.375 9.25215C16.3607 9.21574 16.3378 9.18724 16.3188 9.15399C16.2958 9.11282 16.2808 9.06928 16.2499 9.03207L12.2916 4.28207C12.134 4.09445 11.9092 3.99707 11.6828 3.99707C11.5039 3.99707 11.3242 4.05724 11.1761 4.18074C10.8404 4.4602 10.7945 4.95974 11.0748 5.2954L13.9509 8.74707H4.55778C4.12078 8.74707 3.76611 9.10174 3.76611 9.53874C3.76611 9.97574 4.12078 10.3304 4.55778 10.3304Z" fill="white"/>
</mask>
<g mask="url(#mask0)">
<rect x="0.599609" y="0.0385742" width="19" height="19" fill="white"/>
</g>
</svg>
