<svg width="15" height="15" viewBox="0 0 15 15" fill="none" xmlns="http://www.w3.org/2000/svg">
<path fill-rule="evenodd" clip-rule="evenodd" d="M3.125 8.125H10.5406L8.27 10.85C8.04875 11.115 8.085 11.5094 8.35 11.73C8.61562 11.9513 9.00938 11.915 9.23063 11.65L12.3556 7.9C12.38 7.87063 12.3919 7.83625 12.41 7.80375C12.425 7.7775 12.4431 7.755 12.4544 7.72625C12.4825 7.65438 12.4994 7.57875 12.4994 7.5025C12.4994 7.50187 12.5 7.50063 12.5 7.5C12.5 7.49937 12.4994 7.49813 12.4994 7.4975C12.4994 7.42125 12.4825 7.34562 12.4544 7.27375C12.4431 7.245 12.425 7.2225 12.41 7.19625C12.3919 7.16375 12.38 7.12937 12.3556 7.1L9.23063 3.35C9.10625 3.20188 8.92875 3.125 8.75 3.125C8.60875 3.125 8.46687 3.1725 8.35 3.27C8.085 3.49062 8.04875 3.885 8.27 4.15L10.5406 6.875H3.125C2.78 6.875 2.5 7.155 2.5 7.5C2.5 7.845 2.78 8.125 3.125 8.125Z" fill="#CB4B14"/>
<mask id="mask0" mask-type="alpha" maskUnits="userSpaceOnUse" x="2" y="3" width="11" height="9">
<path fill-rule="evenodd" clip-rule="evenodd" d="M3.125 8.125H10.5406L8.27 10.85C8.04875 11.115 8.085 11.5094 8.35 11.73C8.61562 11.9513 9.00938 11.915 9.23063 11.65L12.3556 7.9C12.38 7.87063 12.3919 7.83625 12.41 7.80375C12.425 7.7775 12.4431 7.755 12.4544 7.72625C12.4825 7.65438 12.4994 7.57875 12.4994 7.5025C12.4994 7.50187 12.5 7.50063 12.5 7.5C12.5 7.49937 12.4994 7.49813 12.4994 7.4975C12.4994 7.42125 12.4825 7.34562 12.4544 7.27375C12.4431 7.245 12.425 7.2225 12.41 7.19625C12.3919 7.16375 12.38 7.12937 12.3556 7.1L9.23063 3.35C9.10625 3.20188 8.92875 3.125 8.75 3.125C8.60875 3.125 8.46687 3.1725 8.35 3.27C8.085 3.49062 8.04875 3.885 8.27 4.15L10.5406 6.875H3.125C2.78 6.875 2.5 7.155 2.5 7.5C2.5 7.845 2.78 8.125 3.125 8.125Z" fill="white"/>
</mask>
<g mask="url(#mask0)">
<rect width="15" height="15" fill="#CB4B14"/>
</g>
</svg>
