<svg width="29" height="29" viewBox="0 0 29 29" fill="none" xmlns="http://www.w3.org/2000/svg">
<path d="M29 14.5C29 11.6322 28.1496 8.82875 26.5563 6.44424C24.963 4.05972 22.6984 2.20122 20.0489 1.10375C17.3994 0.00628262 14.4839 -0.280866 11.6712 0.27862C8.85847 0.838105 6.27482 2.2191 4.24696 4.24696C2.2191 6.27482 0.838105 8.85847 0.27862 11.6712C-0.280866 14.4839 0.00628262 17.3994 1.10375 20.0489C2.20122 22.6984 4.05972 24.963 6.44424 26.5563C8.82875 28.1496 11.6322 29 14.5 29C18.3456 29 22.0338 27.4723 24.753 24.753C27.4723 22.0338 29 18.3456 29 14.5ZM11.803 19.8505L7.656 15.5005C7.59464 15.4376 7.54547 15.3638 7.511 15.283C7.44943 15.2148 7.40035 15.1362 7.366 15.051C7.28929 14.8774 7.24967 14.6898 7.24967 14.5C7.24967 14.3102 7.28929 14.1226 7.366 13.949C7.43502 13.771 7.5385 13.6084 7.6705 13.4705L12.0205 9.1205C12.2935 8.84746 12.6639 8.69407 13.05 8.69407C13.4361 8.69407 13.8065 8.84746 14.0795 9.1205C14.3525 9.39354 14.5059 9.76387 14.5059 10.15C14.5059 10.5361 14.3525 10.9065 14.0795 11.1795L12.1945 13.05H20.3C20.6846 13.05 21.0534 13.2028 21.3253 13.4747C21.5972 13.7466 21.75 14.1154 21.75 14.5C21.75 14.8846 21.5972 15.2534 21.3253 15.5253C21.0534 15.7972 20.6846 15.95 20.3 15.95H12.093L13.9055 17.8495C14.1709 18.1283 14.3146 18.5011 14.3051 18.8859C14.2955 19.2707 14.1336 19.6359 13.8548 19.9013C13.5759 20.1666 13.2031 20.3103 12.8184 20.3008C12.4336 20.2913 12.0684 20.1293 11.803 19.8505Z" fill="white"/>
</svg>
