<svg width="35" height="35" viewBox="0 0 35 35" fill="none" xmlns="http://www.w3.org/2000/svg">
<path d="M17.5001 2.9165C14.6158 2.9165 11.7962 3.7718 9.39802 5.37424C6.9998 6.97668 5.13062 9.25428 4.02684 11.919C2.92307 14.5838 2.63427 17.516 3.19697 20.3449C3.75967 23.1738 5.1486 25.7723 7.18811 27.8118C9.22763 29.8513 11.8261 31.2403 14.655 31.803C17.4839 32.3657 20.4161 32.0769 23.0809 30.9731C25.7456 29.8693 28.0232 28.0001 29.6257 25.6019C31.2281 23.2037 32.0834 20.3841 32.0834 17.4998C32.0834 15.5847 31.7062 13.6884 30.9733 11.919C30.2405 10.1497 29.1662 8.54205 27.8121 7.18786C26.4579 5.83368 24.8502 4.75948 23.0809 4.02659C21.3116 3.29371 19.4152 2.9165 17.5001 2.9165ZM23.7709 14.0144L17.1063 22.7644C16.9705 22.9409 16.796 23.0839 16.5963 23.1825C16.3966 23.2811 16.177 23.3326 15.9543 23.3332C15.7327 23.3344 15.5139 23.2851 15.3143 23.1891C15.1146 23.093 14.9395 22.9528 14.8022 22.779L11.2438 18.2436C11.1261 18.0923 11.0392 17.9193 10.9883 17.7344C10.9374 17.5496 10.9234 17.3565 10.9471 17.1663C10.9708 16.976 11.0317 16.7923 11.1264 16.6255C11.2211 16.4588 11.3478 16.3124 11.499 16.1946C11.8046 15.9568 12.1921 15.85 12.5764 15.8979C12.7666 15.9216 12.9504 15.9825 13.1171 16.0772C13.2838 16.1719 13.4302 16.2985 13.548 16.4498L15.9251 19.4832L21.4376 12.1915C21.5544 12.0383 21.7003 11.9096 21.8668 11.8128C22.0334 11.7159 22.2174 11.6528 22.4083 11.6271C22.5993 11.6014 22.7934 11.6135 22.9797 11.6628C23.1659 11.7121 23.3406 11.7976 23.4938 11.9144C23.647 12.0312 23.7757 12.1771 23.8726 12.3437C23.9694 12.5102 24.0325 12.6942 24.0582 12.8852C24.084 13.0761 24.0718 13.2702 24.0225 13.4565C23.9732 13.6427 23.8877 13.8175 23.7709 13.9707V14.0144Z" fill="#FF8445"/>
</svg>
