<svg width="40" height="40" viewBox="0 0 40 40" fill="none" xmlns="http://www.w3.org/2000/svg">
<g filter="url(#filter0_d)">
<rect x="10" y="6" width="20" height="20" rx="10" fill="white"/>
<path d="M20 7.66667C18.3518 7.66667 16.7406 8.15541 15.3702 9.07109C13.9998 9.98677 12.9317 11.2883 12.301 12.811C11.6702 14.3337 11.5052 16.0092 11.8268 17.6258C12.1483 19.2423 12.942 20.7271 14.1074 21.8926C15.2728 23.058 16.7577 23.8517 18.3742 24.1732C19.9907 24.4948 21.6663 24.3297 23.189 23.699C24.7117 23.0683 26.0132 22.0002 26.9289 20.6298C27.8446 19.2593 28.3333 17.6482 28.3333 16C28.3333 14.9057 28.1177 13.822 27.699 12.811C27.2802 11.7999 26.6663 10.8813 25.8925 10.1074C25.1187 9.33363 24.2 8.7198 23.189 8.30101C22.1779 7.88222 21.0943 7.66667 20 7.66667ZM23.5833 14.0083L19.775 19.0083C19.6973 19.1092 19.5976 19.1909 19.4835 19.2472C19.3694 19.3036 19.2439 19.333 19.1166 19.3333C18.9901 19.334 18.865 19.3059 18.7509 19.251C18.6368 19.1961 18.5368 19.116 18.4583 19.0167L16.425 16.425C16.3577 16.3386 16.308 16.2397 16.2789 16.1341C16.2499 16.0284 16.2418 15.9181 16.2554 15.8094C16.2689 15.7007 16.3038 15.5957 16.3579 15.5004C16.412 15.4051 16.4843 15.3215 16.5708 15.2542C16.7454 15.1182 16.9668 15.0573 17.1864 15.0846C17.2951 15.0981 17.4001 15.133 17.4954 15.1871C17.5907 15.2412 17.6743 15.3136 17.7416 15.4L19.1 17.1333L22.25 12.9667C22.3167 12.8791 22.4001 12.8056 22.4952 12.7502C22.5904 12.6949 22.6956 12.6589 22.8047 12.6442C22.9138 12.6295 23.0247 12.6364 23.1311 12.6646C23.2376 12.6927 23.3374 12.7416 23.425 12.8083C23.5125 12.8751 23.5861 12.9584 23.6414 13.0536C23.6967 13.1488 23.7328 13.2539 23.7475 13.363C23.7622 13.4722 23.7552 13.5831 23.7271 13.6895C23.6989 13.796 23.6501 13.8958 23.5833 13.9833V14.0083Z" fill="#2F80ED"/>
</g>
<defs>
<filter id="filter0_d" x="0" y="0" width="40" height="40" filterUnits="userSpaceOnUse" color-interpolation-filters="sRGB">
<feFlood flood-opacity="0" result="BackgroundImageFix"/>
<feColorMatrix in="SourceAlpha" type="matrix" values="0 0 0 0 0 0 0 0 0 0 0 0 0 0 0 0 0 0 127 0"/>
<feOffset dy="4"/>
<feGaussianBlur stdDeviation="5"/>
<feColorMatrix type="matrix" values="0 0 0 0 0 0 0 0 0 0 0 0 0 0 0 0 0 0 0.25 0"/>
<feBlend mode="normal" in2="BackgroundImageFix" result="effect1_dropShadow"/>
<feBlend mode="normal" in="SourceGraphic" in2="effect1_dropShadow" result="shape"/>
</filter>
</defs>
</svg>
