<svg width="10" height="9" viewBox="0 0 10 9" fill="none" xmlns="http://www.w3.org/2000/svg">
<path d="M5 8.16669C4.78726 8.16561 4.57742 8.1172 4.38572 8.02495C4.19401 7.9327 4.02525 7.79893 3.89166 7.63335L0.38333 3.38335C0.178325 3.12749 0.0493183 2.81919 0.0110109 2.49358C-0.0272965 2.16796 0.0266361 1.83814 0.166663 1.54169C0.28023 1.28404 0.465558 1.06453 0.700513 0.909372C0.935468 0.754213 1.21012 0.669965 1.49166 0.666687H8.50833C8.78988 0.669965 9.06453 0.754213 9.29948 0.909372C9.53444 1.06453 9.71977 1.28404 9.83333 1.54169C9.97336 1.83814 10.0273 2.16796 9.98899 2.49358C9.95068 2.81919 9.82167 3.12749 9.61667 3.38335L6.10833 7.63335C5.97475 7.79893 5.80598 7.9327 5.61428 8.02495C5.42258 8.1172 5.21274 8.16561 5 8.16669Z" fill="#27AE60"/>
</svg>
