<svg width="16" height="9" viewBox="0 0 16 9" fill="none" xmlns="http://www.w3.org/2000/svg">
<path d="M8.00003 7.99979C7.76638 8.00024 7.53994 7.91887 7.36003 7.76979L1.36003 2.76979C1.15581 2.60005 1.02739 2.35614 1.00301 2.09171C0.978631 1.82728 1.06029 1.564 1.23003 1.35979C1.39977 1.15557 1.64368 1.02715 1.90811 1.00277C2.17253 0.978387 2.43581 1.06005 2.64003 1.22979L8.00003 5.70979L13.36 1.38979C13.4623 1.30672 13.58 1.24469 13.7064 1.20726C13.8327 1.16983 13.9652 1.15773 14.0962 1.17167C14.2272 1.18561 14.3542 1.22531 14.4699 1.28848C14.5855 1.35166 14.6875 1.43706 14.77 1.53979C14.8616 1.64261 14.931 1.76324 14.9738 1.89411C15.0166 2.02498 15.0319 2.16328 15.0187 2.30035C15.0056 2.43741 14.9643 2.57028 14.8974 2.69064C14.8305 2.811 14.7395 2.91624 14.63 2.99979L8.63003 7.82979C8.44495 7.9553 8.22313 8.01516 8.00003 7.99979Z" fill="#FF8445"/>
</svg>
