<svg width="15" height="14" viewBox="0 0 15 14" fill="none" xmlns="http://www.w3.org/2000/svg">
<path d="M14.0777 3.11667L11.7414 0.833337C11.4365 0.553417 11.0369 0.392803 10.6187 0.382047C10.2005 0.371291 9.79289 0.511145 9.47333 0.775004L1.79936 8.275C1.52375 8.54664 1.35214 8.90267 1.31334 9.28334L0.946699 12.7583C0.935213 12.8804 0.951418 13.0034 0.994159 13.1187C1.0369 13.2339 1.10513 13.3385 1.19397 13.425C1.27364 13.5022 1.36813 13.5633 1.47202 13.6048C1.57591 13.6463 1.68715 13.6673 1.79936 13.6667H1.8761L5.43171 13.35C5.8212 13.3121 6.18549 13.1444 6.46343 12.875L14.1374 5.375C14.4352 5.06748 14.5962 4.65709 14.585 4.23378C14.5738 3.81047 14.3914 3.40876 14.0777 3.11667ZM11.1787 5.9L8.89352 3.66667L10.5562 2L12.884 4.275L11.1787 5.9Z" fill="black"/>
</svg>
