<svg width="40" height="40" viewBox="0 0 40 40" fill="none" xmlns="http://www.w3.org/2000/svg">
<g clip-path="url(#clip0)">
<path d="M23.225 39.7402C23.0583 39.7676 22.8917 39.7926 22.725 39.8152C22.8917 39.7926 23.0583 39.7676 23.225 39.7402Z" fill="white"/>
<path d="M23.625 39.6709L23.386 39.7129L23.625 39.6709Z" fill="white"/>
<path d="M22.279 39.8701C22.0843 39.8921 21.8883 39.9115 21.691 39.9281C21.883 39.9115 22.079 39.8921 22.279 39.8701Z" fill="white"/>
<path d="M22.66 39.8232L22.378 39.8582L22.66 39.8232Z" fill="white"/>
<path d="M24.169 39.563L23.958 39.607L24.169 39.563Z" fill="white"/>
<path d="M25.521 39.2271L25.351 39.274L25.521 39.2271Z" fill="white"/>
<path d="M25.112 39.3389L24.926 39.3869L25.112 39.3389Z" fill="white"/>
<path d="M24.578 39.4731L24.378 39.5172L24.578 39.4731Z" fill="white"/>
<path d="M21.685 39.9292L21.369 39.9532L21.685 39.9292Z" fill="white"/>
<path d="M40 20C40 16.0444 38.827 12.1776 36.6294 8.8886C34.4318 5.59962 31.3082 3.03617 27.6537 1.52242C23.9991 0.00866568 19.9778 -0.387401 16.0982 0.384303C12.2186 1.15601 8.65492 3.06082 5.85787 5.85787C3.06082 8.65492 1.156 12.2186 0.384296 16.0982C-0.387409 19.9778 0.00865805 23.9992 1.52241 27.6537C3.03616 31.3082 5.59961 34.4318 8.8886 36.6294C12.1776 38.827 16.0444 40 20 40C20.117 40 20.234 40 20.352 40V24.426H16.052V19.419H20.352V15.734C20.352 11.46 22.961 9.13401 26.773 9.13401C28.0597 9.13056 29.3456 9.19733 30.625 9.33401V13.8H28C25.926 13.8 25.524 14.786 25.524 16.232V19.421H30.48L29.834 24.429H25.521V39.229C29.6939 38.0286 33.3631 35.5036 35.9749 32.0349C38.5868 28.5662 39.9995 24.3421 40 20Z" fill="white"/>
<path d="M21.321 39.9561C21.113 39.9694 20.904 39.9797 20.694 39.9871C20.904 39.9797 21.113 39.9694 21.321 39.9561Z" fill="white"/>
<path d="M20.684 39.9868L20.352 39.9948L20.684 39.9868Z" fill="white"/>
</g>
<defs>
<clipPath id="clip0">
<rect width="40" height="40" fill="white"/>
</clipPath>
</defs>
</svg>
