<svg width="40" height="40" viewBox="0 0 40 40" fill="none" xmlns="http://www.w3.org/2000/svg">
<g clip-path="url(#clip0)">
<path d="M23.828 19.9999C23.828 20.757 23.6035 21.4971 23.1829 22.1266C22.7622 22.7561 22.1644 23.2468 21.4649 23.5365C20.7654 23.8262 19.9957 23.902 19.2532 23.7543C18.5106 23.6066 17.8286 23.242 17.2932 22.7067C16.7578 22.1713 16.3932 21.4892 16.2455 20.7467C16.0978 20.0041 16.1736 19.2344 16.4634 18.535C16.7531 17.8355 17.2438 17.2376 17.8733 16.817C18.5028 16.3964 19.2429 16.1719 20 16.1719C21.0152 16.1719 21.9889 16.5752 22.7068 17.2931C23.4247 18.011 23.828 18.9846 23.828 19.9999Z" fill="white"/>
<path d="M28.952 13.2271C28.7611 12.7316 28.4685 12.2816 28.093 11.9061C27.7175 11.5306 27.2675 11.238 26.772 11.0471C26.0895 10.7925 25.3683 10.6572 24.64 10.6471C23.429 10.5921 23.066 10.5801 19.999 10.5801C16.932 10.5801 16.569 10.5921 15.358 10.6471C14.6297 10.6573 13.9085 10.7926 13.226 11.0471C12.7305 11.238 12.2805 11.5306 11.905 11.9061C11.5295 12.2816 11.2369 12.7316 11.046 13.2271C10.7914 13.9099 10.6561 14.6314 10.646 15.3601C10.591 16.5711 10.579 16.9341 10.579 20.0011C10.579 23.0681 10.591 23.4311 10.646 24.6421C10.6561 25.3704 10.7914 26.0916 11.046 26.7741C11.2369 27.2696 11.5295 27.7196 11.905 28.0951C12.2805 28.4706 12.7305 28.7632 13.226 28.9541C13.9088 29.2089 14.6303 29.3442 15.359 29.3541C16.57 29.4091 16.933 29.4211 19.999 29.4211C23.065 29.4211 23.429 29.4091 24.64 29.3541C25.3687 29.3442 26.0902 29.2089 26.773 28.9541C27.2685 28.7632 27.7185 28.4706 28.094 28.0951C28.4695 27.7196 28.7621 27.2696 28.953 26.7741C29.2074 26.0916 29.3427 25.3704 29.353 24.6421C29.408 23.4311 29.42 23.0681 29.42 20.0011C29.42 16.9341 29.408 16.5711 29.353 15.3601C29.3428 14.6313 29.2072 13.9098 28.952 13.2271ZM20 25.8971C18.8331 25.8971 17.6924 25.551 16.7221 24.9027C15.7519 24.2544 14.9957 23.333 14.5491 22.2549C14.1026 21.1768 13.9857 19.9905 14.2134 18.846C14.441 17.7016 15.0029 16.6503 15.8281 15.8251C16.6532 15 17.7045 14.4381 18.849 14.2104C19.9934 13.9828 21.1798 14.0996 22.2578 14.5462C23.3359 14.9927 24.2574 15.749 24.9057 16.7192C25.554 17.6895 25.9 18.8302 25.9 19.9971C25.9 21.5618 25.2784 23.0625 24.1719 24.169C23.0655 25.2755 21.5648 25.8971 20 25.8971ZM26.13 15.2481C25.8575 15.2481 25.591 15.1673 25.3644 15.0158C25.1378 14.8644 24.9612 14.6492 24.8569 14.3974C24.7526 14.1456 24.7253 13.8685 24.7785 13.6012C24.8317 13.3339 24.9629 13.0884 25.1556 12.8957C25.3483 12.703 25.5939 12.5717 25.8612 12.5186C26.1285 12.4654 26.4055 12.4927 26.6573 12.597C26.9091 12.7013 27.1243 12.8779 27.2758 13.1045C27.4272 13.3311 27.508 13.5975 27.508 13.8701C27.508 14.2355 27.3628 14.586 27.1044 14.8445C26.846 15.1029 26.4955 15.2481 26.13 15.2481Z" fill="white"/>
<path d="M20 0C16.0444 0 12.1776 1.17298 8.8886 3.37061C5.59961 5.56824 3.03616 8.69181 1.52241 12.3463C0.00865805 16.0009 -0.387409 20.0222 0.384296 23.9018C1.156 27.7814 3.06082 31.3451 5.85787 34.1421C8.65492 36.9392 12.2186 38.844 16.0982 39.6157C19.9778 40.3874 23.9991 39.9913 27.6537 38.4776C31.3082 36.9638 34.4318 34.4004 36.6294 31.1114C38.827 27.8224 40 23.9556 40 20C40 14.6957 37.8929 9.60859 34.1421 5.85786C30.3914 2.10714 25.3043 0 20 0V0ZM31.415 24.735C31.396 25.6878 31.2154 26.6306 30.881 27.523C30.586 28.286 30.1348 28.9789 29.5563 29.5573C28.9779 30.1358 28.285 30.587 27.522 30.882C26.6298 31.2162 25.6875 31.3967 24.735 31.416C23.51 31.472 23.119 31.485 20 31.485C16.881 31.485 16.49 31.472 15.265 31.416C14.3125 31.3967 13.3702 31.2162 12.478 30.882C11.715 30.587 11.0221 30.1358 10.4437 29.5573C9.86523 28.9789 9.41403 28.286 9.119 27.523C8.78469 26.6309 8.60412 25.6885 8.585 24.736C8.529 23.511 8.515 23.12 8.515 20.001C8.515 16.882 8.528 16.491 8.584 15.266C8.60275 14.3132 8.78297 13.3705 9.117 12.478C9.41225 11.7151 9.86352 11.0223 10.4419 10.4439C11.0203 9.86552 11.7131 9.41425 12.476 9.119C13.3685 8.78476 14.3112 8.6042 15.264 8.585C16.489 8.529 16.88 8.516 19.999 8.516C23.118 8.516 23.509 8.529 24.734 8.586C25.6868 8.6049 26.6294 8.78512 27.522 9.119C28.2849 9.41414 28.9778 9.86537 29.5562 10.4438C30.1346 11.0222 30.5859 11.7151 30.881 12.478C31.2154 13.3704 31.396 14.3132 31.415 15.266C31.471 16.491 31.484 16.882 31.484 20.001C31.484 23.12 31.471 23.51 31.415 24.735Z" fill="white"/>
</g>
<defs>
<clipPath id="clip0">
<rect width="40" height="40" fill="white"/>
</clipPath>
</defs>
</svg>
