<svg width="39" height="39" viewBox="0 0 39 39" fill="none" xmlns="http://www.w3.org/2000/svg">
<path d="M19.5 0.75C15.7916 0.75 12.1665 1.84967 9.08307 3.90994C5.99964 5.97022 3.59641 8.89857 2.17727 12.3247C0.758124 15.7508 0.386812 19.5208 1.11028 23.1579C1.83376 26.7951 3.61952 30.136 6.24176 32.7582C8.86399 35.3805 12.2049 37.1662 15.8421 37.8897C19.4792 38.6132 23.2492 38.2419 26.6753 36.8227C30.1014 35.4036 33.0298 33.0004 35.0901 29.9169C37.1503 26.8335 38.25 23.2084 38.25 19.5C38.25 17.0377 37.765 14.5995 36.8228 12.3247C35.8805 10.0498 34.4994 7.98284 32.7583 6.24175C31.0172 4.50065 28.9502 3.11953 26.6753 2.17726C24.4005 1.23498 21.9623 0.75 19.5 0.75ZM24.5813 21.9187C24.757 22.0931 24.8965 22.3004 24.9917 22.5289C25.0869 22.7574 25.1359 23.0025 25.1359 23.25C25.1359 23.4975 25.0869 23.7426 24.9917 23.9711C24.8965 24.1996 24.757 24.4069 24.5813 24.5812C24.407 24.757 24.1996 24.8965 23.9711 24.9917C23.7426 25.0869 23.4975 25.1359 23.25 25.1359C23.0025 25.1359 22.7574 25.0869 22.5289 24.9917C22.3004 24.8965 22.0931 24.757 21.9188 24.5812L19.5 22.1437L17.0813 24.5812C16.907 24.757 16.6996 24.8965 16.4711 24.9917C16.2426 25.0869 15.9975 25.1359 15.75 25.1359C15.5025 25.1359 15.2574 25.0869 15.0289 24.9917C14.8004 24.8965 14.5931 24.757 14.4188 24.5812C14.243 24.4069 14.1035 24.1996 14.0083 23.9711C13.9131 23.7426 13.8641 23.4975 13.8641 23.25C13.8641 23.0025 13.9131 22.7574 14.0083 22.5289C14.1035 22.3004 14.243 22.0931 14.4188 21.9187L16.8563 19.5L14.4188 17.0812C14.0657 16.7282 13.8673 16.2493 13.8673 15.75C13.8673 15.2507 14.0657 14.7718 14.4188 14.4187C14.7718 14.0657 15.2507 13.8673 15.75 13.8673C16.2493 13.8673 16.7282 14.0657 17.0813 14.4187L19.5 16.8562L21.9188 14.4187C22.2718 14.0657 22.7507 13.8673 23.25 13.8673C23.7493 13.8673 24.2282 14.0657 24.5813 14.4187C24.9343 14.7718 25.1327 15.2507 25.1327 15.75C25.1327 16.2493 24.9343 16.7282 24.5813 17.0812L22.1438 19.5L24.5813 21.9187Z" fill="#828282"/>
</svg>
