<svg width="64" height="125" viewBox="0 0 64 125" fill="none" xmlns="http://www.w3.org/2000/svg">
<path d="M49.0105 5.65967V13.9536L55.3395 8.58233L49.0105 5.65967Z" fill="white"/>
<path d="M44.3668 0.507069C42.7297 -0.0798086 40.9502 -0.159286 39.2662 0.279249C37.5821 0.717785 36.0735 1.65346 34.942 2.96131L2.64304 40.2509H30.3583H30.7801V45.4288L37.9585 46.6426C38.042 46.2781 38.0412 45.8996 37.9562 45.5354C37.8711 45.1713 37.704 44.8307 37.4673 44.5392C37.2306 44.2477 36.9303 44.0126 36.5889 43.8516C36.2475 43.6906 35.8737 43.6077 35.4954 43.6092H32.6743V40.1228C37.0256 39.6446 41.0912 37.7465 44.2275 34.7288C46.0453 33.0018 47.4913 30.9298 48.4788 28.6372C49.4663 26.3447 49.9749 23.8787 49.9741 21.3872V8.19855C49.9741 4.71406 47.7722 1.69978 44.3629 0.50898L44.3668 0.507069ZM48.0779 21.3853C48.0795 23.6361 47.6207 25.8641 46.7289 27.9353C45.8372 30.0066 44.5309 31.8785 42.8885 33.4386C39.535 36.6581 35.0364 38.4488 30.3602 38.4255H6.68501L36.3951 4.12726C38.5815 1.6023 41.6193 1.48571 43.7206 2.21586C45.8218 2.94602 48.0779 4.90329 48.0779 8.1909V21.3796V21.3853Z" fill="white"/>
<path d="M48.0779 12.3193L25.9777 13.3477L0 42.7085H1.93488C15.2643 42.7085 27.781 37.2018 36.2751 27.6085L48.0779 14.7449V13.3878V12.3193Z" fill="white"/>
<path d="M56.4714 91.8718H50.5661V77.7714C50.563 73.0187 49.0287 68.3902 46.1856 64.5561C44.5627 62.348 42.5686 60.4312 40.29 58.8888C49.6026 61.3239 56.4714 69.5276 56.4714 79.2451V91.8737V91.8718ZM56.4714 116.802H50.5681V94.3069H56.4714V116.802ZM48.0353 91.8718H35.8049V59.7833V59.1564C39.1086 60.6997 41.9664 63.039 44.1152 65.959C46.6577 69.385 48.03 73.5216 48.0334 77.7695V91.8737L48.0353 91.8718ZM48.0353 116.802H35.8107V111.336H44.6106V94.305H48.0392V116.802H48.0353ZM35.8107 106.184H42.0798V108.904H35.8107V106.182V106.184ZM35.8107 94.4082H42.0836V103.751H35.8088L35.8107 94.4082ZM32.4847 49.5879C32.4739 49.1832 32.5855 48.7845 32.8053 48.4428C33.0251 48.1011 33.343 47.8318 33.7185 47.6695C34.094 47.5072 34.5099 47.4592 34.9131 47.5316C35.3163 47.604 35.6886 47.7935 35.9822 48.076C36.2758 48.3584 36.4775 48.7209 36.5615 49.1172C36.6455 49.5134 36.608 49.9255 36.4538 50.3006C36.2995 50.6756 36.0355 50.9968 35.6956 51.2229C35.3557 51.449 34.9552 51.5699 34.5453 51.57C34.0063 51.5762 33.4868 51.371 33.1005 50.9995C32.7143 50.628 32.4928 50.1204 32.4847 49.5879ZM21.0515 116.802V94.3069H24.4801V111.337H33.2799V116.802H21.0515ZM18.5226 91.8718H12.6173V79.2451C12.6173 69.5276 19.4862 61.322 28.7987 58.8888C26.5038 60.4456 24.4976 62.3815 22.8683 64.6115C20.048 68.4377 18.5267 73.0479 18.5226 77.781V91.8833V91.8718ZM18.5226 116.802H12.6193V94.3069H18.5226V116.802ZM33.2799 91.8718H21.0515V77.7714C21.0544 73.5415 22.4146 69.4213 24.9367 66.003C27.09 63.0639 29.9598 60.7095 33.2799 59.1583V91.8718ZM33.2799 103.751H27.0109V94.4063H33.2799V103.751ZM33.2799 108.912H27.009V106.184H33.2799V108.904V108.912ZM35.8107 55.756V53.8446C36.7575 53.5917 37.5947 53.0401 38.1948 52.2737C38.7949 51.5073 39.125 50.5682 39.1349 49.5994C39.1349 47.1662 37.0762 45.1841 34.5453 45.1841C32.0145 45.1841 29.9539 47.1662 29.9539 49.5994C29.9665 50.5663 30.2981 51.5027 30.8984 52.2664C31.4987 53.0302 32.3348 53.5796 33.2799 53.8312V55.7426C20.3781 56.3925 10.0885 66.6815 10.0885 79.2432V119.233H59.0138V79.2432C59.0138 66.6815 48.7183 56.3849 35.8204 55.7484" fill="white"/>
<path d="M64 116.78H5.08873V124.698H64V116.78Z" fill="white"/>
<path d="M44.3436 7.24829C44.3436 7.51295 44.2641 7.77166 44.1153 7.99172C43.9665 8.21177 43.755 8.38329 43.5075 8.48457C43.26 8.58585 42.9876 8.61235 42.7249 8.56071C42.4622 8.50908 42.2209 8.38164 42.0314 8.19449C41.842 8.00735 41.713 7.76892 41.6608 7.50935C41.6085 7.24977 41.6353 6.98072 41.7378 6.73621C41.8403 6.4917 42.0139 6.28271 42.2367 6.13567C42.4594 5.98864 42.7213 5.91016 42.9892 5.91016C43.167 5.91016 43.3431 5.94477 43.5075 6.01202C43.6718 6.07926 43.8211 6.17783 43.9469 6.30209C44.0726 6.42634 44.1724 6.57386 44.2405 6.73621C44.3085 6.89856 44.3436 7.07256 44.3436 7.24829Z" fill="white"/>
</svg>
