<svg width="162" height="94" viewBox="0 0 162 94" fill="none" xmlns="http://www.w3.org/2000/svg">
<g clip-path="url(#clip0)">
<path d="M36.2153 4.1532V10.2471L40.828 6.30187L36.2153 4.1532Z" fill="#FF8445"/>
<path d="M32.8302 0.36877C30.3471 -0.501789 27.6497 0.205194 25.9627 2.17088L2.42627 29.5658L22.6223 29.5685C22.7253 29.5685 22.8282 29.5658 22.9312 29.563V33.3668L28.1619 34.2568C28.418 33.1118 27.5439 32.0277 26.3664 32.0277H24.3092V29.4687C27.4882 29.1083 30.4306 27.7332 32.7272 25.5041C35.4274 22.8869 36.9139 19.4046 36.9139 15.7034V6.01632C36.9167 3.45732 35.3133 1.23933 32.8302 0.36877ZM35.536 15.7061C35.536 19.0525 34.1942 22.1965 31.7529 24.5614C29.3143 26.9264 26.0713 28.2294 22.6223 28.2294L5.37146 28.2267L27.0233 3.02758C28.6156 1.17279 30.8259 1.08684 32.3597 1.6247C33.8936 2.16257 35.536 3.59871 35.536 6.01354V15.7061Z" fill="#FF8445"/>
<path d="M35.5361 9.04663L19.4322 9.80352L0.5 31.3734H1.90857C11.6238 31.3734 20.7433 27.3284 26.9343 20.278L35.5361 10.8266L35.5333 9.82847L35.5361 9.04663Z" fill="#FF8445"/>
<path d="M41.6521 67.4933H37.3485V57.1325C37.3485 53.6475 36.2461 50.29 34.1583 47.4233C32.9725 45.7958 31.5194 44.3929 29.863 43.259C36.647 45.0473 41.6549 51.0746 41.6549 58.2138V67.4933H41.6521ZM41.6521 85.8083H37.3485V69.2815H41.6521V85.8083ZM35.5029 67.4933H26.5921L26.5894 43.9189H26.5949V43.4586C29.0112 44.6037 31.0907 46.3115 32.6523 48.4574C34.5202 51.0192 35.5057 54.0218 35.5057 57.1325L35.5029 67.4933ZM35.5029 85.8083H26.5949V81.7937H33.0086V69.2815H35.5057L35.5029 85.8083ZM26.5949 78.0065H31.163V80.0027H26.5949V78.0065ZM26.5921 69.3564H31.163V76.221H26.5949L26.5921 69.3564ZM24.1731 36.4276C24.1731 35.6264 24.8467 34.9721 25.6735 34.9721C26.5031 34.9721 27.1739 35.6264 27.1739 36.4276C27.1739 37.2316 26.5003 37.8832 25.6735 37.8832C24.844 37.8832 24.1731 37.2316 24.1731 36.4276ZM15.8414 85.8083V69.2815H18.3384V81.7937H24.7493V85.8083H15.8414ZM13.9985 67.4933H9.69488V58.2165C9.69488 51.0774 14.7 45.05 21.4868 43.2618C19.8165 44.404 18.3551 45.818 17.1664 47.4593C15.0953 50.3205 14.0013 53.6641 14.0013 57.1353V67.4933H13.9985ZM13.9985 85.8083H9.69488V69.2815H13.9985V85.8083ZM24.7493 67.4933H15.8414V57.1325C15.8414 54.0329 16.8185 51.0441 18.6724 48.4879C20.2369 46.3309 22.3191 44.612 24.7465 43.4586L24.7493 67.4933ZM24.7493 76.2183H20.1812V69.3536H24.7493V76.2183ZM24.7521 80.0055H20.184V78.0093H24.7521V80.0055ZM26.5949 40.9523V39.5439C27.9924 39.153 29.0168 37.9053 29.0168 36.4248C29.0168 34.6366 27.5163 33.181 25.6735 33.181C23.8279 33.181 22.3275 34.6366 22.3275 36.4248C22.3275 37.9053 23.3547 39.1557 24.7521 39.5439V40.9523C15.3514 41.4181 7.85205 48.9842 7.85205 58.2138V87.5938H43.4978V58.2138C43.495 48.987 35.9956 41.4208 26.5949 40.9523Z" fill="#FF8445"/>
<path d="M47.136 85.7916H4.20801V91.6111H47.136V85.7916Z" fill="#FF8445"/>
<path d="M32.8136 5.32033C32.8136 5.86096 32.3737 6.30179 31.8281 6.30179C31.2853 6.30179 30.8455 5.86373 30.8455 5.32033C30.8455 4.77692 31.2853 4.33887 31.8281 4.33887C32.3737 4.34164 32.8136 4.77969 32.8136 5.32033Z" fill="#FF8445"/>
<path d="M58.1872 44.3403V25.7064H52.5501C52.1771 25.7064 51.9071 25.5706 51.74 25.2989C51.573 25.0272 51.4895 24.5863 51.4895 23.9764V22.9284C51.4895 22.3184 51.573 21.8804 51.74 21.6059C51.9071 21.3342 52.1771 21.1984 52.5501 21.1984H69.3583C69.7313 21.1984 70.0013 21.3342 70.1684 21.6059C70.3354 21.8776 70.4189 22.3184 70.4189 22.9284V23.9764C70.4189 24.5863 70.3354 25.0244 70.1684 25.2989C70.0013 25.5706 69.7313 25.7064 69.3583 25.7064H63.7017V44.343C63.7017 45.0694 62.9891 45.4326 61.5638 45.4326H60.3251C58.8998 45.4299 58.1872 45.0667 58.1872 44.3403Z" fill="#FF8445"/>
<path d="M68.4424 44.6702C68.4424 44.5288 68.4897 44.3209 68.5816 44.0492L76.415 21.8388C76.6015 21.3453 77.2752 21.1013 78.4332 21.1013H80.2733C81.4313 21.1013 82.105 21.3481 82.2915 21.8388L90.1249 44.0492C90.1917 44.3098 90.2251 44.5149 90.2251 44.6702C90.2251 44.9308 90.0831 45.1193 89.7964 45.2441C89.5097 45.3661 89.0587 45.4299 88.4463 45.4299H86.8874C86.3279 45.4299 85.8769 45.3744 85.5373 45.2635C85.1977 45.1526 84.9889 44.9696 84.9082 44.709L83.469 40.4921H75.0955L73.6563 44.709C73.5088 45.1886 72.9632 45.4271 72.0167 45.4271H70.6165C69.1662 45.4299 68.4424 45.1776 68.4424 44.6702ZM81.9519 35.9258L79.9336 29.7847C79.8139 29.4742 79.7109 29.1166 79.6246 28.7146C79.5384 28.3125 79.4604 27.9299 79.3936 27.5695H79.2544L79.1737 27.9965C79.0401 28.7617 78.887 29.3578 78.7144 29.7847L76.6154 35.9258H81.9519Z" fill="#FF8445"/>
<path d="M92.1766 45.1776C91.8231 44.9836 91.6477 44.7035 91.6477 44.3431V22.227C91.6477 21.4618 92.3603 21.0792 93.7856 21.0792H95.0244C95.7565 21.0792 96.2938 21.1763 96.6334 21.3703C96.973 21.5644 97.1428 21.85 97.1428 22.2243V44.3376C97.1428 45.0889 96.4357 45.466 95.0244 45.466H93.7856C93.0646 45.4687 92.5274 45.3717 92.1766 45.1776Z" fill="#FF8445"/>
<path d="M101.419 45.0417C101.193 44.8227 101.079 44.4706 101.079 43.9937V22.2297C101.079 21.8554 101.252 21.5726 101.6 21.3841C101.945 21.1956 102.485 21.1013 103.22 21.1013H104.42C105.152 21.1013 105.692 21.1956 106.04 21.3841C106.385 21.5726 106.56 21.8527 106.56 22.2297V40.8469H114.474C114.847 40.8469 115.117 40.9828 115.285 41.2545C115.452 41.5262 115.535 41.9615 115.535 42.5576V43.6471C115.535 44.2571 115.452 44.6951 115.285 44.9696C115.117 45.2413 114.847 45.3772 114.474 45.3772H102.502C102.006 45.3716 101.647 45.2607 101.419 45.0417Z" fill="#FF8445"/>
<path d="M121.795 44.2239C120.097 43.2646 118.803 41.8617 117.917 40.018C117.032 38.1716 116.59 35.9203 116.59 33.2643C116.59 30.6221 117.032 28.3764 117.917 26.5299C118.803 24.6834 120.097 23.2833 121.795 22.3324C123.493 21.3814 125.556 20.9045 127.981 20.9045C130.419 20.9045 132.488 21.3814 134.186 22.3324C135.884 23.2833 137.173 24.6834 138.052 26.5299C138.932 28.3764 139.372 30.6193 139.372 33.2643C139.372 35.9203 138.932 38.1716 138.052 40.018C137.173 41.8645 135.884 43.2674 134.186 44.2239C132.488 45.1832 130.419 45.6628 127.981 45.6628C125.556 45.6628 123.496 45.1832 121.795 44.2239ZM132.298 39.1031C133.27 37.7612 133.757 35.815 133.757 33.2643C133.757 30.7108 133.27 28.7756 132.298 27.4531C131.327 26.1307 129.887 25.4708 127.981 25.4708C126.088 25.4708 124.654 26.1334 123.674 27.4615C122.694 28.7895 122.204 30.7219 122.204 33.2615C122.204 35.815 122.697 37.7612 123.683 39.1003C124.668 40.4422 126.102 41.1104 127.981 41.1104C129.887 41.1159 131.327 40.445 132.298 39.1031Z" fill="#FF8445"/>
<path d="M142.612 44.3404V22.557C142.612 22.0773 142.726 21.7308 142.952 21.5173C143.177 21.3038 143.539 21.1957 144.032 21.1957H150.966C156.854 21.1957 159.799 23.3527 159.799 27.6667C159.799 28.9753 159.423 30.1037 158.669 31.0491C157.915 31.9945 156.907 32.7015 155.64 33.1673V33.3031C156.08 33.4861 156.542 33.8742 157.029 34.4703C157.516 35.0664 157.906 35.7401 158.198 36.4915L161.336 44.0908C161.442 44.4013 161.494 44.6231 161.494 44.7507C161.494 45.2054 160.787 45.4299 159.376 45.4299H157.917C156.731 45.4299 156.047 45.1915 155.86 44.7119L153.043 37.9692C152.776 37.4507 152.52 37.0487 152.275 36.7632C152.027 36.4776 151.685 36.2613 151.245 36.1116C150.805 35.9619 150.212 35.8871 149.466 35.8871H148.088V44.3404C148.088 45.0667 147.375 45.4299 145.95 45.4299H144.75C143.325 45.4299 142.612 45.0667 142.612 44.3404ZM151.445 31.3014C151.924 31.3014 152.378 31.1683 152.804 30.9021C153.229 30.636 153.569 30.2783 153.822 29.8236C154.076 29.369 154.201 28.8727 154.201 28.3265C154.201 27.5225 153.931 26.8848 153.391 26.4135C152.851 25.9394 152.122 25.7037 151.203 25.7037H148.085V31.3014H151.445Z" fill="#FF8445"/>
<path d="M62.129 81.2864C61.795 81.1644 61.6029 80.9842 61.55 80.7513L55.9352 58.5798C55.8823 58.4384 55.8545 58.2637 55.8545 58.0558C55.8545 57.7702 56.0382 57.5484 56.4029 57.3848C56.7703 57.224 57.3243 57.1409 58.0731 57.1409H58.9918C60.3781 57.1409 61.1714 57.5041 61.3691 58.2305L64.0275 69.3453C64.0665 69.5394 64.228 70.2714 64.5063 71.5412L65.1271 74.3192C65.2858 73.3738 65.5948 72.0596 66.0457 70.3739L66.3269 69.3453L69.2637 57.8811C69.3166 57.6233 69.5059 57.4348 69.8344 57.3183C70.1601 57.2019 70.6166 57.1436 71.204 57.1436H72.5625C73.1498 57.1436 73.6064 57.2019 73.9321 57.3183C74.2577 57.4348 74.447 57.6233 74.5027 57.8811L77.3198 69.3453C77.665 70.7704 78.0715 72.506 78.5391 74.5521C78.592 74.3192 78.7785 73.5041 79.0987 72.104L79.7389 69.3453L82.4976 58.2305C82.698 57.5041 83.4914 57.1409 84.8749 57.1409H85.2758C86.0079 57.1409 86.5591 57.2213 86.9237 57.3848C87.2912 57.5456 87.4721 57.7702 87.4721 58.0558C87.4721 58.1473 87.4638 58.2332 87.4526 58.3192C87.4387 58.4023 87.4248 58.4911 87.4137 58.5826L81.6179 80.7541C81.5511 80.987 81.3368 81.1644 80.9777 81.2892C80.6186 81.4112 80.1787 81.475 79.6582 81.475H77.061C76.5404 81.475 76.1006 81.414 75.7415 81.2892C75.3824 81.1672 75.1764 80.987 75.1207 80.7541L72.2033 68.8019L71.6438 66.4509L71.023 68.8019L68.0055 80.7541C67.9387 80.987 67.7243 81.1644 67.3652 81.2892C67.0061 81.4112 66.5663 81.475 66.0457 81.475H63.4875C62.9168 81.4722 62.4631 81.4112 62.129 81.2864Z" fill="#FF8445"/>
<path d="M89.2813 81.2199C88.9278 81.0258 88.7524 80.7458 88.7524 80.3854V58.2721C88.7524 57.5069 89.4651 57.1243 90.8903 57.1243H92.1291C92.8612 57.1243 93.3985 57.2213 93.7381 57.4154C94.0777 57.6095 94.2475 57.895 94.2475 58.2693V80.3826C94.2475 81.134 93.5405 81.511 92.1291 81.511H90.8903C90.1694 81.511 89.6349 81.414 89.2813 81.2199Z" fill="#FF8445"/>
<path d="M98.1865 80.3826V58.2693C98.1865 57.895 98.3591 57.6122 98.7071 57.4237C99.0523 57.2351 99.5923 57.1409 100.327 57.1409H101.847C102.421 57.1409 102.894 57.2046 103.267 57.3349C103.64 57.4652 103.946 57.7175 104.185 58.0918L112.578 70.665L113.539 72.0651V58.2693C113.539 57.895 113.711 57.6122 114.059 57.4237C114.405 57.2351 114.945 57.1409 115.68 57.1409H116.698C117.43 57.1409 117.968 57.2351 118.307 57.4237C118.647 57.6122 118.817 57.8922 118.817 58.2693V80.3826C118.817 81.109 118.11 81.4722 116.698 81.4722H115.34C114.753 81.4722 114.279 81.4112 113.92 81.2864C113.561 81.1644 113.26 80.9204 113.021 80.5573L104.227 67.4795L103.467 66.3899V80.3826C103.467 81.109 102.76 81.4722 101.349 81.4722H100.33C98.8992 81.4722 98.1865 81.109 98.1865 80.3826Z" fill="#FF8445"/>
<path d="M124.897 78.6747C122.998 76.6536 122.049 73.5124 122.049 69.2511C122.049 61.0501 126.007 56.9496 133.921 56.9496C135.002 56.9496 136.137 57.0522 137.329 57.2601C138.52 57.468 139.517 57.7564 140.316 58.1251C141.115 58.4939 141.515 58.907 141.515 59.3589C141.515 59.6833 141.382 60.1074 141.115 60.6314C140.847 61.1554 140.536 61.6184 140.177 62.0205C139.817 62.4225 139.497 62.6221 139.216 62.6221C139.135 62.6221 138.943 62.5583 138.637 62.428C137.972 62.1702 137.27 61.9511 136.538 61.7765C135.806 61.6018 134.899 61.5131 133.821 61.5131C131.731 61.5131 130.18 62.1563 129.175 63.4455C128.17 64.7347 127.666 66.681 127.666 69.2843C127.666 71.8877 128.173 73.8506 129.186 75.1731C130.2 76.4956 131.717 77.1554 133.743 77.1554C134.77 77.1554 135.695 77.0722 136.521 76.9031V72.5309H133.384C133.011 72.5309 132.741 72.3951 132.574 72.1234C132.407 71.8517 132.324 71.4108 132.324 70.8009V69.6947C132.324 69.0986 132.407 68.6661 132.574 68.3916C132.741 68.1199 133.011 67.9841 133.384 67.9841H140.6C141.106 67.9841 141.471 68.0922 141.699 68.3057C141.925 68.5191 142.039 68.8657 142.039 69.3453V78.9659C142.039 80.0028 141.145 80.7181 139.361 81.1118C137.576 81.5054 135.703 81.7051 133.746 81.7051C129.743 81.7051 126.795 80.6931 124.897 78.6747Z" fill="#FF8445"/>
<path d="M148.221 81.2088C146.949 80.8789 145.975 80.4741 145.304 79.9945C144.63 79.5149 144.293 79.0629 144.293 78.6332C144.293 78.2977 144.424 77.8819 144.683 77.3884C144.942 76.8976 145.254 76.4707 145.613 76.1158C145.972 75.7609 146.273 75.5807 146.512 75.5807C146.66 75.5807 146.971 75.7027 147.45 75.9494C148.168 76.3126 148.853 76.6038 149.499 76.8228C150.145 77.0418 150.888 77.1527 151.729 77.1527C152.661 77.1527 153.452 76.9753 154.098 76.6176C154.744 76.2627 155.067 75.6362 155.067 74.7434C155.067 74.225 154.899 73.7786 154.565 73.4015C154.231 73.0273 153.805 72.7084 153.288 72.4506C152.767 72.1927 152.063 71.8878 151.169 71.5384L149.591 70.8786C148.631 70.4239 147.809 69.9276 147.122 69.3814C146.434 68.838 145.875 68.1172 145.443 67.2245C145.009 66.3317 144.795 65.2366 144.795 63.9391C144.795 62.3587 145.195 61.0446 145.994 59.9938C146.793 58.9458 147.832 58.1751 149.112 57.6816C150.39 57.1881 151.762 56.9441 153.229 56.9441C154.429 56.9441 155.515 57.0633 156.486 57.3045C157.458 57.5457 158.22 57.8507 158.774 58.2278C159.328 58.6048 159.604 58.9791 159.604 59.3561C159.604 59.6667 159.501 60.0659 159.295 60.5511C159.089 61.0363 158.833 61.4605 158.527 61.8237C158.22 62.1869 157.934 62.3671 157.667 62.3671C157.547 62.3671 157.332 62.3033 157.026 62.173C156.534 61.9789 156.038 61.8209 155.537 61.6961C155.036 61.5741 154.426 61.5104 153.708 61.5104C152.469 61.5104 151.609 61.7017 151.13 62.0843C150.652 62.4669 150.412 62.916 150.412 63.4345C150.412 64.0306 150.576 64.5296 150.902 64.9316C151.228 65.3336 151.643 65.6635 152.141 65.9242C152.639 66.1848 153.335 66.4814 154.229 66.8169C155.573 67.3742 156.673 67.9009 157.527 68.4C158.379 68.899 159.117 69.6143 159.735 70.5487C160.356 71.4802 160.665 72.6724 160.665 74.1252C160.665 75.8995 160.28 77.3551 159.515 78.4863C158.749 79.6202 157.764 80.4381 156.556 80.9455C155.35 81.45 154.048 81.7023 152.647 81.7023C150.969 81.7051 149.493 81.5388 148.221 81.2088Z" fill="#FF8445"/>
</g>
<defs>
<clipPath id="clip0">
<rect width="161" height="93.4046" fill="white" transform="translate(0.5)"/>
</clipPath>
</defs>
</svg>
