<svg width="140" height="15" viewBox="0 0 140 15" fill="none" xmlns="http://www.w3.org/2000/svg">
<path d="M4.22754 13.9477V2.86045H0.663398C0.429258 2.86045 0.260156 2.77488 0.156094 2.61596C0.0520312 2.45705 0 2.18812 0 1.83362V1.19797C0 0.831244 0.0520312 0.574538 0.156094 0.415625C0.260156 0.256711 0.429258 0.171143 0.663398 0.171143H11.2648C11.4989 0.171143 11.668 0.256711 11.7721 0.415625C11.8761 0.574538 11.9282 0.843468 11.9282 1.19797V1.83362C11.9282 2.20034 11.8761 2.45705 11.7721 2.61596C11.668 2.77488 11.4989 2.86045 11.2648 2.86045H7.70062V13.9599C7.70062 14.3878 7.24535 14.6078 6.34781 14.6078H5.56734C4.6698 14.5956 4.22754 14.3878 4.22754 13.9477Z" fill="#333333"/>
<path d="M10.6924 14.1434C10.6924 14.0578 10.7185 13.9356 10.7835 13.7767L15.7265 0.550175C15.8435 0.256797 16.2728 0.110107 17.0012 0.110107H18.1589C18.8874 0.110107 19.3166 0.256797 19.4337 0.550175L24.3767 13.7767C24.4157 13.9356 24.4417 14.0578 24.4417 14.1434C24.4417 14.3023 24.3506 14.4123 24.1685 14.4857C23.9864 14.559 23.7002 14.5957 23.323 14.5957H22.3344C21.9832 14.5957 21.697 14.559 21.4889 14.4979C21.2808 14.4368 21.1377 14.3267 21.0857 14.1678L20.1751 11.6619H14.894L13.9834 14.1678C13.8924 14.449 13.5412 14.5957 12.9558 14.5957H12.0713C11.1477 14.5957 10.6924 14.449 10.6924 14.1434ZM19.2126 8.94814L17.9378 5.29313C17.8597 5.10977 17.7947 4.90196 17.7427 4.65747C17.6906 4.41299 17.6386 4.19296 17.5996 3.97293H17.5085L17.4565 4.22963C17.3785 4.68192 17.2744 5.03642 17.1703 5.29313L15.8435 8.94814H19.2126Z" fill="#333333"/>
<path d="M25.6644 14.4488C25.4432 14.3387 25.3262 14.1676 25.3262 13.9476V0.782206C25.3262 0.329914 25.7814 0.0976562 26.679 0.0976562H27.4595C27.9277 0.0976562 28.2659 0.158777 28.4741 0.268794C28.6822 0.378811 28.7993 0.549948 28.7993 0.782206V13.9476C28.7993 14.3999 28.357 14.6199 27.4595 14.6199H26.679C26.2237 14.6199 25.8855 14.5588 25.6644 14.4488Z" fill="#333333"/>
<path d="M31.5048 14.3634C31.3617 14.229 31.2967 14.0211 31.2967 13.74V0.782433C31.2967 0.562399 31.4008 0.391262 31.6219 0.281245C31.843 0.171228 32.1812 0.110107 32.6495 0.110107H33.404C33.8722 0.110107 34.2104 0.171228 34.4316 0.281245C34.6527 0.391262 34.7568 0.562399 34.7568 0.782433V11.8697H39.7518C39.9859 11.8697 40.155 11.9553 40.2591 12.1142C40.3631 12.2731 40.4152 12.5298 40.4152 12.8843V13.5322C40.4152 13.8989 40.3631 14.1556 40.2591 14.3145C40.155 14.4734 39.9859 14.559 39.7518 14.559H32.1942C31.869 14.559 31.6479 14.4979 31.5048 14.3634Z" fill="#333333"/>
<path d="M44.3566 13.8866C43.29 13.3121 42.4705 12.4808 41.9112 11.3806C41.3518 10.2805 41.0787 8.93582 41.0787 7.35891C41.0787 5.782 41.3518 4.44958 41.9112 3.34941C42.4705 2.24924 43.29 1.418 44.3566 0.855688C45.4233 0.293379 46.7241 0 48.259 0C49.7939 0 51.1077 0.281155 52.1743 0.855688C53.241 1.418 54.0605 2.26146 54.6198 3.34941C55.1791 4.44958 55.4523 5.782 55.4523 7.35891C55.4523 8.93582 55.1791 10.2805 54.6198 11.3806C54.0605 12.4808 53.254 13.3121 52.1743 13.8866C51.1077 14.4611 49.7939 14.7423 48.259 14.7423C46.7241 14.7423 45.4233 14.4489 44.3566 13.8866ZM50.9776 10.8306C51.589 10.036 51.9012 8.8747 51.9012 7.35891C51.9012 5.84312 51.589 4.68183 50.9776 3.89949C50.3663 3.11715 49.4557 2.71375 48.259 2.71375C47.0623 2.71375 46.1647 3.10492 45.5404 3.89949C44.916 4.69406 44.6168 5.84312 44.6168 7.34669C44.6168 8.86248 44.929 10.0238 45.5534 10.8183C46.1777 11.6129 47.0753 12.0163 48.259 12.0163C49.4557 12.0285 50.3663 11.6374 50.9776 10.8306Z" fill="#333333"/>
<path d="M57.4944 13.9477V0.977951C57.4944 0.696796 57.5595 0.488986 57.7026 0.354521C57.8457 0.23228 58.0668 0.158936 58.379 0.158936H62.7496C66.4698 0.158936 68.3169 1.44247 68.3169 4.00953C68.3169 4.79187 68.0828 5.4642 67.6015 6.02651C67.1202 6.58882 66.4958 7.00443 65.6894 7.28559V7.37116C65.9625 7.48117 66.2617 7.71343 66.5609 8.06793C66.8731 8.42243 67.1072 8.82583 67.3023 9.26589L69.2795 13.7888C69.3446 13.9722 69.3836 14.1066 69.3836 14.18C69.3836 14.4489 68.9413 14.5834 68.0438 14.5834H67.1202C66.3658 14.5834 65.9365 14.4367 65.8194 14.1555L64.0374 10.146C63.8683 9.84043 63.7122 9.59594 63.5561 9.42481C63.4 9.25367 63.1789 9.13143 62.9057 9.03364C62.6325 8.94807 62.2553 8.89917 61.787 8.89917H60.9155V13.9355C60.9155 14.3633 60.4602 14.5834 59.5627 14.5834H58.8082C57.9367 14.5956 57.4944 14.3878 57.4944 13.9477ZM63.0618 6.18542C63.361 6.18542 63.6471 6.11208 63.9203 5.95316C64.1935 5.79425 64.4016 5.58644 64.5577 5.30528C64.7138 5.03635 64.7918 4.74298 64.7918 4.41292C64.7918 3.93618 64.6227 3.55724 64.2845 3.27608C63.9463 2.99493 63.478 2.84824 62.9057 2.84824H60.9415V6.18542H63.0618Z" fill="#333333"/>
<path d="M77.8386 14.4854C77.6305 14.4121 77.5004 14.3021 77.4744 14.1676L73.9363 0.965567C73.8972 0.879999 73.8842 0.782206 73.8842 0.647741C73.8842 0.476603 74.0013 0.342138 74.2354 0.244345C74.4696 0.146553 74.8208 0.0976562 75.2891 0.0976562H75.8744C76.7459 0.0976562 77.2532 0.31769 77.3703 0.745534L79.0483 7.35877C79.0743 7.46879 79.1784 7.90886 79.3475 8.66675L79.7377 10.317C79.8418 9.7547 80.0369 8.97235 80.3231 7.96998L80.5052 7.35877L82.3393 0.549948C82.3783 0.391035 82.4954 0.281018 82.7035 0.219897C82.9117 0.146553 83.1978 0.10988 83.5621 0.10988H84.4206C84.7848 0.10988 85.084 0.146553 85.2791 0.219897C85.4872 0.293242 85.6043 0.403259 85.6433 0.549948L87.4254 7.371C87.6465 8.21446 87.9067 9.25351 88.1928 10.4759C88.2319 10.3415 88.3489 9.85249 88.5441 9.02125L88.9473 7.38322L90.6903 0.769982C90.8204 0.342138 91.3147 0.122104 92.1862 0.122104H92.4334C92.9017 0.122104 93.2399 0.171001 93.474 0.268794C93.7082 0.366587 93.8252 0.501052 93.8252 0.672189C93.8252 0.721085 93.8252 0.782206 93.8122 0.831102C93.7992 0.879999 93.7992 0.928895 93.7862 0.990016L90.131 14.192C90.092 14.3265 89.9489 14.4365 89.7278 14.5099C89.5066 14.5832 89.2205 14.6199 88.8953 14.6199H87.2563C86.9311 14.6199 86.6449 14.5832 86.4238 14.5099C86.2026 14.4365 86.0726 14.3265 86.0335 14.192L84.1864 7.07762L83.8352 5.67185L83.445 7.07762L81.5458 14.192C81.5068 14.3265 81.3637 14.4365 81.1426 14.5099C80.9215 14.5832 80.6353 14.6199 80.3101 14.6199H78.6971C78.3329 14.5954 78.0467 14.5588 77.8386 14.4854Z" fill="#333333"/>
<path d="M94.97 14.4488C94.7489 14.3387 94.6318 14.1676 94.6318 13.9476V0.782206C94.6318 0.329914 95.0871 0.0976562 95.9847 0.0976562H96.7651C97.2334 0.0976562 97.5716 0.158777 97.7797 0.268794C97.9878 0.378811 98.1049 0.549948 98.1049 0.782206V13.9476C98.1049 14.3999 97.6627 14.6199 96.7651 14.6199H95.9847C95.5294 14.6199 95.1912 14.5588 94.97 14.4488Z" fill="#333333"/>
<path d="M100.589 13.9478V0.782433C100.589 0.562399 100.693 0.391262 100.914 0.281245C101.136 0.171228 101.474 0.110107 101.942 0.110107H102.905C103.269 0.110107 103.568 0.14678 103.802 0.220124C104.036 0.293469 104.231 0.452382 104.388 0.672416L109.682 8.15357L110.293 8.98481V0.782433C110.293 0.562399 110.397 0.391262 110.618 0.281245C110.839 0.171228 111.178 0.110107 111.646 0.110107H112.283C112.752 0.110107 113.09 0.171228 113.298 0.281245C113.506 0.391262 113.623 0.562399 113.623 0.782433V13.9478C113.623 14.3756 113.181 14.5957 112.283 14.5957H111.425C111.061 14.5957 110.761 14.559 110.527 14.4857C110.306 14.4123 110.111 14.2656 109.955 14.0578L104.401 6.27106L103.919 5.62318V13.9478C103.919 14.3756 103.477 14.5957 102.579 14.5957H101.942C101.045 14.5957 100.589 14.3879 100.589 13.9478Z" fill="#333333"/>
<path d="M117.447 12.9331C116.251 11.7351 115.652 9.86485 115.652 7.32224C115.652 2.44482 118.15 0 123.132 0C123.808 0 124.524 0.0611205 125.278 0.183362C126.033 0.305603 126.657 0.47674 127.164 0.696774C127.672 0.916808 127.919 1.16129 127.919 1.43022C127.919 1.62581 127.841 1.87029 127.672 2.18812C127.503 2.50594 127.307 2.77487 127.073 3.01935C126.852 3.26384 126.644 3.37385 126.462 3.37385C126.41 3.37385 126.293 3.33718 126.098 3.26384C125.681 3.10492 125.239 2.98268 124.771 2.87267C124.303 2.76265 123.743 2.71375 123.054 2.71375C121.74 2.71375 120.751 3.0927 120.127 3.86282C119.49 4.63294 119.177 5.79423 119.177 7.33447C119.177 8.88693 119.503 10.0482 120.14 10.8428C120.777 11.6251 121.74 12.0285 123.015 12.0285C123.665 12.0285 124.251 11.9796 124.771 11.8818V9.2781H122.794C122.56 9.2781 122.39 9.19253 122.286 9.03362C122.182 8.8747 122.13 8.60577 122.13 8.25127V7.59117C122.13 7.23667 122.182 6.97997 122.286 6.82105C122.39 6.66214 122.56 6.57657 122.794 6.57657H127.346C127.672 6.57657 127.893 6.63769 128.036 6.77216C128.179 6.8944 128.244 7.10221 128.244 7.39559V13.1165C128.244 13.7277 127.685 14.1555 126.553 14.4C125.421 14.6323 124.251 14.7545 123.015 14.7545C120.504 14.7423 118.644 14.1311 117.447 12.9331Z" fill="#333333"/>
<path d="M132.159 14.4489C131.353 14.2533 130.741 14.0088 130.312 13.7276C129.883 13.4465 129.675 13.1776 129.675 12.9209C129.675 12.7253 129.753 12.4686 129.922 12.1752C130.091 11.8818 130.286 11.6251 130.507 11.4173C130.728 11.2095 130.924 11.0995 131.08 11.0995C131.171 11.0995 131.366 11.1728 131.678 11.3195C132.133 11.5395 132.563 11.7107 132.966 11.8451C133.369 11.9796 133.837 12.0407 134.371 12.0407C134.956 12.0407 135.463 11.9307 135.867 11.7229C136.27 11.5151 136.478 11.1361 136.478 10.6105C136.478 10.3049 136.374 10.036 136.166 9.81593C135.958 9.59589 135.684 9.40031 135.359 9.25362C135.034 9.0947 134.592 8.92357 134.019 8.71576L133.018 8.32458C132.406 8.05565 131.899 7.76228 131.457 7.43222C131.028 7.1144 130.676 6.67433 130.403 6.14869C130.13 5.61083 129.987 4.96295 129.987 4.19284C129.987 3.25158 130.234 2.46924 130.741 1.84581C131.249 1.22238 131.899 0.757861 132.706 0.464482C133.512 0.171103 134.384 0.0244141 135.307 0.0244141C136.062 0.0244141 136.751 0.0977587 137.362 0.244448C137.974 0.391137 138.455 0.574499 138.806 0.794533C139.158 1.01457 139.327 1.24683 139.327 1.46686C139.327 1.65022 139.262 1.8947 139.132 2.17586C139.001 2.46924 138.845 2.71372 138.65 2.93375C138.455 3.15379 138.273 3.25158 138.104 3.25158C138.026 3.25158 137.896 3.21491 137.701 3.14156C137.388 3.03155 137.076 2.93375 136.764 2.86041C136.452 2.78706 136.062 2.75039 135.606 2.75039C134.826 2.75039 134.28 2.86041 133.98 3.09267C133.681 3.32492 133.525 3.59385 133.525 3.89946C133.525 4.25396 133.629 4.54733 133.837 4.79182C134.045 5.0363 134.306 5.23188 134.618 5.37857C134.93 5.53749 135.372 5.70863 135.932 5.91644C136.777 6.24649 137.48 6.56431 138.013 6.85769C138.546 7.15107 139.014 7.57891 139.405 8.14122C139.795 8.69131 139.99 9.40031 139.99 10.2682C139.99 11.3195 139.743 12.1874 139.262 12.8597C138.78 13.5321 138.156 14.021 137.402 14.3266C136.647 14.6322 135.815 14.7789 134.93 14.7789C133.889 14.7422 132.966 14.6445 132.159 14.4489Z" fill="#333333"/>
</svg>
