<svg width="196" height="166" viewBox="0 0 196 166" fill="none" xmlns="http://www.w3.org/2000/svg">
<path d="M114.01 5.67334V13.9874L120.34 8.60308L114.01 5.67334Z" fill="white"/>
<path d="M109.367 0.508296C107.73 -0.0800017 105.95 -0.159672 104.266 0.279925C102.582 0.719522 101.074 1.65746 99.942 2.96847L67.6431 40.3483H95.3583H95.7801V45.5388L102.958 46.7554C103.042 46.39 103.041 46.0107 102.956 45.6456C102.871 45.2806 102.704 44.9392 102.467 44.647C102.231 44.3547 101.93 44.1191 101.589 43.9577C101.248 43.7963 100.874 43.7132 100.495 43.7147H97.6743V40.2199C102.026 39.7406 106.091 37.8378 109.228 34.8128C111.045 33.0816 112.491 31.0047 113.479 28.7065C114.466 26.4084 114.975 23.9365 114.974 21.439V8.21839C114.974 4.72547 112.772 1.7039 109.363 0.510212L109.367 0.508296ZM113.078 21.4371C113.08 23.6933 112.621 25.9266 111.729 28.0029C110.837 30.0792 109.531 31.9556 107.889 33.5195C104.535 36.7468 100.036 38.5418 95.3602 38.5184H71.685L101.395 4.13725C103.582 1.60618 106.619 1.4893 108.721 2.22122C110.822 2.95315 113.078 4.91516 113.078 8.21072V21.4313V21.4371Z" fill="white"/>
<path d="M113.078 12.3491L90.9777 13.3799L65 42.8118H66.9349C80.2643 42.8118 92.781 37.2918 101.275 27.6753L113.078 14.7805V13.4202V12.3491Z" fill="white"/>
<path d="M121.471 92.0941H115.566V77.9597C115.563 73.1954 114.029 68.5557 111.186 64.7123C109.563 62.4989 107.569 60.5775 105.29 59.0313C114.603 61.4723 121.471 69.6959 121.471 79.4369V92.0961V92.0941ZM121.471 117.085H115.568V94.5352H121.471V117.085ZM113.035 92.0941H100.805V59.928V59.2996C104.109 60.8466 106.966 63.1916 109.115 66.1187C111.658 69.5529 113.03 73.6995 113.033 77.9578V92.0961L113.035 92.0941ZM113.035 117.085H100.811V111.605H109.611V94.5332H113.039V117.085H113.035ZM100.811 106.441H107.08V109.168H100.811V106.439V106.441ZM100.811 94.6367H107.084V104.002H100.809L100.811 94.6367ZM97.4847 49.708C97.4739 49.3023 97.5855 48.9026 97.8053 48.56C98.0251 48.2175 98.343 47.9476 98.7185 47.7849C99.0939 47.6222 99.5099 47.5741 99.9131 47.6466C100.316 47.7192 100.689 47.9092 100.982 48.1923C101.276 48.4755 101.478 48.8389 101.562 49.2361C101.646 49.6333 101.608 50.0463 101.454 50.4223C101.299 50.7983 101.036 51.1202 100.696 51.3469C100.356 51.5736 99.9552 51.6947 99.5453 51.6949C99.0063 51.701 98.4867 51.4954 98.1005 51.123C97.7143 50.7505 97.4928 50.2417 97.4847 49.708ZM86.0515 117.085V94.5352H89.4801V111.607H98.2799V117.085H86.0515ZM83.5226 92.0941H77.6173V79.4369C77.6173 69.6959 84.4861 61.4704 93.7987 59.0313C91.5038 60.5919 89.4976 62.5325 87.8683 64.7679C85.048 68.6033 83.5267 73.2247 83.5226 77.9693V92.1056V92.0941ZM83.5226 117.085H77.6193V94.5352H83.5226V117.085ZM98.2799 92.0941H86.0515V77.9597C86.0544 73.7195 87.4146 69.5893 89.9367 66.1627C92.09 63.2165 94.9598 60.8564 98.2799 59.3015V92.0941ZM98.2799 104.002H92.0109V94.6348H98.2799V104.002ZM98.2799 109.175H92.009V106.441H98.2799V109.168V109.175ZM100.811 55.891V53.9749C101.758 53.7214 102.595 53.1685 103.195 52.4002C103.795 51.632 104.125 50.6906 104.135 49.7195C104.135 47.2804 102.076 45.2935 99.5453 45.2935C97.0145 45.2935 94.9538 47.2804 94.9538 49.7195C94.9665 50.6887 95.2981 51.6273 95.8984 52.3929C96.4986 53.1585 97.3348 53.7093 98.2799 53.9615V55.8775C85.3781 56.529 75.0884 66.8429 75.0884 79.435V119.522H124.014V79.435C124.014 66.8429 113.718 56.5213 100.82 55.8833" fill="white"/>
<path d="M129 117.062H70.0887V125H129V117.062Z" fill="white"/>
<path d="M109.344 7.26569C109.344 7.53099 109.264 7.79033 109.115 8.01092C108.967 8.2315 108.755 8.40343 108.507 8.50496C108.26 8.60648 107.988 8.63305 107.725 8.58129C107.462 8.52953 107.221 8.40178 107.031 8.21418C106.842 8.02659 106.713 7.78758 106.661 7.52738C106.609 7.26718 106.635 6.99747 106.738 6.75237C106.84 6.50726 107.014 6.29777 107.237 6.15038C107.459 6.00299 107.721 5.92432 107.989 5.92432C108.167 5.92432 108.343 5.95901 108.507 6.02642C108.672 6.09383 108.821 6.19264 108.947 6.3172C109.073 6.44175 109.172 6.58963 109.24 6.75237C109.309 6.91511 109.344 7.08954 109.344 7.26569Z" fill="white"/>
<path d="M6.02508 165.04V148.912H0.945474C0.611778 148.912 0.370774 148.787 0.222465 148.556C0.0741549 148.325 0 147.934 0 147.418V146.494C0 145.96 0.0741549 145.587 0.222465 145.356C0.370774 145.124 0.611778 145 0.945474 145H16.0545C16.3882 145 16.6292 145.124 16.7775 145.356C16.9258 145.587 17 145.978 17 146.494V147.418C17 147.952 16.9258 148.325 16.7775 148.556C16.6292 148.787 16.3882 148.912 16.0545 148.912H10.9749V165.058C10.9749 165.68 10.3261 166 9.04689 166H7.93457C6.6554 165.982 6.02508 165.68 6.02508 165.04Z" fill="white"/>
<path d="M15 165.344C15 165.22 15.036 165.043 15.1258 164.813L21.9565 145.638C22.1183 145.213 22.7114 145 23.7181 145H25.3179C26.3245 145 26.9177 145.213 27.0795 145.638L33.9101 164.813C33.964 165.043 34 165.22 34 165.344C34 165.575 33.8742 165.734 33.6225 165.841C33.3709 165.947 32.9754 166 32.4541 166H31.088C30.6026 166 30.2072 165.947 29.9196 165.858C29.632 165.77 29.4342 165.61 29.3623 165.38L28.1041 161.747H20.8061L19.5478 165.38C19.4219 165.787 18.9366 166 18.1277 166H16.9054C15.6291 166 15 165.787 15 165.344ZM26.7739 157.813L25.0123 152.514C24.9044 152.248 24.8146 151.947 24.7427 151.592C24.6708 151.238 24.5989 150.919 24.5449 150.6H24.4191L24.3472 150.972C24.2394 151.628 24.0956 152.142 23.9518 152.514L22.1183 157.813H26.7739Z" fill="white"/>
<path d="M35.4869 165.753C35.1685 165.593 35 165.346 35 165.028V145.99C35 145.336 35.6554 145 36.9476 145H38.0712C38.7453 145 39.2322 145.088 39.5318 145.247C39.8315 145.407 40 145.654 40 145.99V165.028C40 165.682 39.3633 166 38.0712 166H36.9476C36.2921 166 35.8052 165.912 35.4869 165.753Z" fill="white"/>
<path d="M44.2967 165.716C44.0927 165.52 44 165.218 44 164.81V145.977C44 145.657 44.1484 145.409 44.4636 145.249C44.7789 145.089 45.2611 145 45.9287 145H47.0043C47.6719 145 48.1541 145.089 48.4693 145.249C48.7846 145.409 48.933 145.657 48.933 145.977V162.091H56.0542C56.388 162.091 56.6291 162.216 56.7775 162.447C56.9258 162.678 57 163.051 57 163.566V164.508C57 165.041 56.9258 165.414 56.7775 165.645C56.6291 165.876 56.388 166 56.0542 166H45.2796C44.816 166 44.5007 165.911 44.2967 165.716Z" fill="white"/>
<path d="M62.5611 164.781C61.0769 163.963 59.9367 162.779 59.1584 161.211C58.3801 159.644 58 157.729 58 155.483C58 153.236 58.3801 151.338 59.1584 149.771C59.9367 148.204 61.0769 147.02 62.5611 146.219C64.0453 145.418 65.8552 145 67.991 145C70.1267 145 71.9548 145.4 73.4389 146.219C74.9231 147.02 76.0634 148.221 76.8416 149.771C77.6199 151.338 78 153.236 78 155.483C78 157.729 77.6199 159.644 76.8416 161.211C76.0634 162.779 74.9412 163.963 73.4389 164.781C71.9548 165.6 70.1267 166 67.991 166C65.8552 166 64.0453 165.582 62.5611 164.781ZM71.7738 160.428C72.6244 159.296 73.0588 157.642 73.0588 155.483C73.0588 153.323 72.6244 151.669 71.7738 150.555C70.9231 149.44 69.6561 148.866 67.991 148.866C66.3258 148.866 65.0769 149.423 64.2081 150.555C63.3394 151.687 62.9231 153.323 62.9231 155.465C62.9231 157.624 63.3575 159.279 64.2262 160.41C65.095 161.542 66.3439 162.117 67.991 162.117C69.6561 162.134 70.9231 161.577 71.7738 160.428Z" fill="white"/>
<path d="M80 164.118V146.136C80 145.746 80.093 145.458 80.2976 145.271C80.5022 145.102 80.8184 145 81.2648 145H87.5142C92.8337 145 95.4748 146.78 95.4748 150.339C95.4748 151.424 95.14 152.356 94.4519 153.135C93.7637 153.915 92.8709 154.491 91.7177 154.881V155C92.1083 155.152 92.5361 155.474 92.9639 155.966C93.4103 156.457 93.7451 157.017 94.0241 157.627L96.8512 163.898C96.9442 164.152 97 164.338 97 164.44C97 164.813 96.3676 164.999 95.0842 164.999H93.7637C92.6849 164.999 92.0711 164.796 91.9037 164.406L89.3556 158.847C89.1138 158.423 88.8906 158.084 88.6674 157.847C88.4442 157.61 88.128 157.44 87.7374 157.305C87.3468 157.186 86.8074 157.118 86.1379 157.118H84.8917V164.101C84.8917 164.694 84.2407 164.999 82.9573 164.999H81.8786C80.6324 165.016 80 164.728 80 164.118ZM87.9606 153.356C88.3884 153.356 88.7976 153.254 89.1882 153.034C89.5788 152.813 89.8764 152.525 90.0996 152.135C90.3228 151.762 90.4344 151.356 90.4344 150.898C90.4344 150.237 90.1926 149.712 89.709 149.322C89.2254 148.932 88.5558 148.729 87.7374 148.729H84.9289V153.356H87.9606Z" fill="white"/>
<path d="M108.553 165.806C108.26 165.699 108.078 165.54 108.041 165.346L103.073 146.255C103.018 146.131 103 145.99 103 145.795C103 145.548 103.164 145.354 103.493 145.212C103.822 145.071 104.315 145 104.973 145H105.795C107.018 145 107.731 145.318 107.895 145.937L110.251 155.5C110.288 155.659 110.434 156.295 110.671 157.391L111.219 159.778C111.365 158.965 111.639 157.833 112.041 156.384L112.297 155.5L114.872 145.654C114.927 145.424 115.091 145.265 115.384 145.177C115.676 145.071 116.078 145.018 116.589 145.018H117.795C118.306 145.018 118.726 145.071 119 145.177C119.292 145.283 119.457 145.442 119.511 145.654L122.014 155.518C122.324 156.737 122.689 158.24 123.091 160.008C123.146 159.813 123.311 159.106 123.584 157.904L124.151 155.535L126.598 145.972C126.781 145.354 127.475 145.035 128.699 145.035H129.046C129.703 145.035 130.178 145.106 130.507 145.247C130.836 145.389 131 145.583 131 145.831C131 145.902 131 145.99 130.982 146.061C130.963 146.131 130.963 146.202 130.945 146.29L125.813 165.381C125.758 165.576 125.557 165.735 125.247 165.841C124.936 165.947 124.534 166 124.078 166H121.776C121.32 166 120.918 165.947 120.607 165.841C120.297 165.735 120.114 165.576 120.059 165.381L117.466 155.093L116.973 153.061L116.425 155.093L113.758 165.381C113.703 165.576 113.502 165.735 113.192 165.841C112.881 165.947 112.479 166 112.023 166H109.758C109.247 165.965 108.845 165.912 108.553 165.806Z" fill="white"/>
<path d="M132.487 165.753C132.169 165.593 132 165.346 132 165.028V145.99C132 145.336 132.655 145 133.948 145H135.071C135.745 145 136.232 145.088 136.532 145.247C136.831 145.407 137 145.654 137 145.99V165.028C137 165.682 136.363 166 135.071 166H133.948C133.292 166 132.805 165.912 132.487 165.753Z" fill="white"/>
<path d="M141 165.061V145.975C141 145.656 141.144 145.408 141.449 145.248C141.754 145.089 142.222 145 142.868 145H144.198C144.701 145 145.114 145.053 145.437 145.159C145.76 145.266 146.03 145.496 146.246 145.815L153.557 156.661L154.401 157.866V145.975C154.401 145.656 154.545 145.408 154.85 145.248C155.156 145.089 155.623 145 156.269 145H157.15C157.796 145 158.263 145.089 158.551 145.248C158.838 145.408 159 145.656 159 145.975V165.061C159 165.681 158.389 166 157.15 166H155.964C155.461 166 155.048 165.947 154.725 165.841C154.419 165.734 154.15 165.522 153.934 165.22L146.263 153.932L145.599 152.992V165.061C145.599 165.681 144.988 166 143.749 166H142.868C141.629 166 141 165.699 141 165.061Z" fill="white"/>
<path d="M164.566 163.408C162.855 161.703 162 159.041 162 155.422C162 148.48 165.57 145 172.692 145C173.659 145 174.682 145.087 175.76 145.261C176.839 145.435 177.731 145.679 178.457 145.992C179.182 146.305 179.535 146.653 179.535 147.036C179.535 147.314 179.424 147.662 179.182 148.114C178.94 148.567 178.661 148.949 178.326 149.297C178.01 149.645 177.713 149.802 177.452 149.802C177.378 149.802 177.211 149.75 176.932 149.645C176.337 149.419 175.705 149.245 175.035 149.089C174.366 148.932 173.566 148.862 172.581 148.862C170.702 148.862 169.289 149.402 168.397 150.498C167.486 151.594 167.039 153.247 167.039 155.439C167.039 157.649 167.504 159.302 168.415 160.432C169.326 161.546 170.702 162.12 172.525 162.12C173.455 162.12 174.291 162.051 175.035 161.911V158.205H172.209C171.874 158.205 171.632 158.084 171.483 157.857C171.335 157.631 171.26 157.249 171.26 156.744V155.804C171.26 155.3 171.335 154.935 171.483 154.708C171.632 154.482 171.874 154.36 172.209 154.36H178.717C179.182 154.36 179.498 154.447 179.702 154.639C179.907 154.813 180 155.109 180 155.526V163.669C180 164.539 179.2 165.147 177.583 165.495C175.965 165.826 174.291 166 172.525 166C168.936 165.983 166.277 165.113 164.566 163.408Z" fill="white"/>
<path d="M185.372 165.53C184.277 165.252 183.448 164.904 182.865 164.504C182.282 164.104 182 163.721 182 163.355C182 163.077 182.106 162.712 182.335 162.294C182.565 161.877 182.83 161.511 183.13 161.215C183.43 160.92 183.695 160.763 183.907 160.763C184.03 160.763 184.295 160.867 184.719 161.076C185.337 161.389 185.919 161.633 186.467 161.824C187.014 162.016 187.649 162.103 188.373 162.103C189.168 162.103 189.856 161.946 190.404 161.65C190.951 161.355 191.233 160.815 191.233 160.067C191.233 159.632 191.092 159.249 190.81 158.936C190.527 158.623 190.156 158.345 189.715 158.136C189.274 157.91 188.673 157.666 187.897 157.37L186.537 156.814C185.707 156.431 185.019 156.013 184.419 155.543C183.836 155.091 183.359 154.465 182.989 153.717C182.618 152.951 182.424 152.029 182.424 150.933C182.424 149.593 182.759 148.48 183.448 147.592C184.136 146.705 185.019 146.044 186.113 145.626C187.208 145.209 188.391 145 189.644 145C190.668 145 191.604 145.104 192.434 145.313C193.264 145.522 193.917 145.783 194.393 146.096C194.87 146.409 195.1 146.74 195.1 147.053C195.1 147.314 195.011 147.662 194.835 148.062C194.658 148.48 194.446 148.828 194.182 149.141C193.917 149.454 193.67 149.593 193.44 149.593C193.334 149.593 193.158 149.541 192.893 149.437C192.469 149.28 192.045 149.141 191.622 149.036C191.198 148.932 190.668 148.88 190.05 148.88C188.991 148.88 188.25 149.036 187.844 149.367C187.438 149.698 187.226 150.08 187.226 150.515C187.226 151.02 187.367 151.437 187.649 151.785C187.932 152.133 188.285 152.412 188.709 152.621C189.132 152.847 189.733 153.09 190.492 153.386C191.639 153.856 192.593 154.308 193.317 154.726C194.04 155.143 194.676 155.752 195.206 156.553C195.735 157.336 196 158.345 196 159.58C196 161.076 195.665 162.312 195.011 163.268C194.358 164.225 193.511 164.921 192.487 165.356C191.463 165.791 190.333 166 189.132 166C187.72 165.948 186.467 165.809 185.372 165.53Z" fill="white"/>
</svg>
