<svg width="30" height="30" viewBox="0 0 30 30" fill="none" xmlns="http://www.w3.org/2000/svg">
<path d="M15.0003 13.75C15.9892 13.75 16.9559 13.4567 17.7781 12.9073C18.6004 12.3579 19.2412 11.577 19.6197 10.6634C19.9981 9.74976 20.0971 8.74443 19.9042 7.77452C19.7113 6.80462 19.2351 5.9137 18.5358 5.21444C17.8365 4.51517 16.9456 4.03897 15.9757 3.84605C15.0058 3.65312 14.0005 3.75214 13.0869 4.13057C12.1732 4.50901 11.3923 5.14987 10.8429 5.97212C10.2935 6.79437 10.0003 7.76107 10.0003 8.74997C10.0003 10.0761 10.5271 11.3478 11.4647 12.2855C12.4024 13.2232 13.6742 13.75 15.0003 13.75ZM15.0003 6.24997C15.4947 6.24997 15.9781 6.39659 16.3892 6.6713C16.8003 6.946 17.1208 7.33645 17.31 7.79326C17.4992 8.25008 17.5487 8.75275 17.4522 9.2377C17.3558 9.72265 17.1177 10.1681 16.768 10.5177C16.4184 10.8674 15.973 11.1055 15.488 11.2019C15.003 11.2984 14.5004 11.2489 14.0436 11.0597C13.5868 10.8705 13.1963 10.55 12.9216 10.1389C12.6469 9.72777 12.5003 9.24443 12.5003 8.74997C12.5003 8.08693 12.7637 7.45105 13.2325 6.9822C13.7013 6.51336 14.3372 6.24997 15.0003 6.24997Z" fill="black"/>
<path d="M15.0003 16.2499C12.6796 16.2499 10.454 17.1718 8.81309 18.8127C7.17215 20.4537 6.25027 22.6793 6.25027 24.9999C6.25027 25.3314 6.38197 25.6494 6.61639 25.8838C6.85081 26.1182 7.16875 26.2499 7.50027 26.2499C7.8318 26.2499 8.14974 26.1182 8.38416 25.8838C8.61858 25.6494 8.75028 25.3314 8.75028 24.9999C8.75028 23.3423 9.40876 21.7526 10.5809 20.5805C11.753 19.4084 13.3427 18.7499 15.0003 18.7499C16.6579 18.7499 18.2476 19.4084 19.4197 20.5805C20.5918 21.7526 21.2503 23.3423 21.2503 24.9999C21.2503 25.3314 21.382 25.6494 21.6164 25.8838C21.8508 26.1182 22.1688 26.2499 22.5003 26.2499C22.8318 26.2499 23.1497 26.1182 23.3842 25.8838C23.6186 25.6494 23.7503 25.3314 23.7503 24.9999C23.7503 22.6793 22.8284 20.4537 21.1875 18.8127C19.5465 17.1718 17.3209 16.2499 15.0003 16.2499Z" fill="black"/>
</svg>
