<svg width="16" height="15" viewBox="0 0 16 15" fill="none" xmlns="http://www.w3.org/2000/svg">
<path d="M8 8.125C8.16576 8.125 8.32473 8.05915 8.44194 7.94194C8.55915 7.82473 8.625 7.66576 8.625 7.5V1.25C8.625 1.08424 8.55915 0.925268 8.44194 0.808058C8.32473 0.690848 8.16576 0.625 8 0.625C7.83424 0.625 7.67527 0.690848 7.55806 0.808058C7.44085 0.925268 7.375 1.08424 7.375 1.25V7.5C7.375 7.66576 7.44085 7.82473 7.55806 7.94194C7.67527 8.05915 7.83424 8.125 8 8.125Z" fill="#FF8445"/>
<path d="M10.8688 1.94369C10.7212 1.86744 10.5495 1.85291 10.3912 1.90331C10.233 1.95371 10.1013 2.06491 10.025 2.21244C9.94875 2.35996 9.93423 2.53174 9.98463 2.68997C10.035 2.8482 10.1462 2.97994 10.2938 3.05619C11.2897 3.57035 12.0839 4.40422 12.5491 5.42395C13.0142 6.44367 13.1233 7.59011 12.8587 8.67924C12.5942 9.76837 11.9713 10.737 11.0902 11.4297C10.2091 12.1224 9.12081 12.499 8 12.499C6.8792 12.499 5.7909 12.1224 4.90979 11.4297C4.02868 10.737 3.40585 9.76837 3.14129 8.67924C2.87673 7.59011 2.98578 6.44367 3.45093 5.42395C3.91607 4.40422 4.71035 3.57035 5.70625 3.05619C5.7793 3.01843 5.8442 2.96666 5.89724 2.90382C5.95028 2.84099 5.99042 2.76832 6.01538 2.68997C6.04033 2.61162 6.04961 2.52912 6.04268 2.44719C6.03576 2.36525 6.01276 2.28548 5.975 2.21244C5.93725 2.13939 5.88548 2.07449 5.82264 2.02145C5.75981 1.96841 5.68714 1.92827 5.60879 1.90331C5.53044 1.87836 5.44794 1.86908 5.36601 1.87601C5.28407 1.88293 5.2043 1.90593 5.13125 1.94369C3.88669 2.58668 2.89421 3.62914 2.31311 4.90378C1.73201 6.17842 1.59597 7.61133 1.92682 8.97255C2.25768 10.3338 3.03625 11.5444 4.13758 12.4101C5.23891 13.2758 6.59915 13.7464 8 13.7464C9.40086 13.7464 10.7611 13.2758 11.8624 12.4101C12.9638 11.5444 13.7423 10.3338 14.0732 8.97255C14.404 7.61133 14.268 6.17842 13.6869 4.90378C13.1058 3.62914 12.1133 2.58668 10.8688 1.94369Z" fill="#FF8445"/>
</svg>
