<svg width="21" height="20" viewBox="0 0 21 20" fill="none" xmlns="http://www.w3.org/2000/svg">
<path d="M0.75 10C0.75 11.9778 1.33649 13.9112 2.4353 15.5557C3.53412 17.2002 5.0959 18.4819 6.92317 19.2388C8.75043 19.9957 10.7611 20.1937 12.7009 19.8079C14.6407 19.422 16.4225 18.4696 17.8211 17.0711C19.2196 15.6725 20.172 13.8907 20.5579 11.9509C20.9437 10.0111 20.7457 8.00043 19.9888 6.17317C19.2319 4.3459 17.9502 2.78412 16.3057 1.6853C14.6612 0.58649 12.7278 0 10.75 0C9.43678 0 8.13642 0.258658 6.92317 0.761205C5.70991 1.26375 4.60752 2.00035 3.67893 2.92893C1.80357 4.8043 0.75 7.34784 0.75 10ZM12.61 6.31L15.47 9.31C15.5123 9.35338 15.5462 9.40425 15.57 9.46C15.6125 9.50705 15.6463 9.56121 15.67 9.62C15.7229 9.7397 15.7502 9.86913 15.7502 10C15.7502 10.1309 15.7229 10.2603 15.67 10.38C15.6224 10.5028 15.551 10.6149 15.46 10.71L12.46 13.71C12.2717 13.8983 12.0163 14.0041 11.75 14.0041C11.4837 14.0041 11.2283 13.8983 11.04 13.71C10.8517 13.5217 10.7459 13.2663 10.7459 13C10.7459 12.7337 10.8517 12.4783 11.04 12.29L12.34 11H6.75C6.48478 11 6.23043 10.8946 6.04289 10.7071C5.85536 10.5196 5.75 10.2652 5.75 10C5.75 9.73478 5.85536 9.48043 6.04289 9.29289C6.23043 9.10536 6.48478 9 6.75 9H12.41L11.16 7.69C10.977 7.49772 10.8779 7.24062 10.8844 6.97525C10.891 6.70989 11.0027 6.458 11.195 6.275C11.3873 6.092 11.6444 5.99288 11.9097 5.99944C12.1751 6.00601 12.427 6.11772 12.61 6.31Z" fill="white"/>
</svg>
