<svg width="28" height="27" viewBox="0 0 28 27" fill="none" xmlns="http://www.w3.org/2000/svg">
<path d="M1.02874 0.0446644C0.92152 0.0891456 0.829889 0.164402 0.765417 0.260931C0.700945 0.35746 0.666525 0.47093 0.666503 0.587009L0.666504 26.413C0.666504 26.5687 0.728344 26.718 0.838419 26.8281C0.948495 26.9382 1.09779 27 1.25346 27L27.0795 27C27.1956 27.0001 27.3092 26.9657 27.4057 26.9013C27.5023 26.8368 27.5776 26.7451 27.622 26.6378C27.6664 26.5305 27.678 26.4125 27.6553 26.2986C27.6326 26.1847 27.5766 26.0802 27.4944 25.9981L1.66835 0.172115C1.58632 0.089962 1.48175 0.0339985 1.36789 0.0113105C1.25403 -0.0113774 1.136 0.000230769 1.02874 0.0446644ZM25.6624 25.8261L1.84041 25.8261L1.84041 24.6522L2.637 24.6522C2.79267 24.6522 2.94196 24.5903 3.05204 24.4803C3.16211 24.3702 3.22395 24.2209 3.22395 24.0652C3.22395 23.9096 3.16211 23.7603 3.05204 23.6502C2.94196 23.5401 2.79267 23.4783 2.637 23.4783L1.84041 23.4783L1.84041 21.4658L3.60128 21.4658C3.75695 21.4658 3.90625 21.404 4.01632 21.2939C4.1264 21.1839 4.18824 21.0346 4.18824 20.8789C4.18824 20.7232 4.1264 20.5739 4.01632 20.4639C3.90625 20.3538 3.75695 20.2919 3.60128 20.2919L1.84041 20.2919L1.84041 18.2795L2.637 18.2795C2.79267 18.2795 2.94196 18.2177 3.05204 18.1076C3.16211 17.9975 3.22395 17.8482 3.22395 17.6926C3.22395 17.5369 3.16211 17.3876 3.05204 17.2775C2.94196 17.1674 2.79267 17.1056 2.637 17.1056L1.84041 17.1056L1.84041 15.0932L3.60128 15.0932C3.75695 15.0932 3.90625 15.0314 4.01632 14.9213C4.1264 14.8112 4.18824 14.6619 4.18824 14.5062C4.18824 14.3506 4.1264 14.2013 4.01632 14.0912C3.90625 13.9811 3.75695 13.9193 3.60128 13.9193L1.84041 13.9193L1.84041 11.9069L2.637 11.9069C2.79267 11.9069 2.94196 11.845 3.05204 11.7349C3.16211 11.6249 3.22395 11.4756 3.22395 11.3199C3.22395 11.1642 3.16211 11.0149 3.05204 10.9049C2.94196 10.7948 2.79267 10.733 2.637 10.733L1.84041 10.733L1.84041 8.72053L3.60128 8.72053C3.75695 8.72053 3.90625 8.65869 4.01632 8.54862C4.1264 8.43854 4.18824 8.28925 4.18824 8.13358C4.18824 7.97791 4.1264 7.82862 4.01632 7.71854C3.90625 7.60846 3.75695 7.54662 3.60128 7.54662L1.84041 7.54662L1.84041 5.5342L2.637 5.5342C2.79267 5.5342 2.94196 5.47236 3.05204 5.36229C3.16211 5.25221 3.22395 5.10292 3.22395 4.94725C3.22395 4.79158 3.16211 4.64228 3.05204 4.53221C2.94196 4.42213 2.79267 4.36029 2.637 4.36029L1.84041 4.36029L1.84041 2.00409L25.6624 25.8261Z" fill="#FF8445"/>
</svg>
