<svg width="42" height="25" viewBox="0 0 42 25" fill="none" xmlns="http://www.w3.org/2000/svg">
<path d="M40.7609 11.7754H24.1977V6.79348C24.1977 2.98395 18.883 0 12.0989 0C5.3147 0 0 2.98395 0 6.79348V15.0104C0 18.8199 5.3147 21.8038 12.0989 21.8038H36.6848V24.0683C36.6848 24.3086 36.7802 24.5389 36.9501 24.7088C37.12 24.8787 37.3503 24.9741 37.5906 24.9741H40.7609C41.0011 24.9741 41.2315 24.8787 41.4014 24.7088C41.5712 24.5389 41.6667 24.3086 41.6667 24.0683V12.6812C41.6667 12.4409 41.5712 12.2105 41.4014 12.0407C41.2315 11.8708 41.0011 11.7754 40.7609 11.7754ZM20.3996 11.7754C21.1163 11.4079 21.7838 10.9514 22.3861 10.4167V11.7764L20.3996 11.7754ZM12.0989 1.81159C17.676 1.81159 22.3861 4.09317 22.3861 6.79348C22.3861 9.49379 17.676 11.7754 12.0989 11.7754C6.52174 11.7754 1.81159 9.49379 1.81159 6.79348C1.81159 4.09317 6.52277 1.81159 12.0989 1.81159ZM1.81159 15.0104V10.4167C3.92754 12.3349 7.70342 13.588 12.0989 13.588H39.8551V19.9922H36.0378V17.6532C36.0378 17.413 35.9424 17.1826 35.7725 17.0127C35.6026 16.8428 35.3722 16.7474 35.132 16.7474C34.8918 16.7474 34.6614 16.8428 34.4915 17.0127C34.3216 17.1826 34.2262 17.413 34.2262 17.6532V19.9922H30.2795V17.6532C30.2795 17.413 30.1841 17.1826 30.0142 17.0127C29.8443 16.8428 29.6139 16.7474 29.3737 16.7474C29.1335 16.7474 28.9031 16.8428 28.7332 17.0127C28.5633 17.1826 28.4679 17.413 28.4679 17.6532V19.9922H24.5212V17.6532C24.5212 17.413 24.4258 17.1826 24.2559 17.0127C24.086 16.8428 23.8557 16.7474 23.6154 16.7474C23.3752 16.7474 23.1448 16.8428 22.9749 17.0127C22.8051 17.1826 22.7096 17.413 22.7096 17.6532V19.9922H18.7629V17.6532C18.7629 17.413 18.6675 17.1826 18.4976 17.0127C18.3278 16.8428 18.0974 16.7474 17.8571 16.7474C17.6169 16.7474 17.3865 16.8428 17.2166 17.0127C17.0468 17.1826 16.9513 17.413 16.9513 17.6532V19.9922H13.0047V17.6532C13.0047 17.413 12.9092 17.1826 12.7394 17.0127C12.5695 16.8428 12.3391 16.7474 12.0989 16.7474C11.8586 16.7474 11.6282 16.8428 11.4584 17.0127C11.2885 17.1826 11.1931 17.413 11.1931 17.6532V19.9695C6.02226 19.7386 1.81159 17.5631 1.81159 15.0104ZM38.4964 23.1625V21.8038H39.8551V23.1625H38.4964Z" fill="white"/>
</svg>
