<svg width="27" height="27" viewBox="0 0 27 27" fill="none" xmlns="http://www.w3.org/2000/svg">
<path d="M0.362234 0.0446644C0.255016 0.0891456 0.163385 0.164402 0.0989134 0.260931C0.0344415 0.35746 2.07932e-05 0.47093 -1.15455e-06 0.587009L-2.56566e-08 26.413C-1.88521e-08 26.5687 0.06184 26.718 0.171915 26.8281C0.281991 26.9382 0.431285 27 0.586955 27L26.413 27C26.5291 27.0001 26.6427 26.9657 26.7392 26.9013C26.8358 26.8368 26.9111 26.7451 26.9555 26.6378C26.9999 26.5305 27.0115 26.4125 26.9888 26.2986C26.9661 26.1847 26.9101 26.0802 26.8279 25.9981L1.00185 0.172115C0.919813 0.089962 0.815246 0.0339985 0.701386 0.0113105C0.587525 -0.0113774 0.469493 0.000230769 0.362234 0.0446644ZM24.9959 25.8261L1.17391 25.8261L1.17391 24.6522L1.97049 24.6522C2.12616 24.6522 2.27546 24.5903 2.38553 24.4803C2.49561 24.3702 2.55745 24.2209 2.55745 24.0652C2.55745 23.9096 2.49561 23.7603 2.38553 23.6502C2.27546 23.5401 2.12616 23.4783 1.97049 23.4783L1.17391 23.4783L1.17391 21.4658L2.93478 21.4658C3.09045 21.4658 3.23974 21.404 3.34982 21.2939C3.45989 21.1839 3.52173 21.0346 3.52173 20.8789C3.52173 20.7232 3.45989 20.5739 3.34982 20.4639C3.23974 20.3538 3.09045 20.2919 2.93478 20.2919L1.17391 20.2919L1.17391 18.2795L1.97049 18.2795C2.12616 18.2795 2.27546 18.2177 2.38553 18.1076C2.49561 17.9975 2.55745 17.8482 2.55745 17.6926C2.55745 17.5369 2.49561 17.3876 2.38553 17.2775C2.27546 17.1674 2.12616 17.1056 1.97049 17.1056L1.17391 17.1056L1.17391 15.0932L2.93478 15.0932C3.09045 15.0932 3.23974 15.0314 3.34982 14.9213C3.45989 14.8112 3.52173 14.6619 3.52173 14.5062C3.52173 14.3506 3.45989 14.2013 3.34982 14.0912C3.23974 13.9811 3.09045 13.9193 2.93478 13.9193L1.17391 13.9193L1.17391 11.9069L1.97049 11.9069C2.12616 11.9069 2.27546 11.845 2.38553 11.7349C2.49561 11.6249 2.55745 11.4756 2.55745 11.3199C2.55745 11.1642 2.49561 11.0149 2.38553 10.9049C2.27546 10.7948 2.12616 10.733 1.97049 10.733L1.17391 10.733L1.17391 8.72053L2.93478 8.72053C3.09045 8.72053 3.23974 8.65869 3.34982 8.54862C3.45989 8.43854 3.52173 8.28925 3.52173 8.13358C3.52173 7.97791 3.45989 7.82862 3.34982 7.71854C3.23974 7.60846 3.09045 7.54662 2.93478 7.54662L1.17391 7.54662L1.17391 5.5342L1.97049 5.5342C2.12616 5.5342 2.27546 5.47236 2.38553 5.36229C2.49561 5.25221 2.55745 5.10292 2.55745 4.94725C2.55745 4.79158 2.49561 4.64228 2.38553 4.53221C2.27546 4.42213 2.12616 4.36029 1.97049 4.36029L1.17391 4.36029L1.17391 2.00409L24.9959 25.8261Z" fill="white"/>
<path d="M5.03101 12.733L5.03101 21.382C5.03101 21.5377 5.09285 21.687 5.20292 21.7971C5.313 21.9072 5.46229 21.969 5.61796 21.969L14.267 21.969C14.3831 21.9691 14.4966 21.9347 14.5932 21.8703C14.6898 21.8058 14.7651 21.7141 14.8095 21.6068C14.8539 21.4995 14.8655 21.3815 14.8428 21.2676C14.8201 21.1537 14.7641 21.0492 14.6819 20.9671L6.03285 12.3181C5.95077 12.2361 5.84621 12.1802 5.73239 12.1576C5.61857 12.135 5.5006 12.1466 5.39338 12.191C5.28617 12.2354 5.19452 12.3106 5.13002 12.4071C5.06552 12.5035 5.03106 12.6169 5.03101 12.733ZM12.8503 20.7951L6.20492 20.7951L6.20492 14.1501L12.8503 20.7951Z" fill="white"/>
</svg>
