<svg width="14" height="13" viewBox="0 0 14 13" fill="none" xmlns="http://www.w3.org/2000/svg">
<path d="M10.4247 12.1752C10.3228 12.1756 10.2222 12.1516 10.1315 12.1051L6.88048 10.4031L3.62948 12.1051C3.52392 12.1606 3.4049 12.1854 3.28595 12.1766C3.167 12.1678 3.0529 12.1259 2.95661 12.0555C2.86032 11.9851 2.78572 11.8891 2.74127 11.7784C2.69682 11.6678 2.68432 11.5468 2.70518 11.4294L3.34263 7.84055L0.716336 5.29075C0.634396 5.20898 0.57627 5.10644 0.548194 4.99414C0.520118 4.88183 0.523153 4.76401 0.556973 4.6533C0.59392 4.54001 0.661882 4.43934 0.753149 4.36272C0.844415 4.2861 0.95533 4.2366 1.07331 4.21983L4.70677 3.69075L6.30677 0.420627C6.35897 0.312853 6.44047 0.221961 6.54194 0.158363C6.6434 0.094766 6.76073 0.0610352 6.88048 0.0610352C7.00023 0.0610352 7.11756 0.094766 7.21902 0.158363C7.32049 0.221961 7.40199 0.312853 7.45418 0.420627L9.07331 3.68437L12.7068 4.21346C12.8248 4.23023 12.9357 4.27973 13.0269 4.35635C13.1182 4.43296 13.1862 4.53363 13.2231 4.64692C13.2569 4.75763 13.26 4.87546 13.2319 4.98776C13.2038 5.10007 13.1457 5.2026 13.0637 5.28437L10.4375 7.83417L11.0749 11.423C11.0977 11.5425 11.0857 11.666 11.0406 11.779C10.9954 11.892 10.9188 11.9896 10.8199 12.0605C10.7045 12.1414 10.5655 12.1817 10.4247 12.1752ZM6.88048 9.0517C6.98266 9.04912 7.08375 9.07329 7.17371 9.12182L9.57689 10.3967L9.11793 7.71306C9.10012 7.61059 9.10766 7.50532 9.13988 7.40643C9.1721 7.30754 9.22803 7.21804 9.30279 7.14573L11.2151 5.278L8.53785 4.88278C8.43967 4.86301 8.34753 4.82039 8.2689 4.75837C8.19027 4.69635 8.12736 4.61668 8.08526 4.52581L6.88048 2.13537L5.6757 4.52581C5.62958 4.61741 5.56204 4.69653 5.47881 4.75646C5.39557 4.81639 5.29911 4.85535 5.19761 4.87003L2.52032 5.26525L4.43267 7.13298C4.50743 7.20529 4.56336 7.29479 4.59558 7.39368C4.6278 7.49257 4.63534 7.59784 4.61753 7.70031L4.15857 10.3521L6.56175 9.0772C6.66358 9.03934 6.77393 9.03052 6.88048 9.0517Z" fill="#FCD681"/>
</svg>
