<svg width="13" height="13" viewBox="0 0 13 13" fill="none" xmlns="http://www.w3.org/2000/svg">
<path d="M9.99044 12.1752C9.88849 12.1756 9.78794 12.1516 9.69721 12.1051L6.44621 10.4031L3.19522 12.1051C3.08965 12.1606 2.97063 12.1854 2.85168 12.1766C2.73273 12.1678 2.61863 12.1259 2.52234 12.0555C2.42606 11.9851 2.35145 11.8891 2.307 11.7784C2.26256 11.6678 2.25005 11.5468 2.27091 11.4294L2.90836 7.84055L0.282069 5.29075C0.200129 5.20898 0.142003 5.10644 0.113927 4.99414C0.0858513 4.88183 0.0888863 4.76401 0.122706 4.6533C0.159653 4.54001 0.227615 4.43934 0.318882 4.36272C0.410148 4.2861 0.521063 4.2366 0.639041 4.21983L4.27251 3.69075L5.87251 0.420627C5.92471 0.312853 6.0062 0.221961 6.10767 0.158363C6.20914 0.094766 6.32646 0.0610352 6.44621 0.0610352C6.56596 0.0610352 6.68329 0.094766 6.78476 0.158363C6.88622 0.221961 6.96772 0.312853 7.01992 0.420627L8.63904 3.68437L12.2725 4.21346C12.3905 4.23023 12.5014 4.27973 12.5927 4.35635C12.6839 4.43296 12.7519 4.53363 12.7888 4.64692C12.8227 4.75763 12.8257 4.87546 12.7976 4.98776C12.7695 5.10007 12.7114 5.2026 12.6295 5.28437L10.0032 7.83417L10.6406 11.423C10.6634 11.5425 10.6515 11.666 10.6063 11.779C10.5611 11.892 10.4846 11.9896 10.3857 12.0605C10.2702 12.1414 10.1312 12.1817 9.99044 12.1752Z" fill="#FCD681"/>
</svg>
