<svg width="18" height="18" viewBox="0 0 18 18" fill="none" xmlns="http://www.w3.org/2000/svg">
<path d="M17.469 7.58243L11.0509 1.17393C10.8874 1.00948 10.6719 0.906986 10.4411 0.883997L1.09388 0.00420197C0.947454 -0.00926592 0.799861 0.00973501 0.661621 0.0598502C0.523381 0.109965 0.397898 0.189961 0.294116 0.294134C0.189949 0.397923 0.109958 0.523414 0.0598464 0.661663C0.0097344 0.799912 -0.00926534 0.947514 0.00420171 1.09395L0.883941 10.4418C0.906929 10.6725 1.00942 10.8881 1.17385 11.0516L7.58195 17.4701C7.92565 17.8091 8.38883 17.9995 8.87157 18C9.35128 17.999 9.81118 17.8085 10.1512 17.4701L17.469 10.1518C17.8091 9.81075 18 9.34877 18 8.86713C18 8.3855 17.8091 7.92351 17.469 7.58243ZM7.56196 7.58243C7.35232 7.79235 7.08513 7.93536 6.79419 7.99338C6.50325 8.05139 6.20165 8.0218 5.92753 7.90835C5.65341 7.7949 5.41911 7.60269 5.25425 7.35603C5.08939 7.10938 5.0014 6.81936 5.0014 6.52268C5.0014 6.226 5.08939 5.93598 5.25425 5.68933C5.41911 5.44267 5.65341 5.25045 5.92753 5.137C6.20165 5.02355 6.50325 4.99397 6.79419 5.05198C7.08513 5.11 7.35232 5.25301 7.56196 5.46293C7.83912 5.74199 7.99467 6.11936 7.99467 6.51268C7.99467 6.90601 7.83912 7.28337 7.56196 7.56244V7.58243Z" fill="#8E8E8E"/>
</svg>
