<svg width="40" height="40" viewBox="0 0 40 40" fill="none" xmlns="http://www.w3.org/2000/svg">
<g clip-path="url(#clip0)">
<path d="M17.509 23.7469L24.015 19.9999L17.509 16.2529V23.7469Z" fill="white"/>
<path d="M20 0C16.0444 0 12.1776 1.17298 8.8886 3.37061C5.59961 5.56824 3.03616 8.69181 1.52241 12.3463C0.00865805 16.0009 -0.387409 20.0222 0.384296 23.9018C1.156 27.7814 3.06082 31.3451 5.85787 34.1421C8.65492 36.9392 12.2186 38.844 16.0982 39.6157C19.9778 40.3874 23.9991 39.9913 27.6537 38.4776C31.3082 36.9638 34.4318 34.4004 36.6294 31.1114C38.827 27.8224 40 23.9556 40 20C40 14.6957 37.8929 9.60859 34.1421 5.85786C30.3914 2.10714 25.3043 0 20 0V0ZM32.5 20.02C32.5122 22.0355 32.3399 24.0479 31.985 26.032C31.8417 26.5586 31.5634 27.0386 31.1775 27.4245C30.7916 27.8104 30.3116 28.0887 29.785 28.232C27.823 28.75 20 28.75 20 28.75C20 28.75 12.2 28.75 10.221 28.215C9.69441 28.0717 9.21439 27.7934 8.82851 27.4075C8.44262 27.0216 8.16426 26.5416 8.021 26.015C7.66314 24.0302 7.48874 22.0167 7.5 20C7.48764 17.9845 7.66003 15.9721 8.015 13.988C8.16071 13.46 8.43951 12.9782 8.82471 12.5888C9.20991 12.1994 9.68862 11.9154 10.215 11.764C12.177 11.25 20 11.25 20 11.25C20 11.25 27.823 11.25 29.779 11.785C30.3056 11.9283 30.7856 12.2066 31.1715 12.5925C31.5574 12.9784 31.8357 13.4584 31.979 13.985C32.3472 15.9751 32.5217 17.9962 32.5 20.02Z" fill="white"/>
</g>
<defs>
<clipPath id="clip0">
<rect width="40" height="40" fill="white"/>
</clipPath>
</defs>
</svg>
