<svg width="193" height="193" viewBox="0 0 193 193" fill="none" xmlns="http://www.w3.org/2000/svg">
<path d="M96.554 18.4049C96.2697 18.3557 95.9771 18.3949 95.7158 18.5172C95.4544 18.6395 95.2368 18.839 95.0924 19.0888C94.6938 19.656 94.2656 20.2019 93.8096 20.7241C93.3119 21.2487 92.7393 21.6968 92.1105 22.0539C91.4672 22.4129 90.6167 22.7506 89.9277 22.3157C89.7872 22.2323 89.6704 22.1143 89.5885 21.973C89.5065 21.8317 89.462 21.6717 89.4594 21.5083C89.4776 21.3545 89.4608 21.1985 89.4104 21.052C89.3599 20.9056 89.277 20.7724 89.1679 20.6624C89.0772 20.5818 88.9624 20.5335 88.8413 20.5251C88.7202 20.5167 88.5998 20.5487 88.4989 20.616C88.2261 20.8232 88.2512 21.2484 88.2139 21.554C88.161 22.3147 88.2518 23.0786 88.4815 23.8057C88.6228 24.2408 88.7141 24.6906 88.7536 25.1464C88.7411 25.3604 88.7136 25.5732 88.6713 25.7833C88.6441 26.0309 88.6033 26.2768 88.549 26.5199C88.3137 27.4221 87.9885 28.2984 87.5783 29.1357C87.5184 29.2682 87.5525 29.4812 87.7307 29.5095L90.0602 29.8775C90.1252 29.8926 90.1935 29.8828 90.2516 29.8499C90.3096 29.817 90.3532 29.7634 90.3735 29.6999C90.6601 28.8837 91.1129 28.1358 91.7033 27.5036C91.9835 27.2502 92.3004 27.0407 92.6432 26.8821C93.0646 26.6569 93.4866 26.4594 93.9299 26.2722C94.7159 25.9719 95.429 25.5076 96.0217 24.9103C96.6143 24.3129 97.073 23.5962 97.3672 22.8079C97.7032 21.8305 97.7698 20.7808 97.5602 19.7688C97.5252 19.4737 97.4141 19.1928 97.2377 18.9536C97.0613 18.7145 96.8257 18.5254 96.554 18.4049ZM95.4932 24.7372C94.8335 25.2805 94.0863 25.7075 93.2833 26.0001C92.5441 26.2688 91.8646 26.6797 91.2832 27.2096C90.7162 27.8357 90.2725 28.5631 89.9753 29.3538L88.1643 29.0682C88.4348 28.4885 88.6711 27.8934 88.872 27.2861C88.982 26.9415 89.0667 26.5893 89.1255 26.2323C89.1926 25.9107 89.2394 25.5852 89.2657 25.2577C89.2075 24.505 89.0591 23.762 88.8237 23.0446C88.7318 22.696 88.6817 22.3378 88.6745 21.9773C88.6796 21.8023 88.7176 21.6222 88.7388 21.4485C88.7523 21.3359 88.7285 20.9937 88.8617 21.0722C89.0258 21.1687 88.9543 21.7438 89.009 21.9246C89.0962 22.1985 89.2625 22.4405 89.487 22.62C89.7244 22.8022 89.9999 22.9284 90.2928 22.9893C90.5857 23.0502 90.8887 23.0443 91.179 22.9719C92.479 22.5959 93.6291 21.8231 94.4684 20.7614C94.7061 20.4877 94.9296 20.2019 95.1381 19.9052C95.3167 19.6133 95.5283 19.3428 95.7685 19.0991C96.4447 18.4937 96.931 19.2837 97.0713 19.9064C97.2448 20.7794 97.1908 21.6823 96.9144 22.5284C96.6381 23.3744 96.1486 24.1351 95.4932 24.7372Z" fill="black"/>
<path d="M100.57 21.1148C100.305 23.2365 99.3448 25.2107 97.8381 26.7279C97.8014 26.7774 97.7837 26.8385 97.7882 26.9C97.7927 26.9615 97.8191 27.0193 97.8627 27.063C97.9063 27.1066 97.9641 27.1332 98.0256 27.1378C98.0871 27.1424 98.1482 27.1248 98.1978 27.0881C99.7957 25.4728 100.809 23.3709 101.079 21.1148C101.118 20.7899 100.608 20.7925 100.57 21.1148Z" fill="black"/>
<path d="M101.783 25.7741C100.957 26.889 99.8982 27.811 98.6803 28.4761C98.3933 28.6337 98.65 29.0737 98.9376 28.9155C100.229 28.204 101.35 27.2193 102.222 26.0301C102.419 25.7676 101.975 25.5129 101.783 25.7741Z" fill="black"/>
<path d="M68.679 76.0582C68.5401 75.685 68.3825 75.3171 68.221 74.9536C67.8881 74.2026 67.5137 73.4706 67.0997 72.7611C66.2755 71.3521 65.3014 70.0364 64.1944 68.8368C63.304 67.8718 61.8578 66.5774 60.4521 67.3436C59.1835 68.0352 60.3756 69.6924 60.353 70.6979C60.3756 72.3616 59.9947 73.9821 59.8866 75.6355C59.7529 77.0854 59.9564 78.5465 60.4811 79.9047C61.0002 81.1431 62.0064 82.3982 63.3761 82.7096C64.7457 83.021 65.7776 82.0785 66.2022 80.8504C66.6828 79.4601 66.3 77.9637 66.5393 76.551C66.6702 76.914 66.9323 77.2149 67.274 77.3944C67.4616 77.5214 67.687 77.5805 67.9129 77.5618C68.1387 77.5432 68.3513 77.4478 68.5155 77.2917C68.6797 77.1355 68.7856 76.9279 68.8156 76.7033C68.8455 76.4787 68.7978 76.2506 68.6803 76.0569L68.679 76.0582ZM67.8067 77.0019C67.092 77.0097 66.8938 76.1096 66.7664 75.5654C66.7021 75.2965 66.3618 75.3537 66.2756 75.5654C65.6966 76.9756 66.125 78.4707 65.9037 79.9272C65.7345 81.0434 65.0674 82.3931 63.737 82.2586C62.3795 82.1209 61.3663 80.7854 60.9024 79.6087C60.4536 78.3745 60.278 77.0575 60.3878 75.7487C60.4856 74.0581 60.8844 72.4034 60.8613 70.7024C60.8371 70.2431 60.7423 69.7902 60.5801 69.3598C60.3997 68.9602 60.3464 68.5149 60.4277 68.0841C60.6374 67.5539 61.4428 67.5925 61.8822 67.7302C62.466 67.944 62.9895 68.2955 63.4082 68.755C65.2916 70.6766 66.8029 72.9302 67.8659 75.402C68.0463 75.7521 68.1882 76.1207 68.2892 76.5014C68.349 76.8289 68.1129 76.9981 67.8073 77.0019H67.8067Z" fill="black"/>
<path d="M20.1434 95.7164L19.0009 91.1789C18.62 89.6684 18.2771 88.1418 17.8576 86.6415C17.729 86.1815 17.287 85.8792 16.8695 86.2594C16.3658 86.7174 16.8245 87.4289 16.4906 87.9655C15.6928 89.2451 13.8252 88.4724 12.8184 87.9198C12.2534 87.6079 11.7235 87.2363 11.2377 86.8114C10.7598 86.3951 10.3525 85.9229 9.91763 85.4649C9.74491 85.2352 9.52251 85.0476 9.26706 84.916C9.01161 84.7845 8.72972 84.7123 8.44247 84.7051C8.21111 84.7376 7.9925 84.8308 7.80896 84.9754C7.62542 85.1199 7.4835 85.3106 7.39769 85.5279C6.99448 86.7037 7.0329 87.9861 7.50577 89.1357C7.83195 90.0571 8.36284 90.8926 9.05851 91.5792C9.75417 92.2659 10.5965 92.7858 11.5221 93.0999C12.2978 93.3027 13.062 93.5475 13.8111 93.8333C14.4086 94.1203 14.9274 94.548 15.3232 95.0797C15.719 95.6114 15.9798 96.2313 16.0833 96.886C16.102 96.9506 16.1452 97.0055 16.2038 97.0387C16.2623 97.0719 16.3316 97.0808 16.3966 97.0635L19.9652 96.0284C20.0235 96.0123 20.0733 95.9742 20.1042 95.9222L20.1132 95.9107C20.1184 95.9005 20.1227 95.89 20.126 95.8791C20.1512 95.8287 20.1573 95.7709 20.1434 95.7164ZM16.5221 96.4999C16.3055 95.5306 15.779 94.6582 15.0225 94.0147C14.0453 93.1913 12.8294 93.0131 11.6572 92.611C10.4861 92.2016 9.47116 91.4382 8.75298 90.4266C8.0348 89.415 7.64886 88.2051 7.64859 86.9645C7.59988 86.431 7.73816 85.8972 8.03974 85.4546C8.48428 84.9457 9.08708 85.3536 9.45829 85.7248C9.88031 86.1461 10.2534 86.6074 10.6954 87.0114C11.1194 87.4001 11.5757 87.752 12.0593 88.0633C13.0455 88.695 14.3367 89.3268 15.5391 89.128C16.0669 89.0462 16.5411 88.7592 16.8586 88.3296C17.0028 88.1322 17.098 87.9033 17.1365 87.6618C17.1545 87.5221 17.1564 87.3807 17.1423 87.2405C17.1294 87.0848 17.0567 86.8236 17.1661 86.6878C17.3269 86.4871 17.3642 86.7715 17.3957 86.8943C17.4446 87.0873 17.4922 87.2771 17.5405 87.4688L17.8441 88.6751C18.0419 89.46 18.2396 90.2448 18.4373 91.0297C18.8233 92.5565 19.2078 94.0834 19.5908 95.6102L16.5221 96.4999Z" fill="black"/>
<path d="M74.121 28.4169C73.2493 24.4598 74.1056 19.9532 71.805 16.6182C69.9233 13.8904 66.2344 12.7582 62.983 13.4015C59.7316 14.0448 56.9305 16.2051 54.9355 18.8499C52.9405 21.4946 52.6375 24.434 50.9308 27.2776C50.1819 28.523 48.1683 30.3205 47.808 32.1817C47.6083 33.1115 47.6421 34.0764 47.9064 34.99C48.1707 35.9036 48.6572 36.7375 49.3224 37.4171C50.6857 38.6993 52.6465 39.0666 54.4916 39.3793C59.8673 40.2896 65.5364 41.1761 70.6521 39.2892C72.4786 38.6157 74.2947 37.4647 74.9786 35.6415C75.8445 33.3294 74.6518 30.8262 74.121 28.4169ZM61.1051 34.4739C61.0723 34.7955 60.5627 34.8 60.5956 34.4739C60.8423 31.9915 60.6984 29.4857 60.169 27.0479C60.1928 27.0305 60.2218 27.0215 60.2449 27.0035C60.4217 27.2504 60.6152 27.4849 60.8239 27.7054C61.2341 29.9372 61.3287 32.2157 61.1051 34.4739ZM67.606 35.2549C67.5095 35.5675 67.018 35.4331 67.1145 35.1191C67.6664 33.3063 67.9575 31.4241 67.9791 29.5292C68.1547 29.4739 68.3291 29.4134 68.5015 29.3459C68.4934 31.3487 68.1917 33.3396 67.606 35.2549ZM72.045 24.7685C71.8318 25.8805 71.2465 26.8868 70.3852 27.6217C69.4928 28.4151 68.4085 28.9615 67.2399 29.2068C66.0713 29.4522 64.8589 29.3879 63.7228 29.0203C62.4003 28.5541 61.2693 27.6633 60.5061 26.4869C60.4861 26.4538 60.4589 26.4256 60.4264 26.4044C60.394 26.3833 60.3572 26.3697 60.3188 26.3648C60.2804 26.3599 60.2414 26.3636 60.2046 26.3759C60.1679 26.3881 60.1344 26.4085 60.1066 26.4354C59.8722 26.6896 59.5536 26.8502 59.2098 26.8873C58.866 26.9245 58.5204 26.8357 58.2371 26.6374C57.9673 26.4332 57.7502 26.1674 57.6039 25.8622C57.4576 25.5571 57.3864 25.2213 57.3963 24.8831C57.5128 24.4852 57.7672 24.1419 58.1139 23.9147C58.4607 23.6875 58.877 23.5913 59.2883 23.6434C59.3316 23.6545 59.3771 23.6542 59.4202 23.6424C59.4634 23.6306 59.5027 23.6077 59.5343 23.5761C59.566 23.5445 59.5888 23.5051 59.6006 23.462C59.6124 23.4188 59.6127 23.3734 59.6016 23.3301C59.5617 23.1319 59.5373 22.9305 59.5122 22.7298C61.8771 21.6748 64.2233 20.3727 65.7686 18.2419C66.3058 18.745 66.8558 19.2449 67.429 19.7029C68.0147 20.1993 68.6946 20.5724 69.4279 20.7998C70.2898 21.0255 71.1873 21.0819 72.0707 20.9658C72.2692 22.2264 72.2596 23.511 72.0424 24.7685H72.045Z" fill="black"/>
<path d="M63.6424 22.5811C63.13 22.456 62.5897 22.5184 62.1192 22.7568C61.6487 22.9952 61.279 23.3941 61.0768 23.8812C60.9481 24.1836 61.4428 24.3149 61.5676 24.017C61.7302 23.6583 62.0129 23.3676 62.3669 23.1951C62.7209 23.0225 63.124 22.979 63.5067 23.0719C63.568 23.0796 63.6301 23.065 63.6815 23.0307C63.7329 22.9964 63.7703 22.9448 63.7868 22.8852C63.8033 22.8256 63.7977 22.7621 63.7712 22.7062C63.7447 22.6504 63.699 22.606 63.6424 22.5811Z" fill="black"/>
<path d="M70.3948 21.4916C70.1184 21.333 69.8038 21.2533 69.4853 21.2613C69.1667 21.2692 68.8565 21.3645 68.5883 21.5367C68.3136 21.7136 68.569 22.1543 68.8457 21.9767C69.0353 21.849 69.2569 21.777 69.4854 21.7689C69.7138 21.7609 69.94 21.817 70.1381 21.931C70.1954 21.9538 70.2588 21.9553 70.3171 21.9352C70.3753 21.9152 70.4244 21.8749 70.4555 21.8217C70.4865 21.7685 70.4975 21.706 70.4864 21.6454C70.4752 21.5849 70.4428 21.5303 70.3948 21.4916Z" fill="black"/>
<path d="M63.064 24.1893C63.0363 24.1622 63.0027 24.1418 62.9659 24.1295C62.9291 24.1172 62.89 24.1134 62.8515 24.1183C62.813 24.1233 62.7762 24.1369 62.7437 24.1581C62.7112 24.1793 62.6839 24.2076 62.6639 24.2408C62.6258 24.3087 62.6038 24.3844 62.5995 24.4621C62.582 24.5278 62.5807 24.5968 62.5957 24.6632C62.6107 24.7295 62.6416 24.7912 62.6858 24.843C62.6922 24.8552 62.6948 24.8674 62.7018 24.879C62.7271 24.9212 62.7645 24.9548 62.8091 24.9754C62.8538 24.9961 62.9036 25.0028 62.9521 24.9948C63.0095 24.9973 63.0661 24.9809 63.1132 24.948C63.1604 24.9151 63.1953 24.8675 63.2126 24.8127C63.2178 24.7941 63.2178 24.7767 63.2217 24.7587C63.2316 24.7315 63.2366 24.7027 63.2364 24.6738C63.2442 24.5854 63.2327 24.4964 63.203 24.4128C63.1732 24.3292 63.1258 24.253 63.064 24.1893Z" fill="black"/>
<path d="M69.2999 23.2701C69.2889 23.2521 69.2728 23.2348 69.26 23.2167C69.2471 23.1987 69.2471 23.1962 69.2381 23.1878C69.2291 23.1794 69.2143 23.1518 69.1989 23.135C69.17 23.1036 69.1327 23.0811 69.0914 23.0703C69.0501 23.0594 69.0066 23.0607 68.966 23.0739C68.9557 23.0739 68.9473 23.0681 68.937 23.0675C68.8921 23.0671 68.848 23.0788 68.8092 23.1014C68.7705 23.1241 68.7386 23.1568 68.717 23.1962C68.6832 23.27 68.6663 23.3505 68.6675 23.4318C68.6687 23.513 68.688 23.593 68.7241 23.6658C68.7268 23.6998 68.7363 23.7329 68.7521 23.7631C68.7679 23.7933 68.7897 23.82 68.816 23.8417C68.8424 23.8633 68.8729 23.8794 68.9056 23.8889C68.9383 23.8985 68.9726 23.9014 69.0065 23.8974C69.0187 23.9012 69.0258 23.9103 69.0387 23.9135C69.1038 23.9307 69.1731 23.9217 69.2317 23.8884C69.2903 23.8551 69.3335 23.8001 69.352 23.7353C69.3728 23.6547 69.3781 23.5708 69.3674 23.4882C69.365 23.4108 69.3417 23.3354 69.2999 23.2701Z" fill="black"/>
<path d="M67.3602 23.8775C67.5397 24.2847 67.6311 24.9834 67.0456 25.096C66.724 25.1603 66.8604 25.6486 67.1814 25.5868C67.4493 25.5159 67.6817 25.349 67.8344 25.1177C67.9871 24.8865 68.0494 24.6072 68.0093 24.333C67.945 23.6118 67.3937 23.0727 67.2335 22.383C67.1595 22.0613 66.668 22.199 66.7426 22.5181C66.9046 22.9899 67.1114 23.4451 67.3602 23.8775Z" fill="black"/>
<path d="M68.4642 25.6118C67.857 26.0687 67.1184 26.3172 66.3585 26.3204C65.5986 26.3235 64.8581 26.0811 64.2471 25.6292C64.2083 25.6075 64.1645 25.5962 64.1201 25.5965C64.0756 25.5968 64.032 25.6086 63.9934 25.6307C63.9548 25.6529 63.9227 25.6847 63.9001 25.723C63.8775 25.7612 63.8652 25.8047 63.8643 25.8492C63.8645 26.5571 64.1257 27.24 64.5981 27.7673C65.0704 28.2946 65.7206 28.6291 66.4242 28.7069C66.7458 28.7474 66.7458 28.2379 66.4242 28.1974C65.939 28.1344 65.4857 27.921 65.128 27.5872C64.7703 27.2533 64.5262 26.8159 64.4298 26.3362C65.0983 26.7018 65.8571 26.8693 66.6174 26.8189C67.3776 26.7685 68.1078 26.5025 68.7222 26.0518C68.9814 25.8621 68.7279 25.4169 68.4642 25.6118Z" fill="black"/>
<path d="M37.296 96.2607C37.7508 96.2607 38.1194 95.892 38.1194 95.4372C38.1194 94.9825 37.7508 94.6138 37.296 94.6138C36.8412 94.6138 36.4725 94.9825 36.4725 95.4372C36.4725 95.892 36.8412 96.2607 37.296 96.2607Z" fill="black"/>
<path d="M44.731 94.3642C45.1858 94.3642 45.5544 93.9955 45.5544 93.5407C45.5544 93.086 45.1858 92.7173 44.731 92.7173C44.2762 92.7173 43.9075 93.086 43.9075 93.5407C43.9075 93.9955 44.2762 94.3642 44.731 94.3642Z" fill="black"/>
<path d="M37.0663 91.9232C36.6097 92.0391 36.1965 92.285 35.8768 92.631C35.5571 92.9769 35.3445 93.4082 35.265 93.8725C35.2161 94.1942 35.7069 94.3312 35.7565 94.0076C35.8134 93.6294 35.9808 93.2763 36.2376 92.9929C36.4945 92.7094 36.8293 92.508 37.2001 92.4141C37.5231 92.353 37.3867 91.8621 37.0663 91.9232Z" fill="black"/>
<path d="M46.2441 90.8509C45.2733 90.4289 44.3437 90.1587 43.3427 90.6515C43.0487 90.7963 43.306 91.2357 43.6 91.0909C43.9868 90.9398 44.4031 90.8793 44.8169 90.9139C45.2307 90.9486 45.6311 91.0776 45.9874 91.291C46.2846 91.4177 46.5439 90.9815 46.2441 90.8509Z" fill="black"/>
<path d="M44.3971 95.9302C42.5957 96.3947 40.8292 96.9596 39.0323 97.4318C38.9949 97.4425 38.9605 97.4617 38.9315 97.4877C38.9026 97.5137 38.8799 97.5459 38.8652 97.582C38.8506 97.618 38.8443 97.6569 38.8468 97.6958C38.8493 97.7346 38.8606 97.7723 38.8799 97.8062C39.1725 98.3058 39.5824 98.7266 40.0741 99.0323C40.5658 99.338 41.1246 99.5193 41.7022 99.5606C42.1286 99.5771 42.553 99.4928 42.9408 99.3145C43.3285 99.1362 43.6688 98.8689 43.9339 98.5344C44.4316 97.8473 44.7058 97.0237 44.7194 96.1753C44.7188 96.1363 44.7094 96.098 44.6918 96.0632C44.6742 96.0284 44.6489 95.998 44.6179 95.9744C44.5868 95.9508 44.5508 95.9345 44.5126 95.9269C44.4743 95.9192 44.4348 95.9204 44.3971 95.9302ZM43.5878 98.1529C43.3721 98.4469 43.0871 98.683 42.7581 98.8402C42.4291 98.9973 42.0664 99.0706 41.7022 99.0536C41.2703 99.0223 40.8507 98.8966 40.4727 98.6854C40.0948 98.4742 39.7678 98.1826 39.5148 97.8313C41.073 97.4131 42.615 96.9364 44.1745 96.5214C44.1202 97.1062 43.9183 97.6675 43.5878 98.1529Z" fill="black"/>
<path d="M35.5442 171.621C32.1359 169.334 29.0192 166.641 26.2628 163.6C25.718 162.922 25.1027 162.304 24.4274 161.756C24.1563 161.519 23.808 161.39 23.4482 161.393C23.1072 161.422 22.7799 161.54 22.4984 161.735C22.217 161.93 21.9913 162.195 21.8437 162.504C20.9746 164.356 22.1654 166.911 23.6065 168.873C25.6741 171.691 32.0927 175.57 32.0927 175.57L35.5442 171.621Z" fill="black"/>
<path d="M151.167 95.8271C151.593 95.7293 151.413 95.0744 150.986 95.1722C150.295 95.3311 149.378 95.4296 149.275 94.5025C149.183 93.6823 149.592 92.9006 149.318 92.0842C149.18 91.6725 148.524 91.8488 148.664 92.265C148.986 93.2171 148.306 94.2162 148.766 95.1697C149.217 96.1076 150.31 96.024 151.167 95.8271Z" fill="black"/>
<path d="M148.368 92.2187C148.37 92.1927 148.368 92.1665 148.364 92.1409C148.364 92.1364 148.364 92.1331 148.364 92.1286C148.357 92.1104 148.348 92.0928 148.339 92.0759C148.334 92.063 148.328 92.0506 148.321 92.0386C148.279 91.9356 148.203 91.8504 148.105 91.7975C148.007 91.7446 147.894 91.7273 147.785 91.7486C147.676 91.77 147.578 91.8285 147.507 91.9144C147.436 92.0002 147.398 92.1079 147.398 92.219C147.398 92.3302 147.436 92.4379 147.507 92.5237C147.578 92.6095 147.676 92.6681 147.785 92.6894C147.894 92.7107 148.007 92.6935 148.105 92.6406C148.203 92.5877 148.279 92.5025 148.321 92.3995C148.328 92.3868 148.335 92.3737 148.34 92.3602C148.349 92.3435 148.357 92.3263 148.364 92.3088C148.364 92.3043 148.364 92.3011 148.364 92.2965C148.369 92.2709 148.37 92.2447 148.368 92.2187Z" fill="black"/>
<path d="M155.554 92.2159C155.555 92.1901 155.554 92.1642 155.549 92.1387C155.549 92.1342 155.549 92.1304 155.549 92.1259C155.543 92.1059 155.531 92.0918 155.524 92.0731C155.519 92.0604 155.513 92.0479 155.506 92.0358C155.464 91.9329 155.388 91.8477 155.29 91.7949C155.192 91.7421 155.079 91.7249 154.97 91.7462C154.861 91.7676 154.763 91.8262 154.692 91.912C154.621 91.9978 154.583 92.1055 154.583 92.2166C154.583 92.3277 154.621 92.4354 154.692 92.5212C154.763 92.607 154.861 92.6656 154.97 92.6869C155.079 92.7083 155.192 92.6911 155.29 92.6383C155.388 92.5854 155.464 92.5003 155.506 92.3974C155.514 92.3851 155.518 92.3703 155.525 92.3575C155.532 92.3446 155.544 92.3259 155.55 92.3066C155.549 92.3026 155.549 92.2985 155.55 92.2944C155.554 92.2685 155.556 92.2422 155.554 92.2159Z" fill="black"/>
<path d="M152.561 89.6384C152.277 89.9684 152.754 90.4509 153.041 90.1183C153.32 89.7968 153.708 89.5908 154.131 89.5405C154.554 89.4902 154.98 89.5991 155.326 89.8462C155.682 90.1035 156.022 89.5123 155.669 89.2601C155.193 88.9365 154.616 88.7965 154.044 88.8661C153.472 88.9356 152.945 89.21 152.561 89.6384Z" fill="black"/>
<path d="M148.838 89.2646C149.257 89.3933 149.436 88.7384 149.019 88.6103C148.533 88.4641 148.015 88.4632 147.528 88.6077C147.041 88.7521 146.607 89.0357 146.28 89.4235C146.004 89.758 146.482 90.2405 146.76 89.9034C147.003 89.6015 147.331 89.3792 147.701 89.2653C148.072 89.1515 148.468 89.1512 148.838 89.2646Z" fill="black"/>
<path d="M168.393 89.1281C167.804 87.6738 166.931 86.3517 165.824 85.2391C166.269 84.5353 166.49 83.7136 166.459 82.8818C166.428 82.0501 166.146 81.2471 165.651 80.5783C165.155 79.9095 164.469 79.4061 163.682 79.1342C162.896 78.8623 162.045 78.8346 161.242 79.0548C160.831 77.6195 160.095 76.2985 159.089 75.1948C158.582 74.6487 157.954 74.2286 157.256 73.9678C156.558 73.707 155.809 73.6128 155.068 73.6926C154.33 73.7994 153.652 74.1593 153.149 74.7109C152.647 75.2625 152.353 75.9714 152.316 76.7163C150.404 76.1676 148.363 76.2897 146.53 77.0621C144.698 77.8346 143.185 79.2109 142.243 80.9623C141.716 81.8901 141.529 82.973 141.715 84.0239C141.821 84.5435 142.095 85.014 142.494 85.3636C142.893 85.7133 143.395 85.9228 143.924 85.9603C142.962 86.4454 142.176 87.2193 141.676 88.1734C141.176 89.1275 140.987 90.2141 141.136 91.281C141.284 92.3479 141.763 93.3416 142.505 94.1229C143.246 94.9042 144.213 95.434 145.271 95.638C145.335 95.8368 145.4 96.0343 145.472 96.2286C145.773 97.0277 146.175 97.7846 146.67 98.4802C146.602 98.4723 146.533 98.487 146.474 98.522C144.961 99.421 143.574 100.519 142.352 101.786C142.049 102.1 142.529 102.581 142.832 102.266C144.013 101.04 145.353 99.9779 146.817 99.1088C146.86 99.0848 146.897 99.0508 146.924 99.0098C146.952 98.9687 146.969 98.9217 146.975 98.8727C147.42 99.431 147.941 99.9244 148.523 100.339C149.867 101.288 151.533 101.666 153.155 101.388C154.343 101.171 155.45 100.641 156.364 99.8518C154.632 102.109 152.404 103.938 149.854 105.198C149.462 105.391 149.805 105.976 150.196 105.784C153.234 104.278 155.819 101.994 157.687 99.1641C158.55 99.6915 159.574 99.8881 160.57 99.7174C161.617 99.481 162.541 98.869 163.167 97.9972C163.793 97.1255 164.078 96.0544 163.967 94.9869C164.697 95.2732 165.504 95.2961 166.25 95.0516C166.995 94.8072 167.631 94.3107 168.05 93.6475C168.446 92.9693 168.682 92.2101 168.741 91.4272C168.801 90.6444 168.682 89.8582 168.393 89.1281ZM159.322 92.2566C159.048 95.519 157.328 99.193 154.082 100.427C153.395 100.694 152.663 100.819 151.927 100.796C151.191 100.774 150.468 100.603 149.8 100.294C148.393 99.5821 147.257 98.4301 146.564 97.0134C145.752 95.3976 145.359 93.6035 145.421 91.796C145.389 90.1081 145.897 88.454 146.871 87.0752C148.66 84.783 151.937 84.3732 154.617 84.9747C155.907 85.2207 157.083 85.8748 157.972 86.8404C158.876 87.9848 159.365 89.4027 159.357 90.8612C159.371 91.3258 159.359 91.7908 159.321 92.254L159.322 92.2566ZM161.145 93.6121C161.044 93.9946 160.829 94.3371 160.528 94.5937C160.227 94.8502 159.854 95.0085 159.46 95.0474C159.593 94.632 159.703 94.2096 159.789 93.782C159.889 93.2779 159.959 92.7687 160.001 92.2566C160.025 91.953 160.034 91.6461 160.036 91.3386C160.462 91.5227 160.808 91.8532 161.011 92.2702C161.214 92.6873 161.261 93.1633 161.144 93.6121H161.145Z" fill="black"/>
<path d="M153.826 95.8363C153.775 95.8247 153.722 95.8285 153.673 95.847C153.624 95.8656 153.582 95.8981 153.551 95.9405C153.18 96.4065 152.703 96.7778 152.16 97.0238C151.618 97.2698 151.024 97.3836 150.429 97.3558C149.992 97.3352 149.993 98.0146 150.429 98.0345C151.021 98.0595 151.611 97.9653 152.166 97.7573C152.721 97.5493 153.228 97.2318 153.658 96.8238C153.631 97.7668 153.274 98.6705 152.65 99.3778C152.432 99.6216 152.791 99.9832 153.01 99.7374C153.457 99.2352 153.788 98.6403 153.979 97.9953C154.17 97.3502 154.216 96.671 154.114 96.0061C154.111 95.9736 154.1 95.9424 154.083 95.9149C154.065 95.8875 154.041 95.8645 154.013 95.848C153.985 95.8315 153.953 95.8218 153.921 95.8197C153.888 95.8177 153.855 95.8234 153.826 95.8363Z" fill="black"/>
<path d="M114.631 38.8443C114.931 40.5405 115.232 42.237 115.532 43.9337C115.589 44.2554 116.079 44.1196 116.023 43.7986C115.722 42.1019 115.422 40.4052 115.122 38.7085C115.065 38.3869 114.578 38.5233 114.631 38.8443Z" fill="#84D0AB"/>
<path d="M116.369 22.9098L116.662 33.6882C116.671 33.7495 116.701 33.8056 116.748 33.8462C116.795 33.8868 116.855 33.9092 116.917 33.9092C116.979 33.9092 117.039 33.8868 117.085 33.8462C117.132 33.8056 117.163 33.7495 117.172 33.6882L116.878 22.9098C116.868 22.8489 116.838 22.7933 116.791 22.7532C116.744 22.713 116.685 22.6909 116.623 22.6909C116.562 22.6909 116.502 22.713 116.455 22.7532C116.409 22.7933 116.378 22.8489 116.369 22.9098Z" fill="#84D0AB"/>
<path d="M118.543 39.0737L119.165 46.8581C119.19 47.1797 119.7 47.1855 119.674 46.8581C119.466 44.2641 119.259 41.6694 119.053 39.0737C119.026 38.7495 118.517 38.7469 118.543 39.0737Z" fill="#84D0AB"/>
<path d="M120.442 27.6998C120.455 30.5935 120.469 33.4874 120.483 36.3816C120.492 36.4425 120.523 36.498 120.569 36.5382C120.616 36.5783 120.676 36.6004 120.737 36.6004C120.799 36.6004 120.858 36.5783 120.905 36.5382C120.952 36.498 120.982 36.4425 120.992 36.3816C120.978 33.4879 120.965 30.5939 120.951 27.6998C120.941 27.6389 120.911 27.5833 120.864 27.5432C120.817 27.503 120.758 27.481 120.696 27.481C120.635 27.481 120.575 27.503 120.528 27.5432C120.482 27.5833 120.451 27.6389 120.442 27.6998Z" fill="#84D0AB"/>
<path d="M121.483 12.7307C121.718 16.3209 121.954 19.9112 122.19 23.5014C122.211 23.8269 122.721 23.8295 122.7 23.5014C122.463 19.9116 122.227 16.3214 121.992 12.7307C121.97 12.4052 121.461 12.4033 121.483 12.7307Z" fill="#84D0AB"/>
<path d="M124.203 35.4832V45.6627C124.211 45.724 124.242 45.7802 124.289 45.8208C124.335 45.8614 124.395 45.8837 124.457 45.8837C124.519 45.8837 124.579 45.8614 124.626 45.8208C124.673 45.7802 124.703 45.724 124.712 45.6627V35.4832C124.703 35.4219 124.673 35.3658 124.626 35.3252C124.579 35.2846 124.519 35.2622 124.457 35.2622C124.395 35.2622 124.335 35.2846 124.289 35.3252C124.242 35.3658 124.211 35.4219 124.203 35.4832Z" fill="#84D0AB"/>
<path d="M118.923 20.5222L118.323 11.8372C118.301 11.5155 117.791 11.5097 117.814 11.8372L118.414 20.5222C118.438 20.8438 118.947 20.8477 118.923 20.5222Z" fill="#84D0AB"/>
<path d="M113.411 6.74169L113.71 16.3229C113.72 16.6497 114.229 16.651 114.219 16.3229L113.92 6.74169C113.91 6.41487 113.401 6.41359 113.411 6.74169Z" fill="#84D0AB"/>
<path d="M111.861 21.1172C112.169 25.0085 112.477 28.9 112.786 32.7918C112.811 33.1134 113.321 33.1192 113.295 32.7918L112.37 21.1172C112.345 20.793 111.835 20.7904 111.861 21.1172Z" fill="#84D0AB"/>
<path d="M118.703 9.139C118.479 7.24588 118.254 5.35255 118.03 3.45901C117.992 3.13734 117.483 3.13348 117.522 3.45901C117.745 5.35212 117.97 7.24545 118.194 9.139C118.232 9.46002 118.742 9.46388 118.703 9.139Z" fill="#84D0AB"/>
<path d="M126.479 6.13792L126.241 12.128C126.228 12.4555 126.737 12.4555 126.75 12.128L126.989 6.13792C127.002 5.80982 126.493 5.81047 126.479 6.13792Z" fill="#84D0AB"/>
<path d="M125.193 22.0205L125.607 30.6971C125.622 31.0233 126.132 31.0252 126.116 30.6971L125.702 22.0205C125.687 21.6937 125.178 21.6924 125.193 22.0205Z" fill="#84D0AB"/>
<path d="M94.597 180.82C92.1684 178.558 87.5287 180.441 84.3384 181.438C81.1481 182.435 78.7472 183.264 75.9108 185.029C75.2031 185.469 74.3925 186.173 74.6575 186.959C74.938 187.792 76.096 187.806 76.9626 187.66L91.2182 185.248C92.2866 185.172 93.3086 184.782 94.1563 184.128C94.9258 183.397 95.4707 181.425 94.597 180.82Z" fill="black"/>
<path d="M145.329 163.646C145.184 163.352 144.745 163.61 144.889 163.903C145.28 164.697 145.649 165.501 145.998 166.314C146.127 166.614 146.565 166.355 146.438 166.056C146.088 165.244 145.718 164.44 145.329 163.646Z" fill="black"/>
<path d="M147.808 161.443C147.954 163.066 148.139 164.684 148.365 166.298C148.41 166.62 148.901 166.483 148.856 166.162C148.637 164.594 148.458 163.021 148.318 161.443C148.288 161.119 147.779 161.116 147.808 161.443Z" fill="black"/>
<path d="M151.119 160.862L150.658 166.287C150.629 166.614 151.139 166.609 151.167 166.287L151.628 160.862C151.656 160.535 151.146 160.537 151.119 160.862Z" fill="black"/>
<path d="M153.766 160.923L152.29 166.386C152.282 166.447 152.297 166.509 152.332 166.56C152.366 166.611 152.417 166.649 152.477 166.665C152.537 166.681 152.6 166.676 152.656 166.649C152.711 166.623 152.756 166.577 152.781 166.521L154.257 161.059C154.265 160.998 154.25 160.936 154.216 160.884C154.182 160.833 154.13 160.795 154.07 160.779C154.011 160.762 153.947 160.768 153.891 160.794C153.836 160.821 153.791 160.867 153.766 160.923Z" fill="black"/>
<path d="M156.446 161.898L154.675 166.376C154.554 166.68 155.047 166.813 155.166 166.511L156.937 162.034C157.058 161.729 156.565 161.597 156.446 161.898Z" fill="black"/>
<path d="M158.251 163.839L156.951 166.378C156.802 166.669 157.241 166.927 157.39 166.635C157.824 165.788 158.257 164.942 158.69 164.096C158.839 163.805 158.401 163.547 158.251 163.839Z" fill="black"/>
<path d="M162.207 170.676C162.082 170.378 161.589 170.509 161.715 170.811L162.483 172.654C162.608 172.952 163.101 172.821 162.975 172.519L162.207 170.676Z" fill="black"/>
<path d="M163.885 169.92C163.86 169.864 163.816 169.818 163.76 169.791C163.704 169.765 163.641 169.759 163.581 169.776C163.522 169.792 163.47 169.83 163.436 169.881C163.401 169.933 163.387 169.995 163.394 170.056C163.633 170.947 163.872 171.838 164.111 172.729C164.136 172.786 164.18 172.831 164.236 172.858C164.292 172.884 164.356 172.89 164.415 172.873C164.475 172.857 164.526 172.82 164.561 172.768C164.595 172.717 164.61 172.655 164.602 172.593C164.363 171.701 164.124 170.81 163.885 169.92Z" fill="black"/>
<path d="M165.619 169.612V172.806C165.628 172.867 165.659 172.922 165.706 172.962C165.752 173.003 165.812 173.025 165.874 173.025C165.935 173.025 165.995 173.003 166.041 172.962C166.088 172.922 166.119 172.867 166.128 172.806V169.612C166.119 169.552 166.088 169.496 166.041 169.456C165.995 169.416 165.935 169.394 165.874 169.394C165.812 169.394 165.752 169.416 165.706 169.456C165.659 169.496 165.628 169.552 165.619 169.612Z" fill="black"/>
<path d="M168.476 169.132C168.238 170.325 167.999 171.517 167.761 172.708C167.696 173.03 168.187 173.165 168.252 172.843C168.49 171.652 168.729 170.46 168.967 169.268C169.031 168.945 168.54 168.811 168.476 169.132Z" fill="black"/>
<path d="M171.226 169.526L170.019 172.605C169.899 172.91 170.391 173.042 170.51 172.741L171.717 169.661C171.834 169.356 171.344 169.224 171.226 169.526Z" fill="black"/>
<path d="M174.163 170.8L173.07 172.564C172.896 172.843 173.336 173.098 173.509 172.821L174.603 171.058C174.776 170.779 174.336 170.522 174.163 170.8Z" fill="black"/>
<path d="M11.5337 72.7185C11.3773 72.4303 10.9373 72.687 11.0936 72.9758L14.246 78.7871C14.4023 79.0753 14.8417 78.8186 14.6854 78.5297C13.6346 76.5929 12.584 74.6558 11.5337 72.7185Z" fill="black"/>
<path d="M17.2915 73.5332C16.957 75.2624 16.6227 76.9919 16.2886 78.7216C16.2242 79.0433 16.7177 79.179 16.7801 78.8567C17.1142 77.1275 17.4483 75.398 17.7824 73.6683C17.8441 73.3466 17.3539 73.2115 17.2915 73.5332Z" fill="black"/>
<path d="M24.6763 74.0352L20.6877 80.0259C20.5056 80.2993 20.945 80.5547 21.1277 80.2832L25.1164 74.2919C25.2984 74.0185 24.8571 73.7631 24.6763 74.0352Z" fill="black"/>
<path d="M179.829 81.7875C179.685 81.4071 179.462 81.0613 179.176 80.7725C178.89 80.4837 178.546 80.2583 178.167 80.1109C177.757 80.0128 177.327 80.0436 176.935 80.1992C176.544 80.3548 176.21 80.6275 175.979 80.9801C175.438 81.8782 175.178 82.9179 175.233 83.9652C175.289 84.5318 175.175 85.1023 174.906 85.6037C174.429 86.1609 173.849 85.2711 173.641 84.9076C173.545 84.6772 173.403 84.4684 173.225 84.2935C173.047 84.1187 172.835 83.9815 172.603 83.8899C172.408 83.8235 172.197 83.8231 172.003 83.8887C171.808 83.9543 171.64 84.0822 171.525 84.2527C171.502 84.2918 171.49 84.3362 171.49 84.3814C171.49 84.4266 171.502 84.4709 171.525 84.5101C173.048 87.3099 173.923 90.4159 174.086 93.5991C174.102 93.9246 174.612 93.9272 174.595 93.5991C174.431 90.3891 173.562 87.2547 172.049 84.4187C172.307 84.2109 172.741 84.4908 172.911 84.7043C173.147 85.1123 173.411 85.5036 173.701 85.8752C173.837 86.0232 174.008 86.1352 174.197 86.201C174.387 86.2668 174.59 86.2844 174.788 86.2522C174.962 86.2003 175.119 86.1067 175.248 85.9796C175.377 85.8525 175.472 85.6959 175.526 85.5233C175.662 85.0898 175.731 84.6382 175.73 84.1839C175.741 83.6237 175.789 83.0649 175.875 82.5112C176.033 81.6974 176.526 80.7273 177.427 80.5645C178.256 80.4152 178.878 81.0856 179.241 81.7444C179.637 82.5543 179.898 83.4235 180.013 84.3177C180.721 88.4479 179.84 92.6929 177.548 96.2007C177.367 96.4754 177.805 96.7308 177.987 96.458C180.27 92.9445 181.188 88.7169 180.568 84.5731C180.453 83.6145 180.205 82.6767 179.829 81.7875Z" fill="black"/>
<path d="M179.994 76.1167C179.823 75.8375 179.382 76.0935 179.554 76.374C181.536 79.6095 182.598 83.3238 182.627 87.1177C182.635 88.1854 182.559 89.2522 182.4 90.308C182.352 90.6296 182.842 90.7667 182.891 90.4437C183.473 86.5857 182.988 82.6422 181.489 79.04C181.067 78.0281 180.567 77.0507 179.994 76.1167Z" fill="black"/>
<path d="M185.094 79.7221C185.069 79.6655 185.025 79.6197 184.969 79.5932C184.913 79.5667 184.85 79.5612 184.79 79.5777C184.73 79.5941 184.679 79.6315 184.644 79.683C184.61 79.7344 184.595 79.7965 184.603 79.8578C185.713 83.7381 185.63 87.8627 184.365 91.6951C184.262 92.0065 184.751 92.1403 184.855 91.8302C186.146 87.9092 186.229 83.6909 185.094 79.7221Z" fill="black"/>
<path d="M170.136 135.627C171.279 135.747 172.388 136.087 173.403 136.628C173.874 136.872 174.496 137.131 174.972 136.76C175.143 136.589 175.259 136.372 175.306 136.135C175.353 135.899 175.329 135.653 175.236 135.43C174.934 134.322 174.495 133.255 173.932 132.254C173.419 131.275 172.638 130.463 171.68 129.912C171.127 129.617 170.368 129.406 170.094 128.779C169.826 128.164 170.488 127.741 170.566 127.164C170.593 127.057 170.597 126.946 170.577 126.837C170.557 126.728 170.514 126.626 170.45 126.536C170.386 126.446 170.303 126.371 170.207 126.316C170.111 126.261 170.004 126.228 169.894 126.219C169.323 126.219 168.957 126.889 168.629 127.267C166.754 129.421 164.372 131.076 161.699 132.082C161.394 132.196 161.526 132.688 161.834 132.573C164.069 131.737 166.113 130.461 167.846 128.821C168.27 128.419 168.672 127.996 169.053 127.553C169.236 127.339 169.4 127.099 169.602 126.904C169.679 126.829 169.826 126.685 169.947 126.735C170.069 126.784 170.076 126.951 170.068 127.056C170.013 127.301 169.903 127.529 169.746 127.725C169.585 127.97 169.505 128.26 169.517 128.553C169.557 128.817 169.656 129.068 169.808 129.288C169.959 129.508 170.159 129.69 170.391 129.821C170.89 130.143 171.46 130.324 171.943 130.676C172.379 131.002 172.759 131.396 173.068 131.844C173.677 132.768 174.156 133.772 174.493 134.826C174.622 135.198 175.008 135.935 174.715 136.306C174.366 136.741 173.492 136.092 173.136 135.927C172.161 135.477 171.113 135.2 170.042 135.111C167.569 134.894 165.11 135.656 163.193 137.234C162.942 137.445 163.304 137.804 163.553 137.595C164.468 136.85 165.519 136.293 166.649 135.956C167.778 135.618 168.963 135.506 170.136 135.627Z" fill="black"/>
<path d="M176.926 145.103C176.192 143.868 175.156 142.839 173.916 142.114C172.675 141.389 171.271 140.99 169.834 140.956C169.017 140.937 168.202 141.045 167.419 141.278C167.361 141.303 167.315 141.347 167.288 141.403C167.261 141.459 167.255 141.523 167.272 141.583C167.289 141.643 167.326 141.695 167.378 141.729C167.43 141.764 167.493 141.778 167.554 141.77C169.231 141.305 171.014 141.405 172.628 142.054C174.242 142.703 175.598 143.865 176.486 145.361C176.525 145.41 176.58 145.443 176.641 145.455C176.702 145.467 176.765 145.456 176.819 145.424C176.873 145.393 176.913 145.343 176.933 145.284C176.953 145.224 176.95 145.16 176.926 145.103Z" fill="black"/>
<path d="M125.454 183.414C125.33 183.116 124.837 183.247 124.963 183.55L125.731 185.392C125.856 185.69 126.349 185.559 126.223 185.257L125.454 183.414Z" fill="black"/>
<path d="M127.134 182.662C127.109 182.605 127.065 182.558 127.009 182.531C126.953 182.504 126.889 182.499 126.829 182.515C126.769 182.532 126.717 182.569 126.682 182.621C126.648 182.673 126.634 182.736 126.642 182.797C126.881 183.688 127.119 184.579 127.359 185.47C127.384 185.527 127.428 185.573 127.484 185.599C127.54 185.626 127.603 185.631 127.662 185.615C127.722 185.598 127.774 185.561 127.808 185.51C127.842 185.459 127.857 185.397 127.85 185.335L127.134 182.662Z" fill="black"/>
<path d="M128.867 182.354V185.547C128.876 185.608 128.907 185.664 128.953 185.704C129 185.744 129.06 185.766 129.121 185.766C129.183 185.766 129.242 185.744 129.289 185.704C129.336 185.664 129.366 185.608 129.376 185.547V182.354C129.366 182.293 129.336 182.237 129.289 182.197C129.242 182.157 129.183 182.135 129.121 182.135C129.06 182.135 129 182.157 128.953 182.197C128.907 182.237 128.876 182.293 128.867 182.354Z" fill="black"/>
<path d="M131.724 181.87C131.486 183.062 131.247 184.253 131.008 185.445C130.944 185.767 131.435 185.902 131.5 185.58C131.738 184.389 131.976 183.197 132.215 182.005C132.279 181.687 131.788 181.548 131.724 181.87Z" fill="black"/>
<path d="M134.473 182.267L133.266 185.344C133.147 185.65 133.639 185.782 133.757 185.48C134.16 184.453 134.563 183.427 134.965 182.401C135.084 182.098 134.592 181.966 134.473 182.267Z" fill="black"/>
<path d="M137.411 183.543L136.317 185.306C136.143 185.585 136.584 185.841 136.757 185.563L137.85 183.801C138.024 183.52 137.584 183.265 137.411 183.543Z" fill="black"/>
<path d="M52.7154 177.049C52.5912 176.751 52.0984 176.882 52.2245 177.185L52.9927 179.027C53.1168 179.325 53.6103 179.194 53.4835 178.892L52.7154 177.049Z" fill="black"/>
<path d="M54.3945 176.295C54.3696 176.238 54.3252 176.192 54.2694 176.166C54.2137 176.14 54.1503 176.134 54.0908 176.15C54.0313 176.167 53.9796 176.204 53.9453 176.255C53.9109 176.306 53.8961 176.368 53.9036 176.43C54.1425 177.32 54.3814 178.211 54.6203 179.103C54.6452 179.159 54.6896 179.205 54.7453 179.231C54.8011 179.258 54.8645 179.263 54.924 179.247C54.9835 179.231 55.0352 179.193 55.0695 179.142C55.1039 179.091 55.1186 179.029 55.1112 178.968C54.8723 178.077 54.6334 177.186 54.3945 176.295Z" fill="black"/>
<path d="M56.1283 175.986V179.179C56.1375 179.24 56.1682 179.296 56.2149 179.336C56.2616 179.376 56.3211 179.398 56.3827 179.398C56.4443 179.398 56.5038 179.376 56.5505 179.336C56.5972 179.296 56.6279 179.24 56.6371 179.179V175.986C56.6279 175.925 56.5972 175.869 56.5505 175.829C56.5038 175.789 56.4443 175.767 56.3827 175.767C56.3211 175.767 56.2616 175.789 56.2149 175.829C56.1682 175.869 56.1375 175.925 56.1283 175.986Z" fill="black"/>
<path d="M58.9853 175.501C58.7468 176.693 58.5084 177.884 58.2699 179.076C58.2056 179.398 58.6964 179.533 58.7608 179.212C58.9997 178.02 59.2381 176.828 59.4762 175.636C59.5405 175.319 59.0496 175.179 58.9853 175.501Z" fill="black"/>
<path d="M61.7349 175.9L60.528 178.979C60.4084 179.284 60.9005 179.417 61.0189 179.114L62.2258 176.035C62.3454 175.73 61.8533 175.598 61.7349 175.9Z" fill="black"/>
<path d="M64.6724 177.174L63.5787 178.937C63.405 179.216 63.845 179.472 64.0181 179.194L65.1118 177.431C65.2855 177.153 64.848 176.897 64.6724 177.174Z" fill="black"/>
<path d="M32.4587 187.407C32.3346 187.11 31.8418 187.24 31.9679 187.543L32.736 189.385C32.8602 189.683 33.353 189.552 33.2269 189.249L32.4587 187.407Z" fill="black"/>
<path d="M34.1378 186.652C34.1129 186.596 34.0685 186.55 34.0128 186.524C33.957 186.497 33.8936 186.492 33.8341 186.508C33.7746 186.525 33.723 186.562 33.6886 186.613C33.6543 186.664 33.6395 186.726 33.647 186.788L34.3637 189.461C34.3886 189.518 34.433 189.564 34.4888 189.59C34.5447 189.617 34.6082 189.622 34.6678 189.606C34.7274 189.589 34.779 189.552 34.8133 189.5C34.8476 189.449 34.8622 189.387 34.8545 189.325C34.6161 188.435 34.3772 187.544 34.1378 186.652Z" fill="black"/>
<path d="M35.8716 186.344V189.537C35.8808 189.598 35.9116 189.654 35.9583 189.694C36.0049 189.734 36.0645 189.756 36.1261 189.756C36.1876 189.756 36.2472 189.734 36.2939 189.694C36.3405 189.654 36.3713 189.598 36.3805 189.537V186.344C36.3713 186.283 36.3405 186.227 36.2939 186.187C36.2472 186.147 36.1876 186.125 36.1261 186.125C36.0645 186.125 36.0049 186.147 35.9583 186.187C35.9116 186.227 35.8808 186.283 35.8716 186.344Z" fill="black"/>
<path d="M38.7287 185.859C38.4902 187.051 38.2517 188.243 38.0133 189.435C37.9489 189.756 38.4398 189.891 38.5041 189.57C38.7426 188.378 38.9811 187.186 39.2195 185.995C39.2839 185.677 38.793 185.537 38.7287 185.859Z" fill="black"/>
<path d="M41.4783 186.258L40.2727 189.337C40.153 189.642 40.6452 189.774 40.7635 189.472C41.1654 188.446 41.5677 187.419 41.9704 186.393C42.0888 186.088 41.5966 185.955 41.4783 186.258Z" fill="black"/>
<path d="M44.4151 187.531L43.3214 189.295C43.1484 189.573 43.5884 189.829 43.7615 189.552L44.8551 187.789C45.0288 187.51 44.5881 187.254 44.4151 187.531Z" fill="black"/>
<path d="M158.033 186.394C157.909 186.096 157.416 186.227 157.542 186.529L158.31 188.372C158.434 188.67 158.927 188.539 158.801 188.236L158.033 186.394Z" fill="black"/>
<path d="M159.712 185.639C159.687 185.582 159.643 185.537 159.587 185.51C159.531 185.484 159.468 185.478 159.408 185.495C159.349 185.511 159.297 185.548 159.263 185.599C159.228 185.651 159.214 185.713 159.221 185.774L159.937 188.447C159.962 188.503 160.006 188.549 160.062 188.575C160.118 188.602 160.181 188.608 160.241 188.591C160.3 188.575 160.352 188.538 160.386 188.486C160.421 188.435 160.436 188.373 160.428 188.312L159.712 185.639Z" fill="black"/>
<path d="M161.445 185.33V188.524C161.454 188.585 161.484 188.641 161.531 188.682C161.578 188.723 161.638 188.745 161.7 188.745C161.762 188.745 161.822 188.723 161.869 188.682C161.915 188.641 161.946 188.585 161.955 188.524V185.33C161.946 185.269 161.915 185.213 161.869 185.172C161.822 185.132 161.762 185.109 161.7 185.109C161.638 185.109 161.578 185.132 161.531 185.172C161.484 185.213 161.454 185.269 161.445 185.33Z" fill="black"/>
<path d="M164.303 184.849C164.064 186.04 163.826 187.232 163.587 188.424C163.523 188.745 164.014 188.881 164.078 188.559C164.316 187.367 164.555 186.176 164.794 184.984C164.857 184.664 164.367 184.527 164.303 184.849Z" fill="black"/>
<path d="M167.052 185.245L165.845 188.324C165.725 188.629 166.218 188.761 166.336 188.459L167.543 185.38C167.663 185.075 167.171 184.942 167.052 185.245Z" fill="black"/>
<path d="M169.989 186.519L168.896 188.282C168.722 188.561 169.163 188.817 169.335 188.539L170.429 186.777C170.602 186.497 170.162 186.241 169.989 186.519Z" fill="black"/>
<path d="M72.5442 66.0298C72.7379 66.2743 72.9438 66.5087 73.1612 66.7323C74.2693 67.8106 75.5624 68.6808 76.9787 69.3012L85.6476 56.0755C84.3854 55.7944 83.1528 55.3286 81.9124 54.9478C79.9824 58.398 77.2682 61.3296 74.5315 64.1596C73.9238 64.8388 73.259 65.4645 72.5442 66.0298Z" fill="#84D0AB"/>
<path d="M91.9272 28.4998C91.0227 26.8618 88.6623 26.562 86.9594 27.336C85.2565 28.1099 84.047 29.6468 82.8607 31.093C81.6744 32.5392 80.3517 34.015 78.5645 34.5767C75.3433 35.5912 69.2799 32.1236 65.5621 32.4035C65.1887 32.3761 64.8137 32.3789 64.4408 32.4119C61.4242 32.6859 59.2639 35.1274 57.7501 37.5334C55.9843 40.3696 54.5942 43.4231 53.6147 46.6173C52.5131 49.9768 51.9698 53.4943 52.0064 57.0297C52.0474 60.3242 52.9076 63.5567 54.5096 66.4358C55.905 68.8496 58.2352 71.5124 61.253 71.596C61.8891 71.6155 62.5226 71.507 63.1161 71.2772C63.7095 71.0473 64.2507 70.7007 64.7077 70.2579C65.1397 69.8343 65.4506 69.303 65.6084 68.719C65.777 67.894 65.7178 67.0387 65.4373 66.2448C65.1742 65.3602 64.8145 64.502 64.4884 63.6393L63.5234 61.0904C62.8672 59.3542 62.2108 57.6172 61.5541 55.8794C61.4383 55.5719 61.9298 55.4413 62.0456 55.7443C62.8444 57.9876 63.8662 60.1452 65.0957 62.1847C65.6501 63.0687 66.2833 63.9007 66.9877 64.6705C67.6569 65.4806 68.497 66.1327 69.4478 66.5799C69.9654 66.7748 70.526 66.8264 71.0705 66.7294C71.615 66.6324 72.1232 66.3903 72.5416 66.0286C73.2564 65.4633 73.9212 64.8376 74.5289 64.1584C77.2656 61.3278 79.9805 58.3967 81.9098 54.9465C82.0919 54.621 82.2765 54.2974 82.4438 53.9616C82.4094 53.9655 82.3746 53.9625 82.3415 53.9526C82.3083 53.9428 82.2775 53.9264 82.2508 53.9043C81.6717 53.4424 81.1358 52.9288 80.6496 52.37C79.2173 50.6279 78.07 48.67 77.2502 46.5691C78.3177 46.5017 79.3687 46.2713 80.3665 45.8858C86.3945 43.1459 89.7887 38.8092 91.8513 32.5161C92.2862 31.2063 92.5943 29.7066 91.9272 28.4998ZM62.6607 50.2303C62.6417 50.2551 62.6174 50.2755 62.5896 50.2898C62.5618 50.3042 62.5311 50.3122 62.4998 50.3133C62.3526 51.8562 61.9504 53.3641 61.3097 54.7754C61.1739 55.0733 60.7352 54.8147 60.8696 54.5181C62.0037 52.0167 62.343 49.2276 61.8417 46.5272C61.7819 46.2056 62.2727 46.0705 62.3332 46.3921C62.525 47.4233 62.6001 48.4727 62.5571 49.5207C63.1129 48.6767 63.3513 47.663 63.23 46.6598C63.1921 46.3342 63.7016 46.3381 63.7389 46.6598C63.8101 47.2969 63.7512 47.9418 63.5659 48.5556C63.3805 49.1693 63.0726 49.739 62.6607 50.2303ZM68.652 43.9951C68.3865 43.5958 68.1204 43.1965 67.8536 42.7972C67.6716 42.5238 68.111 42.269 68.2937 42.5399L69.0921 43.7371C69.2722 44.0118 68.8309 44.2666 68.6495 43.9951H68.652ZM70.4752 47.7669C70.2752 47.5096 70.7178 47.2523 70.9153 47.5096L71.9639 48.8677C72.164 49.125 71.7214 49.3823 71.5239 49.125C71.1726 48.6704 70.8222 48.2177 70.4727 47.7669H70.4752ZM74.2169 53.7918L73.4133 52.5977C73.2293 52.3243 73.6707 52.0702 73.8527 52.3404L74.6563 53.5344C74.8377 53.8072 74.3964 54.062 74.2143 53.7918H74.2169ZM76.6364 58.1664C76.3701 57.7671 76.104 57.3678 75.8381 56.9685C75.6554 56.6951 76.0954 56.4404 76.2775 56.7112L77.0758 57.9084C77.256 58.1831 76.814 58.4379 76.6339 58.1664H76.6364ZM76.8848 53.6193C76.1488 52.7869 75.4482 51.925 74.783 51.0338C74.5089 50.6667 74.242 50.2944 73.982 49.917C73.7852 49.6333 73.596 49.3437 73.4075 49.0549C73.3535 48.9725 73.2975 48.8921 73.2448 48.8091C73.0119 48.4467 72.7852 48.08 72.5648 47.709L72.5551 47.6936C71.2349 45.4833 70.1322 43.1502 69.2626 40.7269C69.1519 40.4175 69.644 40.2856 69.7541 40.5918C70.125 41.6289 70.5396 42.6492 70.9976 43.6528C71.4563 44.6538 71.9626 45.6324 72.5024 46.5903C72.833 47.1749 73.1783 47.7511 73.5381 48.3189L73.5658 48.3633C73.9269 48.9307 74.3018 49.4883 74.6904 50.036L74.7251 50.0829C75.0686 50.5648 75.4257 51.0364 75.7905 51.5021C75.8779 51.6141 75.9654 51.7254 76.0542 51.836C76.4402 52.3185 76.8352 52.7946 77.2444 53.2578C77.4573 53.5035 77.0996 53.8651 76.8822 53.6193H76.8848Z" fill="#FCAA2A"/>
<path d="M42.1892 101.68C41.4004 101.766 40.6025 101.705 39.8358 101.501C40.0323 102.885 40.2287 104.269 40.4251 105.654C41.1868 105.431 41.9363 105.173 42.6652 104.893C44.1861 104.308 45.6812 103.634 47.1834 102.99C46.9016 101.803 46.6455 100.612 46.4152 99.4141C45.3459 100.679 43.8347 101.489 42.1892 101.68Z" fill="black"/>
<path d="M39.9343 105.791L39.3019 101.337C38.0492 100.87 36.9524 100.061 36.1357 99.003C35.319 97.9445 34.815 96.6785 34.6808 95.3484C34.2414 91.4356 36.8907 87.9262 40.5995 87.51C42.0931 87.3702 43.5912 87.7269 44.8616 88.5248C46.132 89.3226 47.1038 90.5171 47.6266 91.9232C47.6388 91.9232 47.6504 91.9194 47.6626 91.9194C48.1002 91.9173 48.5233 92.0753 48.8524 92.3637C49.1815 92.652 49.3937 93.0508 49.4491 93.4848C49.5045 93.9188 49.3992 94.3581 49.1531 94.7199C48.9069 95.0816 48.537 95.3409 48.113 95.4487C47.9876 96.6831 47.5474 97.8647 46.8347 98.8802C47.0779 100.189 47.3538 101.492 47.6626 102.787C49.1872 102.118 50.7564 101.557 52.359 101.106C52.3178 100.42 52.2689 99.7352 52.2007 99.0514C52.005 96.8086 51.5647 94.594 50.8877 92.4469C50.3234 90.5211 49.3168 88.7538 47.9483 87.2861C46.5406 85.8778 44.6531 85.0529 42.6633 84.9765C41.2833 84.9066 39.9035 85.1163 38.6066 85.593C37.3097 86.0697 36.1225 86.8036 35.1164 87.7506C32.9934 89.8035 31.7916 92.6213 30.9804 95.412C30.1722 98.5189 29.6859 101.701 29.529 104.907C29.9378 105.164 30.3643 105.393 30.8054 105.59C33.6566 106.844 36.8765 106.62 39.9343 105.791Z" fill="black"/>
<path d="M32.4813 124.414C31.5124 123.042 29.9349 122.3 28.409 121.555C28.3935 121.696 28.3813 121.838 28.3671 121.98C28.3065 124.177 28.5227 126.372 29.0105 128.515C29.2024 129.034 29.4392 129.534 29.7181 130.012C30.4269 131.169 31.4504 132.101 32.6691 132.698C33.1137 132.921 33.5753 133.107 34.0497 133.256C33.9549 131.965 33.8608 130.674 33.7673 129.383C33.6405 127.655 33.4816 125.83 32.4813 124.414Z" fill="black"/>
<path d="M62.2039 163.874C60.4108 162.889 58.7315 161.71 57.1962 160.358C56.163 159.507 55.1568 158.621 54.1635 157.726C55.115 156.549 56.0478 155.357 56.9369 154.132C58.2236 152.361 59.4352 150.538 60.5718 148.664C61.1293 147.745 61.6644 146.813 62.1769 145.869L62.2277 145.774V144.713C62.1897 144.778 62.146 144.849 62.1235 144.892C61.9948 145.132 61.8661 145.372 61.7375 145.612C61.4844 146.077 61.2271 146.538 60.9655 146.996C59.8933 148.864 58.7417 150.682 57.5108 152.45C55.0211 156.013 52.2783 159.392 49.3038 162.562C46.3482 165.718 43.2207 168.709 39.9356 171.52C39.5594 171.851 39.1583 172.152 38.7357 172.421C37.3174 171.236 35.8832 170.071 34.4331 168.925C34.4621 168.923 34.4902 168.914 34.5157 168.9C34.5412 168.886 34.5637 168.868 34.5817 168.845C38.2599 164.453 41.848 159.989 45.346 155.451C48.8534 150.901 52.2672 146.281 55.5872 141.591C57.3937 139.039 59.1712 136.465 60.9198 133.871L60.2224 133.99C57.1679 138.504 54.0293 142.958 50.8066 147.351C47.4072 151.979 43.9144 156.536 40.328 161.022C38.3208 163.533 36.2849 166.02 34.2202 168.485C34.1925 168.517 34.1734 168.555 34.1647 168.596C34.1561 168.638 34.1581 168.681 34.1707 168.721C33.0062 167.8 31.836 166.887 30.66 165.98C31.1792 165.027 31.8482 164.139 32.4497 163.24C33.1137 162.247 33.7784 161.254 34.4441 160.261L38.461 154.255L46.4943 142.241L50.8233 135.772L50.6406 135.813C50.4599 135.854 50.2797 135.899 50.0989 135.942L49.1429 137.372L47.0843 140.449C45.8619 142.278 44.6396 144.106 43.4173 145.934C42.3467 144.509 41.3574 143.025 40.4541 141.488C39.9554 140.636 39.5349 139.74 39.1977 138.812C39.0317 138.856 38.8657 138.901 38.6991 138.944C39.5864 141.135 40.7581 143.2 42.184 145.086C42.4883 145.521 42.81 145.942 43.1271 146.367L42.9341 146.654L34.666 159.014L32.3423 162.488L31.1804 164.225C30.7923 164.768 30.4354 165.332 30.1112 165.916C30.0796 165.974 30.0714 166.043 30.0883 166.108C30.1053 166.172 30.1461 166.228 30.2026 166.264C33.0223 168.429 35.8131 170.633 38.5402 172.915C38.5808 172.953 38.6325 172.978 38.6878 172.985C38.7431 172.992 38.7993 172.982 38.8483 172.955C39.7714 172.356 40.6333 171.667 41.4217 170.9C42.2366 170.184 43.0409 169.457 43.8348 168.721C45.4406 167.233 47.0039 165.7 48.5247 164.123C50.3788 162.196 52.1514 160.195 53.8425 158.12C54.4067 158.631 54.9709 159.141 55.5486 159.635C57.2122 161.137 58.9928 162.503 60.8735 163.721C61.3127 163.988 61.7651 164.232 62.229 164.453V163.216C62.2277 163.421 62.2065 163.651 62.2039 163.874Z" fill="#FF9052"/>
<path d="M37.5391 159.547L32.1467 166.707C31.9499 166.969 32.3918 167.222 32.5868 166.964L42.1846 154.217L51.7825 141.469L56.9871 134.557C56.7414 134.602 56.4969 134.648 56.2518 134.693L47.137 146.798L37.5391 159.547Z" fill="#FF9052"/>
<path d="M42.4047 163.42C40.5068 165.736 38.5736 168.021 36.605 170.275C36.3908 170.52 36.7491 170.882 36.9653 170.634C40.4822 166.603 43.8878 162.478 47.1821 158.259C50.4764 154.04 53.6523 149.731 56.7098 145.333C58.4292 142.861 60.1105 140.362 61.7536 137.837C61.9324 137.561 61.4917 137.306 61.3135 137.58C58.4057 142.048 55.3775 146.436 52.229 150.741C49.0715 155.057 45.7968 159.283 42.4047 163.42Z" fill="#FF9052"/>
<path d="M60.3955 143.492C57.9551 147.411 55.3389 151.211 52.5468 154.893C49.759 158.567 46.8025 162.105 43.6772 165.508C41.9162 167.427 40.106 169.299 38.2468 171.124C38.0126 171.354 38.3755 171.714 38.6071 171.484C41.9134 168.237 45.0657 164.842 48.0641 161.299C51.0457 157.77 53.8609 154.109 56.5098 150.317C58.0109 148.166 59.4545 145.977 60.8407 143.75C61.0092 143.47 60.5685 143.214 60.3955 143.492Z" fill="#FF9052"/>
<path d="M42.0142 119.675L41.165 114.74C41.0486 115.226 40.8197 115.677 40.4968 116.057C40.174 116.438 39.7662 116.737 39.3064 116.931C38.1484 117.413 36.9621 117.005 35.9173 116.43C36.2398 117.933 36.5615 119.436 36.8823 120.939C38.463 120.187 40.176 119.752 41.9241 119.66C41.9548 119.659 41.9853 119.664 42.0142 119.675Z" fill="#DE9E55"/>
<path d="M39.0252 116.498C39.4523 116.337 39.8309 116.069 40.1247 115.72C40.4185 115.371 40.6176 114.952 40.7031 114.503L35.8247 115.79C36.7839 116.37 37.9097 116.902 39.0252 116.498Z" fill="#DE9E55"/>
<path d="M50.0983 135.941C50.2791 135.899 50.4592 135.854 50.64 135.812L50.8227 135.77C51.0022 135.729 51.1817 135.686 51.3618 135.648C52.9869 135.301 54.6177 134.99 56.2511 134.691C56.4962 134.647 56.7407 134.6 56.9865 134.556C58.0634 134.363 59.1412 134.174 60.2199 133.991L60.9172 133.872L62.2271 133.648V101.924C59.7309 100.616 56.8664 100.19 54.0979 100.715C53.5092 100.817 52.9309 100.954 52.357 101.107C50.7545 101.557 49.1852 102.119 47.6607 102.788C47.5018 102.852 47.3429 102.922 47.1846 102.99C45.6825 103.633 44.1873 104.308 42.6665 104.893C41.9376 105.173 41.1868 105.431 40.4264 105.654C40.2637 105.702 40.0996 105.746 39.9356 105.791C36.8778 106.62 33.6579 106.844 30.8034 105.589C30.3624 105.392 29.9358 105.164 29.5271 104.907C26.001 102.72 23.9339 98.6086 21.5356 95.1044C21.0721 94.3893 20.527 93.7306 19.9112 93.1416C17.9812 94.0069 16.0512 94.8786 14.071 95.603C14.0575 95.7034 14.0433 95.8044 14.0324 95.9034C12.9291 106.06 18.6515 116.616 27.7637 121.234C27.9773 121.342 28.1934 121.448 28.407 121.556C29.933 122.301 31.5105 123.043 32.4793 124.415C33.4797 125.83 33.6373 127.656 33.766 129.384C33.8599 130.676 33.9541 131.967 34.0484 133.257L34.3701 137.645C34.4014 138.405 34.5334 139.158 34.7625 139.884C36.0813 139.601 37.3918 139.281 38.6991 138.944C38.8657 138.901 39.0317 138.856 39.1977 138.812C42.8312 137.858 46.4409 136.783 50.0983 135.941ZM36.8553 121.515C36.8167 121.533 36.7742 121.542 36.7313 121.541C36.6884 121.54 36.6464 121.528 36.609 121.508C36.5715 121.487 36.5397 121.457 36.5161 121.421C36.4926 121.385 36.4781 121.344 36.4738 121.302C36.4463 121.271 36.4275 121.233 36.4191 121.193L35.3254 116.083L35.3158 116.077C35.2814 116.057 35.2527 116.028 35.2325 115.994C35.2122 115.96 35.201 115.921 35.2 115.881C35.1581 115.855 35.1245 115.818 35.1031 115.774C35.0817 115.73 35.0734 115.68 35.0791 115.631C35.0849 115.583 35.1044 115.537 35.1356 115.499C35.1667 115.461 35.208 115.432 35.2547 115.417C35.2912 115.359 35.3484 115.317 35.4148 115.299C35.4811 115.281 35.5517 115.289 35.6124 115.322L40.8234 113.946C40.854 113.921 40.8898 113.902 40.9284 113.892C40.967 113.882 41.0073 113.88 41.0466 113.887L41.2486 113.834C41.2822 113.824 41.3175 113.822 41.352 113.828C41.3865 113.833 41.4194 113.846 41.4486 113.865C41.4777 113.884 41.5024 113.909 41.521 113.939C41.5395 113.969 41.5515 114.002 41.5561 114.036C41.5593 114.043 41.5621 114.05 41.5645 114.058C41.8964 115.988 42.2286 117.918 42.561 119.848C42.6092 120.129 42.2393 120.268 42.1107 120.083C42.0881 120.11 42.0602 120.131 42.0287 120.147C41.9972 120.162 41.9629 120.17 41.928 120.171C40.1622 120.262 38.4347 120.72 36.8553 121.515Z" fill="#DE9E55"/>
<path d="M42.1068 120.082C42.2355 120.267 42.6067 120.128 42.5571 119.847C42.2243 117.917 41.8922 115.987 41.5606 114.057C41.5582 114.049 41.5554 114.042 41.5523 114.035C41.5477 114.001 41.5357 113.968 41.5171 113.938C41.4986 113.908 41.4739 113.883 41.4447 113.864C41.4156 113.845 41.3826 113.832 41.3481 113.827C41.3136 113.821 41.2784 113.823 41.2447 113.833L41.0427 113.886C41.0035 113.879 40.9631 113.881 40.9245 113.891C40.886 113.901 40.8501 113.92 40.8195 113.945L35.6085 115.321C35.5479 115.288 35.4773 115.28 35.4109 115.298C35.3445 115.316 35.2873 115.358 35.2508 115.416C35.2041 115.431 35.1628 115.46 35.1317 115.498C35.1006 115.536 35.081 115.582 35.0753 115.63C35.0695 115.679 35.0778 115.729 35.0993 115.773C35.1207 115.817 35.1543 115.854 35.1961 115.88C35.1972 115.92 35.2084 115.959 35.2286 115.993C35.2489 116.027 35.2776 116.056 35.3119 116.076L35.3216 116.082L36.4152 121.192C36.4236 121.232 36.4425 121.27 36.4699 121.301C36.4742 121.343 36.4887 121.384 36.5123 121.42C36.5358 121.456 36.5677 121.486 36.6051 121.507C36.6426 121.527 36.6845 121.539 36.7274 121.54C36.7703 121.541 36.8128 121.532 36.8514 121.514C38.4296 120.719 40.1557 120.261 41.9202 120.169C41.9557 120.169 41.9907 120.161 42.0229 120.146C42.0551 120.131 42.0837 120.109 42.1068 120.082ZM40.7031 114.504C40.6176 114.953 40.4185 115.372 40.1247 115.721C39.8309 116.07 39.4523 116.338 39.0252 116.499C37.9097 116.903 36.7839 116.37 35.8247 115.791L40.7031 114.504ZM35.9173 116.43C36.9621 117.005 38.1458 117.413 39.3064 116.932C39.7662 116.738 40.174 116.438 40.4969 116.058C40.8197 115.677 41.0486 115.226 41.165 114.741L42.0142 119.675C41.9853 119.665 41.9547 119.66 41.9241 119.661C40.1769 119.754 38.4648 120.188 36.8849 120.94C36.5619 119.437 36.2394 117.934 35.9173 116.43Z" fill="white"/>
<path d="M142.884 137.018C140.935 135.251 139.251 133.211 137.886 130.962V140.912C139.659 139.757 141.331 138.455 142.884 137.018Z" fill="#FCAFB7"/>
<path d="M172.671 92.9965C171.538 94.0295 170.529 95.1903 169.663 96.4557C167.758 99.204 165.674 101.924 162.887 103.77C160.099 105.616 156.459 106.472 153.351 105.235C150.789 104.214 148.934 101.959 146.559 100.555C144.03 99.0745 141.032 98.6119 138.174 99.2613C138.077 99.2838 137.981 99.3147 137.886 99.3437V129.974C137.901 130.001 137.916 130.028 137.932 130.054C138.436 130.919 138.981 131.758 139.567 132.571C141.848 135.88 144.999 138.496 148.671 140.129C152.156 141.586 156.056 141.707 159.625 140.468C161.372 139.852 162.947 138.828 164.22 137.483C165.407 136.203 166.489 134.064 165.649 132.336C164.802 130.591 162.625 130.421 160.927 130.246C159.038 130.083 157.194 129.58 155.484 128.761C151.955 126.944 149.124 124.014 147.429 120.425C145.581 116.375 144.731 111.941 144.95 107.494C144.959 107.433 144.99 107.378 145.037 107.337C145.083 107.297 145.143 107.275 145.205 107.275C145.266 107.275 145.326 107.297 145.372 107.337C145.419 107.378 145.45 107.433 145.459 107.494C145.429 108.611 145.447 109.729 145.523 110.844C145.828 115.259 147.081 119.717 149.763 123.294C150.301 124.01 150.893 124.684 151.533 125.311C152.813 122.645 153.764 119.833 154.364 116.938C159.529 117.71 164.85 115.679 168.839 112.31C172.828 108.942 175.62 104.352 177.717 99.572C177.91 99.1294 178.093 98.6778 178.262 98.2242C179.527 94.8133 175.086 90.8214 172.671 92.9965ZM159.264 132.72C159.464 133.717 159.663 134.715 159.863 135.714C159.928 136.036 159.436 136.17 159.372 135.849L158.773 132.855C158.71 132.534 159.2 132.398 159.264 132.72ZM151.312 138.347L153.707 135.053C153.9 134.791 154.34 135.045 154.147 135.31L151.751 138.604C151.562 138.866 151.119 138.612 151.312 138.347ZM145.023 133.325L146.246 129.14C146.271 129.083 146.315 129.038 146.371 129.011C146.427 128.985 146.49 128.979 146.549 128.995C146.609 129.012 146.661 129.049 146.695 129.1C146.729 129.152 146.744 129.213 146.737 129.275L145.518 133.46C145.494 133.519 145.45 133.566 145.394 133.594C145.337 133.622 145.273 133.628 145.212 133.611C145.151 133.595 145.099 133.556 145.064 133.504C145.03 133.451 145.016 133.387 145.025 133.325H145.023ZM143.672 123.949L140.709 121.811C140.445 121.622 140.699 121.18 140.966 121.372L143.93 123.509C144.196 123.7 143.942 124.141 143.676 123.949H143.672ZM151.176 109.275C150.976 109.674 150.776 110.073 150.577 110.473C150.43 110.766 149.991 110.507 150.137 110.215C150.336 109.816 150.536 109.417 150.736 109.018C150.885 108.723 151.325 108.981 151.179 109.275H151.176ZM159.443 110.552L156.452 112.648C156.183 112.836 155.929 112.394 156.195 112.208L159.189 110.112C159.459 109.924 159.713 110.365 159.446 110.552H159.443ZM163.86 111.298L162.959 108.903C162.843 108.595 163.336 108.464 163.45 108.767C163.75 109.565 164.05 110.364 164.35 111.162C164.469 111.47 163.977 111.602 163.863 111.297L163.86 111.298ZM171.286 106.447L168.292 106.142C167.97 106.11 167.966 105.6 168.292 105.634L171.286 105.938C171.612 105.971 171.614 106.481 171.289 106.447H171.286ZM173.701 99.3301L173.4 97.8331C173.336 97.5114 173.827 97.377 173.892 97.698L174.192 99.1944C174.26 99.5154 173.768 99.6524 173.704 99.3308L173.701 99.3301Z" fill="#FCAFB7"/>
<path d="M137.885 114.462V93.5406C137.885 92.9255 137.895 92.3105 137.885 91.6955C137.849 91.3504 137.705 91.0255 137.473 90.7678C135.253 87.3903 133.034 84.0128 130.815 80.6353L124.157 70.5028L123.779 69.9277L123.559 69.5931V50.6528H115.176V56.8326L104.353 40.3633L100.276 34.159C100.253 34.1213 100.221 34.0902 100.183 34.0686C100.144 34.047 100.101 34.0356 100.057 34.0356C100.013 34.0356 99.9692 34.047 99.9307 34.0686C99.8922 34.0902 99.8599 34.1213 99.837 34.159C98.383 36.3712 96.9293 38.5834 95.4758 40.7956C92.0739 45.974 88.6715 51.1522 85.2687 56.3302L73.5639 74.1434L64.6087 87.7725C63.9045 88.8447 63.1998 89.9169 62.4947 90.9891C62.2796 91.2912 62.1844 91.6624 62.2277 92.0307V171.408C62.2277 171.477 62.2548 171.542 62.3031 171.59C62.3513 171.639 62.4168 171.666 62.485 171.666H134.572C135.547 171.716 136.524 171.716 137.5 171.666C137.542 171.664 137.585 171.664 137.628 171.666C137.697 171.666 137.762 171.639 137.81 171.59C137.859 171.542 137.886 171.477 137.886 171.408V114.462H137.885ZM137.376 92.4771V169.34C137.344 169.944 137.344 170.549 137.376 171.154H63.6257C63.3313 171.128 63.0356 171.122 62.7404 171.136V93.4917C62.6958 92.8492 62.6932 92.2045 62.7327 91.5617C62.7418 91.5424 62.753 91.5243 62.7662 91.5076C62.8415 91.4099 62.9039 91.2979 62.9714 91.195C63.2528 90.7661 63.5341 90.3372 63.8155 89.9083L71.4808 78.2421L82.9585 60.7737C86.589 55.2496 90.2191 49.7249 93.8488 44.1995L99.992 34.8506L100.056 34.7476L109.764 49.5205L117.706 61.6087L123.339 70.1818C125.005 72.7165 126.67 75.2513 128.335 77.786C130.884 81.664 133.433 85.5422 135.981 89.4207L137.046 91.0419C137.13 91.1881 137.222 91.329 137.323 91.4639C137.35 91.4959 137.372 91.5317 137.388 91.5701C137.399 91.8724 137.395 92.1752 137.376 92.4771Z" fill="black"/>
<path d="M103.785 61.8049C102.114 61.1902 100.293 61.107 98.573 61.5667C96.8526 62.0264 95.3163 63.0064 94.1742 64.3728C93.0322 65.7391 92.3403 67.425 92.1932 69.1996C92.0461 70.9743 92.451 72.7511 93.3525 74.2868C94.254 75.8225 95.608 77.0421 97.2292 77.7787C98.8505 78.5154 100.66 78.733 102.409 78.4019C104.159 78.0708 105.764 77.2071 107.004 75.929C108.244 74.6509 109.058 73.0208 109.336 71.2619C109.405 70.8161 109.44 70.3658 109.443 69.9148C109.43 68.1495 108.883 66.4295 107.873 64.9817C106.863 63.5339 105.437 62.4263 103.785 61.8049Z" fill="black"/>
<path d="M114.642 78.6906C113.984 77.6335 113.192 76.6662 112.285 75.8129C109.65 72.9656 106.798 70.3273 103.754 67.9218C101.444 66.1445 98.8684 64.7442 96.1211 63.7729C93.2042 66.1423 92.8401 70.2706 94.3506 73.632C95.5762 73.8559 96.7702 74.9078 97.833 75.562C99.4014 76.592 100.814 77.8412 102.029 79.2715C103.205 80.7118 104.494 82.0565 105.883 83.293C107.294 84.5378 109.101 85.2413 110.983 85.2783C112.848 85.221 114.745 84.056 115.24 82.2668C115.515 81.0424 115.3 79.759 114.642 78.6906Z" fill="#84D0AB"/>
<path d="M114.525 90.504C118.221 88.7211 122.121 87.3955 126.138 86.5565C126.999 86.4296 127.843 86.2118 128.657 85.9068C128.998 85.7925 129.286 85.5575 129.466 85.2461C129.613 84.9371 129.677 84.595 129.651 84.2536C129.626 83.9123 129.511 83.5836 129.32 83.3C128.162 81.6125 125.354 81.3487 122.934 81.5977C119.457 81.9548 112.864 85.5278 112.864 85.5278L114.525 90.504Z" fill="black"/>
<path d="M89.691 130.419C89.2406 129.636 88.3348 129.193 87.5924 128.738C86.7355 128.212 85.8734 127.693 84.9933 127.205C83.2649 126.202 81.413 125.428 79.4845 124.904C79.0302 124.721 78.5358 124.661 78.0511 124.731C77.8765 124.79 77.7213 124.896 77.6022 125.036C77.4831 125.177 77.4046 125.348 77.375 125.53C77.3692 125.734 77.4063 125.938 77.4839 126.127C77.5614 126.316 77.6777 126.487 77.8253 126.629C77.8433 126.653 77.8678 126.671 77.8897 126.693C77.6822 126.657 77.4705 126.653 77.2618 126.681C76.9792 126.709 76.7105 126.817 76.4877 126.993C76.2649 127.169 76.0974 127.405 76.0053 127.674C75.9456 127.952 75.9586 128.24 76.0433 128.511C76.128 128.782 76.2813 129.027 76.4885 129.221C76.6594 129.384 76.8548 129.52 77.0675 129.622C76.7136 129.703 76.3997 129.907 76.1816 130.197C75.9991 130.448 75.8981 130.75 75.8924 131.06C75.8866 131.371 75.9764 131.676 76.1494 131.934C76.6487 132.646 77.5866 132.86 78.3837 133.078L84.3667 134.71L86.197 135.209C86.5754 135.309 86.9736 135.304 87.3496 135.196C87.7255 135.088 88.0653 134.88 88.3329 134.595C88.5974 134.259 88.8191 133.892 88.9929 133.501C89.202 133.106 89.3912 132.689 89.6247 132.307C89.7896 132.082 89.8984 131.821 89.9419 131.545C89.9782 131.153 89.8904 130.759 89.691 130.419ZM89.1969 132.027C89.0328 132.29 88.9035 132.582 88.7588 132.855C88.5761 133.201 88.3998 133.551 88.2107 133.892C88.0358 134.221 87.7555 134.481 87.4149 134.631C87.0744 134.781 86.6932 134.812 86.3328 134.72L82.1582 133.581C80.748 133.195 79.3333 132.826 77.927 132.427C77.2611 132.238 76.3019 131.822 76.401 130.977C76.5181 129.983 77.6613 130.001 78.4191 130.066C78.7067 130.091 78.7627 129.633 78.4867 129.567C77.7012 129.374 76.291 128.988 76.4743 127.888C76.5347 127.675 76.6644 127.489 76.8429 127.359C77.0214 127.228 77.2384 127.162 77.4593 127.169C77.9952 127.191 78.5174 127.346 78.9788 127.619C79.2709 127.759 79.5237 127.346 79.2362 127.18C78.8985 126.986 78.5943 126.74 78.3355 126.449C78.1367 126.226 77.7848 125.857 77.8942 125.527C78.0228 125.134 78.4088 125.186 78.7305 125.252C79.1448 125.337 79.555 125.44 79.9612 125.559C81.5732 126.058 83.1263 126.731 84.5932 127.565C85.3497 127.98 86.0928 128.419 86.8301 128.868C87.5585 129.246 88.2454 129.698 88.8797 130.219C89.1435 130.449 89.3299 130.756 89.4137 131.096C89.4477 131.258 89.4459 131.425 89.4085 131.586C89.371 131.747 89.2988 131.898 89.1969 132.029V132.027Z" fill="black"/>
<path d="M97.5178 110.653C97.4496 110.332 96.9587 110.469 97.0269 110.789C97.4937 112.989 98.414 115.068 99.7289 116.894C99.9219 117.157 100.361 116.903 100.169 116.636C98.878 114.848 97.975 112.81 97.5178 110.653Z" fill="black"/>
<path d="M110.166 118.804C107.968 113.686 107.114 108.092 107.685 102.552C107.687 102.525 107.684 102.498 107.677 102.473C107.966 102.48 108.253 102.43 108.522 102.325C108.791 102.22 109.036 102.062 109.243 101.861C109.501 101.577 109.694 101.24 109.809 100.873C109.924 100.507 109.958 100.12 109.909 99.7388C109.86 99.3579 109.73 98.9921 109.526 98.6666C109.322 98.3411 109.05 98.0637 108.728 97.8534C108.607 97.7757 108.481 97.7069 108.35 97.6476C108.421 97.4649 108.454 97.2697 108.448 97.0737L108.463 95.0569C108.5 94.2985 108.444 93.5384 108.296 92.7936C108.144 92.0427 107.722 91.3735 107.111 90.9119C106.332 90.5059 105.478 90.265 104.602 90.2042C104.39 90.1643 104.125 90.0459 104.151 89.8317C104.165 89.7256 104.252 89.6426 104.28 89.539C104.344 89.3067 104.107 89.1086 103.894 88.9935C102.249 88.1103 100.338 87.8586 98.5207 88.2858C97.9594 88.504 97.3458 88.5504 96.758 88.419C96.3222 88.1834 95.9395 87.8608 95.6334 87.4713C94.6448 86.6451 93.3746 86.234 92.0893 86.3243C87.2212 86.2786 87.8073 89.8124 87.7146 90.8327C87.6731 91.859 87.8138 92.8844 88.1302 93.8616C88.2352 94.487 88.5447 95.0599 89.0103 95.4905C89.0418 95.5136 89.0785 95.5239 89.1107 95.5439C88.9955 96.9592 88.8173 98.3745 88.6687 99.7847C88.3686 101.689 88.3852 103.63 88.7176 105.529C88.8928 106.362 89.2596 107.142 89.7891 107.809C90.3185 108.475 90.9959 109.009 91.7676 109.368C94.3185 110.551 97.335 110.333 100.056 110.113C100.964 110.078 101.861 109.896 102.711 109.573C103.483 109.231 104.152 108.692 104.649 108.01C105.198 107.258 105.587 106.402 105.793 105.495C106.013 105.077 106.107 104.603 106.063 104.132V103.78C106.093 103.421 106.115 103.063 106.124 102.708C106.131 102.431 106.124 102.155 106.124 101.878C106.43 102.16 106.808 102.351 107.217 102.429C107.193 102.464 107.179 102.505 107.174 102.547C106.596 108.178 107.474 113.862 109.724 119.056C109.856 119.361 110.294 119.101 110.166 118.804ZM104.809 106.773C104.453 107.543 103.909 108.211 103.225 108.714C102.469 109.195 101.605 109.481 100.71 109.545C99.0817 109.748 97.4392 109.812 95.8001 109.738C94.6344 109.701 93.4819 109.48 92.3846 109.085C91.6286 108.808 90.951 108.352 90.4096 107.756C89.8682 107.16 89.4793 106.441 89.276 105.662C88.9043 103.888 88.8548 102.062 89.13 100.27C89.2767 98.7657 89.4787 97.2648 89.6086 95.7581C90.0031 95.8481 90.4093 95.8752 90.8123 95.8385C92.2474 95.744 93.6617 95.4454 95.0126 94.952C95.2981 94.8261 95.6024 94.7485 95.9133 94.7223C96.0695 94.7116 96.2256 94.7441 96.3644 94.8164C96.5032 94.8887 96.6194 94.998 96.7001 95.1321C96.7628 95.3212 96.8112 95.5148 96.8448 95.7111C97.043 96.3358 97.8188 96.5417 98.4731 96.5726C99.9149 96.638 101.35 96.3397 102.646 95.7053C102.702 95.6674 102.766 95.6415 102.832 95.6295C102.898 95.6174 102.967 95.6194 103.032 95.6352C103.13 95.6914 103.201 95.7839 103.231 95.8926C103.38 96.3908 103.472 96.9046 103.503 97.4237C103.525 97.5774 103.554 97.7298 103.591 97.8805C103.595 100.253 103.599 102.626 103.603 104.998C103.581 105.16 103.596 105.324 103.645 105.479C103.694 105.634 103.778 105.777 103.889 105.896C104.066 106.017 104.271 106.091 104.485 106.111C104.699 106.131 104.914 106.097 105.111 106.01C105.026 106.271 104.925 106.526 104.809 106.775V106.773ZM106.09 100.983C106.08 100.96 106.066 100.938 106.048 100.919C106.043 99.9299 106.039 98.9407 106.034 97.9512C106.061 97.9666 106.09 97.9765 106.12 97.9805C106.151 97.9845 106.182 97.9824 106.211 97.9744C107.841 97.4945 109.781 98.6859 109.383 100.53C109.321 100.896 109.144 101.233 108.878 101.491C108.611 101.749 108.27 101.916 107.902 101.966C107.534 102.016 107.16 101.948 106.835 101.77C106.509 101.593 106.248 101.317 106.09 100.981V100.983Z" fill="black"/>
<path d="M83.8945 126.643C86.945 127.907 90.2775 128.335 93.5484 127.882C93.8513 124.227 94.9224 120.677 96.6917 117.464C95.4691 118.354 94.1021 119.027 92.6509 119.452C90.2545 120.073 87.7993 120.44 85.326 120.546C84.8492 120.584 84.3667 120.626 83.8945 120.704V117.222C83.8945 117.143 83.8997 117.058 83.9016 116.973H96.9941C97.1047 116.802 97.216 116.631 97.3325 116.465H87.7204C86.3823 116.465 85.0339 116.416 83.6964 116.465C83.6777 116.465 83.6584 116.465 83.6398 116.465C83.5715 116.465 83.5061 116.492 83.4578 116.54C83.4096 116.588 83.3824 116.654 83.3824 116.722V126.654C83.5536 126.738 83.7221 126.829 83.892 126.916L83.8945 126.643Z" fill="black"/>
<path d="M116.518 149.35C116.518 149.428 116.513 149.513 116.51 149.597H100.255C100.556 149.191 100.824 148.761 101.056 148.311C100.203 148.049 99.3914 147.668 98.6455 147.178C96.2118 145.534 94.9785 142.749 94.2709 139.988C90.735 140.322 87.2519 141.078 83.8958 142.24V134.319L83.3863 134.181V145.771C83.3863 147.11 83.3374 148.458 83.3863 149.795C83.3863 149.814 83.3863 149.833 83.3863 149.852C83.3871 149.92 83.4146 149.984 83.4628 150.032C83.511 150.08 83.5759 150.106 83.6436 150.106H112.696C114.034 150.106 115.382 150.155 116.72 150.106C116.739 150.106 116.758 150.106 116.777 150.106C116.844 150.106 116.909 150.08 116.957 150.032C117.006 149.984 117.033 149.92 117.034 149.852V148.425C116.868 148.491 116.698 148.553 116.524 148.612L116.518 149.35Z" fill="black"/>
<path d="M108.19 131.18C108.058 131.184 107.933 131.24 107.841 131.335C107.75 131.43 107.699 131.557 107.699 131.689C107.699 131.821 107.75 131.948 107.841 132.043C107.933 132.138 108.058 132.193 108.19 132.198C108.322 132.193 108.447 132.138 108.539 132.043C108.63 131.948 108.681 131.821 108.681 131.689C108.681 131.557 108.63 131.43 108.539 131.335C108.447 131.24 108.322 131.184 108.19 131.18Z" fill="white"/>
<path d="M104.598 127.587C104.466 127.592 104.341 127.647 104.249 127.742C104.157 127.837 104.106 127.964 104.106 128.096C104.106 128.228 104.157 128.355 104.249 128.45C104.341 128.545 104.466 128.601 104.598 128.605C104.73 128.601 104.855 128.545 104.946 128.45C105.038 128.355 105.089 128.228 105.089 128.096C105.089 127.964 105.038 127.837 104.946 127.742C104.855 127.647 104.73 127.592 104.598 127.587Z" fill="white"/>
<path d="M93.4564 134.959C93.5086 134.979 93.5638 134.991 93.6198 134.993C93.7517 134.988 93.8767 134.932 93.9683 134.837C94.06 134.742 94.1112 134.615 94.1112 134.483C94.1112 134.351 94.06 134.224 93.9683 134.13C93.8767 134.035 93.7517 133.979 93.6198 133.974C93.5416 133.974 93.4642 133.991 93.394 134.026C93.309 134.074 93.2393 134.145 93.1929 134.231C93.1465 134.317 93.1254 134.414 93.1319 134.512C93.1384 134.609 93.1723 134.703 93.2297 134.782C93.2871 134.861 93.3657 134.923 93.4564 134.959Z" fill="white"/>
<path d="M101.403 136.768C101.272 136.773 101.147 136.828 101.055 136.923C100.963 137.018 100.912 137.145 100.912 137.277C100.912 137.409 100.963 137.536 101.055 137.631C101.147 137.726 101.272 137.782 101.403 137.786C101.535 137.782 101.66 137.726 101.752 137.631C101.844 137.536 101.895 137.409 101.895 137.277C101.895 137.145 101.844 137.018 101.752 136.923C101.66 136.828 101.535 136.773 101.403 136.768Z" fill="white"/>
<path d="M104.799 132.377C104.667 132.382 104.542 132.438 104.45 132.533C104.359 132.628 104.308 132.755 104.308 132.887C104.308 133.019 104.359 133.146 104.45 133.24C104.542 133.335 104.667 133.391 104.799 133.396C104.931 133.391 105.056 133.335 105.148 133.24C105.239 133.146 105.29 133.019 105.29 132.887C105.29 132.755 105.239 132.628 105.148 132.533C105.056 132.438 104.931 132.382 104.799 132.377Z" fill="white"/>
<path d="M123.047 131.283C122.911 126.324 121.587 121.337 118.761 117.483C115.934 113.629 111.504 111.035 106.903 111.194C104.999 111.228 103.132 111.725 101.464 112.643C99.7965 113.562 98.3782 114.874 97.3325 116.465C97.216 116.631 97.1047 116.802 96.9941 116.974C96.8905 117.135 96.7908 117.299 96.6917 117.464C94.9224 120.677 93.8513 124.227 93.5484 127.882C93.4982 128.355 93.4557 128.828 93.4236 129.3C95.8088 130.197 98.0841 131.363 100.206 132.774C100.258 131.788 100.371 130.806 100.543 129.834C101.286 125.828 102.996 122.064 105.525 118.869C105.547 118.843 105.574 118.821 105.605 118.805C105.613 118.802 105.622 118.8 105.631 118.798C105.65 118.791 105.67 118.786 105.691 118.785C105.703 118.786 105.715 118.789 105.726 118.792C105.742 118.794 105.757 118.798 105.772 118.803C105.789 118.812 105.805 118.822 105.82 118.834C105.827 118.839 105.834 118.844 105.841 118.849C105.862 118.868 105.88 118.89 105.895 118.913C105.921 118.953 105.936 119 105.939 119.048C105.941 119.096 105.931 119.143 105.908 119.186C105.902 119.202 105.894 119.217 105.885 119.232C105.178 120.129 104.535 121.075 103.959 122.062C101.975 125.455 100.85 129.282 100.682 133.209C100.681 133.253 100.669 133.297 100.646 133.335C100.623 133.373 100.591 133.405 100.553 133.427C100.514 133.449 100.47 133.461 100.426 133.461C100.381 133.462 100.338 133.45 100.299 133.429C99.8485 133.15 99.4021 132.871 98.9511 132.597C97.2003 131.484 95.3362 130.56 93.3901 129.841C91.2552 129.033 88.9329 128.854 86.6995 129.327C85.7988 129.46 84.9559 129.851 84.2728 130.453C84.1252 130.613 83.9977 130.791 83.8932 130.983C83.6528 131.402 83.5226 131.876 83.5149 132.359C83.5131 132.854 83.6437 133.341 83.8932 133.768C83.9961 133.952 84.1205 134.123 84.2638 134.277C84.6076 134.61 84.9789 134.913 85.3735 135.184C85.766 135.476 86.1672 135.756 86.5772 136.024C88.89 137.526 91.4324 138.64 94.1042 139.323C94.5546 139.439 95.0126 139.54 95.47 139.634C96.2832 139.803 97.1046 139.929 97.9308 140.013C98.311 140.051 98.6957 140.073 99.0804 140.096C100.731 140.206 102.389 140.123 104.02 139.847C105.069 139.687 106.077 139.325 106.989 138.781C107.826 138.22 108.534 137.486 109.063 136.629C110.21 134.781 111.126 132.799 111.79 130.728C112.514 128.619 113.023 126.442 113.31 124.23C113.317 124.183 113.337 124.139 113.367 124.102C113.399 124.062 113.44 124.032 113.487 124.014C113.534 123.995 113.585 123.989 113.635 123.997C113.646 123.998 113.657 124 113.668 124.002C113.681 124.005 113.693 124.01 113.705 124.016C113.719 124.022 113.733 124.03 113.745 124.04C113.754 124.046 113.762 124.053 113.769 124.06C113.782 124.075 113.792 124.091 113.799 124.109C113.803 124.117 113.808 124.124 113.811 124.133C113.82 124.165 113.823 124.199 113.819 124.232C113.746 124.794 113.662 125.354 113.561 125.911C113.145 128.24 112.483 130.517 111.587 132.706C111.16 133.758 110.679 134.787 110.145 135.788C109.671 136.727 109.06 137.589 108.333 138.348C106.757 139.914 104.552 140.381 102.414 140.56C101.568 140.626 100.718 140.647 99.8698 140.624C98.5845 140.601 97.3028 140.48 96.0355 140.265C95.5356 140.179 95.0403 140.072 94.5468 139.954C94.4542 139.964 94.3622 139.972 94.2696 139.982C94.9811 142.744 96.2118 145.529 98.6442 147.173C99.3901 147.662 100.202 148.044 101.055 148.305C102.924 148.828 104.848 149.127 106.787 149.196C109.276 149.469 111.789 149.455 114.275 149.154C115.036 149.034 115.786 148.852 116.517 148.609C116.688 148.55 116.858 148.488 117.026 148.422C118.093 148.058 119.052 147.434 119.817 146.607C120.582 145.78 121.13 144.775 121.41 143.683C122.54 139.648 123.091 135.473 123.047 131.283ZM99.6073 127.009C99.4754 127.004 99.3504 126.948 99.2588 126.854C99.1671 126.759 99.1159 126.632 99.1159 126.5C99.1159 126.368 99.1671 126.241 99.2588 126.146C99.3504 126.051 99.4754 125.995 99.6073 125.99C99.7392 125.995 99.8642 126.051 99.9558 126.146C100.047 126.241 100.099 126.368 100.099 126.5C100.099 126.632 100.047 126.759 99.9558 126.854C99.8642 126.948 99.7392 127.004 99.6073 127.009ZM101.403 118.226C101.272 118.221 101.147 118.166 101.055 118.071C100.963 117.976 100.912 117.849 100.912 117.717C100.912 117.585 100.963 117.458 101.055 117.363C101.147 117.268 101.272 117.212 101.403 117.208C101.535 117.212 101.66 117.268 101.752 117.363C101.844 117.458 101.895 117.585 101.895 117.717C101.895 117.849 101.844 117.976 101.752 118.071C101.66 118.166 101.535 118.221 101.403 118.226ZM111.182 123.016C111.094 123.015 111.008 122.99 110.932 122.945C110.856 122.9 110.794 122.835 110.751 122.758C110.708 122.681 110.686 122.594 110.687 122.506C110.688 122.418 110.712 122.331 110.758 122.255C110.767 122.236 110.778 122.217 110.79 122.199C110.807 122.176 110.826 122.154 110.846 122.134C110.889 122.097 110.936 122.065 110.987 122.04C111.048 122.014 111.113 122.001 111.18 122C111.247 122 111.314 122.014 111.376 122.04C111.393 122.048 111.409 122.056 111.424 122.066C111.461 122.086 111.495 122.111 111.524 122.141C111.566 122.181 111.599 122.23 111.619 122.284C111.627 122.302 111.637 122.318 111.643 122.337C111.657 122.383 111.664 122.43 111.666 122.477C111.667 122.52 111.664 122.564 111.656 122.606C111.656 122.618 111.656 122.63 111.65 122.642C111.64 122.682 111.625 122.721 111.606 122.758L111.593 122.782C111.553 122.855 111.494 122.915 111.422 122.957C111.349 122.998 111.267 123.019 111.184 123.016H111.182ZM112.583 117.628C112.505 117.628 112.427 117.609 112.357 117.573C112.287 117.537 112.227 117.485 112.181 117.421C112.135 117.357 112.105 117.283 112.094 117.205C112.082 117.127 112.09 117.048 112.115 116.974C112.141 116.869 112.201 116.776 112.286 116.71C112.371 116.643 112.476 116.607 112.583 116.607C112.691 116.607 112.796 116.643 112.881 116.71C112.966 116.776 113.026 116.869 113.052 116.974C113.077 117.048 113.084 117.127 113.073 117.205C113.061 117.283 113.031 117.357 112.986 117.421C112.94 117.485 112.879 117.537 112.81 117.573C112.74 117.609 112.662 117.628 112.583 117.628ZM115.577 136.789C115.445 136.784 115.321 136.728 115.229 136.633C115.137 136.538 115.086 136.412 115.086 136.28C115.086 136.148 115.137 136.021 115.229 135.926C115.321 135.831 115.445 135.775 115.577 135.77C115.709 135.775 115.834 135.831 115.926 135.926C116.017 136.022 116.068 136.149 116.068 136.281C116.068 136.413 116.016 136.539 115.924 136.634C115.832 136.729 115.707 136.784 115.575 136.789H115.577ZM117.029 129.991C117.011 129.996 116.993 130 116.974 130.002C116.875 130.006 116.778 129.978 116.696 129.923C116.614 129.867 116.552 129.786 116.52 129.693C116.473 129.564 116.473 129.423 116.52 129.294C116.552 129.2 116.614 129.12 116.696 129.064C116.778 129.008 116.875 128.98 116.974 128.984C116.993 128.987 117.011 128.991 117.029 128.996C117.149 129.013 117.259 129.073 117.338 129.165C117.417 129.256 117.46 129.373 117.46 129.494C117.46 129.615 117.416 129.732 117.336 129.823C117.257 129.915 117.147 129.974 117.027 129.991H117.029ZM118.371 120.222C118.239 120.218 118.115 120.162 118.023 120.067C117.931 119.972 117.88 119.845 117.88 119.713C117.88 119.581 117.931 119.454 118.023 119.359C118.115 119.264 118.239 119.209 118.371 119.204C118.503 119.209 118.628 119.265 118.72 119.36C118.811 119.455 118.862 119.582 118.862 119.714C118.862 119.846 118.81 119.973 118.718 120.068C118.626 120.162 118.501 120.218 118.369 120.222H118.371ZM119.569 140.382C119.434 140.382 119.305 140.328 119.209 140.233C119.113 140.137 119.06 140.007 119.06 139.872C119.06 139.737 119.113 139.608 119.209 139.512C119.305 139.417 119.434 139.363 119.569 139.363C119.704 139.363 119.834 139.417 119.929 139.513C120.025 139.608 120.078 139.738 120.078 139.873C120.078 140.008 120.024 140.138 119.928 140.233C119.832 140.329 119.702 140.382 119.567 140.382H119.569ZM120.168 131.2C120.036 131.196 119.911 131.14 119.819 131.045C119.727 130.95 119.676 130.823 119.676 130.691C119.676 130.559 119.727 130.432 119.819 130.337C119.911 130.242 120.036 130.186 120.168 130.182C120.3 130.187 120.424 130.243 120.516 130.338C120.607 130.433 120.658 130.56 120.658 130.692C120.658 130.824 120.606 130.951 120.514 131.046C120.423 131.14 120.298 131.196 120.166 131.2H120.168Z" fill="#FEE253"/>
<path d="M92.6992 146.645C89.2734 148.306 86.2318 151.023 85.1645 154.502C84.3037 157.309 84.7913 160.3 85.3761 163.156C86.0439 166.422 86.8301 169.664 87.6156 172.905C87.8527 174.228 88.3325 175.495 89.0309 176.643C89.409 177.229 89.929 177.708 90.5425 178.038C91.1561 178.368 91.8432 178.537 92.5396 178.529C95.0486 178.361 96.2787 175.57 96.7072 173.234C97.6238 168.235 97.5201 163.102 96.4022 158.144C102.614 157.674 108.673 155.99 114.236 153.186C116.753 151.911 119.387 150.062 119.71 147.396C120.081 144.342 117.021 141.716 113.81 141.2C110.598 140.685 96.1256 144.984 92.6992 146.645Z" fill="#E9686D"/>
<path d="M93.0401 97.7339C92.0179 97.191 90.5923 96.8474 89.7341 97.8735C89.525 98.1232 89.8833 98.4854 90.0943 98.2338C90.802 97.3904 91.9548 97.7333 92.7835 98.1733C93.073 98.3271 93.3303 97.8877 93.0401 97.7339Z" fill="black"/>
<path d="M99.4143 98.5116C99.1094 98.6242 99.2413 99.1164 99.5494 99.0025C100.018 98.8189 100.533 98.7914 101.018 98.924C101.504 99.0566 101.933 99.3422 102.243 99.7385C102.441 99.9958 102.883 99.7385 102.682 99.4811C102.315 98.9884 101.799 98.6277 101.21 98.453C100.621 98.2782 99.9907 98.2988 99.4143 98.5116Z" fill="black"/>
<path d="M96.2195 104.284C96.5302 104.39 96.6641 103.898 96.3546 103.793C95.7756 103.6 95.1677 103.691 94.5854 103.544C94.353 103.496 94.1383 103.385 93.9659 103.222C93.87 103.09 93.8058 102.938 93.7784 102.778C93.7511 102.617 93.7613 102.452 93.8083 102.296C93.9974 100.945 94.2039 99.5943 94.4021 98.2433C94.4491 97.9216 93.9588 97.7839 93.9112 98.1075L93.5632 100.48L93.3934 101.638C93.315 102.009 93.2719 102.386 93.2647 102.765C93.2818 103.03 93.3779 103.284 93.5407 103.494C93.7036 103.704 93.9256 103.861 94.1782 103.944C94.8331 104.209 95.5575 104.064 96.2195 104.284Z" fill="black"/>
<path d="M99.6208 104.567C97.9602 105.444 96.0288 105.657 94.2168 105.165C94.1555 105.157 94.0934 105.172 94.042 105.206C93.9905 105.241 93.9532 105.292 93.9367 105.352C93.9202 105.411 93.9257 105.475 93.9522 105.531C93.9787 105.587 94.0245 105.631 94.0811 105.656C95.9145 106.148 97.8637 105.968 99.5758 105.148C99.8608 106.672 98.2248 107.727 96.8796 107.975C96.5579 108.034 96.6943 108.525 97.0153 108.466C98.7214 108.151 100.649 106.665 99.9914 104.72C99.9804 104.683 99.9614 104.649 99.9357 104.621C99.9099 104.592 99.8781 104.57 99.8425 104.555C99.807 104.54 99.7687 104.534 99.7303 104.536C99.6919 104.538 99.6545 104.549 99.6208 104.567Z" fill="black"/>
<path d="M92.5718 99.2393C92.3747 99.2474 92.1883 99.3313 92.0517 99.4737C91.9151 99.616 91.8389 99.8056 91.8389 100.003C91.8389 100.2 91.9151 100.39 92.0517 100.532C92.1883 100.674 92.3747 100.758 92.5718 100.767C92.7689 100.758 92.9552 100.674 93.0918 100.532C93.2284 100.39 93.3047 100.2 93.3047 100.003C93.3047 99.8056 93.2284 99.616 93.0918 99.4737C92.9552 99.3313 92.7689 99.2474 92.5718 99.2393Z" fill="black"/>
<path d="M101.03 99.9131C100.833 99.9212 100.646 100.005 100.51 100.148C100.373 100.29 100.297 100.479 100.297 100.677C100.297 100.874 100.373 101.064 100.51 101.206C100.646 101.348 100.833 101.432 101.03 101.44C101.227 101.432 101.413 101.348 101.55 101.206C101.686 101.064 101.763 100.874 101.763 100.677C101.763 100.479 101.686 100.29 101.55 100.148C101.413 100.005 101.227 99.9212 101.03 99.9131Z" fill="black"/>
<path d="M66.6191 85.3824V170.41C66.6283 170.471 66.659 170.527 66.7057 170.567C66.7524 170.607 66.812 170.629 66.8735 170.629C66.9351 170.629 66.9946 170.607 67.0413 170.567C67.088 170.527 67.1188 170.471 67.128 170.41V85.3824C67.1188 85.3215 67.088 85.266 67.0413 85.2258C66.9946 85.1857 66.9351 85.1636 66.8735 85.1636C66.812 85.1636 66.7524 85.1857 66.7057 85.2258C66.659 85.266 66.6283 85.3215 66.6191 85.3824Z" fill="black"/>
<path d="M72.0083 79.794V169.013C72.0175 169.074 72.0483 169.13 72.0949 169.17C72.1416 169.21 72.2012 169.232 72.2627 169.232C72.3243 169.232 72.3839 169.21 72.4305 169.17C72.4772 169.13 72.508 169.074 72.5172 169.013V79.794C72.508 79.7331 72.4772 79.6776 72.4305 79.6374C72.3839 79.5973 72.3243 79.5752 72.2627 79.5752C72.2012 79.5752 72.1416 79.5973 72.0949 79.6374C72.0483 79.6776 72.0175 79.7331 72.0083 79.794Z" fill="black"/>
<path d="M78.1959 74.005V94.3639C78.2051 94.4248 78.2358 94.4803 78.2825 94.5205C78.3292 94.5607 78.3887 94.5827 78.4503 94.5827C78.5119 94.5827 78.5714 94.5607 78.6181 94.5205C78.6648 94.4803 78.6955 94.4248 78.7048 94.3639V74.005C78.6955 73.9441 78.6648 73.8885 78.6181 73.8484C78.5714 73.8082 78.5119 73.7861 78.4503 73.7861C78.3887 73.7861 78.3292 73.8082 78.2825 73.8484C78.2358 73.8885 78.2051 73.9441 78.1959 74.005Z" fill="black"/>
<path d="M77.9958 101.75V119.21C78.0045 119.271 78.0351 119.327 78.0819 119.368C78.1287 119.409 78.1886 119.431 78.2506 119.431C78.3125 119.431 78.3724 119.409 78.4192 119.368C78.466 119.327 78.4966 119.271 78.5053 119.21V118.318C78.4966 118.256 78.466 118.2 78.4192 118.16C78.3724 118.119 78.3125 118.097 78.2506 118.097C78.1886 118.097 78.1287 118.119 78.0819 118.16C78.0351 118.2 78.0045 118.256 77.9958 118.318V119.21C78.0045 119.271 78.0351 119.327 78.0819 119.368C78.1287 119.409 78.1886 119.431 78.2506 119.431C78.3125 119.431 78.3724 119.409 78.4192 119.368C78.466 119.327 78.4966 119.271 78.5053 119.21V101.75C78.4966 101.689 78.466 101.632 78.4192 101.592C78.3724 101.551 78.3125 101.529 78.2506 101.529C78.1886 101.529 78.1287 101.551 78.0819 101.592C78.0351 101.632 78.0045 101.689 77.9958 101.75Z" fill="black"/>
<path d="M77.3975 135.082V168.811C77.4067 168.872 77.4374 168.927 77.4841 168.967C77.5308 169.008 77.5904 169.03 77.6519 169.03C77.7135 169.03 77.7731 169.008 77.8197 168.967C77.8664 168.927 77.8972 168.872 77.9064 168.811V135.082C77.8972 135.021 77.8664 134.966 77.8197 134.926C77.7731 134.885 77.7135 134.863 77.6519 134.863C77.5904 134.863 77.5308 134.885 77.4841 134.926C77.4374 134.966 77.4067 135.021 77.3975 135.082Z" fill="black"/>
<path d="M84.1834 62.2288V77.5981C84.1921 77.6594 84.2227 77.7155 84.2695 77.7561C84.3163 77.7968 84.3762 77.8191 84.4381 77.8191C84.5001 77.8191 84.56 77.7968 84.6068 77.7561C84.6536 77.7155 84.6842 77.6594 84.6929 77.5981V62.2288C84.6842 62.1675 84.6536 62.1114 84.6068 62.0708C84.56 62.0302 84.5001 62.0078 84.4381 62.0078C84.3762 62.0078 84.3163 62.0302 84.2695 62.0708C84.2227 62.1114 84.1921 62.1675 84.1834 62.2288Z" fill="black"/>
<path d="M84.1834 84.9842V113.127C84.1921 113.189 84.2227 113.245 84.2695 113.286C84.3163 113.326 84.3762 113.349 84.4381 113.349C84.5001 113.349 84.56 113.326 84.6068 113.286C84.6536 113.245 84.6842 113.189 84.6929 113.127V84.9842C84.6842 84.9229 84.6536 84.8668 84.6068 84.8261C84.56 84.7855 84.5001 84.7632 84.4381 84.7632C84.3762 84.7632 84.3163 84.7855 84.2695 84.8261C84.2227 84.8668 84.1921 84.9229 84.1834 84.9842Z" fill="black"/>
<path d="M90.9673 52.6485V82.7874C90.9765 82.8483 91.0073 82.9039 91.054 82.944C91.1007 82.9842 91.1602 83.0062 91.2218 83.0062C91.2834 83.0062 91.3429 82.9842 91.3896 82.944C91.4363 82.9039 91.467 82.8483 91.4762 82.7874V52.6485C91.467 52.5876 91.4363 52.5321 91.3896 52.4919C91.3429 52.4518 91.2834 52.4297 91.2218 52.4297C91.1602 52.4297 91.1007 52.4518 91.054 52.4919C91.0073 52.5321 90.9765 52.5876 90.9673 52.6485Z" fill="black"/>
<path d="M98.7517 41.4713V57.6389C98.7609 57.6998 98.7916 57.7553 98.8383 57.7955C98.885 57.8357 98.9445 57.8577 99.0061 57.8577C99.0677 57.8577 99.1272 57.8357 99.1739 57.7955C99.2206 57.7553 99.2513 57.6998 99.2605 57.6389V41.4713C99.2513 41.4104 99.2206 41.3548 99.1739 41.3147C99.1272 41.2745 99.0677 41.2524 99.0061 41.2524C98.9445 41.2524 98.885 41.2745 98.8383 41.3147C98.7916 41.3548 98.7609 41.4104 98.7517 41.4713Z" fill="black"/>
<path d="M105.54 46.8602V58.8358C105.549 58.8972 105.579 58.9533 105.626 58.9939C105.673 59.0345 105.733 59.0569 105.795 59.0569C105.857 59.0569 105.917 59.0345 105.964 58.9939C106.01 58.9533 106.041 58.8972 106.05 58.8358V46.8602C106.041 46.7988 106.01 46.7427 105.964 46.7021C105.917 46.6615 105.857 46.6392 105.795 46.6392C105.733 46.6392 105.673 46.6615 105.626 46.7021C105.579 46.7427 105.549 46.7988 105.54 46.8602Z" fill="black"/>
<path d="M112.127 60.2335V73.4045C112.136 73.4653 112.167 73.5209 112.214 73.5611C112.261 73.6012 112.32 73.6233 112.382 73.6233C112.443 73.6233 112.503 73.6012 112.549 73.5611C112.596 73.5209 112.627 73.4653 112.636 73.4045V60.2335C112.627 60.1726 112.596 60.117 112.549 60.0769C112.503 60.0367 112.443 60.0146 112.382 60.0146C112.32 60.0146 112.261 60.0367 112.214 60.0769C112.167 60.117 112.136 60.1726 112.127 60.2335Z" fill="black"/>
<path d="M112.526 92.9666V108.935C112.535 108.996 112.565 109.052 112.612 109.093C112.659 109.133 112.719 109.156 112.781 109.156C112.843 109.156 112.903 109.133 112.949 109.093C112.996 109.052 113.027 108.996 113.036 108.935V92.9666C113.027 92.9053 112.996 92.8492 112.949 92.8086C112.903 92.768 112.843 92.7456 112.781 92.7456C112.719 92.7456 112.659 92.768 112.612 92.8086C112.565 92.8492 112.535 92.9053 112.526 92.9666Z" fill="black"/>
<path d="M122.105 91.9691V117.717C122.113 117.779 122.144 117.835 122.191 117.875C122.238 117.916 122.297 117.938 122.359 117.938C122.421 117.938 122.481 117.916 122.528 117.875C122.575 117.835 122.605 117.779 122.614 117.717V91.9691C122.605 91.9077 122.575 91.8516 122.528 91.811C122.481 91.7704 122.421 91.748 122.359 91.748C122.297 91.748 122.238 91.7704 122.191 91.811C122.144 91.8516 122.113 91.9077 122.105 91.9691Z" fill="black"/>
<path d="M129.889 94.5633V111.729C129.898 111.79 129.928 111.846 129.975 111.887C130.022 111.927 130.082 111.95 130.144 111.95C130.206 111.95 130.266 111.927 130.312 111.887C130.359 111.846 130.39 111.79 130.399 111.729V94.5633C130.39 94.502 130.359 94.4459 130.312 94.4052C130.266 94.3646 130.206 94.3423 130.144 94.3423C130.082 94.3423 130.022 94.3646 129.975 94.4052C129.928 94.4459 129.898 94.502 129.889 94.5633Z" fill="black"/>
<path d="M129.889 116.519V169.015C129.898 169.077 129.928 169.133 129.975 169.173C130.022 169.214 130.082 169.236 130.144 169.236C130.206 169.236 130.266 169.214 130.312 169.173C130.359 169.133 130.39 169.077 130.399 169.015V116.519C130.39 116.458 130.359 116.402 130.312 116.361C130.266 116.321 130.206 116.298 130.144 116.298C130.082 116.298 130.022 116.321 129.975 116.361C129.928 116.402 129.898 116.458 129.889 116.519Z" fill="black"/>
<path d="M120.51 151.05V171.01C120.519 171.071 120.549 171.127 120.596 171.168C120.643 171.208 120.703 171.231 120.765 171.231C120.827 171.231 120.886 171.208 120.933 171.168C120.98 171.127 121.011 171.071 121.019 171.01V151.05C121.011 150.988 120.98 150.932 120.933 150.892C120.886 150.851 120.827 150.829 120.765 150.829C120.703 150.829 120.643 150.851 120.596 150.892C120.549 150.932 120.519 150.988 120.51 151.05Z" fill="black"/>
<path d="M111.329 160.833V170.612C111.338 170.673 111.369 170.728 111.415 170.768C111.462 170.809 111.522 170.831 111.583 170.831C111.645 170.831 111.704 170.809 111.751 170.768C111.798 170.728 111.829 170.673 111.838 170.612V160.833C111.829 160.772 111.798 160.717 111.751 160.676C111.704 160.636 111.645 160.614 111.583 160.614C111.522 160.614 111.462 160.636 111.415 160.676C111.369 160.717 111.338 160.772 111.329 160.833Z" fill="black"/>
<path d="M102.147 162.427V170.81C102.156 170.871 102.186 170.927 102.233 170.968C102.28 171.008 102.34 171.031 102.402 171.031C102.464 171.031 102.524 171.008 102.571 170.968C102.617 170.927 102.648 170.871 102.657 170.81V162.427C102.648 162.366 102.617 162.31 102.571 162.269C102.524 162.228 102.464 162.206 102.402 162.206C102.34 162.206 102.28 162.228 102.233 162.269C102.186 162.31 102.156 162.366 102.147 162.427Z" fill="black"/>
</svg>
