<svg xmlns="http://www.w3.org/2000/svg" width="25" height="16.667" viewBox="0 0 25 16.667">
    <path id="prefix__line-chart" d="M25.629 8.389H21.75a.694.694 0 0 1 0-1.389h5.556a.694.694 0 0 1 .694.694v5.556a.694.694 0 1 1-1.389 0V9.371l-7.148 7.148a.694.694 0 0 1-.982 0l-3.676-3.676-5.064 5.065a.694.694 0 1 1-.982-.982l5.556-5.556a.694.694 0 0 1 .982 0l3.676 3.676 6.657-6.657zm1.677 13.889a.694.694 0 1 1 0 1.389H6.472A3.472 3.472 0 0 1 3 20.194v-12.5a.694.694 0 0 1 1.389 0v12.5a2.083 2.083 0 0 0 2.083 2.083z" transform="translate(-3 -7)" style="fill:#111e6c"/>
</svg>
