<svg xmlns="http://www.w3.org/2000/svg" viewBox="0 0 460.25 275.51"><defs><style>.cls-1,.cls-2{fill:#fff4e3;}.cls-2{stroke:#fff4e3;stroke-miterlimit:10;stroke-width:0.84px;}</style></defs><title>Asset 2</title><g id="Layer_2" data-name="Layer 2"><g id="Layer_1-2" data-name="Layer 1"><path class="cls-1" d="M78.61,241.57V182.31H60.76A2.76,2.76,0,0,1,58.2,181a8.35,8.35,0,0,1-.79-4.2v-3.33a8.42,8.42,0,0,1,.79-4.21A2.78,2.78,0,0,1,60.76,168H114a2.78,2.78,0,0,1,2.57,1.29,8.42,8.42,0,0,1,.79,4.21v3.33a8.35,8.35,0,0,1-.79,4.2,2.77,2.77,0,0,1-2.57,1.3H96.08v59.26q0,3.47-6.77,3.46H85.39Q78.61,245,78.61,241.57Z"/><path class="cls-1" d="M108.49,242.62a6.72,6.72,0,0,1,.45-2L133.75,170q.88-2.36,6.39-2.35H146q5.5,0,6.4,2.35l24.81,70.62a8.51,8.51,0,0,1,.31,2,1.91,1.91,0,0,1-1.36,1.82,11.28,11.28,0,0,1-4.27.59h-4.94a14.22,14.22,0,0,1-4.27-.52,2.77,2.77,0,0,1-2-1.77l-4.56-13.4H129.57L125,242.74q-.69,2.3-5.19,2.29h-4.43Q108.49,245,108.49,242.62Zm42.79-27.81-6.39-19.52a22.41,22.41,0,0,1-1-3.4c-.28-1.28-.52-2.49-.73-3.65h-.45l-.25,1.36a29.78,29.78,0,0,1-1.45,5.69l-6.65,19.52Z"/><path class="cls-1" d="M181.07,244.23a2.91,2.91,0,0,1-1.68-2.66V171.25c0-2.43,2.25-3.64,6.77-3.64h3.93a10.62,10.62,0,0,1,5.09.92,3,3,0,0,1,1.61,2.72v70.32q0,3.59-6.7,3.58h-3.93A10.81,10.81,0,0,1,181.07,244.23Z"/><path class="cls-1" d="M207.75,243.8a4.52,4.52,0,0,1-1.08-3.34V171.25a2.9,2.9,0,0,1,1.65-2.69,11.28,11.28,0,0,1,5.13-.89h3.79a11.31,11.31,0,0,1,5.13.89,2.9,2.9,0,0,1,1.65,2.69v59.2h25.06a2.75,2.75,0,0,1,2.56,1.3,8.18,8.18,0,0,1,.8,4.14v3.46a8.39,8.39,0,0,1-.8,4.2,2.77,2.77,0,0,1-2.56,1.3H211.17A4.76,4.76,0,0,1,207.75,243.8Z"/><path class="cls-1" d="M269.69,241.2a29.58,29.58,0,0,1-12.28-13.38q-4.22-8.81-4.21-21.47t4.21-21.41a29.41,29.41,0,0,1,12.28-13.35q8.07-4.54,19.59-4.54t19.65,4.54a29.3,29.3,0,0,1,12.25,13.35q4.17,8.81,4.18,21.41t-4.18,21.47a29.47,29.47,0,0,1-12.25,13.38q-8.07,4.58-19.65,4.57T269.69,241.2ZM303,224.92q4.62-6.4,4.62-18.57T303,187.87q-4.62-6.3-13.67-6.3t-13.64,6.33Q271,194.25,271,206.35t4.68,18.57q4.68,6.39,13.61,6.39T303,224.92Z"/><path class="cls-1" d="M333,241.57V172.3a4.37,4.37,0,0,1,1.08-3.3,4.81,4.81,0,0,1,3.41-1h22q28,0,28,20.57a16.78,16.78,0,0,1-3.57,10.75,21.37,21.37,0,0,1-9.59,6.74v.43a12.19,12.19,0,0,1,4.4,3.71,23.87,23.87,0,0,1,3.7,6.43l9.94,24.16a8,8,0,0,1,.5,2.1c0,1.44-2.23,2.16-6.71,2.16H381.5c-3.75,0-5.93-.76-6.52-2.29l-8.92-21.44a20,20,0,0,0-2.44-3.83,7.34,7.34,0,0,0-3.26-2.07,18.12,18.12,0,0,0-5.63-.71h-4.37v26.88q0,3.47-6.77,3.46h-3.8Q333,245,333,241.57Zm28-41.46a7.92,7.92,0,0,0,4.3-1.27,9.27,9.27,0,0,0,3.23-3.43,9.64,9.64,0,0,0,1.2-4.76,7.68,7.68,0,0,0-2.56-6.08,10.09,10.09,0,0,0-6.93-2.26h-9.88v17.8Z"/><path class="cls-1" d="M292.58,130c-.15.41-.34,1.12-.6,2.14s-.54,2.1-.86,3.22-.64,2.2-.93,3.22-.47,1.74-.54,2.15c-.43,1.09-.89,2.36-1.36,3.83a20.46,20.46,0,0,1-1.84,4.13,11.46,11.46,0,0,1-2.82,3.27,6.34,6.34,0,0,1-4.07,1.33,9.83,9.83,0,0,1-5.81-1.73,14.08,14.08,0,0,1-4.06-4.6,25.76,25.76,0,0,1-2.55-6.44,59.45,59.45,0,0,1-1.41-7.2q-.5-3.63-.66-7c-.1-2.21-.16-4.1-.16-5.67,0-1-.05-2.26-.16-3.93a25.45,25.45,0,0,1,.16-5,10.39,10.39,0,0,1,1.47-4.29A4,4,0,0,1,270,105.7c0,.41,0,1.18-.05,2.3s-.08,2.32-.11,3.58-.06,2.45-.06,3.57v2.4a6.11,6.11,0,0,1-.16,1c-.11.51-.22,1.08-.32,1.69s-.22,1.17-.33,1.68a6,6,0,0,0-.16,1.08c0,.41.07,1.27.21,2.6s.33,2.75.55,4.24.41,2.95.59,4.35.35,2.4.49,3a23.2,23.2,0,0,0,.87,3.42,18.57,18.57,0,0,0,1.74,3.83,13.15,13.15,0,0,0,2.55,3.17,5,5,0,0,0,3.52,1.33,4.35,4.35,0,0,0,3.91-2.35,20.32,20.32,0,0,0,2.22-5.77,66,66,0,0,0,1.31-7.56q.48-4.14,1.08-7.57a30,30,0,0,1,1.52-5.77c.61-1.56,1.5-2.35,2.66-2.35h.54l.43.41.44.41q1.62,4.6,3.8,9.35a84.67,84.67,0,0,0,4.93,9.25,62.18,62.18,0,0,0,6.24,8.42,44.88,44.88,0,0,0,7.81,7h1.41a2.94,2.94,0,0,0,2.77-1.38,19.25,19.25,0,0,0,1.47-3.21c.14-.55.38-1.4.7-2.56s.64-2.35.92-3.57.56-2.35.82-3.38a11.57,11.57,0,0,0,.38-1.94v-1.28c0-.78,0-1.68.05-2.7s.06-2.08.06-3.17v-5.62c0-1.23,0-2.47-.06-3.73s-.05-2.36-.05-3.32V114.9c-.07-1.5-.16-2.68-.27-3.53a6.61,6.61,0,0,0-.65-2.2,5.27,5.27,0,0,0-1.41-1.63,27,27,0,0,0-2.45-1.64v-.3a7.16,7.16,0,0,1,.33-2.3c.22-.65.83-1,1.84-1a4.9,4.9,0,0,1,3.1.82,4.71,4.71,0,0,1,1.46,2.75c.07.69.2,1.59.38,2.71s.36,2.37.54,3.73.38,2.74.6,4.14.42,2.72.6,4,.32,2.35.43,3.27.16,1.52.16,1.79v.82q0,.61.06,1.38c0,.51.05,1,.05,1.53v1.28c0,1-.07,2.38-.21,4.09s-.38,3.52-.71,5.46-.76,3.92-1.3,5.93a23.34,23.34,0,0,1-2.17,5.41,14.23,14.23,0,0,1-3.2,3.94,6.45,6.45,0,0,1-4.24,1.53l-1.24,0c-.62,0-1-.05-1.25-.05q-3.9-3.48-6.73-6.39a72.12,72.12,0,0,1-5.21-6q-2.38-3.06-4.66-6.48c-1.52-2.29-3.22-4.92-5.1-7.92Z"/><path class="cls-1" d="M341,142.48a41.85,41.85,0,0,1,.33-5.26c.22-1.74.45-3.47.7-5.21s.49-3.47.71-5.21a42.76,42.76,0,0,0,.32-5.36,4.19,4.19,0,0,0-.27-1.38,1.26,1.26,0,0,0-1.35-.77,5.46,5.46,0,0,0-1.85.2,1.22,1.22,0,0,0-.59.51,3.28,3.28,0,0,1-.55.72,4.13,4.13,0,0,1-1.68.82h-.54a2,2,0,0,1-2.28-2.25c0-.41.49-1.06,1.47-1.94a21.66,21.66,0,0,1,3.41-2.51c1.31-.78,2.53-1.46,3.69-2s1.92-.76,2.28-.56a1.25,1.25,0,0,1,.65.36,10.73,10.73,0,0,1,.87.81l.81.87a3.2,3.2,0,0,1,.49.62v.81c0,.41,0,.86.06,1.33s.05.94.05,1.38v1a39.71,39.71,0,0,1-.43,5.88c-.29,1.94-.64,3.9-1,5.87s-.75,4-1,5.93a40.67,40.67,0,0,0-.44,5.92c0,.35,0,1,.11,2a19.11,19.11,0,0,0,.49,3.16,10,10,0,0,0,1.14,2.92,2.3,2.3,0,0,0,2.06,1.27,9,9,0,0,0,3.91-.66,12.36,12.36,0,0,0,2.27-1.48,14.58,14.58,0,0,1,2.12-1.48,6.33,6.33,0,0,1,3.2-.67,7.38,7.38,0,0,1-3.36,6.54,15.13,15.13,0,0,1-8.57,2.25,5.16,5.16,0,0,1-4.13-1.64,10.69,10.69,0,0,1-2.11-3.93,18.47,18.47,0,0,1-.82-4.75C341,144.93,341,143.57,341,142.48Zm1.09-42.71a3.24,3.24,0,0,1,.38-1.73c.25-.41.85-.62,1.79-.62a1.42,1.42,0,0,1,1.35.67,3.27,3.27,0,0,1,.38,1.68,3.07,3.07,0,0,1-.38,1.59,1.42,1.42,0,0,1-1.35.66c-.94,0-1.54-.18-1.79-.56A3,3,0,0,1,342.05,99.77Z"/><path class="cls-1" d="M365.58,149.63c.15-.54.36-1.44.65-2.7s.6-2.68.93-4.24.65-3.24,1-5,.65-3.44,1-5,.6-3,.81-4.29.37-2.25.44-2.86a3.47,3.47,0,0,0,0-1.22c-.07-.55-.15-1.16-.22-1.84s-.14-1.3-.22-1.84a10.47,10.47,0,0,1-.1-1.23,5.2,5.2,0,0,1-1.09-.2c-.51-.14-1-.26-1.57-.36s-1-.2-1.47-.31a4.78,4.78,0,0,0-1-.15,9.23,9.23,0,0,0-3.86,2.3c-.83.92-1.59,1.82-2.27,2.71a10.69,10.69,0,0,1-2.45,2.29,7.22,7.22,0,0,1-4.12,1,1.52,1.52,0,0,1-1.41-.72,3.08,3.08,0,0,1-.43-1.63v-.41a62.66,62.66,0,0,1,4.5-4.4,24.6,24.6,0,0,1,4.5-3.11,20.07,20.07,0,0,1,5.21-1.89,30.75,30.75,0,0,1,6.51-.62,4.25,4.25,0,0,1,2.44.57,3.66,3.66,0,0,1,1.25,1.43,5,5,0,0,1,.49,2c0,.75.05,1.57.05,2.45a25.88,25.88,0,0,1-.59,5.47c-.4,1.8-.84,3.61-1.31,5.41s-.92,3.61-1.35,5.42a23.39,23.39,0,0,0-.65,5.57v.4a23.12,23.12,0,0,1,1.41-2.7q1.08-1.89,2.28-4t2.33-4l1.57-2.61c.07-.07.33-.36.76-.87l1.57-1.79c.62-.68,1.23-1.34,1.85-2s1.14-1.17,1.57-1.58a19.78,19.78,0,0,1,1.58-1.74,23.24,23.24,0,0,1,2-1.74,12.81,12.81,0,0,1,2.17-1.38,5.29,5.29,0,0,1,2.33-.56,1.67,1.67,0,0,1,1.47.72,4.76,4.76,0,0,1,.7,1.73,9.79,9.79,0,0,1,.22,2.1v1.79a25.79,25.79,0,0,1-.76,6.13q-.76,3.06-1.63,6.08c-.58,2-1.14,4-1.68,6.08a23.85,23.85,0,0,0-.81,6.13,5.2,5.2,0,0,0,.43,2.24c.29.62.94.92,1.95.92a6.58,6.58,0,0,0,3.58-1,33.11,33.11,0,0,0,3.1-2.19c1-.79,1.95-1.52,2.93-2.2a5.64,5.64,0,0,1,3.31-1V147c0,.07-.19.27-.55.61l-1.3,1.23c-.51.47-1,1-1.57,1.43s-1,.88-1.36,1.22c-.58.48-1.23,1-1.95,1.54a23.92,23.92,0,0,1-2.23,1.48,13.91,13.91,0,0,1-2.44,1.12,7.4,7.4,0,0,1-2.49.46,4,4,0,0,1-2.66-.87,5.52,5.52,0,0,1-1.57-2.14,10.67,10.67,0,0,1-.76-2.71,16.47,16.47,0,0,1-.22-2.55,31,31,0,0,1,.6-6.08c.39-2,.81-4,1.24-5.93s.83-3.9,1.2-5.87a33.64,33.64,0,0,0,.54-6h-.65a2.8,2.8,0,0,0-.76.61c-.44.41-1,.89-1.57,1.43a24.44,24.44,0,0,0-1.79,1.74c-.58.61-1.09,1.12-1.52,1.53s-.76.9-1.2,1.48-.87,1.21-1.3,1.89l-1.25,2c-.4.65-.74,1.25-1,1.79s-.58,1.19-1.08,2.15-1.07,2-1.68,3.27l-2,3.88c-.69,1.36-1.34,2.66-2,3.88s-1.18,2.32-1.68,3.27-.87,1.67-1.09,2.15a2.62,2.62,0,0,1-.87,1.07,7,7,0,0,1-1,.77l-.22.1h-.54a.34.34,0,0,1-.22-.1,3.79,3.79,0,0,1-.6-.41c-.25-.21-.38-.34-.38-.41Z"/><path class="cls-1" d="M397,174.16q0-1.12.06-2.46a16,16,0,0,1,.32-2.65,10.22,10.22,0,0,1,.81-2.45,4.33,4.33,0,0,1,1.74-1.84c0,.54,0,1.49.11,2.86s.16,2.79.27,4.29.2,2.94.27,4.34.15,2.33.22,2.81a16.13,16.13,0,0,0,1.14,4.45q.91,2.3,2.06,4.59c.76,1.54,1.54,3,2.33,4.4s1.48,2.57,2.06,3.52a3.79,3.79,0,0,0,2.17,1.53,9.87,9.87,0,0,0,2.72.41,6,6,0,0,0,4.28-1.79,16.29,16.29,0,0,0,3.31-4.54,41.84,41.84,0,0,0,2.5-6.13,61.29,61.29,0,0,0,1.73-6.59c.44-2.15.76-4.09,1-5.83a33.81,33.81,0,0,0,.33-3.83v-1.12c0-.68,0-1.48.05-2.4s.05-1.84.05-2.76v-2.2q0-4.8-.16-9.65a31.13,31.13,0,0,0-1.79-9.45,1.86,1.86,0,0,1-.43-.11,5.22,5.22,0,0,0-2.5,1.43q-1.74,1.44-4.12,3.12a40.26,40.26,0,0,1-5.1,3.06,12.11,12.11,0,0,1-5.54,1.38,5,5,0,0,1-2.87-.71,4.31,4.31,0,0,1-1.52-1.84,7.58,7.58,0,0,1-.6-2.5c-.07-.92-.11-1.83-.11-2.71a17.75,17.75,0,0,1,1.52-6.8,29.28,29.28,0,0,1,4-6.79,21.84,21.84,0,0,1,5.86-5.21,13.38,13.38,0,0,1,7.05-2,5.85,5.85,0,0,1,2.5.51A5.28,5.28,0,0,0,425,123a1.58,1.58,0,0,0,1-.31c.25-.2.5-.42.76-.66a7.59,7.59,0,0,1,.81-.67,1.86,1.86,0,0,1,1.08-.3c1.31,0,2,.27,2.23.81a8.87,8.87,0,0,1,.27,2.56q0,6.22-.22,12.31t-.43,12.16q-.22,6.07-.33,12.26t.11,12.62c-.29,1.09-.63,2.55-1,4.39s-.9,3.78-1.52,5.82a57.2,57.2,0,0,1-2.22,6.13,35.13,35.13,0,0,1-3,5.62,15.21,15.21,0,0,1-3.9,4.14,8.32,8.32,0,0,1-4.94,1.59,8.77,8.77,0,0,1-4.88-1.49,17.65,17.65,0,0,1-4.18-3.83,26.07,26.07,0,0,1-3.31-5.31,49.35,49.35,0,0,1-2.39-6,42,42,0,0,1-1.46-5.82A28.54,28.54,0,0,1,397,174.16Zm8.57-30.66c0,1.23.16,2,.49,2.3a4,4,0,0,0,2.44.46,11.1,11.1,0,0,0,5-1.43,27.43,27.43,0,0,0,5.26-3.57,23.28,23.28,0,0,0,4.18-4.65,8.5,8.5,0,0,0,1.68-4.65,9.24,9.24,0,0,0-.76-4.09q-.76-1.53-3.69-1.53a10.5,10.5,0,0,0-5.64,1.69,17.64,17.64,0,0,0-4.72,4.29,21.64,21.64,0,0,0-3.15,5.62A15.81,15.81,0,0,0,405.61,143.5Z"/><path class="cls-1" d="M434.57,139.42v-.62a8.13,8.13,0,0,1,.06-.92c0-.34.05-.66.05-1v-.56c.07-.2.34-.44.82-.71s.81-.38,1-.31c.43.14.83.61,1.19,1.43a31.54,31.54,0,0,1,1.09,3c.36,1.16.77,2.44,1.24,3.84a17.77,17.77,0,0,0,1.85,3.88,13.46,13.46,0,0,0,2.82,3.17,8.53,8.53,0,0,0,4.07,1.78,2.64,2.64,0,0,0,1.19,0,1,1,0,0,0,.6-.51,1.94,1.94,0,0,0,.16-.82v-.76a7.41,7.41,0,0,0-1.52-3.83q-1.41-2-3.36-4.29c-1.3-1.54-2.61-3.17-3.91-4.91a28.55,28.55,0,0,1-3.25-5.52,19.88,19.88,0,0,1-1.63-6.23,14.39,14.39,0,0,1,1.3-7.1,4.87,4.87,0,0,1,1-2.45,17.25,17.25,0,0,1,2.5-2.91A20.11,20.11,0,0,1,445,110.6a5.56,5.56,0,0,1,2.82-1,9,9,0,0,1,3.31.62,4.8,4.8,0,0,1,2.44,2c.72.89,1.58,2.06,2.55,3.52s1.85,2.92,2.61,4.35a14,14,0,0,1,1.46,3.88c.22,1.16-.11,1.84-1,2a4,4,0,0,1-2.55-.81,6.63,6.63,0,0,1-1.68-2,22,22,0,0,1-1.19-2.71,21.88,21.88,0,0,0-1.19-2.7,9.14,9.14,0,0,0-1.52-2.1,3.08,3.08,0,0,0-2.28-.87,5.47,5.47,0,0,0-3.42,1.13,9.07,9.07,0,0,0-2.39,2.76,11.91,11.91,0,0,0-1.3,3.52,17.41,17.41,0,0,0-.38,3.32,11,11,0,0,0,1,4.75,21.47,21.47,0,0,0,2.61,4.19,47.77,47.77,0,0,0,3.47,3.94,49.84,49.84,0,0,1,3.47,3.93,25,25,0,0,1,2.66,4.14,10.08,10.08,0,0,1,1.08,4.6,4.45,4.45,0,0,1-.48,2,7.77,7.77,0,0,1-1.31,1.84,6.07,6.07,0,0,1-1.9,1.38,5,5,0,0,1-2.17.51,10.49,10.49,0,0,1-5.75-1.74,20,20,0,0,1-4.83-4.39,23.42,23.42,0,0,1-3.36-5.67A14.72,14.72,0,0,1,434.57,139.42Z"/><path class="cls-1" d="M144.84,252.28h-1.78v16.18H32.68V193.53c0-17,5.78-32.91,16.28-44.87s24.23-18.42,38.92-18.42c19.43,0,36.55,11.58,46.37,29h7.33c-10.34-20.82-29.84-35-52.26-35.64H87.88c-1.25,0-2.49,0-3.72.12-15.13,1-29.2,8.19-40,20.48-11.56,13.19-17.94,30.7-17.94,49.32v81.56H149.5V251.74A16.32,16.32,0,0,1,144.84,252.28Z"/><path class="cls-1" d="M149.92,275.51H25.82v-82c0-18.71,6.41-36.33,18-49.6,10.76-12.28,25.06-19.6,40.26-20.61a52.06,52.06,0,0,1,5.21-.12c21.74.57,41.91,14.32,52.62,35.88l.3.6H134l-.13-.21c-10.15-18-27.35-28.81-46-28.81-14.57,0-28.27,6.49-38.6,18.27S33.1,176.66,33.1,193.53V268H142.64V251.86h2.2a16.13,16.13,0,0,0,4.54-.52l.54-.16Zm-123.26-.84H149.08V252.29a18.15,18.15,0,0,1-4.24.41h-1.36v16.18H32.26V193.53c0-17.07,5.82-33.11,16.39-45.15s24.42-18.56,39.23-18.56c18.88,0,36.29,10.85,46.62,29h6.4c-10.65-20.93-30.36-34.24-51.59-34.8-1.61-.05-3.25,0-5.13.11-15,1-29.06,8.23-39.68,20.33C33,157.6,26.66,175,26.66,193.53Z"/><polygon class="cls-1" points="132.9 16.68 132.9 40.53 149.88 25.09 132.9 16.68"/><path class="cls-2" d="M134.64,17.53A23,23,0,0,0,120.45,1.86,22.51,22.51,0,0,0,112.57.42a22.26,22.26,0,0,0-17.4,8.5L67.48,43.2l-58.93,73H82.88c.38,0,.76,0,1.13,0v9.4l5.08.26v-10a51.53,51.53,0,0,0,31-15.51A54.81,54.81,0,0,0,135.49,61.9V24A24.52,24.52,0,0,0,134.64,17.53ZM130.39,61.9a49.48,49.48,0,0,1-13.92,34.67,46.5,46.5,0,0,1-33.59,14.36H59.43l-40.06,0L77.92,38.46,99.07,12.27a17,17,0,0,1,19.64-5.49A17.86,17.86,0,0,1,130.39,24Z"/><path class="cls-1" d="M130.4,35.83,74.15,34.32,0,123.22H5.24A120.93,120.93,0,0,0,98.38,79.79l32-37v-7Z"/><path class="cls-1" d="M120.38,21.25a3.63,3.63,0,1,1-7.24,0,3.63,3.63,0,1,1,7.24,0Z"/></g></g></svg>