<svg xmlns="http://www.w3.org/2000/svg" viewBox="0 0 330.77 652.36"><defs><style>.cls-1{fill:#ff6d3b;}</style></defs><title>Asset 7</title><g id="Layer_2" data-name="Layer 2"><g id="Layer_1-2" data-name="Layer 1"><polygon class="cls-1" points="253.3 29.58 253.3 72.97 286.01 44.87 253.3 29.58"/><path class="cls-1" d="M229.3,2.62a44.23,44.23,0,0,0-48.71,12.84L13.66,210.55l143.24,0h0l2.18,0v27.09l37.1,6.35a13,13,0,0,0-12.73-15.87H168.87V209.88a101.69,101.69,0,0,0,59.71-28.22,96.8,96.8,0,0,0,29.7-69.8v-69c0-18.23-11.38-34-29-40.23Zm19.18,109.23a87.4,87.4,0,0,1-26.82,63.06A92.24,92.24,0,0,1,156.91,201H34.55L188.1,21.56c11.3-13.21,27-13.82,37.86-10s22.52,14.06,22.52,31.26v69Z"/><path class="cls-1" d="M248.48,64.42,134.26,69.8,0,223.41H10c68.89,0,133.58-28.81,177.48-79l61-67.3,0-7.1Z"/><path class="cls-1" d="M291.86,480.62H261.34V406.85a117.13,117.13,0,0,0-22.64-69.14,124.91,124.91,0,0,0-30.47-29.65c48.13,12.74,83.63,55.66,83.63,106.5v66.07Zm0,130.43H261.35V493.36h30.51Zm-43.6-130.43H185.05V312.74h0v-3.28A112.63,112.63,0,0,1,228,345.05a104.65,104.65,0,0,1,20.25,61.79v73.79Zm0,130.43H185.08v-28.6h45.48v-89.1h17.72v117.7ZM185.08,555.5h32.4v14.23h-32.4V555.49Zm0-61.61h32.42v48.88H185.07ZM167.89,259.4a10.65,10.65,0,1,1,10.65,10.37,10.53,10.53,0,0,1-10.65-10.37M108.8,611.05V493.36h17.72v89.1H172v28.59H108.8ZM95.73,480.62H65.21V414.56c0-50.84,35.5-93.77,83.63-106.5A125.22,125.22,0,0,0,118.19,338a117.22,117.22,0,0,0-22.46,68.9v73.78Zm0,130.43H65.22V493.36H95.73ZM172,480.62H108.8V406.85a104.65,104.65,0,0,1,20.08-61.57A112.72,112.72,0,0,1,172,309.47V480.62Zm0,62.15h-32.4V493.88H172Zm0,27H139.59V555.5H172v14.23Zm13.08-278.1v-10a23.25,23.25,0,0,0,17.18-22.21c0-12.73-10.64-23.1-23.72-23.1s-23.73,10.37-23.73,23.1A23.24,23.24,0,0,0,172,281.6v10C105.32,295,52.14,348.83,52.14,414.55V623.77H305V414.55c0-65.72-53.21-119.59-119.87-122.92"/><rect class="cls-1" x="26.3" y="610.93" width="304.47" height="41.43"/><path class="cls-1" d="M229.18,37.89a7,7,0,1,1-7-7,7,7,0,0,1,7,7"/></g></g></svg>