<svg xmlns="http://www.w3.org/2000/svg" width="60" height="60" viewBox="0 0 60 60">
    <defs>
        <style>
            .prefix__cls-1{fill:#fff}
        </style>
    </defs>
    <g id="prefix__facebook" transform="translate(-15)">
        <path id="prefix__Path_260" d="M291.608 508.668q-.375.061-.753.113.378-.052.753-.113zm0 0" class="prefix__cls-1" data-name="Path 260" transform="translate(-254.628 -449.058)"/>
        <path id="prefix__Path_261" d="M299.7 507.793c-.119.022-.239.042-.358.063l.358-.063zm0 0" class="prefix__cls-1" data-name="Path 261" transform="translate(-262.118 -448.286)"/>
        <path id="prefix__Path_262" d="M278.491 510.34q-.439.049-.882.087.443-.037.882-.087zm0 0" class="prefix__cls-1" data-name="Path 262" transform="translate(-242.934 -450.534)"/>
        <path id="prefix__Path_263" d="M286.868 509.738c-.141.019-.282.036-.423.053.141-.017.283-.034.423-.053zm0 0" class="prefix__cls-1" data-name="Path 263" transform="translate(-250.735 -450.003)"/>
        <path id="prefix__Path_264" d="M306.981 506.41l-.317.066zm0 0" class="prefix__cls-1" data-name="Path 264" transform="translate(-268.584 -447.065)"/>
        <path id="prefix__Path_265" d="M324.74 502.113l-.255.071zm0 0" class="prefix__cls-1" data-name="Path 265" transform="translate(-284.316 -443.272)"/>
        <path id="prefix__Path_266" d="M319.337 503.543l-.278.072zm0 0" class="prefix__cls-1" data-name="Path 266" transform="translate(-279.526 -444.534)"/>
        <path id="prefix__Path_267" d="M312.362 505.254l-.3.066c.103-.02.202-.043.3-.066zm0 0" class="prefix__cls-1" data-name="Path 267" transform="translate(-273.353 -446.044)"/>
        <path id="prefix__Path_268" d="M273.955 511.09q-.237.02-.474.036.237-.016.474-.036zm0 0" class="prefix__cls-1" data-name="Path 268" transform="translate(-239.289 -451.197)"/>
        <path id="prefix__Path_269" d="M60 30a30 30 0 1 0-30 30c.176 0 .352 0 .527-.007V36.639h-6.445v-7.511h6.445V23.6c0-6.411 3.913-9.9 9.632-9.9a53.056 53.056 0 0 1 5.778.3v6.7h-3.943c-3.111 0-3.713 1.479-3.713 3.648v4.784h7.439l-.97 7.511h-6.469v22.2A30.016 30.016 0 0 0 60 30zm0 0" class="prefix__cls-1" data-name="Path 269" transform="translate(15)"/>
        <path id="prefix__Path_270" d="M265.831 511.43q-.468.03-.94.047.471-.017.94-.047zm0 0" class="prefix__cls-1" data-name="Path 270" transform="translate(-231.706 -451.497)"/>
        <path id="prefix__Path_271" d="M261 511.836q-.249.008-.5.012.253-.004.5-.012zm0 0" class="prefix__cls-1" data-name="Path 271" transform="translate(-227.833 -451.855)"/>
    </g>
</svg>
