<svg xmlns="http://www.w3.org/2000/svg" xmlns:xlink="http://www.w3.org/1999/xlink" width="100" height="56.667" viewBox="0 0 100 56.667">
  <defs>
    <clipPath id="clip-path">
      <rect id="Rectangle_1692" data-name="Rectangle 1692" width="100" height="56.667" rx="25" transform="translate(100 1141)" fill="#ff6d3b"/>
    </clipPath>
  </defs>
  <g id="Group_9" data-name="Group 9" transform="translate(-100 -1141)" clip-path="url(#clip-path)">
    <g id="Layer_2" data-name="Layer 2" transform="translate(122.222 1141)">
      <g id="corner-down-right" transform="translate(0)">
        <rect id="Rectangle_1694" data-name="Rectangle 1694" width="56.667" height="55.556" transform="translate(0 56.667) rotate(-90)" fill="#ff6d3b" opacity="0"/>
        <path id="Path_539" data-name="Path 539" d="M150.825,133.514l-9.357-11.7a2.339,2.339,0,0,0-3.649,2.9l6.316,7.907H123.268a2.339,2.339,0,0,1-2.339-2.339v-11.7a2.339,2.339,0,1,0-4.679,0v11.7a7.018,7.018,0,0,0,7.018,7.018h20.867l-6.316,7.907a2.331,2.331,0,1,0,3.649,2.9l9.357-11.7a2.339,2.339,0,0,0,0-2.9Z" transform="translate(-104.942 -104.553)" fill="#ff6d3b"/>
      </g>
    </g>
  </g>
</svg>
