<svg xmlns="http://www.w3.org/2000/svg" id="prefix__instagram" width="42" height="42.008" viewBox="0 0 42 42.008">
    <defs>
        <style>
            .prefix__cls-1{fill:#111e6c}
        </style>
    </defs>
    <path id="prefix__Path_132" d="M42.342 12.351a15.35 15.35 0 0 0-.976-5.1 10.761 10.761 0 0 0-6.147-6.146 15.389 15.389 0 0 0-5.1-.976C27.875.025 27.161 0 21.457 0S15.04.025 12.8.123a15.354 15.354 0 0 0-5.1.977 10.25 10.25 0 0 0-3.722 2.429 10.343 10.343 0 0 0-2.421 3.717 15.391 15.391 0 0 0-.976 5.1C.474 14.591.449 15.3.449 21.008s.025 6.417.123 8.658a15.349 15.349 0 0 0 .977 5.1A10.759 10.759 0 0 0 7.7 40.908a15.392 15.392 0 0 0 5.1.976c2.24.1 2.954.123 8.658.123s6.417-.024 8.658-.123a15.346 15.346 0 0 0 5.1-.976 10.745 10.745 0 0 0 6.147-6.146 15.4 15.4 0 0 0 .976-5.1c.1-2.24.123-2.954.123-8.658s-.021-6.413-.12-8.653zM38.56 29.5a11.514 11.514 0 0 1-.722 3.9 6.968 6.968 0 0 1-3.988 3.988 11.555 11.555 0 0 1-3.9.722c-2.216.1-2.88.123-8.485.123s-6.278-.024-8.486-.123a11.508 11.508 0 0 1-3.9-.722 6.464 6.464 0 0 1-2.409-1.567 6.531 6.531 0 0 1-1.57-2.413 11.557 11.557 0 0 1-.722-3.9c-.1-2.216-.123-2.881-.123-8.486s.024-6.278.123-8.485a11.508 11.508 0 0 1 .722-3.9 6.385 6.385 0 0 1 1.578-2.409 6.521 6.521 0 0 1 2.413-1.567 11.563 11.563 0 0 1 3.9-.722c2.216-.1 2.881-.123 8.485-.123s6.278.025 8.486.123a11.514 11.514 0 0 1 3.9.722 6.459 6.459 0 0 1 2.408 1.567 6.53 6.53 0 0 1 1.568 2.413 11.561 11.561 0 0 1 .722 3.9c.1 2.216.123 2.88.123 8.485s-.025 6.26-.123 8.474zm0 0" class="prefix__cls-1" data-name="Path 132" transform="translate(-.449)"/>
    <path id="prefix__Path_133" d="M135.333 124.5a10.384 10.384 0 1 0 10.384 10.384 10.387 10.387 0 0 0-10.384-10.384zm0 17.12a6.736 6.736 0 1 1 6.736-6.736 6.737 6.737 0 0 1-6.736 6.736zm0 0" class="prefix__cls-1" data-name="Path 133" transform="translate(-114.325 -113.876)"/>
    <path id="prefix__Path_134" d="M367.935 91.344a2.743 2.743 0 1 1-2.743-2.743 2.743 2.743 0 0 1 2.743 2.743zm0 0" class="prefix__cls-1" data-name="Path 134" transform="translate(-333.102 -81.419)"/>
</svg>
