<svg xmlns="http://www.w3.org/2000/svg" id="prefix__instagram" width="60" height="60" viewBox="0 0 60 60">
    <defs>
        <style>
            .prefix__cls-1{fill:#fff}
        </style>
    </defs>
    <path id="prefix__Path_274" d="M218.484 212.742a5.742 5.742 0 1 1-5.742-5.742 5.742 5.742 0 0 1 5.742 5.742zm0 0" class="prefix__cls-1" data-name="Path 274" transform="translate(-182.742 -182.742)"/>
    <path id="prefix__Path_275" d="M163.036 139.451a5.7 5.7 0 0 0-3.269-3.269 9.53 9.53 0 0 0-3.2-.593c-1.817-.083-2.362-.1-6.961-.1s-5.145.017-6.961.1a9.537 9.537 0 0 0-3.2.593 5.707 5.707 0 0 0-3.27 3.269 9.535 9.535 0 0 0-.593 3.2c-.083 1.816-.1 2.361-.1 6.961s.018 5.144.1 6.961a9.532 9.532 0 0 0 .593 3.2 5.7 5.7 0 0 0 3.269 3.269 9.519 9.519 0 0 0 3.2.593c1.816.083 2.361.1 6.961.1s5.145-.017 6.961-.1a9.519 9.519 0 0 0 3.2-.593 5.7 5.7 0 0 0 3.269-3.269 9.541 9.541 0 0 0 .593-3.2c.083-1.817.1-2.362.1-6.961s-.017-5.145-.1-6.961a9.519 9.519 0 0 0-.592-3.2zm-13.429 19.005a8.846 8.846 0 1 1 8.846-8.846 8.846 8.846 0 0 1-8.846 8.847zm9.2-15.974a2.067 2.067 0 1 1 2.067-2.067 2.067 2.067 0 0 1-2.074 2.067zm0 0" class="prefix__cls-1" data-name="Path 275" transform="translate(-119.607 -119.611)"/>
    <path id="prefix__Path_276" d="M30 0a30 30 0 1 0 30 30A30 30 0 0 0 30 0zm17.123 37.1a12.638 12.638 0 0 1-.8 4.182 8.808 8.808 0 0 1-5.038 5.038 12.647 12.647 0 0 1-4.181.8c-1.837.084-2.424.1-7.1.1s-5.265-.02-7.1-.1a12.647 12.647 0 0 1-4.181-.8 8.808 8.808 0 0 1-5.038-5.038 12.636 12.636 0 0 1-.8-4.181c-.085-1.837-.1-2.424-.1-7.1s.02-5.265.1-7.1a12.64 12.64 0 0 1 .8-4.182 8.814 8.814 0 0 1 5.039-5.038 12.65 12.65 0 0 1 4.182-.8c1.837-.084 2.424-.1 7.1-.1s5.265.02 7.1.1a12.653 12.653 0 0 1 4.182.8 8.811 8.811 0 0 1 5.038 5.039 12.637 12.637 0 0 1 .8 4.182c.084 1.837.1 2.424.1 7.1s-.019 5.263-.103 7.098zm0 0" class="prefix__cls-1" data-name="Path 276"/>
</svg>
