<svg id="Logo_Header" data-name="Logo Header" xmlns="http://www.w3.org/2000/svg" width="170" height="19.042" viewBox="0 0 170 19.042">
  <path id="Path_308" data-name="Path 308" d="M491.684,1065.776v-14.334h-4.318a.67.67,0,0,1-.62-.314,2.028,2.028,0,0,1-.191-1.016v-.807a2.032,2.032,0,0,1,.191-1.016.67.67,0,0,1,.62-.314h12.876a.671.671,0,0,1,.62.314,2.038,2.038,0,0,1,.191,1.016v.807a2.034,2.034,0,0,1-.191,1.016.671.671,0,0,1-.62.314H495.91v14.334q0,.837-1.638.837h-.949Q491.684,1066.613,491.684,1065.776Z" transform="translate(-486.555 -1047.749)" fill="#ff6d3b"/>
  <path id="Path_309" data-name="Path 309" d="M568.762,1065.631a1.626,1.626,0,0,1,.107-.478l6-17.085q.214-.567,1.546-.568h1.409q1.332,0,1.546.568l6,17.085a2.038,2.038,0,0,1,.077.478.467.467,0,0,1-.329.441,2.781,2.781,0,0,1-1.033.142h-1.194a3.44,3.44,0,0,1-1.033-.127.671.671,0,0,1-.482-.426l-1.1-3.243h-6.415l-1.1,3.243q-.168.553-1.255.553h-1.072Q568.762,1066.214,568.762,1065.631Zm10.35-6.726-1.546-4.723a5.5,5.5,0,0,1-.237-.822q-.1-.463-.176-.882h-.107l-.061.329a7.059,7.059,0,0,1-.352,1.375l-1.608,4.723Z" transform="translate(-555.778 -1047.351)" fill="#ff6d3b"/>
  <path id="Path_310" data-name="Path 310" d="M681.718,1065.94a.7.7,0,0,1-.406-.643v-17.009q0-.882,1.638-.882h.949a2.578,2.578,0,0,1,1.233.224.716.716,0,0,1,.391.658V1065.3q0,.867-1.623.867h-.949A2.631,2.631,0,0,1,681.718,1065.94Z" transform="translate(-650.552 -1047.271)" fill="#ff6d3b"/>
  <path id="Path_311" data-name="Path 311" d="M727.329,1065.915a1.086,1.086,0,0,1-.26-.807v-16.74a.7.7,0,0,1,.4-.65,2.7,2.7,0,0,1,1.24-.217h.919a2.7,2.7,0,0,1,1.24.217.7.7,0,0,1,.4.65v14.32h6.063a.671.671,0,0,1,.62.314,1.992,1.992,0,0,1,.192,1v.837a2.033,2.033,0,0,1-.192,1.017.671.671,0,0,1-.62.314h-9.171A1.148,1.148,0,0,1,727.329,1065.915Z" transform="translate(-689.082 -1047.351)" fill="#ff6d3b"/>
  <path id="Path_312" data-name="Path 312" d="M806.285,1064.49a7.158,7.158,0,0,1-2.971-3.236,13.722,13.722,0,0,1,0-10.373,7.116,7.116,0,0,1,2.971-3.229,10.8,10.8,0,0,1,9.492,0,7.071,7.071,0,0,1,2.963,3.229,13.813,13.813,0,0,1,0,10.373,7.111,7.111,0,0,1-2.963,3.236,10.736,10.736,0,0,1-9.492,0Zm8.046-3.938a7.611,7.611,0,0,0,1.117-4.492,7.5,7.5,0,0,0-1.117-4.469,4.334,4.334,0,0,0-6.606.007,9.438,9.438,0,0,0,.008,8.953,4.292,4.292,0,0,0,6.6,0Z" transform="translate(-752.428 -1046.554)" fill="#ff6d3b"/>
  <path id="Path_313" data-name="Path 313" d="M928.515,1065.776V1049.02a1.06,1.06,0,0,1,.26-.8,1.171,1.171,0,0,1,.827-.247h5.313q6.767,0,6.767,4.977a4.058,4.058,0,0,1-.865,2.6,5.171,5.171,0,0,1-2.32,1.63v.1a2.919,2.919,0,0,1,1.064.9,5.756,5.756,0,0,1,.9,1.555l2.4,5.844a1.87,1.87,0,0,1,.122.509q0,.523-1.623.523h-1.118q-1.363,0-1.577-.553l-2.159-5.186a4.809,4.809,0,0,0-.589-.927,1.766,1.766,0,0,0-.788-.5,4.376,4.376,0,0,0-1.363-.171H932.71v6.5q0,.837-1.638.837h-.918Q928.515,1066.613,928.515,1065.776Zm6.767-10.029a1.929,1.929,0,0,0,1.041-.307,2.245,2.245,0,0,0,.781-.829,2.33,2.33,0,0,0,.291-1.151,1.863,1.863,0,0,0-.62-1.472,2.45,2.45,0,0,0-1.677-.546H932.71v4.305Z" transform="translate(-858.711 -1047.749)" fill="#ff6d3b"/>
  <path id="Path_314" data-name="Path 314" d="M1059.349,1066.072a.619.619,0,0,1-.444-.411l-4.3-17.055a1.163,1.163,0,0,1-.061-.4q0-.328.421-.515a3.317,3.317,0,0,1,1.278-.187h.7q1.591,0,1.822.837l2.036,8.549q.046.224.368,1.689l.475,2.137q.183-1.091.7-3.034l.214-.792,2.25-8.819a.6.6,0,0,1,.437-.434,3.238,3.238,0,0,1,1.049-.134h1.041a3.243,3.243,0,0,1,1.049.134.6.6,0,0,1,.436.434l2.159,8.819q.4,1.645.934,4.006l.428-1.883.49-2.123,2.113-8.549q.229-.837,1.821-.837h.306a3.266,3.266,0,0,1,1.263.187q.421.187.421.515a1.378,1.378,0,0,1-.015.2c-.011.065-.021.133-.031.2l-4.44,17.055a.68.68,0,0,1-.49.411,3.135,3.135,0,0,1-1.011.142h-1.99a3.134,3.134,0,0,1-1.011-.142q-.413-.142-.475-.411l-2.235-9.193-.429-1.808-.475,1.808-2.312,9.193a.682.682,0,0,1-.49.411,3.129,3.129,0,0,1-1.01.142h-1.96A3.077,3.077,0,0,1,1059.349,1066.072Z" transform="translate(-964.833 -1047.351)" fill="#ff6d3b"/>
  <path id="Path_315" data-name="Path 315" d="M1214.511,1065.94a.7.7,0,0,1-.406-.643v-17.009q0-.882,1.639-.882h.949a2.577,2.577,0,0,1,1.233.224.716.716,0,0,1,.39.658V1065.3q0,.867-1.623.867h-.949A2.631,2.631,0,0,1,1214.511,1065.94Z" transform="translate(-1099.194 -1047.271)" fill="#ff6d3b"/>
  <path id="Path_316" data-name="Path 316" d="M1259.864,1065.377v-17.01a.7.7,0,0,1,.4-.65,2.7,2.7,0,0,1,1.24-.217h1.164a3.353,3.353,0,0,1,1.087.149,1.361,1.361,0,0,1,.7.583l6.431,9.671.735,1.076v-10.613a.7.7,0,0,1,.4-.65,2.7,2.7,0,0,1,1.24-.217h.78a2.653,2.653,0,0,1,1.233.217.7.7,0,0,1,.39.65v17.01q0,.837-1.623.837H1273a3.419,3.419,0,0,1-1.087-.142,1.344,1.344,0,0,1-.689-.561l-6.737-10.059-.582-.837v10.762q0,.837-1.623.837h-.781Q1259.864,1066.214,1259.864,1065.377Z" transform="translate(-1137.726 -1047.351)" fill="#ff6d3b"/>
  <path id="Path_317" data-name="Path 317" d="M1377.793,1063.265q-2.182-2.332-2.182-7.249,0-9.462,9.094-9.461a15.232,15.232,0,0,1,2.611.239,9.305,9.305,0,0,1,2.289.665q.919.426.919.949a2.326,2.326,0,0,1-.306.979,4.957,4.957,0,0,1-.72,1.069,1.106,1.106,0,0,1-.734.463,1.7,1.7,0,0,1-.444-.15,12.246,12.246,0,0,0-1.607-.5,9.1,9.1,0,0,0-2.083-.2,4.226,4.226,0,0,0-3.559,1.487,7.257,7.257,0,0,0-1.156,4.491,7.4,7.4,0,0,0,1.164,4.529,4.115,4.115,0,0,0,3.491,1.525,10.641,10.641,0,0,0,2.128-.194v-3.363h-2.4a.67.67,0,0,1-.62-.314,2.032,2.032,0,0,1-.191-1.016v-.852a1.991,1.991,0,0,1,.191-1,.67.67,0,0,1,.62-.314h5.527a1.2,1.2,0,0,1,.842.247,1.06,1.06,0,0,1,.261.8v7.4q0,1.2-2.052,1.651a19.767,19.767,0,0,1-4.3.456Q1379.975,1065.6,1377.793,1063.265Z" transform="translate(-1235.192 -1046.554)" fill="#ff6d3b"/>
  <path id="Path_318" data-name="Path 318" d="M1486.516,1065.215a6.87,6.87,0,0,1-2.235-.934q-.773-.553-.773-1.046a2.169,2.169,0,0,1,.3-.957,3.985,3.985,0,0,1,.712-.979,1.131,1.131,0,0,1,.689-.411,2.224,2.224,0,0,1,.719.284,12.3,12.3,0,0,0,1.569.673,5.263,5.263,0,0,0,1.707.254,3.7,3.7,0,0,0,1.815-.411,1.693,1.693,0,0,0,.36-2.474,3.2,3.2,0,0,0-.98-.732q-.6-.3-1.623-.7l-1.21-.508a9.713,9.713,0,0,1-1.891-1.151,4.667,4.667,0,0,1-1.286-1.659,5.777,5.777,0,0,1-.5-2.526,4.874,4.874,0,0,1,.919-3.034,5.361,5.361,0,0,1,2.388-1.779,8.677,8.677,0,0,1,3.154-.568,10.394,10.394,0,0,1,2.5.276,5.46,5.46,0,0,1,1.753.71q.636.434.636.867a2.493,2.493,0,0,1-.237.919,3.834,3.834,0,0,1-.59.979.942.942,0,0,1-.658.418,1.55,1.55,0,0,1-.49-.149,8.9,8.9,0,0,0-1.14-.366,5.944,5.944,0,0,0-1.4-.141,3.269,3.269,0,0,0-1.975.441,1.3,1.3,0,0,0-.551,1.038,1.77,1.77,0,0,0,.375,1.151,2.956,2.956,0,0,0,.95.762,15.481,15.481,0,0,0,1.6.688,21.076,21.076,0,0,1,2.526,1.218,5.184,5.184,0,0,1,1.692,1.652,4.89,4.89,0,0,1,.712,2.75,5.893,5.893,0,0,1-.88,3.356,5.057,5.057,0,0,1-2.266,1.891,7.64,7.64,0,0,1-2.994.583A13.517,13.517,0,0,1,1486.516,1065.215Z" transform="translate(-1326.046 -1046.554)" fill="#ff6d3b"/>
</svg>
