<svg xmlns="http://www.w3.org/2000/svg" xmlns:xlink="http://www.w3.org/1999/xlink" width="112" height="112" viewBox="0 0 112 112">
  <defs>
    <clipPath id="clip-path">
      <circle id="Ellipse_14" data-name="Ellipse 14" cx="56" cy="56" r="56" transform="translate(68 2111)" fill="#7fc4fd"/>
    </clipPath>
  </defs>
  <g id="Mask_Group_1" data-name="Mask Group 1" transform="translate(-68 -2111)" clip-path="url(#clip-path)">
    <g id="people_family_parents_child_boy" data-name="people, family, parents, child, boy" transform="translate(53.147 2094.493)">
      <path id="Path_141" data-name="Path 141" d="M85.29,76.429s9.3-3.323,9.3,22.153c0,0-.443,12.184-7.089,11.963Z" fill="#ffa45c"/>
      <path id="Path_142" data-name="Path 142" d="M95.7,36.553c-1.329,0,.222,7.311.222,7.975a29.588,29.588,0,0,1-.222,6.2c-.665,5.1,0,10.412-.886,15.507-.665,3.766-2.658,7.975-7.089,7.532-9.747-.886.886-28.356,2.215-27.913s0-9.3,0-9.3Z" fill="#ffa45c"/>
      <line id="Line_9" data-name="Line 9" x1="4.874" y2="22.153" transform="translate(79.309 54.497)" fill="none" stroke="#ff6d3b" stroke-linecap="round" stroke-linejoin="round" stroke-width="4.431"/>
      <path id="Path_143" data-name="Path 143" d="M95.259,48.073h3.1a6.527,6.527,0,0,1,6.646,6.646V71.555a4.543,4.543,0,0,1-4.652,4.652H88.835a4.679,4.679,0,0,1-4.652-4.652V54.5" fill="none" stroke="#ff6d3b" stroke-linecap="round" stroke-linejoin="round" stroke-width="4.431"/>
      <path id="Path_144" data-name="Path 144" d="M94.816,34.781a6.646,6.646,0,0,0,0,13.292" fill="none" stroke="#ff6d3b" stroke-linecap="round" stroke-linejoin="round" stroke-width="4.431"/>
      <line id="Line_10" data-name="Line 10" x2="8.861" y2="22.596" transform="translate(104.12 52.06)" fill="none" stroke="#ff6d3b" stroke-linecap="round" stroke-linejoin="round" stroke-width="4.431"/>
      <line id="Line_11" data-name="Line 11" x1="2.215" y1="37.439" transform="translate(84.182 71.777)" fill="none" stroke="#ff6d3b" stroke-linecap="round" stroke-linejoin="round" stroke-width="4.431"/>
      <line id="Line_12" data-name="Line 12" x1="2.215" y2="36.331" transform="translate(102.57 71.555)" fill="none" stroke="#ff6d3b" stroke-linecap="round" stroke-linejoin="round" stroke-width="4.431"/>
      <path id="Path_145" data-name="Path 145" d="M94.373,87.284v21.046a.953.953,0,0,0,.886.886h6.424a.953.953,0,0,0,.886-.886h0" fill="none" stroke="#ff6d3b" stroke-linecap="round" stroke-linejoin="round" stroke-width="4.431"/>
      <path id="Path_146" data-name="Path 146" d="M37.217,83.075s5.981-1.329,6.868,0S40.54,91.493,45.193,97.7s-1.108,14.621-2.88,13.513S40.984,99.69,38.768,98.36,31.9,94.594,37.217,83.075Z" fill="#ffa45c"/>
      <path id="Path_147" data-name="Path 147" d="M44.528,38.547l-.222.222A.217.217,0,0,1,44.528,38.547Z" fill="#ffa45c"/>
      <path id="Path_148" data-name="Path 148" d="M44.528,40.762a11.628,11.628,0,0,1-.222,8.64,1.151,1.151,0,0,0-.443.886,6.788,6.788,0,0,0-.665,5.1,9.184,9.184,0,0,1-.665,3.545,13,13,0,0,0,.443,9.969,12.358,12.358,0,0,1,1.108,8.418,5.73,5.73,0,0,1-2.437,3.1c-.222.222-3.545,2.437-3.545,1.329,0-1.329,1.994-3.323.443-9.969a55.275,55.275,0,0,1-1.108-14.843A3.073,3.073,0,0,1,40.1,55.383c1.772,0-.443-6.868-2.658-8.2C37.217,47.186,42.534,40.54,44.528,40.762Z" fill="#ffa45c"/>
      <line id="Line_13" data-name="Line 13" x1="8.418" y2="17.944" transform="translate(28.799 58.706)" fill="none" stroke="#ff6d3b" stroke-linecap="round" stroke-linejoin="round" stroke-width="4.431"/>
      <path id="Path_149" data-name="Path 149" d="M52.946,56.269c.222.222.222.665.443.886a4.878,4.878,0,0,1,.222,1.772L51.4,71.777,53.611,78.2v.443a4.6,4.6,0,0,1-4.652,4.209H42.091a4.6,4.6,0,0,1-4.652-4.209V77.315l2.215-5.1L37.439,63.8v-5.1" fill="none" stroke="#ff6d3b" stroke-linecap="round" stroke-linejoin="round" stroke-width="4.431"/>
      <path id="Path_150" data-name="Path 150" d="M39.876,44.306c0,3.545-3.988,5.538-3.988,5.538H40.1" fill="none" stroke="#ff6d3b" stroke-linecap="round" stroke-linejoin="round" stroke-width="4.431"/>
      <path id="Path_151" data-name="Path 151" d="M45.414,38.99a5.188,5.188,0,0,0-3.766,1.551l-.222.222a5.228,5.228,0,0,0-1.551,3.545" fill="none" stroke="#ff6d3b" stroke-linecap="round" stroke-linejoin="round" stroke-width="4.431"/>
      <path id="Path_152" data-name="Path 152" d="M50.952,44.306c0,3.545,3.988,5.538,3.988,5.538H52.06a3.029,3.029,0,0,0-3.1,3.1h0a3.029,3.029,0,0,0,3.1,3.1h.886l6.424,20.6" fill="none" stroke="#ff6d3b" stroke-linecap="round" stroke-linejoin="round" stroke-width="4.431"/>
      <path id="Path_153" data-name="Path 153" d="M45.414,38.99A5.188,5.188,0,0,1,49.18,40.54l.222.222a5.228,5.228,0,0,1,1.551,3.545" fill="none" stroke="#ff6d3b" stroke-linecap="round" stroke-linejoin="round" stroke-width="4.431"/>
      <line id="Line_14" data-name="Line 14" x1="2.658" y2="20.159" transform="translate(34.559 78.201)" fill="none" stroke="#ff6d3b" stroke-linecap="round" stroke-linejoin="round" stroke-width="4.431"/>
      <line id="Line_15" data-name="Line 15" x2="2.88" y2="20.381" transform="translate(53.611 77.979)" fill="none" stroke="#ff6d3b" stroke-linecap="round" stroke-linejoin="round" stroke-width="4.431"/>
      <path id="Path_154" data-name="Path 154" d="M34.559,98.36H50.066v11.52" fill="none" stroke="#ff6d3b" stroke-linecap="round" stroke-linejoin="round" stroke-width="4.431"/>
      <line id="Line_16" data-name="Line 16" y1="5.76" transform="translate(41.648 104.12)" fill="none" stroke="#ff6d3b" stroke-linecap="round" stroke-linejoin="round" stroke-width="4.431"/>
      <path id="Path_155" data-name="Path 155" d="M66.681,94.151s4.431-1.551,4.431,10.634c0,0-.222,5.981-3.545,5.76Z" fill="#ffa45c"/>
      <path id="Path_156" data-name="Path 156" d="M71.777,74.878c-.665,0,0,3.545.222,3.766a12.632,12.632,0,0,1-.222,2.88c-.222,2.437,0,5.1-.443,7.532C70.89,90.828,70,92.822,67.789,92.6c-4.652-.443.443-13.735,1.108-13.292s0-4.431,0-4.431Z" fill="#ffa45c"/>
      <line id="Line_17" data-name="Line 17" x1="6.646" y1="6.868" transform="translate(59.371 76.65)" fill="none" stroke="#ff6d3b" stroke-linecap="round" stroke-linejoin="round" stroke-width="4.431"/>
      <path id="Path_157" data-name="Path 157" d="M75.986,83.739v8.2a2.093,2.093,0,0,1-2.215,2.215H68.232a2.093,2.093,0,0,1-2.215-2.215v-8.2" fill="none" stroke="#ff6d3b" stroke-linecap="round" stroke-linejoin="round" stroke-width="4.431"/>
      <line id="Line_18" data-name="Line 18" x1="1.108" y1="18.166" transform="translate(66.017 91.936)" fill="none" stroke="#ff6d3b" stroke-linecap="round" stroke-linejoin="round" stroke-width="4.431"/>
      <line id="Line_19" data-name="Line 19" x1="1.108" y2="18.387" transform="translate(74.878 91.714)" fill="none" stroke="#ff6d3b" stroke-linecap="round" stroke-linejoin="round" stroke-width="4.431"/>
      <path id="Path_158" data-name="Path 158" d="M70.669,79.087a3.323,3.323,0,0,1,0-6.646" fill="none" stroke="#ff6d3b" stroke-linecap="round" stroke-linejoin="round" stroke-width="4.431"/>
    </g>
  </g>
</svg>
