<svg xmlns="http://www.w3.org/2000/svg" xmlns:xlink="http://www.w3.org/1999/xlink" width="104" height="104" viewBox="0 0 104 104">
  <defs>
    <clipPath id="clip-path">
      <circle id="Ellipse_14" data-name="Ellipse 14" cx="52" cy="52" r="52" transform="translate(72 2115)" fill="#7fc4fd"/>
    </clipPath>
  </defs>
  <g id="Mask_Group_2" data-name="Mask Group 2" transform="translate(-72 -2115)" clip-path="url(#clip-path)">
    <g id="money_thought_cash_lightbulb_arrow" data-name="money, thought, cash, lightbulb, arrow" transform="translate(67.923 2112.394)">
      <path id="Path_159" data-name="Path 159" d="M25.962,66.635S28.731,83.6,38.6,87.058s7.615-5.365,12.288-2.25S61.1,86.019,63,91.731c-1.731,0-36,2.769-36.865-3.981A171.917,171.917,0,0,1,25.962,66.635Z" fill="#ffa45c"/>
      <path id="Path_160" data-name="Path 160" d="M66.981,35.135h.173A3.859,3.859,0,0,1,71.308,38.6a5.33,5.33,0,0,1-.519,2.25,14.455,14.455,0,0,0-.173,14.712c1.9,3.288,4.154,7.788,8.308,8.308a7.825,7.825,0,0,0,4.846-1.212c.865-.519,2.6-2.423,3.808-1.038a1.682,1.682,0,0,1,.173,1.558c-1.038,5.019-3.462,5.712-8.481,6.923-9,2.423-20.942-2.25-24.4-11.25C52.1,51.4,56.25,41.712,61.615,37.212A15.713,15.713,0,0,1,66.981,35.135Z" fill="#ffa45c"/>
      <path id="Path_161" data-name="Path 161" d="M58.846,42.058a2.792,2.792,0,0,1,1.558-.519,2.236,2.236,0,0,1,1.558,2.077A13.054,13.054,0,0,1,60.4,48.635a10.034,10.034,0,0,0-1.385,6.231c.346,1.212,2.25,3.808.346,4.673a2.907,2.907,0,0,1-3.288-.692,7.213,7.213,0,0,1-1.385-3.115,17.862,17.862,0,0,1,.865-9,13.836,13.836,0,0,1,2.25-3.808A6.589,6.589,0,0,0,58.846,42.058Z" fill="#ffa45c"/>
      <path id="Path_162" data-name="Path 162" d="M66.808,71.308l7.615-.346a3.6,3.6,0,0,1,3.635,3.288h0a3.6,3.6,0,0,1-3.288,3.635l-7.615.346a3.6,3.6,0,0,1-3.635-3.288h0A3.378,3.378,0,0,1,66.808,71.308Z" fill="#ffa45c"/>
      <path id="Path_163" data-name="Path 163" d="M74.6,84.981l-4.673.173c-1.212,0-2.077-1.385-2.25-3.288h0c0-1.9.865-3.462,1.9-3.635l4.673-.173c1.212,0,2.077,1.385,2.25,3.288h0C76.5,83.423,75.635,84.981,74.6,84.981Z" fill="#ffa45c"/>
      <path id="Path_164" data-name="Path 164" d="M73.038,83.423h0v.346h0a2.762,2.762,0,0,1-2.423,1.385A3.183,3.183,0,0,1,67.5,82.212h0v-.692A3.419,3.419,0,0,1,69.577,78.4l-.173-.865a1.648,1.648,0,0,1-1.212.346A3.1,3.1,0,0,1,64.9,74.942h0v-.519a3.224,3.224,0,0,1,2.942-3.288h.173a3.07,3.07,0,0,1,3.115,2.942v1.385h0a3.947,3.947,0,0,0,1.212,3.288h0l.519.519h0A3.385,3.385,0,0,1,73.038,83.423Z" fill="#ffa45c"/>
      <path id="Path_165" data-name="Path 165" d="M66.981,78.231H78.058a3.472,3.472,0,0,1,3.462,3.462h0a3.472,3.472,0,0,1-3.462,3.462H58.5l-7.1-7.1L47.25,82.212l-13.5-13.5" fill="none" stroke="#ff6d3b" stroke-linecap="round" stroke-linejoin="round" stroke-width="3.462"/>
      <circle id="Ellipse_16" data-name="Ellipse 16" cx="1.731" cy="1.731" r="1.731" transform="translate(70.442 89.827)" fill="#ff6d3b"/>
      <path id="Path_166" data-name="Path 166" d="M75.288,61.442a8.591,8.591,0,0,1,.173-4.673,17.393,17.393,0,0,1,2.769-4.154c2.6-3.635-8.654-3.115-10.038-2.769-.346,0-.692.173-1.038.173-2.6.692-1.385,2.769-.173,4.327a10.02,10.02,0,0,1,2.6,4.327,7.654,7.654,0,0,1-3.288,7.1c-2.942,2.077-6.231,1.212-8.654-1.385a16.429,16.429,0,0,1-4.154-11.769A18.779,18.779,0,1,1,72.346,71.308H67.154a3.462,3.462,0,0,0,0,6.923H78.231" fill="none" stroke="#ff6d3b" stroke-linecap="round" stroke-linejoin="round" stroke-width="3.462"/>
      <line id="Line_20" data-name="Line 20" y2="6.923" transform="translate(72.173 21.115)" fill="none" stroke="#ff6d3b" stroke-linecap="round" stroke-linejoin="round" stroke-width="3.462"/>
      <line id="Line_21" data-name="Line 21" x1="3.288" y2="6.231" transform="translate(84.808 24.923)" fill="none" stroke="#ff6d3b" stroke-linecap="round" stroke-linejoin="round" stroke-width="3.462"/>
      <line id="Line_22" data-name="Line 22" x2="3.288" y2="6.231" transform="translate(56.769 24.75)" fill="none" stroke="#ff6d3b" stroke-linecap="round" stroke-linejoin="round" stroke-width="3.462"/>
      <path id="Path_167" data-name="Path 167" d="M66.981,91.731H31.327a5.357,5.357,0,0,1-5.365-5.192V58.673" fill="none" stroke="#ff6d3b" stroke-linecap="round" stroke-linejoin="round" stroke-width="3.462"/>
      <path id="Path_168" data-name="Path 168" d="M33.923,45.173v.346a11.339,11.339,0,0,1-7.788,10.558,9.8,9.8,0,0,1-3.115.519H21.981L19.212,55.9h0a9.514,9.514,0,0,0-2.942-2.25h0C14.538,52.442,12.462,50.538,11.6,45c0-.173-.173,0-.346,0a9.8,9.8,0,0,1,.519-3.115,10.7,10.7,0,0,1,3.981-5.538l.173-.173A10.37,10.37,0,0,1,22.154,34.1h.173C28.9,34.269,33.75,39.115,33.923,45.173Z" fill="#ffcdab"/>
      <path id="Path_169" data-name="Path 169" d="M12.808,45a13.154,13.154,0,1,1,26.308,0" fill="none" stroke="#ff6d3b" stroke-linecap="round" stroke-linejoin="round" stroke-width="3.462"/>
      <path id="Path_170" data-name="Path 170" d="M19.558,56.423A13.1,13.1,0,0,1,12.808,45" fill="none" stroke="#ff6d3b" stroke-linecap="round" stroke-linejoin="round" stroke-width="3.462"/>
      <path id="Path_171" data-name="Path 171" d="M39.115,45A13.148,13.148,0,0,1,25.962,58.154h0" fill="none" stroke="#ff6d3b" stroke-linecap="round" stroke-linejoin="round" stroke-width="3.462"/>
      <path id="Path_172" data-name="Path 172" d="M25.962,45a2.769,2.769,0,1,1,2.769-2.769h0" fill="none" stroke="#ff6d3b" stroke-linecap="round" stroke-linejoin="round" stroke-width="3.462"/>
      <path id="Path_173" data-name="Path 173" d="M25.962,50.712a2.734,2.734,0,0,1-2.769-2.769" fill="none" stroke="#ff6d3b" stroke-linecap="round" stroke-linejoin="round" stroke-width="3.462"/>
      <path id="Path_174" data-name="Path 174" d="M25.962,45a2.769,2.769,0,1,1,0,5.538h0" fill="none" stroke="#ff6d3b" stroke-linecap="round" stroke-linejoin="round" stroke-width="3.462"/>
      <line id="Line_23" data-name="Line 23" y1="2.596" transform="translate(25.962 36.692)" fill="none" stroke="#ff6d3b" stroke-linecap="round" stroke-linejoin="round" stroke-width="3.462"/>
      <line id="Line_24" data-name="Line 24" y1="2.423" transform="translate(25.962 50.712)" fill="none" stroke="#ff6d3b" stroke-linecap="round" stroke-linejoin="round" stroke-width="3.462"/>
      <path id="Path_175" data-name="Path 175" d="M46.558,37.9V30.115h2.769l-5.365-6.231-5.538,6.231h2.942" fill="none" stroke="#ffcdab" stroke-linecap="round" stroke-linejoin="round" stroke-width="3.462"/>
      <path id="Path_176" data-name="Path 176" d="M46.558,27V23.712h2.769l-5.365-6.231-5.538,6.231h2.942" fill="none" stroke="#ff6d3b" stroke-linecap="round" stroke-linejoin="round" stroke-width="3.462"/>
      <line id="Line_25" data-name="Line 25" x2="7.096" transform="translate(88.269 86.885)" fill="none" stroke="#ffcdab" stroke-linecap="round" stroke-linejoin="round" stroke-width="3.462"/>
      <line id="Line_26" data-name="Line 26" y1="7.269" transform="translate(91.731 83.25)" fill="none" stroke="#ffcdab" stroke-linecap="round" stroke-linejoin="round" stroke-width="3.462"/>
      <line id="Line_27" data-name="Line 27" x2="5.885" transform="translate(93.462 34.096)" fill="none" stroke="#ffcdab" stroke-linecap="round" stroke-linejoin="round" stroke-width="3.462"/>
      <line id="Line_28" data-name="Line 28" y1="5.885" transform="translate(96.404 31.154)" fill="none" stroke="#ffcdab" stroke-linecap="round" stroke-linejoin="round" stroke-width="3.462"/>
      <line id="Line_29" data-name="Line 29" x2="7.615" transform="translate(41.019 63.173)" fill="none" stroke="#ffcdab" stroke-linecap="round" stroke-linejoin="round" stroke-width="3.462"/>
      <line id="Line_30" data-name="Line 30" y1="7.442" transform="translate(44.827 59.365)" fill="none" stroke="#ffcdab" stroke-linecap="round" stroke-linejoin="round" stroke-width="3.462"/>
    </g>
  </g>
</svg>
