<svg xmlns="http://www.w3.org/2000/svg" xmlns:xlink="http://www.w3.org/1999/xlink" width="116" height="116" viewBox="0 0 116 116">
  <defs>
    <clipPath id="clip-path">
      <circle id="Ellipse_14" data-name="Ellipse 14" cx="58" cy="58" r="58" transform="translate(66 2109)" fill="#ff6d3b"/>
    </clipPath>
  </defs>
  <g id="Mask_Group_3" data-name="Mask Group 3" transform="translate(-66 -2109)" clip-path="url(#clip-path)">
    <g id="lightbulb_thought_camera_image_pictures" data-name="lightbulb, thought, camera, image, pictures" transform="translate(63.405 2106.875)">
      <path id="Path_177" data-name="Path 177" d="M63.7,48.476s-9.207,17.1,6.013,27.432S67.641,98.079,62.38,97.516,76.1,98.831,77.035,93.758s-.752-9.77,3.006-12.213c-.752-.752-.376-5.073-.376-5.073s8.831-1.127-7.328-6.388S63.7,48.476,63.7,48.476Z" fill="#ffa45c"/>
      <path id="Path_178" data-name="Path 178" d="M21.608,29.5s2.255-.564,2.255,6.388a6.635,6.635,0,0,0,6.013,6.952h.376s7.328,3.57,7.516,10.146S23.674,57.307,22.735,64.259s-3.57,16.347-5.449,9.77S15.407,24.99,21.608,29.5Z" fill="#ffa45c"/>
      <path id="Path_179" data-name="Path 179" d="M64.635,54.676s.752-5.825-.564-5.825S59.749,54.676,62,60.877s14.843,2.818,12.589,0-9.395,0-9.395,0Z" fill="#ffa45c"/>
      <path id="Path_180" data-name="Path 180" d="M37.015,63.883V54.489c0-2.63-.939-5.449,2.443-5.637l11.837-.188a2.383,2.383,0,0,1,1.127.188,1.7,1.7,0,0,1,.564,1.879l-1.127,1.691A24.683,24.683,0,0,0,46.033,69.9H41.9a2.085,2.085,0,0,1-2.067-2.067h0A2.73,2.73,0,0,0,37.2,65.01,3.306,3.306,0,0,1,37.015,63.883Z" fill="#ffcdab"/>
      <path id="Path_181" data-name="Path 181" d="M62.192,97.14c.188.939-1.127,1.5-2.255,1.5a171.816,171.816,0,0,1-21.983-.564V91.315h8.455a4.17,4.17,0,0,0,4.134-4.134v-2.63c.376.752.939,1.5,1.315,2.255,2.63,3.946,6.576,6.388,9.958,9.77a2.7,2.7,0,0,0,.376.564Z" fill="#ffcdab"/>
      <path id="Path_182" data-name="Path 182" d="M37.2,59.186V48.476h28L76.848,60.125H65.2V54.864" fill="none" stroke="#ff6d3b" stroke-linecap="round" stroke-linejoin="round" stroke-width="3.758"/>
      <path id="Path_183" data-name="Path 183" d="M46.221,91.315s1.691,5.637-9.207,5.449c.376-.564-3.194-4.7,3.758-5.261S46.221,91.315,46.221,91.315Z" fill="#ffa45c"/>
      <path id="Path_184" data-name="Path 184" d="M37.2,91.315v6.764h34.76" fill="none" stroke="#ff6d3b" stroke-linecap="round" stroke-linejoin="round" stroke-width="3.758"/>
      <line id="Line_31" data-name="Line 31" y2="4.509" transform="translate(76.096 64.071)" fill="none" stroke="#ff6d3b" stroke-linecap="round" stroke-linejoin="round" stroke-width="3.758"/>
      <path id="Path_185" data-name="Path 185" d="M33.069,75.157s-8.455-1.691-8.643,5.825-.939,11.649,7.516,10.334-2.63-9.395-2.63-9.395S31.19,74.405,33.069,75.157Z" fill="#ffa45c"/>
      <path id="Path_186" data-name="Path 186" d="M40.021,78.351a5.6,5.6,0,1,1-7.328-3.006,4.766,4.766,0,0,1,2.255-.376" fill="none" stroke="#ff6d3b" stroke-linecap="round" stroke-linejoin="round" stroke-width="3.758"/>
      <path id="Path_187" data-name="Path 187" d="M33.069,69.708H28.184a4.17,4.17,0,0,0-4.134,4.134V87.37a4.028,4.028,0,0,0,2.067,3.57h0A3.625,3.625,0,0,0,28,91.5H46.221a4.17,4.17,0,0,0,4.134-4.134h0V74.029A4.17,4.17,0,0,0,46.221,69.9H41.712a2.085,2.085,0,0,1-2.067-2.067,2.73,2.73,0,0,0-2.63-2.818H33.069A2.692,2.692,0,0,0,31,65.95" fill="none" stroke="#ff6d3b" stroke-linecap="round" stroke-linejoin="round" stroke-width="3.758"/>
      <line id="Line_32" data-name="Line 32" y1="2.443" transform="translate(45.282 67.265)" fill="none" stroke="#ff6d3b" stroke-linecap="round" stroke-linejoin="round" stroke-width="3.758"/>
      <line id="Line_33" data-name="Line 33" x2="3.194" transform="translate(42.651 74.405)" fill="none" stroke="#ff6d3b" stroke-linecap="round" stroke-linejoin="round" stroke-width="3.758"/>
      <path id="Path_188" data-name="Path 188" d="M34.948,79.666a3.483,3.483,0,0,0,.376-1.315c0-.376,0-.752-.376-.939a1.6,1.6,0,0,0-1.315,0,3.22,3.22,0,0,0-1.5,4.509A3.286,3.286,0,0,0,35.511,83.8c.376,0,.939-.376.939-.752s-.376-.752-.939-.939C33.82,81.733,34.572,80.793,34.948,79.666Z" fill="#ffcdab"/>
      <path id="Path_189" data-name="Path 189" d="M77.975,35.136h.188a4.19,4.19,0,0,1,4.509,3.758,3.912,3.912,0,0,1-.564,2.443,15.692,15.692,0,0,0-.188,15.971c2.067,3.57,4.509,8.455,9.019,9.019A8.494,8.494,0,0,0,96.2,65.01c.939-.564,2.818-2.63,4.134-1.127a1.826,1.826,0,0,1,.188,1.691c-1.127,5.449-3.758,6.2-9.207,7.516-9.77,2.63-22.735-2.443-26.493-12.213-3.006-8.079,1.5-18.6,7.516-23.486A13.7,13.7,0,0,1,77.975,35.136Z" fill="#ffcdab"/>
      <path id="Path_190" data-name="Path 190" d="M69.144,42.651a3.031,3.031,0,0,1,1.691-.564,2.427,2.427,0,0,1,1.691,2.255,14.172,14.172,0,0,1-1.691,5.449,10.892,10.892,0,0,0-1.5,6.764c.376,1.315,2.443,4.134.376,5.073a3.222,3.222,0,0,1-3.57-.939,7.83,7.83,0,0,1-1.5-3.382,17.62,17.62,0,0,1,1.127-9.77A15.02,15.02,0,0,1,68.2,43.4C68.58,43.215,68.768,42.839,69.144,42.651Z" fill="#ffa45c"/>
      <path id="Path_191" data-name="Path 191" d="M86.806,63.883a9.326,9.326,0,0,1,.188-5.073A26.886,26.886,0,0,1,90,54.3c2.818-3.946-9.395-3.382-10.9-3.006-.376,0-.752.188-1.127.188-2.818.752-1.5,3.006-.188,4.7a10.877,10.877,0,0,1,2.818,4.7,8.083,8.083,0,0,1-3.758,7.7c-3.194,2.255-6.764,1.315-9.395-1.5A17.836,17.836,0,0,1,62.944,54.3a20.386,20.386,0,1,1,20.48,20.292" fill="none" stroke="#ff6d3b" stroke-linecap="round" stroke-linejoin="round" stroke-width="3.758"/>
      <line id="Line_34" data-name="Line 34" y2="7.516" transform="translate(83.612 19.916)" fill="none" stroke="#ff6d3b" stroke-linecap="round" stroke-linejoin="round" stroke-width="3.758"/>
      <line id="Line_35" data-name="Line 35" x1="3.382" y2="6.576" transform="translate(97.328 24.238)" fill="none" stroke="#ff6d3b" stroke-linecap="round" stroke-linejoin="round" stroke-width="3.758"/>
      <line id="Line_36" data-name="Line 36" x2="3.57" y2="6.576" transform="translate(66.701 24.05)" fill="none" stroke="#ff6d3b" stroke-linecap="round" stroke-linejoin="round" stroke-width="3.758"/>
      <path id="Path_192" data-name="Path 192" d="M83.236,75.532c-.939,0,.188,4.509.188,4.885a25.182,25.182,0,0,1-.188,3.758c-.376,3.194,0,6.576-.564,9.77-.376,2.255-1.691,5.073-4.509,4.7-6.013-.564.564-17.662,1.5-17.286s0-5.825,0-5.825Z" fill="#ffcdab"/>
      <line id="Line_37" data-name="Line 37" x1="5.261" y2="12.589" transform="translate(71.587 86.806)" fill="none" stroke="#ff6d3b" stroke-linecap="round" stroke-linejoin="round" stroke-width="3.758"/>
      <path id="Path_193" data-name="Path 193" d="M83.8,82.86h1.879a4.17,4.17,0,0,1,4.134,4.134h0V97.516a2.767,2.767,0,0,1-2.818,2.818h-7.14a2.767,2.767,0,0,1-2.818-2.818h0V86.806" fill="none" stroke="#ff6d3b" stroke-linecap="round" stroke-linejoin="round" stroke-width="3.758"/>
      <path id="Path_194" data-name="Path 194" d="M83.424,74.593a4.134,4.134,0,0,0,0,8.267" fill="none" stroke="#ff6d3b" stroke-linecap="round" stroke-linejoin="round" stroke-width="3.758"/>
      <line id="Line_38" data-name="Line 38" x2="5.449" y2="14.28" transform="translate(89.436 85.115)" fill="none" stroke="#ff6d3b" stroke-linecap="round" stroke-linejoin="round" stroke-width="3.758"/>
      <path id="Path_195" data-name="Path 195" d="M60.5,41.524H30.438V59.186" fill="none" stroke="#ff6d3b" stroke-linecap="round" stroke-linejoin="round" stroke-width="3.758"/>
      <path id="Path_196" data-name="Path 196" d="M60.5,35.136H23.862V65.01" fill="none" stroke="#ff6d3b" stroke-linecap="round" stroke-linejoin="round" stroke-width="3.758"/>
      <path id="Path_197" data-name="Path 197" d="M51.106,28.747H17.474V74.781" fill="none" stroke="#ff6d3b" stroke-linecap="round" stroke-linejoin="round" stroke-width="3.758"/>
      <circle id="Ellipse_17" data-name="Ellipse 17" cx="1.879" cy="1.879" r="1.879" transform="translate(55.24 26.493)" fill="#ff6d3b"/>
    </g>
  </g>
</svg>
