<svg xmlns="http://www.w3.org/2000/svg" width="25.29" height="35.824" viewBox="0 0 25.29 35.824"><path d="M1231.774,993.6h-2.656a2.655,2.655,0,0,0-2.656,2.656v19.479a2.656,2.656,0,0,0,2.656,2.656h15.937a2.657,2.657,0,0,0,2.656-2.656h0V996.26a2.656,2.656,0,0,0-2.656-2.656H1242.4v4.427a.885.885,0,0,1-1.771,0V993.6h-7.084v4.427a.885.885,0,0,1-1.771,0Zm0-1.771v-1.769a5.313,5.313,0,0,1,10.624,0v1.769h2.656a4.427,4.427,0,0,1,4.428,4.425v19.48a4.427,4.427,0,0,1-4.427,4.427h-15.937a4.426,4.426,0,0,1-4.426-4.427V996.26a4.425,4.425,0,0,1,4.425-4.428h2.657Zm8.854,0v-1.769a3.542,3.542,0,0,0-7.083,0v1.769Z" transform="translate(-1224.442 -984.589)" fill="#ff6d3b" stroke="#ff6d3b" stroke-miterlimit="10" stroke-width="0.5"/></svg>