<svg xmlns="http://www.w3.org/2000/svg" width="71" height="51.21" viewBox="0 0 71 51.21">
  <g id="Group_333" data-name="Group 333" transform="translate(-344.831 -53.24)">
    <path id="Path_468" data-name="Path 468" d="M389.675,53.24c-14.665,0-26.153,5.811-26.153,13.226h-.075v11.07c-10.1-2.253-17.045-6.419-17.045-11.07a.785.785,0,0,0-1.571,0V90.043c0,8.079,15.593,14.408,35.5,14.408,19.418,0,34.725-6.022,35.466-13.817h.034V66.466C415.831,59.051,404.343,53.24,389.675,53.24Z" transform="translate(0 0)" fill="#f5b500"/>
    <g id="Group_330" data-name="Group 330" transform="translate(347.666 70.238)">
      <path id="Path_469" data-name="Path 469" d="M348.157,84.333c0,.58-.206.933-.458.786h0a1.743,1.743,0,0,1-.459-1.324V69.69c0-.58.206-.927.459-.779h0a1.732,1.732,0,0,1,.458,1.318Z" transform="translate(-347.24 -67.475)" fill="#333"/>
      <path id="Path_470" data-name="Path 470" d="M350.127,78.674c0,.581-.207.943-.464.807h0a1.654,1.654,0,0,1-.466-1.3V70.81c0-.58.208-.938.466-.8h0a1.652,1.652,0,0,1,.464,1.3Z" transform="translate(-346.894 -67.28)" fill="#666"/>
      <path id="Path_471" data-name="Path 471" d="M352.133,79.665c0,.58-.213.952-.474.826h0a1.579,1.579,0,0,1-.473-1.283V71.841c0-.58.213-.948.473-.823h0a1.564,1.564,0,0,1,.474,1.278Z" transform="translate(-346.543 -67.101)" fill="#666"/>
      <path id="Path_472" data-name="Path 472" d="M354.169,80.565c0,.581-.216.963-.481.848h0c-.265-.114-.48-.681-.48-1.263V72.785c0-.58.215-.959.48-.844h0c.265.114.481.677.481,1.257Z" transform="translate(-346.185 -66.937)" fill="#666"/>
      <path id="Path_473" data-name="Path 473" d="M356.231,88.116c0,.581-.219.971-.487.867h0c-.268-.1-.486-.659-.486-1.239,0-5.642,0-8.464,0-14.105,0-.58.218-.967.486-.864h0c.268.1.487.657.487,1.237Z" transform="translate(-345.823 -66.789)" fill="#333"/>
      <path id="Path_474" data-name="Path 474" d="M358.318,82.106c0,.581-.222.98-.494.89h0c-.272-.091-.491-.64-.491-1.221V74.407c0-.58.219-.975.491-.885h0c.272.092.494.635.494,1.217Z" transform="translate(-345.457 -66.656)" fill="#666"/>
      <path id="Path_475" data-name="Path 475" d="M360.425,82.743c0,.581-.225.99-.5.91h0c-.274-.08-.5-.615-.5-1.2,0-2.946,0-4.421,0-7.367,0-.58.219-.986.493-.906h0c.274.08.5.614.5,1.194Z" transform="translate(-345.086 -66.539)" fill="#666"/>
      <path id="Path_476" data-name="Path 476" d="M362.552,83.295c0,.58-.226,1-.5.928h0c-.277-.068-.5-.6-.5-1.178V75.677c0-.58.224-.993.5-.924h0c.275.068.5.593.5,1.173Z" transform="translate(-344.711 -66.438)" fill="#666"/>
      <path id="Path_477" data-name="Path 477" d="M364.695,90.494c0,.58-.227,1-.506.948h0c-.279-.056-.5-.575-.5-1.156v-14.1c0-.581.226-1.007.5-.95h0c.279.056.506.575.506,1.156C364.694,82.031,364.694,84.853,364.695,90.494Z" transform="translate(-344.334 -66.352)" fill="#333"/>
      <path id="Path_478" data-name="Path 478" d="M366.848,84.132c0,.58-.226,1.015-.506.971h0c-.281-.046-.507-.555-.507-1.137,0-2.946,0-4.42,0-7.367,0-.58.226-1.013.507-.968h0c.28.046.506.553.506,1.133Z" transform="translate(-343.954 -66.282)" fill="#666"/>
      <path id="Path_479" data-name="Path 479" d="M369.014,84.419c0,.581-.227,1.026-.508.991h0c-.282-.034-.511-.535-.511-1.117V76.925c0-.58.228-1.021.511-.986h0c.281.034.508.532.508,1.111Z" transform="translate(-343.573 -66.227)" fill="#666"/>
      <path id="Path_480" data-name="Path 480" d="M371.189,84.616c0,.581-.229,1.035-.512,1.013h0c-.282-.024-.512-.514-.512-1.1V77.167c0-.581.229-1.032.512-1.01h0c.282.024.512.511.512,1.091Z" transform="translate(-343.189 -66.188)" fill="#666"/>
      <path id="Path_481" data-name="Path 481" d="M373.367,91.465c0,.58-.228,1.046-.513,1.034h0c-.282-.012-.513-.5-.513-1.078v-14.1c0-.58.231-1.041.513-1.028h0c.285.011.513.491.513,1.071C373.366,83,373.366,85.823,373.367,91.465Z" transform="translate(-342.805 -66.165)" fill="#333"/>
      <path id="Path_482" data-name="Path 482" d="M375.548,84.751c0,.58-.232,1.056-.514,1.056h0c-.284,0-.513-.475-.513-1.056V77.384c0-.58.229-1.052.513-1.052h0c.282,0,.514.472.514,1.052Z" transform="translate(-342.419 -66.157)" fill="#666"/>
      <path id="Path_483" data-name="Path 483" d="M377.726,84.685c0,.58-.228,1.066-.511,1.078h0c-.284.012-.515-.453-.515-1.034,0-2.946,0-4.421,0-7.367,0-.58.232-1.06.515-1.071h0c.282-.013.511.447.511,1.027Z" transform="translate(-342.034 -66.165)" fill="#666"/>
      <path id="Path_484" data-name="Path 484" d="M379.9,84.533c0,.582-.229,1.073-.512,1.1h0c-.282.022-.512-.433-.512-1.014,0-2.946,0-4.42,0-7.367,0-.58.229-1.07.512-1.092h0c.282-.024.512.428.512,1.01C379.9,80.113,379.9,81.586,379.9,84.533Z" transform="translate(-341.649 -66.188)" fill="#666"/>
      <path id="Path_485" data-name="Path 485" d="M382.075,91.03c0,.58-.231,1.083-.513,1.117h0c-.281.035-.511-.414-.511-.994v-14.1c0-.58.229-1.077.511-1.111h0c.282-.035.513.407.513.987C382.074,82.568,382.074,85.388,382.075,91.03Z" transform="translate(-341.265 -66.227)" fill="#333"/>
      <path id="Path_486" data-name="Path 486" d="M384.231,83.964c0,.581-.226,1.094-.507,1.139h0c-.28.045-.506-.392-.506-.974,0-2.945,0-4.419,0-7.366,0-.58.226-1.087.506-1.133h0c.281-.045.507.387.507.967C384.23,79.543,384.23,81.018,384.231,83.964Z" transform="translate(-340.883 -66.282)" fill="#666"/>
      <path id="Path_487" data-name="Path 487" d="M386.381,83.548c0,.581-.226,1.1-.5,1.159h0c-.279.055-.5-.371-.5-.951V76.388c0-.58.226-1.1.5-1.152h0c.279-.058.5.365.5.945C386.379,79.128,386.379,80.6,386.381,83.548Z" transform="translate(-340.502 -66.352)" fill="#666"/>
      <path id="Path_488" data-name="Path 488" d="M388.516,83.044c0,.581-.225,1.111-.5,1.18h0c-.277.067-.5-.351-.5-.931V75.926c0-.58.225-1.1.5-1.173h0c.277-.068.5.344.5.924Z" transform="translate(-340.124 -66.438)" fill="#666"/>
      <path id="Path_489" data-name="Path 489" d="M390.633,89.189c0,.58-.224,1.12-.5,1.2h0c-.274.08-.5-.331-.5-.91,0-5.641,0-8.462,0-14.1,0-.58.224-1.116.5-1.2h0c.274-.08.5.325.5.9C390.631,80.728,390.631,83.548,390.633,89.189Z" transform="translate(-339.748 -66.539)" fill="#333"/>
      <path id="Path_490" data-name="Path 490" d="M392.728,81.774c0,.581-.219,1.128-.492,1.22h0c-.271.091-.492-.309-.492-.891V74.737c0-.58.221-1.123.492-1.216h0c.273-.091.492.3.492.885Z" transform="translate(-339.376 -66.656)" fill="#666"/>
      <path id="Path_491" data-name="Path 491" d="M394.8,81.008c0,.58-.218,1.138-.488,1.24h0c-.267.1-.486-.287-.486-.868V74.013c0-.58.219-1.134.486-1.238h0c.271-.1.488.285.488.865Z" transform="translate(-339.008 -66.789)" fill="#666"/>
      <path id="Path_492" data-name="Path 492" d="M396.849,80.151c0,.581-.215,1.148-.48,1.264h0c-.265.113-.481-.268-.481-.85V73.2c0-.58.216-1.141.481-1.254h0c.265-.115.48.262.48.843Z" transform="translate(-338.644 -66.937)" fill="#666"/>
      <path id="Path_493" data-name="Path 493" d="M398.869,85.945a1.573,1.573,0,0,1-.474,1.283h0c-.261.125-.473-.248-.473-.828V72.3a1.562,1.562,0,0,1,.473-1.277h0c.262-.126.474.242.474.823Z" transform="translate(-338.284 -67.101)" fill="#333"/>
      <path id="Path_494" data-name="Path 494" d="M400.857,78.177a1.657,1.657,0,0,1-.466,1.3h0c-.258.136-.466-.225-.466-.806V71.305a1.645,1.645,0,0,1,.466-1.3h0c.257-.135.466.222.466.8Z" transform="translate(-337.93 -67.28)" fill="#666"/>
      <path id="Path_495" data-name="Path 495" d="M402.809,77.059a1.748,1.748,0,0,1-.457,1.324h0c-.254.147-.459-.2-.459-.786V70.229a1.724,1.724,0,0,1,.459-1.318h0c.252-.148.457.2.457.779Z" transform="translate(-337.582 -67.475)" fill="#666"/>
      <path id="Path_496" data-name="Path 496" d="M404.727,75.852a1.834,1.834,0,0,1-.448,1.344h0c-.247.159-.449-.182-.449-.764V69.064a1.826,1.826,0,0,1,.449-1.339h0c.248-.16.448.179.448.759Z" transform="translate(-337.24 -67.685)" fill="#666"/>
    </g>
    <path id="Path_497" data-name="Path 497" d="M389.675,53.24c-14.665,0-26.153,5.811-26.153,13.226,0,5.033,9.418,8.975,21.442,8.975,11.736,0,20.987-3.755,21.424-8.615a.777.777,0,0,0,.1-.36c0-4.993-7.39-8.9-16.822-8.9-11.321,0-16.822,2.14-16.822,6.546,0,3.017,7.787,4.39,15.024,4.39a.785.785,0,0,0,0-1.571c-8.705,0-13.453-1.862-13.453-2.819,0-3.3,5.132-4.975,15.251-4.975,8.093,0,14.939,3.221,15.223,7.086a.822.822,0,0,0-.049.246c0,3.576-7.985,7.4-19.873,7.4s-19.871-3.827-19.871-7.4c0-6.425,11.029-11.654,24.583-11.654s24.585,5.229,24.585,11.654c0,6.959-15.538,12.837-33.929,12.837S346.4,73.425,346.4,66.466a.785.785,0,0,0-1.571,0c0,8.08,15.593,14.408,35.5,14.408s35.5-6.327,35.5-14.408C415.831,59.051,404.343,53.24,389.675,53.24Z" transform="translate(0 0)" fill="#fff"/>
    <g id="Group_331" data-name="Group 331" transform="translate(363.634 68.168)">
      <path id="Path_498" data-name="Path 498" d="M380.394,72.086c-.335.011-.673.016-1.013.02v3.71c.34-.02.677-.046,1.013-.069Z" transform="translate(-357.528 -64.838)" fill="#666"/>
      <path id="Path_499" data-name="Path 499" d="M373.949,71.829q-.507-.06-1-.131V76c.332.008.666.018,1,.024Z" transform="translate(-358.665 -64.906)" fill="#333"/>
      <path id="Path_500" data-name="Path 500" d="M378.243,72.1c-.341-.006-.678-.016-1.014-.029V75.93c.34-.011.679-.02,1.014-.035Z" transform="translate(-357.909 -64.84)" fill="#666"/>
      <path id="Path_501" data-name="Path 501" d="M382.541,71.975q-.5.039-1.01.068v3.6c.338-.031.674-.062,1.01-.1Z" transform="translate(-357.148 -64.857)" fill="#333"/>
      <path id="Path_502" data-name="Path 502" d="M376.09,72.019c-.339-.022-.675-.047-1.008-.078V76c.338,0,.673-.006,1.008-.011Z" transform="translate(-358.288 -64.863)" fill="#666"/>
      <path id="Path_503" data-name="Path 503" d="M388.874,70.946c-.32.085-.647.164-.98.241v3.577c.329-.064.658-.127.98-.2Z" transform="translate(-356.024 -65.039)" fill="#666"/>
      <path id="Path_504" data-name="Path 504" d="M390.924,70.319c-.312.109-.633.215-.96.32v3.715q.485-.115.96-.235Z" transform="translate(-355.658 -65.15)" fill="#333"/>
      <path id="Path_505" data-name="Path 505" d="M384.673,71.754c-.329.044-.664.082-1,.12v3.537c.335-.042.67-.087,1-.132Z" transform="translate(-356.77 -64.896)" fill="#666"/>
      <path id="Path_506" data-name="Path 506" d="M386.788,71.417c-.326.062-.658.121-.993.177v3.524c.333-.053.662-.108.993-.166Z" transform="translate(-356.395 -64.956)" fill="#666"/>
      <path id="Path_507" data-name="Path 507" d="M366.692,70.174v5.568c.32.038.64.072.963.106V70.512C367.325,70.4,367.005,70.29,366.692,70.174Z" transform="translate(-359.771 -65.175)" fill="#666"/>
      <path id="Path_508" data-name="Path 508" d="M371.825,71.526c-.335-.06-.667-.124-.993-.189v4.626c.329.019.661.034.993.048Z" transform="translate(-359.039 -64.97)" fill="#666"/>
      <path id="Path_509" data-name="Path 509" d="M392.932,69.486c-.3.146-.617.287-.94.425v3.975c.319-.089.63-.184.94-.278Z" transform="translate(-355.3 -65.297)" fill="#666"/>
      <path id="Path_510" data-name="Path 510" d="M369.723,71.093c-.331-.081-.657-.165-.978-.254v5.032q.487.042.978.08Z" transform="translate(-359.408 -65.058)" fill="#666"/>
      <path id="Path_511" data-name="Path 511" d="M363.633,68.684c-.328-.22-.633-.444-.915-.677v7.076a2.6,2.6,0,0,0,.027.346c.293.053.592.1.888.154h0Z" transform="translate(-360.473 -65.558)" fill="#666"/>
      <path id="Path_512" data-name="Path 512" d="M365.62,69.74q-.489-.222-.94-.46v6.3c.311.048.625.094.94.136Z" transform="translate(-360.126 -65.333)" fill="#333"/>
      <path id="Path_513" data-name="Path 513" d="M361.7,74.648V67.28a2.5,2.5,0,0,0-.026-.325,5.453,5.453,0,0,1-.6-1.03c-.153.065-.261.36-.261.788v7.366a1.837,1.837,0,0,0,.441,1.34.275.275,0,0,0,.067.027l.036.008C361.551,75.47,361.7,75.145,361.7,74.648Z" transform="translate(-360.81 -65.926)" fill="#666"/>
      <path id="Path_514" data-name="Path 514" d="M394.893,68.322c-.285.208-.593.409-.915.607V73.37c.311-.1.614-.211.915-.319Z" transform="translate(-354.949 -65.503)" fill="#666"/>
      <path id="Path_515" data-name="Path 515" d="M396.795,66.644a2.159,2.159,0,0,0-.024-.319,6.453,6.453,0,0,1-.866,1.159v5.4c.3-.12.6-.245.89-.371Z" transform="translate(-354.609 -65.856)" fill="#666"/>
    </g>
    <g id="Group_332" data-name="Group 332" transform="translate(373.593 65.7)">
      <path id="Path_516" data-name="Path 516" d="M370.217,64.74a2.42,2.42,0,0,0-.029-.338,5.058,5.058,0,0,1-.821-.573,1.715,1.715,0,0,0-.092.584v6.222c.307.082.622.162.943.238Z" transform="translate(-369.274 -63.829)" fill="#333"/>
      <path id="Path_517" data-name="Path 517" d="M372.232,65.179c-.329-.1-.642-.2-.94-.307,0,.045-.006.088-.006.135V71c.313.061.631.119.955.174V65.28C372.241,65.245,372.233,65.213,372.232,65.179Z" transform="translate(-368.918 -63.645)" fill="#666"/>
      <path id="Path_518" data-name="Path 518" d="M374.289,65.766c0-.044-.009-.082-.012-.126q-.487-.09-.95-.192c0,.033,0,.065,0,.1v5.74c.318.042.639.082.966.119Z" transform="translate(-368.559 -63.543)" fill="#666"/>
      <path id="Path_519" data-name="Path 519" d="M376.357,71.552v-5.4a1.806,1.806,0,0,0-.021-.213q-.478-.056-.946-.122c0,.056-.008.114-.008.173v5.494C375.7,71.508,376.029,71.532,376.357,71.552Z" transform="translate(-368.195 -63.478)" fill="#666"/>
      <path id="Path_520" data-name="Path 520" d="M377.456,66.315c0,2.156,0,3.528,0,5.261.324.009.652.018.981.022V66.424a2.342,2.342,0,0,0-.027-.308c-.312-.021-.62-.042-.927-.068A2.117,2.117,0,0,0,377.456,66.315Z" transform="translate(-367.828 -63.437)" fill="#333"/>
    </g>
    <path id="Path_521" data-name="Path 521" d="M391.744,55.5v3.518c3.944,1.614,6.452,4.146,6.452,7.047a.721.721,0,0,1-.076.307v7.8c4.881-2.229,7.851-5.063,7.851-8.106C405.97,61.394,400.136,57.358,391.744,55.5Z" transform="translate(8.29 0.4)" fill="#ffd766"/>
    <path id="Path_522" data-name="Path 522" d="M385.8,58.416V72.3c7.283-1.24,11.8-4.06,11.8-6.747a.822.822,0,0,1,.049-.246C397.406,61.993,392.334,59.159,385.8,58.416Z" transform="translate(7.239 0.915)" fill="#ffd766"/>
  </g>
</svg>
