<svg xmlns="http://www.w3.org/2000/svg" width="56.801" height="76.647" viewBox="0 0 56.801 76.647">
  <g id="Group_329" data-name="Group 329" transform="translate(-254.641 -259.079)">
    <g id="Group_328" data-name="Group 328" transform="translate(254.641 259.079)">
      <rect id="Rectangle_1639" data-name="Rectangle 1639" width="3.565" height="9.124" transform="translate(18.3)" fill="#fd4b2d"/>
      <rect id="Rectangle_1640" data-name="Rectangle 1640" width="16.636" height="6.532" transform="translate(20.083 19.551)" fill="#063e8b"/>
      <rect id="Rectangle_1641" data-name="Rectangle 1641" width="8.318" height="6.532" transform="translate(28.401 19.551)" fill="#032e68"/>
      <g id="Group_326" data-name="Group 326" transform="translate(0 7.936)">
        <path id="Path_463" data-name="Path 463" d="M286.581,280.69h-9.507a7.129,7.129,0,0,1-7.129-7.13v-7.129h0a13.321,13.321,0,0,1,11.084,5.932l.8,1.2.8-1.2a13.319,13.319,0,0,1,11.084-5.932h0v7.129A7.129,7.129,0,0,1,286.581,280.69Z" transform="translate(-253.427 -266.431)" fill="#ff6849"/>
        <path id="Path_464" data-name="Path 464" d="M291.359,282.945H274.723l-20.082,30.777v.119h0a98.454,98.454,0,0,0,56.8,0h0v-.119Z" transform="translate(-254.641 -265.121)" fill="#ff6849"/>
      </g>
      <rect id="Rectangle_1642" data-name="Rectangle 1642" width="3.565" height="9.124" transform="translate(34.937)" fill="#e8130f"/>
      <g id="Group_327" data-name="Group 327" transform="translate(28.401 7.936)">
        <path id="Path_465" data-name="Path 465" d="M280.954,280.69h4.754a7.129,7.129,0,0,0,7.129-7.13v-7.129h0a13.319,13.319,0,0,0-11.084,5.932l-.8,1.2Z" transform="translate(-280.954 -266.431)" fill="#fd4b2d"/>
        <path id="Path_466" data-name="Path 466" d="M289.272,282.945h-8.318v35.081a98.443,98.443,0,0,0,28.4-4.186h0v-.119Z" transform="translate(-280.954 -265.121)" fill="#fd4b2d"/>
      </g>
    </g>
    <path id="Path_467" data-name="Path 467" d="M13.235,1.978A1.978,1.978,0,0,0,11.258,0h-.141A2.511,2.511,0,0,0,8.606,2.509L8.5,5.893l-.234,7.459c-.053.229-.086,5.414-.086,5.414-.437-.446-.924-.956-1.364-1.447a7.356,7.356,0,0,0-4.153-2.053,2.064,2.064,0,0,0-1.495.266,3.186,3.186,0,0,0-.313.271,2.133,2.133,0,0,0-.681,2.414,2.618,2.618,0,0,0,.884.776,6.192,6.192,0,0,1,1.861,1.4c1,1.278,3.314,4.134,4.735,5.66.294.184.92.808,1.216.966a11.064,11.064,0,0,1,1.885,1.4,9.117,9.117,0,0,0,1.373.829A9.234,9.234,0,0,0,16.8,30.413c1.994,0,3.8.12,5.139-1.057h.075l.032-.09a6.6,6.6,0,0,0,2.207-4.883V15.254a2.463,2.463,0,0,0-1.359-2.4,2.23,2.23,0,0,0-1.666.077l-.116.005-.035,0a1.915,1.915,0,0,0-1.576-1.5,2.645,2.645,0,0,0-2.064.418,2.174,2.174,0,0,0-2.32-1.233,2.7,2.7,0,0,0-1.885,1.01V1.978Z" transform="matrix(0.966, 0.259, -0.259, 0.966, 268.727, 299.457)" fill="#fff4e3" stroke="#ff6d3b" stroke-width="1"/>
  </g>
</svg>
