<svg xmlns="http://www.w3.org/2000/svg" width="60" height="57.138" viewBox="0 0 60 57.138">
  <g id="Group_338" data-name="Group 338" transform="translate(-142.755 -31.919)">
    <g id="Group_336" data-name="Group 336">
      <g id="Group_334" data-name="Group 334">
        <rect id="Rectangle_1643" data-name="Rectangle 1643" width="60" height="4.209" transform="translate(142.755 31.919)" fill="#f9b233"/>
        <rect id="Rectangle_1644" data-name="Rectangle 1644" width="60" height="4.209" transform="translate(142.755 39.155)" fill="#f9b233"/>
        <rect id="Rectangle_1645" data-name="Rectangle 1645" width="60" height="4.209" transform="translate(142.755 46.392)" fill="#f9b233"/>
        <rect id="Rectangle_1646" data-name="Rectangle 1646" width="60" height="4.209" transform="translate(142.755 53.628)" fill="#f9b233"/>
        <rect id="Rectangle_1647" data-name="Rectangle 1647" width="60" height="4.209" transform="translate(142.755 60.864)" fill="#f9b233"/>
        <rect id="Rectangle_1648" data-name="Rectangle 1648" width="60" height="4.209" transform="translate(142.755 68.101)" fill="#f9b233"/>
        <rect id="Rectangle_1649" data-name="Rectangle 1649" width="60" height="4.209" transform="translate(142.755 75.337)" fill="#f9b233"/>
      </g>
      <g id="Group_335" data-name="Group 335" opacity="0.5">
        <rect id="Rectangle_1650" data-name="Rectangle 1650" width="4.067" height="47.677" transform="translate(142.755 31.919)" fill="#f9b233"/>
        <rect id="Rectangle_1651" data-name="Rectangle 1651" width="4.067" height="47.677" transform="translate(149.747 31.919)" fill="#f9b233"/>
        <rect id="Rectangle_1652" data-name="Rectangle 1652" width="4.067" height="47.677" transform="translate(156.738 31.919)" fill="#f9b233"/>
        <rect id="Rectangle_1653" data-name="Rectangle 1653" width="4.067" height="47.677" transform="translate(163.73 31.919)" fill="#f9b233"/>
        <rect id="Rectangle_1654" data-name="Rectangle 1654" width="4.067" height="47.677" transform="translate(170.722 31.919)" fill="#f9b233"/>
        <rect id="Rectangle_1655" data-name="Rectangle 1655" width="4.067" height="47.677" transform="translate(177.713 31.919)" fill="#f9b233"/>
        <rect id="Rectangle_1656" data-name="Rectangle 1656" width="4.067" height="47.677" transform="translate(184.705 31.919)" fill="#f9b233"/>
        <rect id="Rectangle_1657" data-name="Rectangle 1657" width="4.066" height="47.677" transform="translate(191.697 31.919)" fill="#f9b233"/>
        <rect id="Rectangle_1658" data-name="Rectangle 1658" width="4.066" height="47.677" transform="translate(198.688 31.919)" fill="#f9b233"/>
      </g>
    </g>
    <g id="Group_337" data-name="Group 337">
      <rect id="Rectangle_1659" data-name="Rectangle 1659" width="2.034" height="9.511" transform="translate(142.755 79.546)" fill="#f9b233"/>
      <rect id="Rectangle_1660" data-name="Rectangle 1660" width="2.034" height="9.511" transform="translate(147.214 79.546)" fill="#f9b233"/>
      <rect id="Rectangle_1661" data-name="Rectangle 1661" width="2.034" height="9.511" transform="translate(151.673 79.546)" fill="#f9b233"/>
      <rect id="Rectangle_1662" data-name="Rectangle 1662" width="2.034" height="9.511" transform="translate(156.132 79.546)" fill="#f9b233"/>
      <rect id="Rectangle_1663" data-name="Rectangle 1663" width="2.034" height="9.511" transform="translate(160.591 79.546)" fill="#f9b233"/>
      <rect id="Rectangle_1664" data-name="Rectangle 1664" width="2.034" height="9.511" transform="translate(165.05 79.546)" fill="#f9b233"/>
      <rect id="Rectangle_1665" data-name="Rectangle 1665" width="2.034" height="9.511" transform="translate(169.509 79.546)" fill="#f9b233"/>
      <rect id="Rectangle_1666" data-name="Rectangle 1666" width="2.034" height="9.511" transform="translate(173.968 79.546)" fill="#f9b233"/>
      <rect id="Rectangle_1667" data-name="Rectangle 1667" width="2.033" height="9.511" transform="translate(178.427 79.546)" fill="#f9b233"/>
      <rect id="Rectangle_1668" data-name="Rectangle 1668" width="2.033" height="9.511" transform="translate(182.886 79.546)" fill="#f9b233"/>
      <rect id="Rectangle_1669" data-name="Rectangle 1669" width="2.034" height="9.511" transform="translate(187.345 79.546)" fill="#f9b233"/>
      <rect id="Rectangle_1670" data-name="Rectangle 1670" width="2.034" height="9.511" transform="translate(191.804 79.546)" fill="#f9b233"/>
      <rect id="Rectangle_1671" data-name="Rectangle 1671" width="2.033" height="9.511" transform="translate(196.263 79.546)" fill="#f9b233"/>
      <rect id="Rectangle_1672" data-name="Rectangle 1672" width="2.033" height="9.511" transform="translate(200.722 79.546)" fill="#f9b233"/>
    </g>
  </g>
</svg>
