<svg xmlns="http://www.w3.org/2000/svg" xmlns:xlink="http://www.w3.org/1999/xlink" width="74" height="78" viewBox="0 0 74 78">
  <defs>
    <clipPath id="clip-path">
      <rect id="Rectangle_1638" data-name="Rectangle 1638" width="74" height="78" transform="translate(282 775)" fill="#fff"/>
    </clipPath>
  </defs>
  <g id="Mask_Group_8" data-name="Mask Group 8" transform="translate(-282 -775)" clip-path="url(#clip-path)">
    <g id="Group_325" data-name="Group 325" transform="translate(-64.739 550.158)">
      <rect id="Rectangle_1623" data-name="Rectangle 1623" width="2.169" height="15.951" transform="translate(392.241 224.842)" fill="#706f6f"/>
      <path id="Path_443" data-name="Path 443" d="M414.7,280.358v17.4H389.418V267.047c0-4.5-3.061-8.146-6.84-8.146h-7.449a5.611,5.611,0,0,0-3.964,1.709A7.712,7.712,0,0,0,369.033,265l-.014.089a2.441,2.441,0,0,1-2.255,2.254H355.719a2.537,2.537,0,0,1-2.3-2.726V252.6c0-6.029,4.107-10.911,9.172-10.911h46.7a3.473,3.473,0,0,1,3.138,3.727v13.246l.02.464Z" transform="translate(0 -5.159)" fill="#ededed"/>
      <path id="Path_444" data-name="Path 444" d="M414.705,297.762H353.426V284.556c0-2.317,1.577-4.2,3.523-4.2h57.756Z" transform="translate(0 -9.804)" fill="#dadada"/>
      <path id="Path_445" data-name="Path 445" d="M414.5,253.634a4.589,4.589,0,1,1-4.588-4.589A4.589,4.589,0,0,1,414.5,253.634Z" transform="translate(-9.438 -3.847)" fill="#237499"/>
      <path id="Path_446" data-name="Path 446" d="M416.938,270.414a7.029,7.029,0,1,1-7.029-7.029A7.029,7.029,0,0,1,416.938,270.414Z" transform="translate(-10.94 -6.513)" fill="#dadada"/>
      <path id="Path_447" data-name="Path 447" d="M414.611,270.414a4.7,4.7,0,1,1-4.7-4.7A4.7,4.7,0,0,1,414.611,270.414Z" transform="translate(-9.449 -6.514)" fill="#f6f6f6"/>
      <path id="Path_448" data-name="Path 448" d="M374.852,255.253a.745.745,0,0,1-.746.746h0a.746.746,0,0,1-.746-.746v-9.7a.746.746,0,0,1,.746-.746h0a.745.745,0,0,1,.746.746Z" transform="translate(-3.878 -3.254)" fill="#706f6f"/>
      <path id="Path_449" data-name="Path 449" d="M425.291,271.7c-7.734,12.858-23.439,21.663-41.568,21.663a54.865,54.865,0,0,1-8.043-.6s-.611,5.071,3.815,5h16.784v0h30.107V280.356Z" transform="translate(-11.681 -9.37)" fill="#1d1d1b" opacity="0.1"/>
      <rect id="Rectangle_1624" data-name="Rectangle 1624" width="5.425" height="2.653" rx="1.176" transform="translate(367.56 243.218)" fill="#b2b2b2"/>
      <path id="Path_450" data-name="Path 450" d="M374.546,260.61A7.317,7.317,0,0,0,372.008,265l-.017.089a2.723,2.723,0,0,1-2.685,2.254H356.157a2.728,2.728,0,0,1-2.734-2.726v-4Z" transform="translate(0 -5.521)" fill="#dadada"/>
      <path id="Path_451" data-name="Path 451" d="M364,249.3v18.039h-.887V249.3c0-.431.2-.781.447-.781S364,248.869,364,249.3Z" transform="translate(-2.367 -4.263)" fill="#706f6f"/>
      <rect id="Rectangle_1625" data-name="Rectangle 1625" width="6.42" height="1.539" transform="translate(389.927 239.72)" fill="#dadada"/>
      <path id="Rectangle_1626" data-name="Rectangle 1626" d="M.675,0H10a.675.675,0,0,1,.675.675v.36A.675.675,0,0,1,10,1.71H.676A.676.676,0,0,1,0,1.034V.675A.675.675,0,0,1,.675,0Z" transform="translate(387.705 238.443)" fill="#ffe2b8"/>
      <path id="Rectangle_1627" data-name="Rectangle 1627" d="M.675,0H10a.675.675,0,0,1,.675.675v.36A.675.675,0,0,1,10,1.71H.676A.676.676,0,0,1,0,1.034V.675A.675.675,0,0,1,.675,0Z" transform="translate(387.705 227.526)" fill="#ffe2b8"/>
      <rect id="Rectangle_1628" data-name="Rectangle 1628" width="8.261" height="9.207" transform="translate(389.054 229.236)" fill="#237499"/>
      <path id="Path_452" data-name="Path 452" d="M346.739,281.315c3.647.223,7.339.638,9.954,3.439,2.971,3.182,2.107,10.6,2.462,14.606.742,8.363,5.065,18.227,15.029,16.842,4.111-.571,8.208-1.619,12.265-2.473,1.983-.416,3.966-.835,5.943-1.281-.661.149,2.363-.476.987-.285-10.4,1.446-13.735-10.5-14.438-18.422-.378-4.251.1-9.416-2.331-13.121-1.967-3-6.789-3.245-9.954-3.439-3.071-.189-7.006,1.35-9.979,1.967-2.347.488-4.694.98-7.036,1.491a15.175,15.175,0,0,1-2.9.676Z" transform="translate(0 -13.084)" fill="#e94e1b"/>
      <path id="Path_453" data-name="Path 453" d="M368.416,279.113l-6.2-1.658-.278-10.105,1.592-9.483,3.972-18.412.246-.046,32.267-5.937.135.738L368.124,240.1l-3.862,17.907-1.583,9.394.268,9.474,5.663,1.514Z" transform="translate(-4.083)" fill="#237499"/>
      <rect id="Rectangle_1629" data-name="Rectangle 1629" width="2.983" height="3.42" transform="translate(364.443 238.049)" fill="#dadada"/>
      <rect id="Rectangle_1630" data-name="Rectangle 1630" width="4.61" height="1.962" transform="translate(363.688 238.755)" fill="#706f6f"/>
      <rect id="Rectangle_1631" data-name="Rectangle 1631" width="3.458" height="5.091" transform="translate(359.551 260.903)" fill="#b2b2b2"/>
      <rect id="Rectangle_1632" data-name="Rectangle 1632" width="1.422" height="5.492" transform="translate(360.274 251.259)" fill="#b2b2b2"/>
      <path id="Path_454" data-name="Path 454" d="M363.9,278.751l-.339,2.913-.339-2.913V272.43h.678Z" transform="translate(-2.376 -7.569)" fill="#dadada"/>
      <path id="Path_455" data-name="Path 455" d="M410.561,264.53a.555.555,0,1,1-.554-.555A.554.554,0,0,1,410.561,264.53Z" transform="translate(-9.092 -5.665)" fill="#237499"/>
      <path id="Path_456" data-name="Path 456" d="M406.431,266.268a.555.555,0,1,1-.556-.556A.555.555,0,0,1,406.431,266.268Z" transform="translate(-8.493 -5.917)" fill="#237499"/>
      <path id="Path_457" data-name="Path 457" d="M414.5,266.268a.555.555,0,1,1-.555-.556A.555.555,0,0,1,414.5,266.268Z" transform="translate(-11.288 -5.917)" fill="#e94e1b"/>
      <path id="Path_458" data-name="Path 458" d="M404.616,270.414a.555.555,0,1,1-.556-.555A.556.556,0,0,1,404.616,270.414Z" transform="translate(-8.23 -6.517)" fill="#237499"/>
      <path id="Path_459" data-name="Path 459" d="M416.262,270.414a.555.555,0,1,1-.556-.555A.556.556,0,0,1,416.262,270.414Z" transform="translate(-11.681 -6.517)" fill="#e94e1b"/>
      <path id="Path_460" data-name="Path 460" d="M410.333,268.963a.326.326,0,0,1-.326.326h0a.326.326,0,0,1-.327-.326v-2.127a.326.326,0,0,1,.327-.326h0a.326.326,0,0,1,.326.326Z" transform="translate(-9.074 -6.146)" fill="#f9b233"/>
      <path id="Path_461" data-name="Path 461" d="M412.412,253.634a2.5,2.5,0,1,1-2.5-2.5A2.5,2.5,0,0,1,412.412,253.634Z" transform="translate(-9.242 -3.977)" fill="#ffe2b8"/>
      <rect id="Rectangle_1633" data-name="Rectangle 1633" width="2.085" height="7.849" transform="translate(400.248 233.84)" fill="#706f6f"/>
      <rect id="Rectangle_1634" data-name="Rectangle 1634" width="8.223" height="2.132" transform="translate(378.284 248.508)" fill="#e94e1b"/>
      <path id="Path_462" data-name="Path 462" d="M426.674,258.745h-3V246.392h3a1.746,1.746,0,0,1,1.746,1.746V257A1.745,1.745,0,0,1,426.674,258.745Z" transform="translate(-11.681 -3.563)" fill="#dadada"/>
    </g>
  </g>
</svg>
