<svg xmlns="http://www.w3.org/2000/svg" viewBox="0 0 288.58 260.74"><title>Asset 1</title><g id="Layer_2" data-name="Layer 2"><g id="Layer_1-2" data-name="Layer 1"><polygon points="255.57 31.61 255.57 77.99 288.58 47.96 255.57 31.61"/><path d="M231.35,2.8c-17.77-6.63-37.06-1.25-49.14,13.72L13.79,225l144.52,0h0c.73,0,1.46,0,2.2,0v29L198,260.74c1.83-8.7-4.43-17-12.85-17H170.39V224.31a100.27,100.27,0,0,0,60.24-30.17,106.49,106.49,0,0,0,30-74.59V45.79c0-19.48-11.48-36.35-29.24-43Zm19.36,116.74a96.19,96.19,0,0,1-27.06,67.39,90.39,90.39,0,0,1-65.33,27.92h0l-123.45,0L189.79,23.05C201.19,8.92,217,8.28,228,12.38s22.72,15,22.72,33.4v73.77Z"/><path d="M250.71,68.85,135.47,74.6,0,238.76H10.08a231.54,231.54,0,0,0,179.08-84.45l61.55-71.93,0-7.58Z"/><path d="M231.24,40.5A7.06,7.06,0,1,1,224.19,33a7.27,7.27,0,0,1,7.05,7.47"/></g></g></svg>