<svg xmlns="http://www.w3.org/2000/svg" width="26" height="26" viewBox="0 0 26 26">
    <g id="prefix__Layer_2" data-name="Layer 2" transform="translate(0 -.49)">
        <g id="prefix__arrow-forward">
            <path id="prefix__Rectangle_1712" d="M0 0H26V26H0z" data-name="Rectangle 1712" transform="matrix(0 -1 1 0 0 26.49)" style="opacity:0;fill:#ff6d3b"/>
            <path id="prefix__Path_548" d="M5.114 13.908H18.32l-4.042 4.855a1.115 1.115 0 0 0 1.715 1.425l5.568-6.681a1.325 1.325 0 0 0 .1-.167c0-.056.056-.089.078-.145a1.07 1.07 0 0 0 0-.8c0-.056-.056-.089-.078-.145a1.325 1.325 0 0 0-.1-.167L15.993 5.4a1.115 1.115 0 1 0-1.715 1.425l4.042 4.855H5.114a1.114 1.114 0 1 0 0 2.227z" data-name="Path 548" transform="translate(1.092 .043)" style="fill:#ff6d3b"/>
        </g>
    </g>
</svg>
