<svg xmlns="http://www.w3.org/2000/svg" id="prefix__youtube" width="60" height="60" viewBox="0 0 60 60">
    <defs>
        <style>
            .prefix__cls-1{fill:#fff}
        </style>
    </defs>
    <path id="prefix__Path_272" d="M224.113 219.28l9.759-5.62-9.759-5.62zm0 0" class="prefix__cls-1" data-name="Path 272" transform="translate(-197.85 -183.659)"/>
    <path id="prefix__Path_273" d="M30 0a30 30 0 1 0 30 30A30 30 0 0 0 30 0zm18.745 30.031s0 6.084-.772 9.018a4.7 4.7 0 0 1-3.3 3.3c-2.934.772-14.669.772-14.669.772s-11.7 0-14.669-.8a4.7 4.7 0 0 1-3.3-3.3c-.772-2.9-.772-9.017-.772-9.017s0-6.084.772-9.017a4.793 4.793 0 0 1 3.3-3.335c2.93-.777 14.665-.777 14.665-.777s11.735 0 14.669.8a4.7 4.7 0 0 1 3.3 3.3c.808 2.941.776 9.056.776 9.056zm0 0" class="prefix__cls-1" data-name="Path 273"/>
</svg>
