<?xml version="1.0" encoding="iso-8859-1"?>
<!-- Generator: Adobe Illustrator 19.0.0, SVG Export Plug-In . SVG Version: 6.00 Build 0)  -->
<svg version="1.1" id="Capa_1" xmlns="http://www.w3.org/2000/svg" xmlns:xlink="http://www.w3.org/1999/xlink" x="0px" y="0px"
	 viewBox="0 0 416 416" style="enable-background:new 0 0 416 416;" xml:space="preserve">
<g>
	<g>
		<path d="M161.498,320c-27.2,0-48,20.8-48,48s20.8,48,48,48s48-20.8,48-48S188.698,320,161.498,320z M161.498,390.4
			c-12.8,0-22.4-9.6-22.4-22.4s9.6-22.4,22.4-22.4s22.4,9.6,22.4,22.4S174.298,390.4,161.498,390.4z"/>
	</g>
</g>
<g>
	<g>
		<path d="M321.498,320c-27.2,0-48,20.8-48,48s20.8,48,48,48s48-20.8,48-48S348.698,320,321.498,320z M321.498,390.4
			c-12.8,0-22.4-9.6-22.4-22.4s9.6-22.4,22.4-22.4s22.4,9.6,22.4,22.4S334.298,390.4,321.498,390.4z"/>
	</g>
</g>
<g>
	<g>
		<path d="M382.298,64h-273.6l-27.2-64h-64v32h43.2l67.2,163.2c-19.2,8-32,27.2-30.4,49.6c3.2,25.6,25.6,43.2,49.6,43.2h222.4v-32
			h-224c-9.6,0-16-6.4-16-16c0-9.6,6.4-16,16-16h211.2c8,0,14.4-4.8,16-12.8l25.6-128C399.898,73.6,391.898,64,382.298,64z"/>
	</g>
</g>
<g>
</g>
<g>
</g>
<g>
</g>
<g>
</g>
<g>
</g>
<g>
</g>
<g>
</g>
<g>
</g>
<g>
</g>
<g>
</g>
<g>
</g>
<g>
</g>
<g>
</g>
<g>
</g>
<g>
</g>
</svg>
