<svg width="90" height="70" viewBox="0 0 90 70" fill="none" xmlns="http://www.w3.org/2000/svg">
<g clip-path="url(#clip0)">
<path d="M52.3516 2.47659V6.10936L55.0867 3.75673L52.3516 2.47659Z" fill="#FF6D3B"/>
<path d="M50.344 0.219337C49.6366 -0.0376607 48.8677 -0.0724374 48.1401 0.119652C47.4125 0.311741 46.7607 0.721551 46.2718 1.29435L32.3137 17.628H44.2909H44.4741V19.896L47.5779 20.4285C47.614 20.2688 47.6137 20.103 47.5769 19.9434C47.5401 19.7838 47.4678 19.6346 47.3654 19.5069C47.263 19.3792 47.1331 19.2762 46.9855 19.2058C46.8378 19.1353 46.6762 19.0991 46.5126 19.0998H45.2918V17.5719C47.1723 17.3624 48.9292 16.531 50.2846 15.2092C51.0699 14.4526 51.6946 13.545 52.1212 12.5408C52.5477 11.5366 52.7675 10.4565 52.7672 9.3653V3.58837C52.7672 2.06209 51.8164 0.741772 50.3423 0.220175L50.344 0.219337ZM51.9486 9.36446C51.9491 10.3504 51.7507 11.3263 51.3651 12.2336C50.9796 13.1408 50.415 13.9607 49.7051 14.6441C48.256 16.0545 46.3118 16.8389 44.2909 16.8284H34.0604L46.8998 1.80506C47.8447 0.699073 49.1574 0.648002 50.0655 0.967826C50.9736 1.28765 51.9486 2.14498 51.9486 3.58502V9.36195V9.36446Z" fill="#FF6D3B"/>
<path d="M51.9486 5.39346L42.3979 5.8439L31.1715 18.7047H32.0076C37.768 18.7047 43.1763 16.2926 46.8479 12.0905L51.9486 6.45592V5.86148V5.39346Z" fill="#FF6D3B"/>
<path d="M55.5759 40.2391H53.0239V34.0628C53.0225 31.981 52.3595 29.9536 51.1308 28.2742C50.4287 27.3071 49.5664 26.4675 48.5813 25.7918C52.6049 26.8584 55.5742 30.4518 55.5742 34.7084V40.24L55.5759 40.2391ZM55.5759 51.1592H53.0239V41.3058H55.5759V51.1592ZM51.9302 40.2391H46.6448V26.1836V25.909C48.0738 26.5847 49.3103 27.6093 50.2403 28.8887C51.3387 30.3895 51.9315 32.2014 51.9327 34.062V40.24L51.9302 40.2391ZM51.9302 51.1592H46.6464V48.7647H50.4501V41.3049H51.931V51.1592H51.9302ZM46.6464 46.5083H49.3564V47.6997H46.6464V46.5075V46.5083ZM46.6464 41.3501H49.3564V45.4426H46.6456L46.6464 41.3501ZM45.2091 21.7178C45.2044 21.5405 45.2526 21.3659 45.3476 21.2162C45.4426 21.0665 45.58 20.9486 45.7423 20.8775C45.9045 20.8064 46.0843 20.7854 46.2585 20.8171C46.4328 20.8488 46.5936 20.9318 46.7205 21.0555C46.8474 21.1792 46.9346 21.338 46.9709 21.5116C47.0072 21.6852 46.991 21.8657 46.9243 22.03C46.8576 22.1943 46.7436 22.3349 46.5967 22.434C46.4498 22.533 46.2767 22.586 46.0996 22.586C45.8667 22.5885 45.6423 22.4986 45.4754 22.3359C45.3086 22.1732 45.2128 21.951 45.2091 21.7178ZM40.269 51.1592V41.3058H41.7507V48.7655H45.5527V51.1592H40.269ZM39.1761 40.2391H36.6241V34.7084C36.6241 30.4518 39.5934 26.8576 43.617 25.7918C42.626 26.4741 41.7596 27.322 41.0558 28.2985C39.8372 29.9745 39.1801 31.9939 39.1786 34.067V40.2442L39.1761 40.2391ZM39.1761 51.1592H36.6241V41.3058H39.1761V51.1592ZM45.5519 40.2391H40.269V34.0628C40.2702 32.21 40.8581 30.4053 41.948 28.908C42.8777 27.6211 44.1167 26.5899 45.5502 25.9098V40.2391H45.5519ZM45.5519 45.4426H42.8427V41.3493H45.5519V45.4426ZM45.5519 47.7031H42.8427V46.5083H45.5519V47.6997V47.7031ZM46.6456 24.4196V23.5823C47.0553 23.4709 47.4173 23.2283 47.6763 22.8914C47.9352 22.5546 48.0769 22.1421 48.0796 21.717C48.0796 20.6512 47.1899 19.783 46.0962 19.783C45.0025 19.783 44.112 20.6512 44.112 21.717C44.1163 22.1415 44.2591 22.5529 44.5186 22.8886C44.7781 23.2243 45.1401 23.4659 45.5494 23.5765V24.4137C39.9747 24.6917 35.5271 29.2027 35.5271 34.705V52.2242H56.6704V34.7075C56.6704 29.2052 52.2211 24.695 46.6464 24.4162" fill="#FF6D3B"/>
<path d="M58.8293 51.1491H33.3706V54.6178H58.8293V51.1491Z" fill="#FF6D3B"/>
<path d="M50.3373 3.17228C50.3373 3.28819 50.303 3.4015 50.2386 3.49788C50.1743 3.59425 50.0829 3.66937 49.976 3.71373C49.869 3.75809 49.7513 3.76969 49.6378 3.74708C49.5242 3.72447 49.4199 3.66865 49.3381 3.58669C49.2562 3.50472 49.2005 3.4003 49.1779 3.28661C49.1553 3.17293 49.1669 3.05509 49.2112 2.948C49.2555 2.84091 49.3305 2.74938 49.4268 2.68498C49.523 2.62058 49.6362 2.58621 49.752 2.58621C49.9072 2.58621 50.0561 2.64796 50.1659 2.75787C50.2756 2.86777 50.3373 3.01684 50.3373 3.17228Z" fill="#FF6D3B"/>
<path d="M2.71503 68.8366V61.2378H0.42979C0.364958 61.2427 0.300038 61.2297 0.242097 61.2001C0.184156 61.1706 0.135414 61.1257 0.101176 61.0704C0.0334467 60.9607 0 60.7832 0 60.5321V60.1051C0 59.8539 0.0334467 59.6772 0.101176 59.5659C0.13555 59.5107 0.184318 59.4659 0.242225 59.4364C0.300132 59.4069 0.364983 59.3938 0.42979 59.3984H7.24622C7.31103 59.3938 7.37588 59.4069 7.43379 59.4364C7.4917 59.4659 7.54046 59.5107 7.57484 59.5659C7.64257 59.6772 7.67601 59.8564 7.67601 60.1051V60.5321C7.67601 60.7832 7.64257 60.9599 7.57484 61.0704C7.5406 61.1257 7.49186 61.1706 7.43392 61.2001C7.37597 61.2297 7.31106 61.2427 7.24622 61.2378H4.95262V68.8366C4.95262 69.1319 4.66358 69.2798 4.08551 69.2803H3.58381C3.00463 69.2803 2.71503 69.1324 2.71503 68.8366Z" fill="#FF6D3B"/>
<path d="M6.87413 68.9706C6.88004 68.8844 6.89922 68.7997 6.93099 68.7194L10.1084 59.663C10.1837 59.4621 10.4566 59.3616 10.927 59.3616H11.6721C12.1425 59.3616 12.4154 59.4621 12.4907 59.663L15.6681 68.7194C15.6918 68.8012 15.7056 68.8855 15.7091 68.9706C15.7081 69.0229 15.6908 69.0737 15.6596 69.1157C15.6285 69.1577 15.5849 69.1889 15.5351 69.205C15.3589 69.2643 15.1731 69.2899 14.9875 69.2803H14.3553C14.1706 69.2859 13.9862 69.263 13.8085 69.2125C13.7502 69.1995 13.6962 69.172 13.6515 69.1324C13.6068 69.0929 13.5727 69.0427 13.5526 68.9865L12.9673 67.2676H9.57328L8.98796 68.9865C8.92832 69.1824 8.70534 69.2803 8.31903 69.2803H7.75713C7.16846 69.2803 6.87413 69.1771 6.87413 68.9706ZM12.3535 65.4056L11.5391 62.9014C11.4856 62.7599 11.4434 62.6143 11.4128 62.4661C11.3777 62.302 11.3468 62.146 11.32 61.9981H11.2632L11.2306 62.173C11.1933 62.4216 11.1308 62.6656 11.0441 62.9014L10.1929 65.4056H12.3535Z" fill="#FF6D3B"/>
<path d="M16.5001 69.1765C16.4353 69.1467 16.3806 69.0987 16.3425 69.0384C16.3044 68.9781 16.2845 68.908 16.2852 68.8366V59.8196C16.2852 59.5082 16.5742 59.3524 17.1523 59.3524H17.654C17.9511 59.3524 18.1685 59.3921 18.3062 59.4713C18.3701 59.5038 18.4234 59.5538 18.4599 59.6155C18.4965 59.6771 18.5148 59.7479 18.5127 59.8196V68.8366C18.5127 69.1419 18.2265 69.2949 17.654 69.2954H17.1523C16.8608 69.2954 16.6434 69.2558 16.5001 69.1765Z" fill="#FF6D3B"/>
<path d="M20.2486 69.1213C20.1566 69.0314 20.1106 68.8888 20.1106 68.6934V59.8187C20.1087 59.747 20.1275 59.6762 20.1649 59.615C20.2023 59.5538 20.2567 59.5047 20.3213 59.4738C20.4618 59.3979 20.6809 59.3597 20.9786 59.3591H21.4644C21.7621 59.3591 21.9803 59.3976 22.1208 59.4738C22.1856 59.5047 22.24 59.5537 22.2776 59.6149C22.3151 59.6761 22.3341 59.7469 22.3323 59.8187V67.4091H25.5415C25.6064 67.4043 25.6713 67.4173 25.7292 67.4468C25.7872 67.4764 25.8359 67.5212 25.8702 67.5766C25.9379 67.6871 25.9713 67.8646 25.9713 68.1074V68.5511C25.9713 68.8001 25.9376 68.9795 25.8702 69.0895C25.8359 69.1448 25.7872 69.1897 25.7292 69.2192C25.6713 69.2487 25.6064 69.2618 25.5415 69.2569H20.6868C20.4861 69.2561 20.3406 69.2117 20.2486 69.1213Z" fill="#FF6D3B"/>
<path d="M28.5133 68.7889C27.8224 68.3963 27.2722 67.7962 26.9405 67.0734C26.5809 66.3204 26.4011 65.4026 26.4011 64.3197C26.4011 63.2369 26.5809 62.3218 26.9405 61.5744C27.2713 60.8519 27.8218 60.2526 28.5133 59.8623C29.2018 59.4716 30.0379 59.2762 31.0218 59.2762C32.0057 59.2762 32.8447 59.4716 33.5387 59.8623C34.2291 60.2521 34.778 60.8513 35.1065 61.5736C35.4633 62.3266 35.6416 63.2417 35.6416 64.3189C35.6416 65.3961 35.4633 66.314 35.1065 67.0726C34.7776 67.7956 34.2289 68.396 33.5387 68.7881C32.8497 69.1788 32.0107 69.3741 31.0218 69.3741C30.0329 69.3741 29.1967 69.179 28.5133 68.7889ZM32.7727 66.7008C33.1663 66.1544 33.3634 65.3607 33.3639 64.3197C33.3645 63.2788 33.1674 62.4907 32.7727 61.9554C32.3781 61.4162 31.7944 61.1466 31.0218 61.1466C30.2492 61.1466 29.6669 61.4162 29.2751 61.9554C28.8787 62.4968 28.6805 63.2849 28.6805 64.3197C28.6805 65.3546 28.8807 66.1483 29.2809 66.7008C29.6806 67.2478 30.2615 67.5213 31.0235 67.5213C31.795 67.5213 32.3781 67.2478 32.7727 66.7008Z" fill="#FF6D3B"/>
<path d="M36.9586 68.8366V59.9543C36.9586 59.7584 37.0046 59.6195 37.0966 59.5307C37.1885 59.442 37.334 59.3993 37.5339 59.3993H40.3467C42.7348 59.3993 43.9292 60.2789 43.9297 62.0382C43.9413 62.5369 43.7793 63.0241 43.4715 63.4163C43.1505 63.8134 42.7251 64.1127 42.2432 64.2804V64.3356C42.4221 64.4104 42.61 64.5689 42.8067 64.8112C43.007 65.0591 43.167 65.3371 43.2808 65.635L44.5535 68.7328C44.5878 68.8188 44.6098 68.9093 44.6187 69.0015C44.6187 69.1868 44.3322 69.2795 43.7591 69.2795H43.1671C42.6861 69.2795 42.4073 69.1815 42.331 68.9856L41.1879 66.2361C41.1029 66.0612 40.9983 65.8966 40.876 65.7455C40.7632 65.6208 40.6187 65.5291 40.4579 65.4801C40.2238 65.4116 39.9802 65.3808 39.7363 65.3888H39.1769V68.8357C39.1769 69.131 38.8879 69.2789 38.3098 69.2795H37.8232C37.2468 69.28 36.9586 69.1324 36.9586 68.8366ZM40.5416 63.5193C40.737 63.5192 40.9283 63.4628 41.0926 63.3569C41.2658 63.2484 41.4081 63.097 41.5057 62.9173C41.6087 62.7309 41.6617 62.5209 41.6595 62.3078C41.6662 62.1614 41.6403 62.0154 41.5836 61.8802C41.5269 61.7451 41.4409 61.6244 41.3317 61.5267C41.1127 61.3341 40.8167 61.2378 40.4437 61.2378H39.1761V63.5193H40.5416Z" fill="#FF6D3B"/>
<path d="M50.0379 69.205C49.9033 69.1548 49.8247 69.0819 49.8029 68.9865L47.5252 59.946C47.5024 59.8772 47.4917 59.805 47.4934 59.7325C47.4934 59.6161 47.567 59.5249 47.7158 59.4587C47.9331 59.3821 48.1631 59.3485 48.3931 59.3599H48.7661C49.328 59.3599 49.6493 59.5079 49.7302 59.8037L50.808 64.3356C50.8247 64.4155 50.8897 64.7141 51.0028 65.2315L51.2537 66.3643C51.3178 65.978 51.4418 65.4419 51.6258 64.7559L51.7395 64.3373L52.9293 59.6614C52.9434 59.6057 52.9723 59.5548 53.0129 59.5143C53.0536 59.4737 53.1044 59.445 53.1601 59.4311C53.34 59.377 53.5276 59.3529 53.7153 59.3599H54.2672C54.4549 59.3529 54.6425 59.377 54.8224 59.4311C54.8781 59.445 54.929 59.4737 54.9696 59.5143C55.0103 59.5548 55.0392 59.6057 55.0532 59.6614L56.1962 64.3356C56.3367 64.9167 56.5014 65.6244 56.6904 66.4589C56.7122 66.3645 56.788 66.0319 56.9179 65.4609L57.1771 64.3356L58.2959 59.8037C58.3761 59.5084 58.6975 59.3605 59.26 59.3599H59.4222C59.6495 59.3489 59.8767 59.3825 60.0911 59.4587C60.2391 59.5249 60.3135 59.6161 60.3135 59.7325C60.3136 59.7684 60.3111 59.8042 60.306 59.8397C60.3001 59.874 60.2951 59.9092 60.2893 59.946L57.9413 68.9882C57.9146 69.0836 57.8276 69.1556 57.6821 69.2067C57.509 69.2609 57.3283 69.2863 57.147 69.282H56.0934C55.9121 69.2864 55.7313 69.2609 55.5583 69.2067C55.4128 69.1565 55.3283 69.0836 55.3074 68.9882L54.1242 64.1155L53.8976 63.1568L53.6468 64.1155L52.421 68.9882C52.3942 69.0836 52.3081 69.1556 52.1617 69.2067C51.9887 69.261 51.8079 69.2865 51.6266 69.282H50.5881C50.4016 69.288 50.2155 69.2619 50.0379 69.205Z" fill="#FF6D3B"/>
<path d="M61.0503 69.1765C60.9857 69.1465 60.931 69.0985 60.8929 69.0382C60.8548 68.9779 60.8348 68.908 60.8354 68.8366V59.8196C60.8354 59.5082 61.1244 59.3524 61.7025 59.3524H62.2042C62.5019 59.3524 62.7195 59.3921 62.8572 59.4713C62.921 59.5039 62.9743 59.5539 63.0108 59.6156C63.0474 59.6772 63.0657 59.7479 63.0638 59.8196V68.8366C63.0638 69.1419 62.7772 69.2949 62.2042 69.2954H61.7025C61.4109 69.2954 61.1935 69.2558 61.0503 69.1765Z" fill="#FF6D3B"/>
<path d="M64.6616 68.8367V59.8197C64.6596 59.7479 64.6785 59.6772 64.7159 59.6159C64.7533 59.5547 64.8076 59.5057 64.8723 59.4747C65.0128 59.3988 65.2316 59.3606 65.5287 59.36H66.1449C66.34 59.3561 66.5344 59.3843 66.7202 59.4438C66.8765 59.5004 67.0083 59.6096 67.0932 59.7527L70.4972 64.8791L70.8869 65.4493V59.8197C70.8849 59.7479 70.9037 59.6772 70.9411 59.6159C70.9785 59.5547 71.0329 59.5057 71.0976 59.4747C71.238 59.3988 71.4568 59.3606 71.754 59.36H72.167C72.4647 59.36 72.6824 59.3983 72.8201 59.4747C72.8839 59.5063 72.9373 59.5557 72.9739 59.6168C73.0106 59.678 73.0288 59.7484 73.0266 59.8197V68.8367C73.0266 69.132 72.7401 69.2799 72.167 69.2805H71.616C71.4214 69.2865 71.2272 69.261 71.0407 69.2051C70.8891 69.1503 70.7605 69.0455 70.6761 68.9079L67.109 63.5755L66.8013 63.1318V68.8367C66.8013 69.132 66.5148 69.2799 65.9418 69.2805H65.5287C64.9512 69.2805 64.6621 69.1325 64.6616 68.8367Z" fill="#FF6D3B"/>
<path d="M75.495 68.1393C74.7252 67.3155 74.3402 66.0356 74.3402 64.2997C74.3402 60.9558 75.9451 59.2839 79.1549 59.2839C79.6184 59.2864 80.0809 59.329 80.5371 59.4111C80.9544 59.476 81.3616 59.5945 81.7487 59.7636C82.0731 59.9143 82.2345 60.0817 82.2345 60.2659C82.2198 60.4488 82.1647 60.6261 82.0731 60.785C81.9708 60.9893 81.8427 61.1795 81.6918 61.351C81.5458 61.5151 81.4162 61.5971 81.303 61.5971C81.2212 61.5803 81.1421 61.5521 81.068 61.5134C80.7906 61.4057 80.5063 61.317 80.2168 61.248C79.8545 61.1701 79.4844 61.1341 79.1139 61.1408C78.266 61.1408 77.6381 61.4037 77.23 61.9295C76.822 62.4553 76.618 63.249 76.618 64.3106C76.618 65.3711 76.8231 66.1712 77.2334 66.711C77.6437 67.2507 78.2599 67.5203 79.0821 67.5198C79.4601 67.5233 79.8374 67.4888 80.2085 67.4168V65.6393H78.9341C78.8693 65.6442 78.8044 65.6311 78.7465 65.6016C78.6885 65.5721 78.6398 65.5272 78.6055 65.4719C78.5386 65.3614 78.5044 65.1822 78.5044 64.9335V64.4823C78.5044 64.2386 78.5386 64.0636 78.6055 63.9506C78.6398 63.8953 78.6886 63.8505 78.7465 63.821C78.8044 63.7915 78.8693 63.7784 78.9341 63.7832H81.8607C82.0659 63.7832 82.2144 63.8267 82.3064 63.9138C82.3984 64.0009 82.4444 64.1421 82.4444 64.3374V68.2599C82.4444 68.683 82.082 68.9746 81.3574 69.1348C80.6096 69.2988 79.846 69.3799 79.0805 69.3767C77.4605 69.3756 76.2654 68.9632 75.495 68.1393Z" fill="#FF6D3B"/>
<path d="M84.9546 69.1731C84.439 69.0386 84.0446 68.8734 83.7714 68.6775C83.4983 68.4816 83.3617 68.2968 83.3617 68.1232C83.374 67.9441 83.4282 67.7703 83.5198 67.6159C83.6185 67.4247 83.7456 67.2497 83.8969 67.0968C84.0435 66.9517 84.165 66.8791 84.2614 66.8791C84.3205 66.8791 84.4476 66.9293 84.6427 67.0298C84.9114 67.1673 85.1891 67.2865 85.4739 67.3865C85.7655 67.4808 86.0706 67.5263 86.377 67.5213C86.7106 67.5318 87.0414 67.4566 87.3377 67.3027C87.5997 67.1576 87.7307 66.9028 87.7307 66.5383C87.7342 66.3371 87.662 66.142 87.5284 65.9916C87.3816 65.8302 87.2053 65.6983 87.0091 65.6031C86.7984 65.4977 86.5121 65.3737 86.1504 65.2314L85.5098 64.9618C85.1533 64.7973 84.8166 64.5925 84.5064 64.3515C84.2159 64.114 83.9831 63.8133 83.8258 63.4724C83.6502 63.1073 83.5624 62.6608 83.5624 62.1328C83.5624 61.4887 83.7243 60.9526 84.0482 60.5245C84.3725 60.0972 84.8108 59.7704 85.3125 59.5818C85.8464 59.3779 86.4135 59.2757 86.9848 59.2803C87.4295 59.2758 87.8731 59.325 88.306 59.4269C88.6349 59.4975 88.949 59.625 89.2341 59.8036C89.4571 59.9571 89.5686 60.1103 89.5686 60.2633C89.5583 60.4323 89.5154 60.5978 89.4424 60.7505C89.3649 60.9382 89.2598 61.1132 89.1305 61.2696C89.0067 61.4181 88.8905 61.492 88.7818 61.4915C88.6913 61.4781 88.6038 61.4498 88.5226 61.4078C88.3259 61.3294 88.1242 61.2645 87.9188 61.2135C87.6755 61.1589 87.4265 61.1336 87.1772 61.1382C86.6755 61.1382 86.3271 61.216 86.1319 61.3718C86.0436 61.4342 85.9711 61.5167 85.9204 61.6124C85.8697 61.7081 85.8422 61.8144 85.8401 61.9227C85.8315 62.1464 85.9029 62.3658 86.0416 62.5414C86.1792 62.7094 86.35 62.8471 86.5433 62.9458C86.8187 63.0829 87.1015 63.2045 87.3904 63.31C87.8503 63.4948 88.2973 63.7104 88.7283 63.9555C89.0903 64.1745 89.397 64.4742 89.6246 64.8312C89.8755 65.2113 90.0009 65.6972 90.0009 66.2888C90.0009 67.0144 89.8457 67.6075 89.5352 68.068C89.2441 68.5151 88.8262 68.8649 88.3353 69.0727C87.8319 69.2818 87.2915 69.3869 86.7465 69.3816C86.1428 69.3881 85.5407 69.3181 84.9546 69.1731Z" fill="#FF6D3B"/>
</g>
<defs>
<clipPath id="clip0">
<rect width="90" height="69.375" fill="white"/>
</clipPath>
</defs>
</svg>
