<svg xmlns="http://www.w3.org/2000/svg" width="85.91" height="172.774" viewBox="0 0 85.91 172.774">
  <g id="Group_421" data-name="Group 421" transform="translate(-298.179 -256.572)">
    <path id="Path_577" data-name="Path 577" d="M386.642,316.133c-2.566-11.2-.933-30.913-.933-30.913s-3.111-1.166-4.278-6.921.7-19.6.7-19.6l-2.645-1.089a47.383,47.383,0,0,1-5.677,14.154c-4.122,6.454-15.165,6.454-19.287,0a47.383,47.383,0,0,1-5.677-14.154L346.2,258.7s1.866,13.842.7,19.6-4.278,6.921-4.278,6.921,1.633,19.714-.933,30.913-5.832,65.21-5.832,65.21a88.2,88.2,0,0,0,56.616,0S389.209,327.332,386.642,316.133Z" transform="translate(-23.033)" fill="none" stroke="#ff6d3b" stroke-miterlimit="10" stroke-width="1.5"/>
    <g id="Group_420" data-name="Group 420" transform="translate(298.983 261.957)">
      <path id="Path_578" data-name="Path 578" d="M377.141,614.721a67.9,67.9,0,0,1-5.366-16.876c-.544-2.337-1.656-6.037-2.277-8.057a100.752,100.752,0,0,1-28.364,4.635,100.756,100.756,0,0,1-28.364-4.635c-.621,2.02-1.733,5.72-2.277,8.057a67.908,67.908,0,0,1-5.366,16.876c-3.888,8.32-6.144,12.287-6.144,12.287,1.478,5.5,13.532,3.422,17.732,4.278s5.288,4.122,11.043,4.744,9.877-3.577,13.377-3.577,7.621,4.2,13.376,3.577,6.843-3.889,11.043-4.744,16.254,1.225,17.732-4.278C383.285,627.008,381.029,623.042,377.141,614.721Z" transform="translate(-298.983 -469.438)" fill="none" stroke="#ff6d3b" stroke-miterlimit="10" stroke-width="1.5"/>
      <path id="Path_579" data-name="Path 579" d="M380.543,278.494a11.1,11.1,0,0,0,17.714,0,42.373,42.373,0,0,0,4.287-9.307c-2.392,2.036-7.169,5.313-13.144,5.313s-10.75-3.275-13.143-5.311A42.412,42.412,0,0,0,380.543,278.494Z" transform="translate(-347.25 -269.187)" fill="none" stroke="#ff6d3b" stroke-miterlimit="10" stroke-width="1.5"/>
    </g>
  </g>
</svg>
