<?xml version="1.0" encoding="utf-8"?>
<!-- Generator: Adobe Illustrator 23.1.1, SVG Export Plug-In . SVG Version: 6.00 Build 0)  -->
<svg version="1.1" id="Layer_1" xmlns="http://www.w3.org/2000/svg" xmlns:xlink="http://www.w3.org/1999/xlink" x="0px" y="0px"
	 viewBox="0 0 103.8 172.8" style="enable-background:new 0 0 103.8 172.8;" xml:space="preserve">
<style type="text/css">
	.st0{fill:none;stroke:#FF6D3B;stroke-width:1.5;stroke-miterlimit:10;}
</style>
<g id="Group_417" transform="translate(6.701 308.026)">
	<path id="Path_573" class="st0" d="M24.1-299.8l1.1,10.8c1.2-1.1,2.6-1.8,4.1-2.3L24.1-299.8z"/>
	<path id="Path_574" class="st0" d="M66.3-299.8l-5.2,8.5c1.5,0.4,2.9,1.2,4.1,2.3L66.3-299.8z"/>
	<path id="Path_575" class="st0" d="M66.6-287.6l1.7-15.6l1.8-3l-1.4-0.9l-9.4,15.4c-6-0.3-11.1,6-14,6s-8-6.3-14-6L21.7-307
		l-1.4,0.9l1.8,3l1.7,15.6c-0.6,0.6-1.1,1.3-1.6,2c7.7,19.2,7.7,32.3,2.8,42c8.4,7.5,20.2,8.6,20.2,8.6s11.8-1.1,20.2-8.6
		c-4.9-9.7-4.9-22.8,2.8-42C67.7-286.3,67.2-286.9,66.6-287.6z M25.3-289.1l-1.1-10.8l5.2,8.5C27.8-290.9,26.5-290.1,25.3-289.1z
		 M61-291.4l5.2-8.5l-1.1,10.8C63.9-290.1,62.5-290.9,61-291.4z"/>
</g>
<path id="Path_576_4_" class="st0" d="M67.6,69.7"/>
<path id="Path_576_1_" class="st0" d="M82.4,160.4c11.3-19.6-2.8-75.7-10.2-95.2l-0.4,0.4c-8.5,7.6-19.3,8.2-19.7,8.2h0h0
	c-0.5,0-11.7-0.7-20.2-8.2l-0.2-0.1c-7.4,19.6-21.4,75.4-10.1,95H82.4z"/>
</svg>
