<svg xmlns="http://www.w3.org/2000/svg" width="103.799" height="172.78" viewBox="0 0 103.799 172.78">
  <g id="Group_419" data-name="Group 419" transform="translate(20.282 -306.994)">
    <g id="Group_417" data-name="Group 417" transform="translate(6.701 308.026)">
      <path id="Path_573" data-name="Path 573" d="M51.1,324.848,52.246,335.6a10.431,10.431,0,0,1,4.074-2.267Z" transform="translate(-47.242 -317.693)" fill="none" stroke="#ff6d3b" stroke-miterlimit="10" stroke-width="1.5"/>
      <path id="Path_574" data-name="Path 574" d="M143.068,324.848l-5.218,8.484a10.434,10.434,0,0,1,4.074,2.267Z" transform="translate(-97.094 -317.693)" fill="none" stroke="#ff6d3b" stroke-miterlimit="10" stroke-width="1.5"/>
      <path id="Path_575" data-name="Path 575" d="M88.385,327.439l1.657-15.577,1.818-2.956-1.43-.879-9.447,15.36c-6.044-.271-11.135,6.041-14.04,6.041s-8-6.312-14.039-6.041l-9.448-15.36-1.43.879,1.818,2.956L45.5,327.439a23.077,23.077,0,0,0-1.595,1.988c7.74,19.212,7.74,32.269,2.8,41.968,8.394,7.461,20.238,8.58,20.238,8.58s11.844-1.119,20.238-8.58c-4.943-9.7-4.943-22.756,2.8-41.968A23.242,23.242,0,0,0,88.385,327.439Zm-41.354-1.507-1.144-10.751,5.218,8.484A10.432,10.432,0,0,0,47.031,325.932Zm35.752-2.267L88,315.181l-1.144,10.751A10.435,10.435,0,0,0,82.783,323.665Z" transform="translate(-42.027 -308.026)" fill="none" stroke="#ff6d3b" stroke-miterlimit="10" stroke-width="1.5"/>
    </g>
    <g id="Group_418" data-name="Group 418" transform="translate(-19.444 372.447)">
      <path id="Path_576" data-name="Path 576" d="M52.005,459.491l-.151.134c-8.516,7.57-19.721,8.208-20.194,8.232l-.042,0-.042,0c-.473-.024-11.678-.661-20.194-8.232l-.151-.134c-7.419,19.564-19.5,79.166-30.674,95.988.513,1.352,2.808,3.583,8.72,4.9,3.99.886,10.7-.58,13.943.139,3.816.849,7.14,5.407,13.01,5.55,6.5.158,11.192-4.151,15.389-4.151s8.886,4.309,15.389,4.151c5.87-.144,9.194-4.7,13.01-5.55,3.241-.719,9.953.747,13.943-.139,5.913-1.313,8.208-3.545,8.72-4.9C71.5,538.657,59.424,479.055,52.005,459.491Z" transform="translate(19.444 -459.491)" fill="none" stroke="#ff6d3b" stroke-miterlimit="10" stroke-width="1.5"/>
    </g>
  </g>
</svg>
