<svg xmlns="http://www.w3.org/2000/svg" width="98.377" height="171.941" viewBox="0 0 98.377 171.941">
  <g id="Group_416" data-name="Group 416" transform="translate(-902.823 -228.583)">
    <path id="Path_571" data-name="Path 571" d="M993.1,316.962c-4.075-8.237-12.489-21.7-13.374-37.288s5.824-28.985,5.824-28.985-1.572-2.192-1.041-8.569a38.886,38.886,0,0,1,3.189-11.957l-1.24-.62s-9.211,13.108-12.311,15.146c-3.081,2.024-8.425.709-11.955.709s-8.874,1.315-11.955-.709c-3.1-2.037-12.311-15.146-12.311-15.146l-1.24.62a38.883,38.883,0,0,1,3.189,11.957c.531,6.377-1.041,8.569-1.041,8.569s6.709,13.4,5.824,28.985-9.3,29.051-13.374,37.288-10.008,26.393-9.92,27.19,3.189,1.595,4.96,4.7,7.174,7.528,16.386,7.439c9.161-.088,15.4,3.63,19.48,3.63s10.324-3.718,19.485-3.63c9.212.089,14.615-4.34,16.386-7.439s4.872-3.9,4.96-4.7S997.177,325.2,993.1,316.962Z" transform="translate(-10.183)" fill="none" stroke="#ff6d3b" stroke-miterlimit="10" stroke-width="1.5"/>
    <g id="Group_415" data-name="Group 415" transform="translate(903.576 347.206)">
      <path id="Path_572" data-name="Path 572" d="M997.445,527.57c-2.392-4.162-3.1-11.426-4.163-16.031a34.324,34.324,0,0,0-2.615-6.778,7.84,7.84,0,0,0-1.864,2.168c-1.693,2.962-7.186,7.976-17.036,7.976h0l-.591,0a43.426,43.426,0,0,0-12.942,2.3,15.235,15.235,0,0,1-12.445,0,43.391,43.391,0,0,0-12.939-2.3l-.591,0c-9.851,0-15.344-5.014-17.037-7.976a7.848,7.848,0,0,0-1.864-2.168,34.318,34.318,0,0,0-2.616,6.778c-1.063,4.605-1.772,11.869-4.163,16.031s-3.986,9.211-2.3,10.1,5.58-.886,10.806,3.809,7.617,10.54,15.058,11.072,10.982-.089,14.525,2.3a12.13,12.13,0,0,0,14.7,0c3.543-2.392,7.085-1.771,14.525-2.3s9.831-6.378,15.057-11.072,9.122-2.923,10.806-3.809S999.836,531.733,997.445,527.57Z" transform="translate(-903.576 -504.761)" fill="none" stroke="#ff6d3b" stroke-miterlimit="10" stroke-width="1.5"/>
    </g>
  </g>
</svg>
