<svg xmlns="http://www.w3.org/2000/svg" width="128.992" height="158.341" viewBox="0 0 128.992 158.341">
  <g id="Group_429" data-name="Group 429" transform="translate(-220.407 -120.806)">
    <g id="Group_423" data-name="Group 423" transform="translate(220.91 131.666)">
      <path id="Path_580" data-name="Path 580" d="M292.242,238.769c-3.041-6.148-9.321-16.2-9.982-27.83a47.833,47.833,0,0,1,4.346-21.633s-1.174-1.636-.777-6.4a29.024,29.024,0,0,1,2.38-8.924l-.926-.463s-6.875,9.784-9.188,11.3-6.288.529-8.922.529-6.623.982-8.922-.529-9.189-11.3-9.189-11.3l-.926.463a29.014,29.014,0,0,1,2.38,8.924c.4,4.76-.777,6.4-.777,6.4a47.836,47.836,0,0,1,4.347,21.633c-.661,11.634-6.941,21.683-9.982,27.83s-7.47,19.7-7.4,20.294,2.38,1.19,3.7,3.5,5.355,5.619,12.23,5.553c6.837-.066,11.495,2.709,14.539,2.709s7.705-2.775,14.543-2.709c6.875.066,10.908-3.239,12.23-5.553s3.636-2.909,3.7-3.5S295.283,244.916,292.242,238.769Z" transform="translate(-233.023 -173.522)" fill="none" stroke="#ff6d3b" stroke-miterlimit="10" stroke-width="1"/>
      <g id="Group_422" data-name="Group 422" transform="translate(0 87.82)">
        <path id="Path_581" data-name="Path 581" d="M290.97,465.764c-1.785-3.107-2.314-8.528-3.107-11.965a25.617,25.617,0,0,0-1.952-5.059,5.846,5.846,0,0,0-1.391,1.618c-1.264,2.211-5.364,5.954-12.716,5.954h0l-.441,0a32.416,32.416,0,0,0-9.659,1.719,17.658,17.658,0,0,1-4.645.992,17.636,17.636,0,0,1-4.644-.992,32.388,32.388,0,0,0-9.657-1.719l-.441,0c-7.352,0-11.452-3.743-12.716-5.954a5.857,5.857,0,0,0-1.391-1.618,25.618,25.618,0,0,0-1.952,5.059c-.794,3.437-1.322,8.858-3.107,11.965s-2.975,6.875-1.719,7.536,4.164-.661,8.065,2.843,5.685,7.867,11.238,8.263,8.2-.066,10.841,1.718a9.053,9.053,0,0,0,10.97,0c2.644-1.785,5.288-1.321,10.841-1.718s7.337-4.76,11.238-8.263,6.809-2.181,8.065-2.843S292.755,468.871,290.97,465.764Z" transform="translate(-220.91 -448.74)" fill="none" stroke="#ff6d3b" stroke-miterlimit="10" stroke-width="1"/>
      </g>
    </g>
    <g id="Group_426" data-name="Group 426" transform="translate(272.224 135.769)">
      <g id="Group_424" data-name="Group 424" transform="translate(19.615)">
        <path id="Path_582" data-name="Path 582" d="M452.268,204.217l.858,8.066a7.829,7.829,0,0,1,3.057-1.7Z" transform="translate(-449.372 -198.849)" fill="none" stroke="#ff6d3b" stroke-miterlimit="10" stroke-width="1"/>
        <path id="Path_583" data-name="Path 583" d="M542.931,204.217l-3.915,6.365a7.83,7.83,0,0,1,3.057,1.7Z" transform="translate(-508.44 -198.849)" fill="none" stroke="#ff6d3b" stroke-miterlimit="10" stroke-width="1"/>
        <path id="Path_584" data-name="Path 584" d="M477.972,201.959l1.243-11.686,1.364-2.218-1.073-.66-7.088,11.523c-4.534-.2-8.354,4.532-10.533,4.532s-6-4.735-10.533-4.532l-7.088-11.523-1.072.66,1.364,2.218,1.243,11.686a17.309,17.309,0,0,0-1.2,1.491c5.807,14.414,5.807,24.209,2.1,31.486,6.3,5.6,15.183,6.437,15.183,6.437s8.886-.84,15.183-6.437c-3.708-7.277-3.708-17.072,2.1-31.486A17.309,17.309,0,0,0,477.972,201.959Zm-31.025-1.13-.858-8.066L450,199.128A7.829,7.829,0,0,0,446.947,200.829Zm26.822-1.7,3.915-6.365-.858,8.066A7.829,7.829,0,0,0,473.769,199.128Z" transform="translate(-443.193 -187.395)" fill="none" stroke="#ff6d3b" stroke-miterlimit="10" stroke-width="1"/>
      </g>
      <g id="Group_425" data-name="Group 425" transform="translate(0 48.331)">
        <path id="Path_585" data-name="Path 585" d="M435.326,338.86l-.114.1c-6.389,5.68-14.8,6.158-15.151,6.176l-.031,0-.031,0c-.355-.018-8.761-.5-15.15-6.176l-.114-.1c-5.566,14.678-14.629,59.393-23.013,72.014.385,1.014,2.107,2.688,6.542,3.674,2.993.665,8.029-.435,10.46.1,2.863.637,5.357,4.056,9.76,4.164,4.879.118,8.4-3.114,11.545-3.114s6.666,3.233,11.545,3.114c4.4-.108,6.9-3.527,9.76-4.164,2.431-.54,7.467.56,10.46-.1,4.436-.985,6.158-2.66,6.542-3.674C449.955,398.253,440.891,353.538,435.326,338.86Z" transform="translate(-381.722 -338.86)" fill="none" stroke="#ff6d3b" stroke-miterlimit="10" stroke-width="1"/>
      </g>
    </g>
    <g id="Group_428" data-name="Group 428" transform="translate(244.338 121.499)">
      <path id="Path_586" data-name="Path 586" d="M380.874,175.284c-2.358-10.293-.857-28.412-.857-28.412s-2.859-1.072-3.931-6.361.644-18.012.644-18.012l-2.431-1a43.546,43.546,0,0,1-5.217,13.009c-3.788,5.932-13.938,5.932-17.726,0a43.545,43.545,0,0,1-5.217-13.009l-2.43,1s1.715,12.722.644,18.012-3.931,6.361-3.931,6.361,1.5,18.119-.858,28.412-5.361,59.933-5.361,59.933a81.063,81.063,0,0,0,52.035,0S383.233,185.576,380.874,175.284Z" transform="translate(-321.478 -121.499)" fill="#fff4e3" stroke="#ff6d3b" stroke-miterlimit="10" stroke-width="1"/>
      <g id="Group_427" data-name="Group 427" transform="translate(0 3.993)">
        <path id="Path_587" data-name="Path 587" d="M366.163,503.573a62.412,62.412,0,0,1-4.932-15.511c-.5-2.148-1.522-5.548-2.093-7.4a92.613,92.613,0,0,1-26.069,4.26A92.616,92.616,0,0,1,307,480.658c-.571,1.856-1.593,5.257-2.093,7.4a62.4,62.4,0,0,1-4.932,15.511c-3.574,7.647-5.646,11.292-5.646,11.292,1.358,5.058,12.437,3.146,16.3,3.932s4.86,3.789,10.149,4.36,9.078-3.288,12.294-3.288,7,3.86,12.294,3.288,6.289-3.574,10.149-4.36,14.939,1.126,16.3-3.932C371.809,514.866,369.736,511.221,366.163,503.573Z" transform="translate(-294.33 -370.047)" fill="#fff4e3" stroke="#ff6d3b" stroke-miterlimit="10" stroke-width="1"/>
        <path id="Path_588" data-name="Path 588" d="M381.82,142.568a10.2,10.2,0,0,0,16.281,0,38.957,38.957,0,0,0,3.94-8.554c-2.2,1.871-6.589,4.883-12.081,4.883s-9.88-3.01-12.079-4.881A38.968,38.968,0,0,0,381.82,142.568Z" transform="translate(-351.221 -134.014)" fill="#fff4e3" stroke="#ff6d3b" stroke-miterlimit="10" stroke-width="1"/>
      </g>
    </g>
  </g>
</svg>
