<svg xmlns="http://www.w3.org/2000/svg" viewBox="0 0 490.98 982.15"><defs><style>.cls-1{fill:#111e6c;}</style></defs><title>Asset 9</title><g id="Layer_2" data-name="Layer 2"><g id="Layer_1-2" data-name="Layer 1"><g id="Group_368" data-name="Group 368"><g id="Group_345" data-name="Group 345"><g id="Path_537" data-name="Path 537"><path class="cls-1" d="M246.46,107.21c-24.64,0-45.3-18.26-59.74-52.81A236.81,236.81,0,0,1,172.28,2.29L172,0H312.15L312,2.1A223.8,223.8,0,0,1,302,54.26C290.36,88.9,271.18,107.21,246.46,107.21ZM176.44,4c2.5,15,18.84,99.22,70,99.22S306.86,18.52,308.05,4Z"/></g></g><g id="Group_346" data-name="Group 346"><g id="Path_538" data-name="Path 538"><path class="cls-1" d="M388.55,211.54a2.5,2.5,0,0,1-.54-.07,173.74,173.74,0,0,1-54.84-28.84c-24-19.15-54-55.43-43.39-109.16a2,2,0,0,1,3.92.77c-8.22,41.54,8.35,78.41,42,105.26a169,169,0,0,0,53.42,28.11,2,2,0,0,1-.54,3.92Z"/></g></g><g id="Group_347" data-name="Group 347"><g id="Path_539" data-name="Path 539"><path class="cls-1" d="M207,982.15c-50.31,0-98.94-3-114.79-13.58C57.26,945.28,14,946.93,13.57,947l-1.68.08-.36-1.65A660.76,660.76,0,0,1,.19,806.71c1.52-72.23,16.14-175.32,77-256.18,16.77-22.31,6.63-79.66-4.11-140.4-6.69-37.8-13.6-76.88-15.69-113.65-5.12-90,13.15-93.71,43.4-99.9,3.58-.73,7.28-1.49,11.18-2.43,39.21-12.33,65.71-31.93,78.63-58.21,16.42-33.37,3.34-66.46,3.23-66.79a2,2,0,0,1,3.74-1.38,92.1,92.1,0,0,1-3.38,69.93C180.75,165,153.45,185.29,113,198c-4.09,1-7.83,1.76-11.44,2.5-29.1,5.95-45.13,9.23-40.21,95.76,2.07,36.54,9,75.5,15.62,113.19,11.37,64.28,21.2,119.79,3.37,143.49C20.15,633,5.69,735.15,4.17,806.79A665.39,665.39,0,0,0,15.09,942.93c8.51,0,47.26,1,79.31,22.32,34.95,23.3,246.08,7.81,248.21,7.65a2,2,0,0,1,.29,4C338,977.25,271.15,982.15,207,982.15Z"/></g></g><g id="Group_348" data-name="Group 348"><g id="Path_540" data-name="Path 540"><path class="cls-1" d="M350.74,976.88a2,2,0,0,1-2-1.63c-.54-3-54-296.29-64.3-372.78-4.37-32.39,16.69-88.94,37-143.62,14.73-39.55,28.64-76.9,30.25-99.12a156.75,156.75,0,0,0-2.06-30.21c-4.29-33.12-9.64-74.32,37.41-121.39l.94-.94,1.23.51c24.16,9.94,40.8,84.61,56.91,156.8,10.44,46.84,20.31,91.09,31.67,116.86,15.29,34.68,14.45,59.26,11.05,73.76a51.74,51.74,0,0,1-11.47,23.81,2,2,0,0,1-2.83-2.81h0c.29-.28,27.79-29.17-.41-93.15-11.51-26.13-21.42-70.56-31.91-117.59C427.45,298.71,410.62,223.3,389,212,344.36,257.2,349.51,297,353.66,329a159.55,159.55,0,0,1,2.08,31c-1.65,22.79-15.65,60.4-30.49,100.23C306,512,284.18,570.54,288.41,602c10.29,76.4,63.74,369.64,64.27,372.59a2,2,0,0,1-1.6,2.32h0A1.29,1.29,0,0,1,350.74,976.88Z"/></g></g><g id="Group_349" data-name="Group 349"><g id="Path_541" data-name="Path 541"><path class="cls-1" d="M102.47,265.39a2,2,0,0,1-1.5-.67C75.85,236.17,83.19,210.08,83.52,209a2,2,0,0,1,3.81,1.14h0c-.07.25-7,25.16,16.62,52a2,2,0,0,1-1.49,3.32Z"/></g></g><g id="Group_350" data-name="Group 350"><g id="Path_542" data-name="Path 542"><path class="cls-1" d="M102.47,374.71a2.51,2.51,0,0,1-2.29-1.46,106.75,106.75,0,0,1,11.44-97.79,2.49,2.49,0,1,1,4.13,2.79,101.61,101.61,0,0,0-11,92.95,2.5,2.5,0,0,1-1.25,3.3A2.55,2.55,0,0,1,102.47,374.71Z"/></g></g><g id="Group_351" data-name="Group 351"><g id="Path_543" data-name="Path 543"><path class="cls-1" d="M266.71,193.61a2,2,0,0,1-1.62-3.14,182.14,182.14,0,0,0,23-82.33v-1.9a2,2,0,0,1,2-2h0a2,2,0,0,1,2,2c.5,46.75-23.41,86.19-23.68,86.58A2,2,0,0,1,266.71,193.61Z"/></g></g><g id="Group_352" data-name="Group 352"><g id="Path_544" data-name="Path 544"><path class="cls-1" d="M207.92,166.67a2.26,2.26,0,0,1-.89-.19,1.59,1.59,0,0,1-1-2,1.12,1.12,0,0,1,.11-.25c8.53-14.62-1.28-48-1.38-48.32a1.72,1.72,0,0,1,1.27-2l.17,0a2.05,2.05,0,0,1,2.43,1.23c.42,1.43,10.29,34.94,1.08,50.69A2.06,2.06,0,0,1,207.92,166.67Z"/></g></g><g id="Group_353" data-name="Group 353"><g id="Path_545" data-name="Path 545"><path class="cls-1" d="M107.28,972.89a2,2,0,0,1-2-2.34h0l30-167.88L235.69,221a2,2,0,0,1,3.94.68L139.2,803.36l-30,167.89A2,2,0,0,1,107.28,972.89Z"/></g></g><g id="Group_354" data-name="Group 354"><g id="Path_546" data-name="Path 546"><path class="cls-1" d="M295.41,412.24a153.34,153.34,0,0,1-49-9.63,2.5,2.5,0,0,1,1.62-4.72c34.69,12,61.08,12.47,78.41,1.49,20.58-13,23.42-38.84,24.78-51.25l.09-.88a2.5,2.5,0,0,1,5,.55l-.1.88c-1.34,12.14-4.47,40.59-27.06,54.91A61.93,61.93,0,0,1,295.41,412.24Z"/></g></g><g id="Group_355" data-name="Group 355"><g id="Path_547" data-name="Path 547"><path class="cls-1" d="M208.94,392l-2-4.16c-.31-.63-31.46-63.64-71.27-73.45a43.66,43.66,0,0,0-37.56,8.47,2.49,2.49,0,0,1-3-4,48.44,48.44,0,0,1,41.71-9.3c17.76,4.38,35.72,18.56,53.4,42.15a242.49,242.49,0,0,1,19.21,30.18c10.49-14.54,55.22-67.48,142.44-54.74a2.5,2.5,0,1,1-.72,4.95c-97.06-14.17-139.45,55.27-139.87,56Z"/></g></g><g id="Group_356" data-name="Group 356"><g id="Path_548" data-name="Path 548"><path class="cls-1" d="M90.29,551.31a2.49,2.49,0,0,1-2-4c28-37.32,24.6-117.82,23.33-148.12l-.18-4.23a5.45,5.45,0,0,1,8.39-5.33,59.4,59.4,0,0,0,59.71-1.53,2.5,2.5,0,0,1,2.87,4.09,64.44,64.44,0,0,1-64.86,1.87,1.61,1.61,0,0,0-1-.27,2.14,2.14,0,0,0-.13,1l.18,4.19c1.29,30.79,4.74,112.57-24.32,151.31A2.5,2.5,0,0,1,90.29,551.31Z"/></g></g><g id="Group_357" data-name="Group 357"><g id="Path_549" data-name="Path 549"><path class="cls-1" d="M336.94,792.05h-.09a2.49,2.49,0,0,1-2.4-2.58h0L335.71,756a68.57,68.57,0,0,1,17.21-39.09l102.22-113a2.49,2.49,0,1,1,3.69,3.34h0l-102.21,113a63.45,63.45,0,0,0-15.94,36.08l-1.25,33.33A2.49,2.49,0,0,1,336.94,792.05Z"/></g></g><g id="Group_358" data-name="Group 358"><g id="Path_550" data-name="Path 550"><path class="cls-1" d="M404.26,474.56a2.5,2.5,0,0,1-2.26-1.43c-.16-.33-15.93-33.68-30.3-74.59-19.37-55.14-27.12-97-23-124.53a2.49,2.49,0,0,1,4.93.73c-9.47,63.81,52.29,194.94,52.92,196.25a2.51,2.51,0,0,1-2.25,3.57Z"/></g></g><g id="Group_359" data-name="Group 359"><g id="Path_551" data-name="Path 551"><path class="cls-1" d="M345.91,661.91a2.49,2.49,0,0,1-2.49-2.49,2.44,2.44,0,0,1,.3-1.18c29.77-55.48,71.38-126.34,100.52-148.88a2.49,2.49,0,0,1,3.05,3.94h0c-28.44,22-69.64,92.23-99.18,147.3A2.49,2.49,0,0,1,345.91,661.91Z"/></g></g><g id="Group_361" data-name="Group 361"><g id="Path_553" data-name="Path 553"><path class="cls-1" d="M251.17,597.54c-127.65,0-161.41-45.2-162.89-47.28a2.5,2.5,0,0,1,4.06-2.9c.41.57,39.93,52.73,192,44.23a2.5,2.5,0,0,1,.27,5Q266.9,597.58,251.17,597.54Z"/></g></g><g id="Group_362" data-name="Group 362"><g id="Path_554" data-name="Path 554"><path class="cls-1" d="M238.85,223.35a16.94,16.94,0,0,1-3.69-.38,21.48,21.48,0,0,1-13.29-10.24,2,2,0,0,1,3.53-1.87h0A17.65,17.65,0,0,0,236,219.08c5,1.06,10.62-.79,16.67-5.49a2,2,0,1,1,2.45,3.15A27,27,0,0,1,238.85,223.35Z"/></g></g><g id="Group_367" data-name="Group 367"><g id="Path_555" data-name="Path 555"><path class="cls-1" d="M134.11,813l-.83-3.25c-8.86-34.64-28.13-81.09-69.55-105.66A97.91,97.91,0,0,0,17.5,689.51h0a2,2,0,0,1,0-4,100.19,100.19,0,0,1,48.11,15c23.2,13.69,54.12,43,70.77,105.05A478.43,478.43,0,0,1,189.17,765c41.47-27.1,74-37,96.68-29.4,17.24,5.77,28.32,21.68,32.94,47.31a2,2,0,0,1-3.93.7c-4.34-24.07-14.53-38.95-30.28-44.21-21.16-7.08-53.4,2.93-93.23,29a471.22,471.22,0,0,0-54.78,42.32Z"/></g></g></g></g></g></svg>