<svg xmlns="http://www.w3.org/2000/svg" viewBox="0 0 965.93 982.15"><defs><style>.cls-1{fill:#111e6c;}.cls-2,.cls-3{fill:#ff6d3b;}.cls-3{font-size:60px;font-family:BeVietnam-SemiBold, Be Vietnam;font-weight:600;}.cls-4{letter-spacing:0.02em;}</style></defs><title>Asset 10</title><g id="Layer_2" data-name="Layer 2"><g id="Layer_1-2" data-name="Layer 1"><g id="Group_368" data-name="Group 368"><g id="Group_345" data-name="Group 345"><g id="Path_537" data-name="Path 537"><path class="cls-1" d="M486.7,107.21C462.06,107.21,441.4,89,427,54.4A236.81,236.81,0,0,1,412.52,2.29L412.21,0H552.39l-.11,2.1A223.8,223.8,0,0,1,542.2,54.26C530.6,88.9,511.42,107.21,486.7,107.21ZM416.68,4c2.5,15,18.84,99.22,70,99.22S547.1,18.52,548.29,4Z"/></g></g><g id="Group_346" data-name="Group 346"><g id="Path_538" data-name="Path 538"><path class="cls-1" d="M628.79,211.54a2.5,2.5,0,0,1-.54-.07,173.84,173.84,0,0,1-54.84-28.84c-24-19.15-54-55.43-43.39-109.16a2,2,0,0,1,3.92.77c-8.22,41.54,8.35,78.41,42,105.26a169,169,0,0,0,53.42,28.11,2,2,0,0,1-.54,3.92Z"/></g></g><g id="Group_347" data-name="Group 347"><g id="Path_539" data-name="Path 539"><path class="cls-1" d="M447.23,982.15c-50.31,0-98.94-3-114.79-13.58-34.94-23.29-78.19-21.64-78.63-21.62l-1.68.08-.36-1.65a660.76,660.76,0,0,1-11.34-138.67c1.52-72.23,16.14-175.32,77-256.18,16.77-22.31,6.63-79.66-4.11-140.4-6.69-37.8-13.6-76.88-15.69-113.65-5.12-90,13.15-93.71,43.4-99.9,3.58-.73,7.28-1.49,11.18-2.43,39.21-12.33,65.71-31.93,78.64-58.21,16.41-33.37,3.33-66.46,3.22-66.79a2,2,0,0,1,3.74-1.38,92.1,92.1,0,0,1-3.38,69.93C421,165,393.69,185.29,353.27,198c-4.09,1-7.83,1.76-11.44,2.5-29.1,5.95-45.13,9.23-40.21,95.76,2.07,36.54,9,75.5,15.62,113.19,11.37,64.28,21.2,119.79,3.37,143.49-60.22,80-74.68,182.22-76.2,253.86a665.39,665.39,0,0,0,10.92,136.14c8.51,0,47.26,1,79.31,22.32,34.95,23.3,246.08,7.81,248.21,7.65a2,2,0,0,1,.29,4C578.25,977.25,511.39,982.15,447.23,982.15Z"/></g></g><g id="Group_348" data-name="Group 348"><g id="Path_540" data-name="Path 540"><path class="cls-1" d="M591,976.88a2,2,0,0,1-2-1.63c-.54-3-54-296.29-64.3-372.78-4.37-32.39,16.69-88.94,37-143.62C576.5,419.3,590.41,382,592,359.73A156.75,156.75,0,0,0,590,329.52c-4.29-33.12-9.64-74.32,37.41-121.39l.94-.94,1.23.51c24.16,9.94,40.8,84.61,56.91,156.8,10.44,46.84,20.31,91.09,31.67,116.86,15.29,34.68,14.45,59.26,11,73.76a51.74,51.74,0,0,1-11.47,23.81,2,2,0,0,1-2.82-2.81h0c.28-.28,27.78-29.17-.42-93.15C703,456.84,693,412.41,682.55,365.38,667.69,298.71,650.87,223.3,629.19,212,584.6,257.2,589.75,297,593.9,329A159.55,159.55,0,0,1,596,360c-1.65,22.79-15.65,60.4-30.49,100.23C546.24,512,524.42,570.54,528.65,602c10.29,76.4,63.74,369.64,64.27,372.59a2,2,0,0,1-1.6,2.32h0A1.28,1.28,0,0,1,591,976.88Z"/></g></g><g id="Group_349" data-name="Group 349"><g id="Path_541" data-name="Path 541"><path class="cls-1" d="M342.71,265.39a2,2,0,0,1-1.5-.67c-25.12-28.55-17.78-54.64-17.45-55.74a2,2,0,0,1,3.81,1.14h0c-.07.25-7,25.16,16.62,52a2,2,0,0,1-1.49,3.32Z"/></g></g><g id="Group_350" data-name="Group 350"><g id="Path_542" data-name="Path 542"><path class="cls-1" d="M342.71,374.71a2.48,2.48,0,0,1-2.28-1.46,106.72,106.72,0,0,1,11.43-97.79,2.49,2.49,0,1,1,4.13,2.79,101.61,101.61,0,0,0-11,92.95,2.49,2.49,0,0,1-1.25,3.3A2.55,2.55,0,0,1,342.71,374.71Z"/></g></g><g id="Group_351" data-name="Group 351"><g id="Path_543" data-name="Path 543"><path class="cls-1" d="M507,193.61a2,2,0,0,1-1.62-3.14,182.14,182.14,0,0,0,22.95-82.33v-1.9a2,2,0,0,1,2-2h0a2,2,0,0,1,2,2c.5,46.75-23.41,86.19-23.68,86.58A2,2,0,0,1,507,193.61Z"/></g></g><g id="Group_352" data-name="Group 352"><g id="Path_544" data-name="Path 544"><path class="cls-1" d="M448.16,166.67a2.26,2.26,0,0,1-.89-.19,1.59,1.59,0,0,1-1-2,1.12,1.12,0,0,1,.11-.25c8.53-14.62-1.28-48-1.38-48.32a1.72,1.72,0,0,1,1.27-2l.17,0a2.05,2.05,0,0,1,2.43,1.23c.42,1.43,10.29,34.94,1.08,50.69A2.06,2.06,0,0,1,448.16,166.67Z"/></g></g><g id="Group_353" data-name="Group 353"><g id="Path_545" data-name="Path 545"><path class="cls-1" d="M347.52,972.89a2,2,0,0,1-2-2.34h0l30-167.88L475.93,221a2,2,0,1,1,3.94.68L379.44,803.36l-30,167.89A2,2,0,0,1,347.52,972.89Z"/></g></g><g id="Group_354" data-name="Group 354"><g id="Path_546" data-name="Path 546"><path class="cls-1" d="M535.65,412.24a153.34,153.34,0,0,1-49-9.63,2.5,2.5,0,0,1,1.62-4.72c34.69,12,61.08,12.47,78.41,1.49,20.58-13,23.42-38.84,24.78-51.25l.09-.88a2.5,2.5,0,0,1,5,.55l-.1.88c-1.34,12.14-4.47,40.59-27.06,54.91A61.93,61.93,0,0,1,535.65,412.24Z"/></g></g><g id="Group_355" data-name="Group 355"><g id="Path_547" data-name="Path 547"><path class="cls-1" d="M449.18,392l-2-4.16c-.31-.63-31.46-63.64-71.27-73.45a43.63,43.63,0,0,0-37.55,8.47,2.5,2.5,0,0,1-3-4,48.44,48.44,0,0,1,41.71-9.3c17.76,4.38,35.72,18.56,53.4,42.15a242.49,242.49,0,0,1,19.21,30.18c10.49-14.54,55.22-67.48,142.44-54.74a2.5,2.5,0,1,1-.72,4.95C494.35,317.91,452,387.35,451.54,388Z"/></g></g><g id="Group_356" data-name="Group 356"><g id="Path_548" data-name="Path 548"><path class="cls-1" d="M330.53,551.31a2.49,2.49,0,0,1-2-4c28-37.32,24.6-117.82,23.33-148.12l-.18-4.23a5.45,5.45,0,0,1,8.39-5.33,59.4,59.4,0,0,0,59.71-1.53,2.5,2.5,0,0,1,2.87,4.09,64.44,64.44,0,0,1-64.86,1.87,1.61,1.61,0,0,0-1-.27,2.14,2.14,0,0,0-.13,1l.18,4.19c1.29,30.79,4.74,112.57-24.32,151.31A2.5,2.5,0,0,1,330.53,551.31Z"/></g></g><g id="Group_357" data-name="Group 357"><g id="Path_549" data-name="Path 549"><path class="cls-1" d="M577.18,792.05h-.09a2.49,2.49,0,0,1-2.4-2.58h0L576,756a68.57,68.57,0,0,1,17.21-39.09l102.22-113a2.49,2.49,0,1,1,3.69,3.34h0l-102.21,113a63.38,63.38,0,0,0-15.93,36.08l-1.25,33.33A2.51,2.51,0,0,1,577.18,792.05Z"/></g></g><g id="Group_358" data-name="Group 358"><g id="Path_550" data-name="Path 550"><path class="cls-1" d="M644.5,474.56a2.5,2.5,0,0,1-2.26-1.43c-.16-.33-15.93-33.68-30.3-74.59-19.37-55.14-27.12-97-23-124.53a2.49,2.49,0,0,1,4.93.73c-9.47,63.81,52.29,194.94,52.92,196.25a2.51,2.51,0,0,1-2.25,3.57Z"/></g></g><g id="Group_359" data-name="Group 359"><g id="Path_551" data-name="Path 551"><path class="cls-1" d="M586.15,661.91a2.49,2.49,0,0,1-2.49-2.49,2.44,2.44,0,0,1,.3-1.18c29.77-55.48,71.38-126.34,100.52-148.88a2.49,2.49,0,0,1,3,3.94h0c-28.44,22-69.64,92.23-99.18,147.3A2.49,2.49,0,0,1,586.15,661.91Z"/></g></g><g id="Group_361" data-name="Group 361"><g id="Path_553" data-name="Path 553"><path class="cls-1" d="M491.41,597.54c-127.65,0-161.41-45.2-162.89-47.28a2.5,2.5,0,0,1,4.06-2.9c.41.57,39.93,52.73,192,44.23a2.5,2.5,0,0,1,.27,5Q507.13,597.58,491.41,597.54Z"/></g></g><g id="Group_362" data-name="Group 362"><g id="Path_554" data-name="Path 554"><path class="cls-1" d="M479.09,223.35a16.94,16.94,0,0,1-3.69-.38,21.48,21.48,0,0,1-13.29-10.24,2,2,0,0,1,3.53-1.87h0a17.65,17.65,0,0,0,10.63,8.22c5,1.06,10.62-.79,16.67-5.49a2,2,0,1,1,2.45,3.15A27,27,0,0,1,479.09,223.35Z"/></g></g><g id="Group_367" data-name="Group 367"><g id="Path_555" data-name="Path 555"><path class="cls-1" d="M374.35,813l-.83-3.25c-8.86-34.64-28.13-81.09-69.55-105.66a97.91,97.91,0,0,0-46.23-14.57h0a2,2,0,0,1,0-4,100.19,100.19,0,0,1,48.11,15c23.2,13.69,54.12,43,70.77,105.05A478.43,478.43,0,0,1,429.41,765c41.47-27.1,74-37,96.68-29.4,17.24,5.77,28.32,21.68,32.94,47.31a2,2,0,0,1-3.93.7c-4.34-24.07-14.53-38.95-30.28-44.21-21.16-7.08-53.4,2.93-93.23,29a471.22,471.22,0,0,0-54.78,42.32Z"/></g></g></g><g id="Group_363" data-name="Group 363"><g id="Path_530" data-name="Path 530"><path class="cls-2" d="M580,379.68h0l-22.87-.11a1.91,1.91,0,1,1,0-3.81h0l22.87.11a1.91,1.91,0,1,1,0,3.81Zm-34.3-.16h0l-22.87-.11a1.91,1.91,0,1,1,0-3.81h0l22.87.11a1.91,1.91,0,0,1,0,3.81Zm-34.29-.16h0l-22.87-.11a1.91,1.91,0,1,1,0-3.81h0l22.86.11a1.91,1.91,0,0,1,0,3.81Zm-34.31-.17h0l-22.86-.1a1.91,1.91,0,1,1,0-3.81h0l22.86.1a1.91,1.91,0,1,1,0,3.81Zm-34.3-.16h0l-22.86-.1a1.91,1.91,0,0,1,0-3.82h0l22.86.11a1.91,1.91,0,1,1,0,3.81Zm-34.3-.16h0l-22.86-.11a1.89,1.89,0,0,1-1.9-1.91,1.91,1.91,0,0,1,1.91-1.9h0l22.87.11a1.91,1.91,0,0,1,0,3.81Zm-34.3-.16h0l-22.86-.11a1.91,1.91,0,0,1,0-3.81h0l22.87.11a1.91,1.91,0,0,1,0,3.81Z"/></g><g id="Path_531" data-name="Path 531"><path class="cls-2" d="M589.13,379.56a1.91,1.91,0,0,1-1.37-3.24l62.17-63.8H963.69a1.91,1.91,0,0,1,0,3.82H651.54l-61,62.64A1.87,1.87,0,0,1,589.13,379.56Z"/></g></g><g id="Group_364" data-name="Group 364"><g id="Path_530-2" data-name="Path 530-2"><path class="cls-2" d="M339,549.36a1.91,1.91,0,0,1,0-3.82l22.86-.12h0a1.91,1.91,0,1,1,0,3.81l-22.86.13Zm34.3-.2a1.91,1.91,0,0,1,0-3.81l22.87-.13h0a1.91,1.91,0,0,1,0,3.82l-22.86.12Zm34.3-.19a1.91,1.91,0,1,1,0-3.81l22.86-.13a2,2,0,0,1,1.92,1.9,1.89,1.89,0,0,1-1.89,1.91l-22.87.13Zm34.3-.19a1.91,1.91,0,1,1,0-3.81l22.86-.13h0a1.91,1.91,0,0,1,0,3.81l-22.87.13Zm34.3-.19a1.91,1.91,0,0,1,0-3.81l22.86-.13a1.93,1.93,0,0,1,1.92,1.89,1.9,1.9,0,0,1-1.89,1.92l-22.87.13Zm34.3-.19a1.91,1.91,0,0,1,0-3.81l22.86-.13h0a1.91,1.91,0,0,1,0,3.81l-22.87.13Z"/></g><g id="Path_531-2" data-name="Path 531-2"><path class="cls-2" d="M333.07,549.68H210.22L167.33,506H2.3a1.91,1.91,0,1,1,0-3.81H168.93l42.89,43.66H333.07a1.91,1.91,0,1,1,0,3.81Z"/></g></g><g id="Group_365" data-name="Group 365"><g id="Path_531-3" data-name="Path 531-3"><path class="cls-2" d="M549.08,812.64a1.9,1.9,0,0,1-1-3.5l77.42-50.62H878a1.91,1.91,0,1,1,0,3.81H626.6l-76.48,50A1.89,1.89,0,0,1,549.08,812.64Z"/></g><g id="Path_530-3" data-name="Path 530-3"><path class="cls-2" d="M541,812.59h0l-22.87-.15a1.91,1.91,0,0,1,0-3.81h0l22.86.15a1.91,1.91,0,1,1,0,3.81Zm-34.3-.22h0l-22.87-.15a1.91,1.91,0,0,1,0-3.81h0l22.86.14a1.91,1.91,0,0,1,0,3.82Zm-34.3-.23h0L449.53,812a1.91,1.91,0,0,1,0-3.81h0l22.86.15a1.91,1.91,0,1,1,0,3.81Zm-34.3-.22h0l-22.87-.15a1.91,1.91,0,0,1,0-3.81h0l22.86.15a1.91,1.91,0,0,1,0,3.81Zm-34.3-.23h0l-22.87-.15a1.91,1.91,0,0,1,0-3.81h0l22.86.15a1.91,1.91,0,1,1,0,3.81Zm-34.3-.22h0l-22.87-.15a1.91,1.91,0,0,1,0-3.81h0l22.86.15a1.91,1.91,0,1,1,0,3.81Zm-34.3-.23h0l-22.87-.15a1.91,1.91,0,0,1,0-3.81h0l22.86.15a1.91,1.91,0,1,1,0,3.81Zm-34.3-.22h0L278,810.87a1.91,1.91,0,0,1,0-3.81h0l22.86.15a1.91,1.91,0,0,1,0,3.81Zm-34.3-.22h0l-22.87-.15a1.91,1.91,0,0,1,0-3.81h0l22.86.14a1.91,1.91,0,0,1,0,3.82Z"/></g></g><text class="cls-3" transform="translate(896.99 301.49)"><tspan class="cls-4">8</tspan><tspan x="37.68" y="0">7</tspan></text><text class="cls-3" transform="translate(809.93 748.49)">92</text><text class="cls-3" transform="translate(0 488.4)">70</text></g></g></svg>